<svg xmlns="http://www.w3.org/2000/svg" xmlns:xlink="http://www.w3.org/1999/xlink" viewBox="0 0 1599.18 566.9"><defs><style>.cls-1,.cls-16,.cls-18,.cls-2,.cls-27,.cls-29,.cls-30,.cls-31,.cls-32,.cls-33,.cls-34,.cls-39,.cls-43,.cls-44,.cls-45,.cls-46,.cls-47,.cls-48,.cls-49,.cls-52,.cls-55,.cls-9{fill:none;}.cls-1,.cls-44,.cls-48{stroke:#ccd7e2;}.cls-1,.cls-2,.cls-33,.cls-36,.cls-43,.cls-44,.cls-46,.cls-47,.cls-48,.cls-49,.cls-52,.cls-55,.cls-9{stroke-linecap:round;}.cls-1,.cls-12,.cls-13,.cls-16,.cls-2,.cls-20,.cls-21,.cls-24,.cls-27,.cls-29,.cls-30,.cls-31,.cls-32,.cls-36,.cls-39,.cls-41,.cls-42,.cls-43,.cls-44,.cls-45,.cls-46,.cls-47,.cls-48,.cls-49,.cls-50,.cls-52,.cls-54,.cls-56,.cls-57,.cls-6,.cls-7,.cls-9{stroke-miterlimit:10;}.cls-1,.cls-10,.cls-11,.cls-12,.cls-17,.cls-2,.cls-20,.cls-21,.cls-6,.cls-7{stroke-width:0.5px;}.cls-2{stroke:#e5ebf1;}.cls-3,.cls-6{fill:#f4f6fa;}.cls-10,.cls-11,.cls-12,.cls-17,.cls-20,.cls-21,.cls-22,.cls-23,.cls-24,.cls-25,.cls-26,.cls-28,.cls-3,.cls-31,.cls-36,.cls-37,.cls-4,.cls-41,.cls-42,.cls-47,.cls-5,.cls-50,.cls-51,.cls-53,.cls-54,.cls-56,.cls-6,.cls-7{isolation:isolate;}.cls-4{fill:#dfe6ed;}.cls-5,.cls-50{fill:#ccd7e2;}.cls-10,.cls-11,.cls-12,.cls-17,.cls-20,.cls-21,.cls-6,.cls-7,.cls-9{stroke:#7f848c;}.cls-7{fill:url(#Безымянный_градиент_5);}.cls-10,.cls-8{fill:#7f848c;}.cls-9{stroke-width:2px;}.cls-10,.cls-11,.cls-17,.cls-55{stroke-linejoin:round;}.cls-11{fill:#b2b6c1;}.cls-12{fill:#cdd2dd;}.cls-13,.cls-35,.cls-38,.cls-53,.cls-57{fill:#fff;}.cls-13,.cls-16{stroke:#fb689f;}.cls-14{fill:#fee0eb;}.cls-15{fill:#c46990;}.cls-17{fill:url(#Безымянный_градиент_5-2);}.cls-19,.cls-28{fill:#1b222f;}.cls-20{fill:#e9eff5;}.cls-21{fill:#aab3c1;}.cls-22{fill:#eaeff6;}.cls-23,.cls-54{fill:#8e0035;}.cls-23,.cls-24,.cls-25,.cls-31,.cls-33,.cls-34,.cls-35,.cls-36,.cls-39,.cls-41,.cls-42,.cls-43,.cls-50,.cls-52,.cls-54,.cls-55,.cls-56,.cls-57{stroke:#1b222f;}.cls-24,.cls-36,.cls-37,.cls-40{fill:#fec2d7;}.cls-25,.cls-26,.cls-42{fill:#fb70a4;}.cls-27{stroke:#8e0035;}.cls-29{stroke:#fff;}.cls-30,.cls-47,.cls-49{stroke:#9ea8bd;}.cls-32{stroke:#000;}.cls-33,.cls-34,.cls-35,.cls-52,.cls-57{stroke-width:0.75px;}.cls-41,.cls-51{fill:#9ea8bd;}.cls-45,.cls-46{stroke:#6c7388;}.cls-48{stroke-width:4px;}.cls-56{fill:#6c7388;}</style><linearGradient id="Безымянный_градиент_5" x1="419.64" y1="422.91" x2="479.66" y2="422.91" gradientUnits="userSpaceOnUse"><stop offset="0" stop-color="#b3b7c2"/><stop offset="1" stop-color="#fdfefe"/></linearGradient><linearGradient id="Безымянный_градиент_5-2" x1="454.49" y1="437.06" x2="492.37" y2="437.06" xlink:href="#Безымянный_градиент_5"/></defs><g id="Слой_48" data-name="Слой 48"><path class="cls-1" d="M1597.25,105.2l-147.42,3.28A3.57,3.57,0,0,1,1446,105V22.59a4.27,4.27,0,0,1,3.83-4L1597.23,2.48c2.78-.31,5,1.29,5,3.57l0,94.84C1602.28,103.17,1600,105.1,1597.25,105.2Z" transform="translate(-3.38 -2.19)"/><path class="cls-1" d="M1597.26,213.75l-146.71-5.38a3.92,3.92,0,0,1-3.82-3.77l-.73-87.32a3.85,3.85,0,0,1,3.83-3.71L1597.25,111c2.77-.09,5,1.69,5,4v94.84C1602.29,212.12,1600,213.87,1597.26,213.75Z" transform="translate(-3.38 -2.19)"/><path class="cls-1" d="M1597.36,322.3l-146.67-19.09a4.42,4.42,0,0,1-3.89-4.15l-.07-83.87a3.51,3.51,0,0,1,3.88-3.42l146.73,7.74c2.73.17,5,2.16,5,4.44V318.8C1602.31,321.08,1600.09,322.65,1597.36,322.3Z" transform="translate(-3.38 -2.19)"/><path class="cls-1" d="M1596.46,430.69,1451,400.49a4.81,4.81,0,0,1-3.83-4.39l-1-84.49a3.2,3.2,0,0,1,3.83-3.1L1596.44,328c2.77.36,5,2.51,5,4.79v94.8C1601.48,429.88,1599.23,431.26,1596.46,430.69Z" transform="translate(-3.38 -2.19)"/><path class="cls-1" d="M1438.84,108.47l-132.33,5.24a3,3,0,0,1-3-3.07l-1.06-72.7a3.52,3.52,0,0,1,3-3.5l133.38-15a3.24,3.24,0,0,1,3.78,3.16v82.19A3.85,3.85,0,0,1,1438.84,108.47Z" transform="translate(-3.38 -2.19)"/><path class="cls-1" d="M1439.57,207.48,1306.51,201a3.24,3.24,0,0,1-3-3.3V121.46a3.21,3.21,0,0,1,3-3.27l132.33-4.68a3.56,3.56,0,0,1,3.78,3.47l.73,87.09A3.5,3.5,0,0,1,1439.57,207.48Z" transform="translate(-3.38 -2.19)"/><path class="cls-1" d="M1439.64,301.73,1306.2,283.11a3.59,3.59,0,0,1-3-3.55l.31-71a2.9,2.9,0,0,1,3-3l133.06,7a3.92,3.92,0,0,1,3.78,3.77l.07,82.33A3.18,3.18,0,0,1,1439.64,301.73Z" transform="translate(-3.38 -2.19)"/><path class="cls-1" d="M1440,397.82l-133.37-28.25a4,4,0,0,1-3-3.79l-.93-75.46a2.65,2.65,0,0,1,3-2.79L1439,306.69a4.33,4.33,0,0,1,3.78,4.07l1,84.26A2.92,2.92,0,0,1,1440,397.82Z" transform="translate(-3.38 -2.19)"/><path class="cls-2" d="M1298.11,114l-117.55,5.55a2.52,2.52,0,0,1-2.38-2.75v-65a3,3,0,0,1,2.38-3.1l116.49-13.28a2.68,2.68,0,0,1,3,2.83l1,72.53A3.19,3.19,0,0,1,1298.11,114Z" transform="translate(-3.38 -2.19)"/><path class="cls-2" d="M1298.11,200.66l-117.55-6.2a2.78,2.78,0,0,1-2.38-2.94v-65a2.73,2.73,0,0,1,2.38-2.91l117.55-5.11a3,3,0,0,1,2.94,3.07v76.1A2.9,2.9,0,0,1,1298.11,200.66Z" transform="translate(-3.38 -2.19)"/><path class="cls-2" d="M1297.8,282.05l-117.24-12.67a3.08,3.08,0,0,1-2.38-3.14v-65a2.48,2.48,0,0,1,2.38-2.72l117.55,6.63a3.26,3.26,0,0,1,3,3.31l-.31,70.84A2.64,2.64,0,0,1,1297.8,282.05Z" transform="translate(-3.38 -2.19)"/><path class="cls-2" d="M1298.25,367.83l-118.09-23.61a3.41,3.41,0,0,1-2.38-3.33v-65c0-1.57,1.06-2.7,2.38-2.53l117.15,13.1a3.59,3.59,0,0,1,2.94,3.55l.94,75.29A2.41,2.41,0,0,1,1298.25,367.83Z" transform="translate(-3.38 -2.19)"/><path class="cls-1" d="M8.67,105.8l146.63,3.28a3.56,3.56,0,0,0,3.81-3.46V23.19a4.26,4.26,0,0,0-3.8-4L8.69,3.08c-2.76-.31-5,1.29-5,3.58v94.83C3.67,103.78,5.91,105.71,8.67,105.8Z" transform="translate(-3.38 -2.19)"/><path class="cls-1" d="M8.65,214.35,154.58,209a3.92,3.92,0,0,0,3.81-3.77l.71-87.32a3.85,3.85,0,0,0-3.8-3.71L8.67,111.62c-2.76-.09-5,1.7-5,4l0,94.84C3.65,212.73,5.9,214.48,8.65,214.35Z" transform="translate(-3.38 -2.19)"/><path class="cls-1" d="M8.56,322.9l145.88-19.08a4.42,4.42,0,0,0,3.87-4.15l.07-83.88a3.49,3.49,0,0,0-3.86-3.41L8.58,220.11c-2.72.17-4.93,2.16-4.93,4.44l0,94.85C3.63,321.69,5.84,323.25,8.56,322.9Z" transform="translate(-3.38 -2.19)"/><path class="cls-1" d="M9.46,431.29l144.69-30.2a4.8,4.8,0,0,0,3.8-4.38l1-84.5a3.16,3.16,0,0,0-3.8-3.09L9.47,328.61c-2.75.36-5,2.51-5,4.79v94.8" transform="translate(-3.38 -2.19)"/><path class="cls-1" d="M166.23,109.07l131.62,5.24a2.94,2.94,0,0,0,3-3.07l1.05-72.7a3.51,3.51,0,0,0-3-3.5L166.23,20a3.22,3.22,0,0,0-3.76,3.16v82.19A3.83,3.83,0,0,0,166.23,109.07Z" transform="translate(-3.38 -2.19)"/><path class="cls-1" d="M165.51,208.08l132.34-6.44a3.23,3.23,0,0,0,3-3.3V122.06a3.18,3.18,0,0,0-3-3.26l-131.62-4.68a3.53,3.53,0,0,0-3.76,3.46l-.72,87.09A3.47,3.47,0,0,0,165.51,208.08Z" transform="translate(-3.38 -2.19)"/><path class="cls-1" d="M165.43,302.33l132.73-18.62a3.58,3.58,0,0,0,3-3.54l-.31-71a2.89,2.89,0,0,0-3-3l-132.34,7a3.9,3.9,0,0,0-3.76,3.77l-.08,82.32A3.18,3.18,0,0,0,165.43,302.33Z" transform="translate(-3.38 -2.19)"/><path class="cls-1" d="M165.07,398.43l132.65-28.26a4,4,0,0,0,3-3.79l.93-75.46a2.63,2.63,0,0,0-3-2.78L166.06,307.29a4.33,4.33,0,0,0-3.76,4.07l-1,84.26A2.91,2.91,0,0,0,165.07,398.43Z" transform="translate(-3.38 -2.19)"/><path class="cls-2" d="M306.2,114.61l116.93,5.54a2.51,2.51,0,0,0,2.36-2.75v-65a3,3,0,0,0-2.36-3.1L307.25,36a2.67,2.67,0,0,0-2.92,2.83l-1.05,72.53A3.19,3.19,0,0,0,306.2,114.61Z" transform="translate(-3.38 -2.19)"/><path class="cls-2" d="M306.2,201.26l116.93-6.2a2.76,2.76,0,0,0,2.36-2.94v-65a2.72,2.72,0,0,0-2.36-2.91L306.2,119.06a2.94,2.94,0,0,0-2.92,3.07v76.1A2.89,2.89,0,0,0,306.2,201.26Z" transform="translate(-3.38 -2.19)"/><path class="cls-2" d="M306.51,282.66,423.13,270a3.06,3.06,0,0,0,2.36-3.14v-65a2.47,2.47,0,0,0-2.36-2.72L306.2,205.72a3.25,3.25,0,0,0-2.93,3.3l.31,70.84A2.64,2.64,0,0,0,306.51,282.66Z" transform="translate(-3.38 -2.19)"/><path class="cls-2" d="M306.07,368.43l117.45-23.61a3.39,3.39,0,0,0,2.37-3.33v-65c0-1.57-1.06-2.7-2.37-2.53L307,287a3.59,3.59,0,0,0-2.93,3.55l-.93,75.29A2.4,2.4,0,0,0,306.07,368.43Z" transform="translate(-3.38 -2.19)"/></g><g id="Слой_47" data-name="Слой 47"><path class="cls-3" d="M819,397.37l-29.09,1.77S688.65,397.08,668.18,401,495,410.41,473.09,411.49c-10.22.5-108.92,8.41-131.2,10.78S209,436.41,204.65,451s-.87,26.67-2.61,35.44,11.37,57.09,43.55,60.58c45.92,5,330-.08,337.93,0,52,.58,648.86,4.79,683.27.58,21.41-2.63,141.55-37.2,119.34-74s-262.51-62-271.05-61.79-107-8.44-115.68-9.1S828.93,397.37,819,397.37Z" transform="translate(-3.38 -2.19)"/><path class="cls-4" d="M1168.61,467.36a37.89,37.89,0,0,1-11.74,2.75c-7,.56-36.17,6.82-40.24,11.47-3.52,4-6.65,14,12.24,20.39,15.71,5.31,17.32.56,27.38,2.52s33.88,11.73,54.84,4.18,14.66-22.7,16.9-30.11,10.76-10.13,33.12-9,28,1.26,26.55-11.11-64.22-18.1-69.08-17.63c-8.88.85-36.56-.32-41,15.33S1168.61,467.36,1168.61,467.36Z" transform="translate(-3.38 -2.19)"/><path class="cls-4" d="M1039.05,449.52s17.37,1,19.81,1.31,14,2.73,11.58,7.61-14.32,11.27-21,12.34-8.24,3.39-20.88,2.23-20.65,5.95-24.42,9.71-15,15.95-32.41,19.91-32.86.92-37.46-.61S894,484.61,888.81,487.37s.61,5.66-2.74,9.55-16.66,11.2-31.8,12.42-61.76,2.74-65.72,3.66-50.81,2.37-61.78-3.42-19,1.54-23.25,4A100.94,100.94,0,0,1,669.7,526.1c-11.06,1.95-69.26,6.09-125.6-8.23S507,491.36,508.18,489.68,530.72,476.48,539,478s15.54-2.83,50.28-.65,43.07.34,48.51.65a254.49,254.49,0,0,1,58.16,11.53c18.36,6.06,23,1.47,28.34-4.09,11.88-12.3,13.19-13.42,29.56-17.5,18.59-4.63,66.43-.69,70.7-1.56s21.44-.28,29.76-6.21,27.35-9.6,33.84-9,34.53,1.35,54.64,8.12C959,464.7,1039.05,449.52,1039.05,449.52Z" transform="translate(-3.38 -2.19)"/><path class="cls-4" d="M420.69,427.14s-5,1.21-5.19,4-1.3,5.12,0,6.53,6.23,7.07,28.85,6.62l5.3,3.65s21.85,3,38.29-2.38v-6.79Z" transform="translate(-3.38 -2.19)"/><path class="cls-4" d="M358.7,450.5c.35-.08,13.33,1.3,16.58,2.16s13.4,2.84,18.16,6.5,10.81,7.17,11.68,9.85,2.65,7.61-12.19,12.8c-12.69,4.44-23-.17-37.28,2.42s-16.27,4.37-23,4.54c-6.2.16-31.06-6.63-37-9.21-2.76-1.19-9.88-5.22-12-11.39s-5.94-6.8-1.12-12.74c4.4-5.43,21.41-5.36,26.17-7.31s24.86-1.95,29.19-.87S355.75,451.15,358.7,450.5Z" transform="translate(-3.38 -2.19)"/><path class="cls-5" d="M941.27,470.78s-13.49,2.81-16.68.94-8.19-7.32-11.62-7.17c-1.84.08-16.08-1.41-30.52-.5-12.55.79-25.31,3.66-29.55,7.5-8,7.23,6,9.74,11.86,10.75s44.07,3.85,49,1.36,4.53-3.82,7-4c4.57-.41,6.6,12.62,11.73,16.11,6.59,4.5,16.36,7,35.17,3,23.24-5,37.47-18.12,35.6-23.72S941.27,470.78,941.27,470.78Z" transform="translate(-3.38 -2.19)"/><path class="cls-5" d="M1051.87,464.14c-.36,1.74-6.85,3.22-15.29,3.22s-15.53-.93-15-2.64c1-3.45,7.72-3.6,16-5C1046.67,458.1,1052.51,461.11,1051.87,464.14Z" transform="translate(-3.38 -2.19)"/><path class="cls-5" d="M827,478.42s-18.27-2.7-20.81-3.65-17-2.86-20.33-1.75-13.66.48-15.09,1.27-23.51,4.75-28.12,8-8.58,7.24-6.19,11.85,9.53,10.32,15.25,10.64,16.36,2.38,31.61.79,23.19-3.35,28.43-4.69,34.37,1.67,38.15.88,18.62,0,19.51-8.74c.63-6.23-21-9.78-24.78-10.73S827,478.42,827,478.42Z" transform="translate(-3.38 -2.19)"/><path class="cls-5" d="M659.68,488.46s12.65,1.68,16.43,4.4,11.11,6.71,11.94,11.74,1.89,11.11-10.69,14.88S646.13,522,636.07,521s-34-2.1-37.3-2.52-36-4-39.41-4.82-21.28-4.4-25.42-5.24-11.26-4.82-12.31-11.11,3.23-6.64,5.53-8.09,12.92-7.87,30.32-7.75,33.65,1.37,37.72,1.71c7.13.61,10.48,2.81,14.88,2.67s14.47-.55,18-.41S658.13,490.54,659.68,488.46Z" transform="translate(-3.38 -2.19)"/></g><g id="Слой_40" data-name="Слой 40"><ellipse class="cls-6" cx="446.27" cy="405.25" rx="30.01" ry="6.99"/><path class="cls-7" d="M479.66,407.44v23.95c0,3.86-13.43,7-30,7a116.44,116.44,0,0,1-13.51-.75c-.91-.1-1.79-.22-2.64-.35-8.33-1.24-13.86-3.41-13.86-5.89V407.44c0,1.28,1.48,2.48,4.05,3.5.66.27,1.4.53,2.2.77a54.57,54.57,0,0,0,7.39,1.59c.76.12,1.56.22,2.37.33,2.5.3,5.21.53,8.07.67h0l2.34.08c1.17,0,2.37.05,3.58.05,11.17,0,20.92-1.42,26.08-3.54a12.59,12.59,0,0,0,2.08-1C479,409.11,479.66,408.29,479.66,407.44Z" transform="translate(-3.38 -2.19)"/><g id="Слой_42" data-name="Слой 42"><path class="cls-8" d="M425.89,411.71a1,1,0,0,1-.41.49l-5.14,3.08a1,1,0,0,1-.51.14l-.19,0v-2l4.05-2.43C424.35,411.21,425.09,411.47,425.89,411.71Z" transform="translate(-3.38 -2.19)"/><line class="cls-9" x1="421.58" y1="417.03" x2="430.15" y2="425.39"/><path class="cls-8" d="M435.65,413.63a1,1,0,0,1-.62,1.16l-7.09,2.63a1,1,0,0,1-.34.06,1,1,0,0,1-.35-1.94l6-2.24Z" transform="translate(-3.38 -2.19)"/><path class="cls-8" d="M446.07,414.38a1,1,0,0,1-.32.79l-8.46,7.54a1,1,0,0,1-1.41-.08,1,1,0,0,1,.08-1.41l7.76-6.92h0Z" transform="translate(-3.38 -2.19)"/><line class="cls-9" x1="473.24" y1="411.66" x2="465.01" y2="414.65"/><path class="cls-8" d="M479.66,412.66l-.18,0a1.1,1.1,0,0,1-.4-.08l-2.86-1.26a.94.94,0,0,1-.49-.45l2.08-1,1.85.81Z" transform="translate(-3.38 -2.19)"/><path class="cls-8" d="M479.66,424.18a.57.57,0,0,1-.14-.13l-4.46-5.21a1,1,0,1,1,1.52-1.3l3.08,3.6Z" transform="translate(-3.38 -2.19)"/><line class="cls-9" x1="435.07" y1="426.65" x2="424.78" y2="429.72"/><path class="cls-8" d="M419.64,430.5h.18a1.15,1.15,0,0,0,.26,0c2.35-.62,5-1.28,5.41-1.35a1,1,0,0,0-.07-2c-.14,0-.47,0-5.78,1.38Z" transform="translate(-3.38 -2.19)"/><path class="cls-8" d="M423.89,425a1,1,0,0,1-1,.83l-.18,0-3.09-.55v-2l3.45.61A1,1,0,0,1,423.89,425Z" transform="translate(-3.38 -2.19)"/><path class="cls-8" d="M441.51,433l-5.37,4.62c-.91-.1-1.79-.22-2.64-.35l.07-.07,6.63-5.72a1,1,0,0,1,1.31,1.52Z" transform="translate(-3.38 -2.19)"/></g></g><g id="Слой_41" data-name="Слой 41"><path class="cls-10" d="M474.52,420.39l-.29,8.45s-9.63,4.86-25.18,1.48l-12-7.41C452.21,424.74,474.52,420.39,474.52,420.39Z" transform="translate(-3.38 -2.19)"/><path class="cls-11" d="M492.37,431.1a55.3,55.3,0,0,1-9.71,2.33l-8.43-4.59.29-8.45Z" transform="translate(-3.38 -2.19)"/><path class="cls-12" d="M482.66,433.43c-13.55,2.1-27.87.44-27.87.44l-5.74-3.55c15.55,3.38,25.18-1.48,25.18-1.48Z" transform="translate(-3.38 -2.19)"/><circle class="cls-13" cx="454.88" cy="422.62" r="13.92"/><ellipse class="cls-14" cx="454.78" cy="422.49" rx="9.66" ry="9.49"/><path class="cls-14" d="M448.51,424.43s-3.54-2.07-3.72-2.67-.33,6.78-.33,6.78,9.36,5.2,11.29,4.89" transform="translate(-3.38 -2.19)"/><path class="cls-14" d="M465.11,430.72l.17,0c.8.2,4.14,1,4.73.8s-3.75,4.29-3.75,4.29L455,433.13" transform="translate(-3.38 -2.19)"/><path class="cls-15" d="M458.57,417.29a10.87,10.87,0,0,0,2.64,5,10.71,10.71,0,0,0,4.69,2.57,13.76,13.76,0,0,0-5.19,2.5c-1.84,1.66-2.36,4.9-2.36,4.9a17.11,17.11,0,0,0-2.68-4.71,12.17,12.17,0,0,0-4.8-2.77,11.12,11.12,0,0,0,4.68-2.55A9.37,9.37,0,0,0,458.57,417.29Z" transform="translate(-3.38 -2.19)"/><circle class="cls-16" cx="455" cy="422.58" r="13.92"/><path class="cls-17" d="M492.37,431.1v8.82c-1.28.42-2.61.78-4,1.09l-1,.23-1,.2c-2.42.48-4.91.82-7.39,1.06l-1.09.1h0l-1.08.09c-1.14.09-2.26.16-3.37.2l-1.66.07-1.72,0c-1.7,0-3.33,0-4.85,0h-1l-1,0c-.93,0-1.8-.06-2.61-.1h0l-1.26-.07-1.28-.08c-2.18-.15-3.47-.29-3.47-.29l0-.52,0-1.06h0l0-1.06.21-5.88s1.67.19,4.4.37h0l1.62.08h0a123.92,123.92,0,0,0,13,0l2.23-.15c.89-.06,1.8-.14,2.7-.23h0c1.31-.14,2.61-.31,3.91-.51s2.51-.42,3.74-.69l1-.22c.34-.07.67-.16,1-.24C489.76,431.94,491.09,431.55,492.37,431.1Z" transform="translate(-3.38 -2.19)"/><polygon class="cls-11" points="451.4 431.68 451.11 440.21 433.67 429.3 433.67 420.72 445.67 428.13 451.4 431.68"/></g><g id="Слой_43" data-name="Слой 43"><line class="cls-18" x1="456.54" y1="432.73" x2="469.43" y2="441.46"/><path class="cls-8" d="M459.2,434.24h0l-.1.12a1,1,0,0,0,.27,1.39l10.7,7.25,1.72,0,1.66-.07s-.05,0-.07-.06l-12.54-8.51h0Z" transform="translate(-3.38 -2.19)"/><polyline class="cls-18" points="450.25 438.92 451.17 438.63 451.17 438.62 456.54 436.88"/><path class="cls-8" d="M460.23,440l-5.72,1.85,0-1.06h0l0-1.06,5-1.63a1,1,0,0,1,.62,1.91Z" transform="translate(-3.38 -2.19)"/><line class="cls-18" x1="456.28" y1="440.11" x2="454.5" y2="442.06"/><path class="cls-8" d="M460.51,442.84h0l-1.26-.07-1.28-.08,1-1.07a1,1,0,0,1,1.58,1.22Z" transform="translate(-3.38 -2.19)"/><line class="cls-18" x1="461.17" y1="439.6" x2="460.27" y2="442.31"/><path class="cls-8" d="M465.51,442.11l-.3.88h-1l-1,0,.49-1.47a1,1,0,1,1,1.9.64Z" transform="translate(-3.38 -2.19)"/><path class="cls-19" d="M477.92,442.6h0l-3.38-5.82C474.68,436.9,476.7,440.44,477.92,442.6Z" transform="translate(-3.38 -2.19)"/><path class="cls-8" d="M479,442.5l-1.09.1h0l-1.08.09c-1.42-2.51-2.74-4.81-3-5.22a1,1,0,0,1,1.28-1.52C475.3,436.1,475.5,436.23,479,442.5Z" transform="translate(-3.38 -2.19)"/><line class="cls-18" x1="478" y1="433.57" x2="471.25" y2="431.56"/><path class="cls-8" d="M482.34,436.05a1,1,0,0,1-1,.72,1,1,0,0,1-.29,0l-6.74-2a1,1,0,0,1-.54-.39l2.23-.15c.89-.06,1.8-.14,2.7-.23h0l2.92.87A1,1,0,0,1,482.34,436.05Z" transform="translate(-3.38 -2.19)"/><line class="cls-18" x1="484.02" y1="429.93" x2="484.02" y2="440.36"/><path class="cls-8" d="M488.4,432.28V441l-1,.23-1,.2v-8.7l1-.22C487.74,432.45,488.07,432.36,488.4,432.28Z" transform="translate(-3.38 -2.19)"/></g><g id="Слой_39" data-name="Слой 39"><path class="cls-20" d="M452.51,391.23h-.08c-1.55-.76,0-25.21-1.34-26.35-.73-.62-3.5-.05-6.14.36a13.54,13.54,0,0,1-4.29.19h0a1.43,1.43,0,0,1-.77-.41c-.8-.9,9.84-41.08,11.57-41.85,1.49-.66.43,18.86.7,25a4.31,4.31,0,0,0,.27,1.81c.84.67,9.12-1.22,11.52-.57l.17.06.13.05,0,0a.5.5,0,0,1,.3.34C464.93,351.59,453.75,391.22,452.51,391.23Z" transform="translate(-3.38 -2.19)"/><path class="cls-21" d="M439.85,365a1.43,1.43,0,0,0,.77.41c-.62-.05-7.42-.72-7.78-2s10.27-40.48,11-41.12,7.54.82,7.54.82C449.69,323.92,439.05,364.1,439.85,365Z" transform="translate(-3.38 -2.19)"/><path class="cls-21" d="M463.91,349.39c-2.4-.65-10.68,1.24-11.52.57a4.31,4.31,0,0,1-.27-1.81,17.09,17.09,0,0,1,4.53-.62A29.78,29.78,0,0,1,463.91,349.39Z" transform="translate(-3.38 -2.19)"/><path class="cls-21" d="M452.34,391.15a0,0,0,0,1,0,.05c-1.13-.21-6.85-1.26-7.32-1.73s-.06-23.59-.05-24.24c2.64-.41,5.41-1,6.14-.36C452.39,366,450.94,389.48,452.34,391.15Z" transform="translate(-3.38 -2.19)"/></g><g id="Слой_15" data-name="Слой 15"><g id="Слой_10" data-name="Слой 10"><polygon class="cls-22" points="812.15 171.36 780.3 174.61 789.62 275.78 824.87 273.67 812.15 171.36"/></g><g id="Слой_7" data-name="Слой 7"><path class="cls-23" d="M854.56,270.8c6.28,3.95.57,113.75,1.81,130.45.31,4.07-6.17,46.24-7,47.38s-31.52,5-33.09-.6c-3.47-12.29-9.62-37.15-8.64-41.11,4.47-17.91.95-61.87-3-62.41-3.4-.47-6.57,38.68-9.68,49.44-1.6,5.58-8.14,21.85-9.3,25.91s-6.15,29.32-6.66,32c-.16.83-33.36,2.6-37.13-3.21s-8.35-26.63-7.48-36.79,7.11-25.55,6.6-39.23c-.83-22.34,2.57-77.1,6.73-99C801.34,276.56,851.94,269.16,854.56,270.8Z" transform="translate(-3.38 -2.19)"/></g><g id="Слой_5" data-name="Слой 5"><path class="cls-19" d="M927.06,150.33c0-.86,5.29-2.63,5.89-4.73,2.52-8.78-1.2-14.2.54-15.3,1.27-.81,3.74,3.19,4.39,3.32.85.16,6.28-12.13,7.45-11.78s-.56,6.44-.8,7.15,4.35-7.59,5.34-7.36c1.34.3-1.5,7.6-1.66,8.55-.12.69,3.94-6.26,4.75-6.3,1.24,0-.84,6.91-1.08,7.5s2.84-4.44,3.86-3.76c.75.5-2.08,10.08-5.92,14.36-2.58,2.88-5.23,4.36-6.36,8.75s-1,8.5-1.66,10.2C941.47,161.79,927.06,151.19,927.06,150.33Z" transform="translate(-3.38 -2.19)"/><path class="cls-24" d="M663.41,154.23C657.19,165.38,642,171.66,641.33,173a2.76,2.76,0,0,0-.48,2c-.37-.52-.55-.8-.55-.8-1-1.88.39-8.08,5.73-16,4.67-7,9.64-15.84,18-17.31a1.85,1.85,0,0,0-1.46,1.45C662.26,143.65,669.6,143.12,663.41,154.23Z" transform="translate(-3.38 -2.19)"/><path class="cls-19" d="M665.25,144.36c-2-1.73-11.57-5.63-11.43-9.27a69.82,69.82,0,0,1,1.14-9.75c.57-2.52.29-3-.26-3.16-.79-.29-2.57,1.32-4.13,3.6-.41.6-5.31-11.29-6.67-11.42-1.64-.15,1,6.59.79,6.94s-4.12-7-4.71-7c-2,.19.93,7.74,1,8.18s-3.5-5.55-3.78-5.53c-1.91.13.62,6.85.53,7.11s-2.57-3.5-3.16-3.51c-2,0,2.39,12.81,8.72,19.24,3.24,3.28,4.86,19.64,8.23,26C667.65,166.25,667.26,146.09,665.25,144.36Z" transform="translate(-3.38 -2.19)"/><path class="cls-19" d="M847.81,456.72c0,.32-2.92,14-3.24,14.68s1,6,1.76,7.23-19.42,13.8-21.66-.73c-1.45-5.21-5.91-19.9-5.91-19.9Z" transform="translate(-3.38 -2.19)"/><path class="cls-19" d="M746.3,462.28s4,10.33,4.37,12a55.56,55.56,0,0,1,.32,7.61s1.75,11.37,21.64-.79c1-.63,4.19-18.28,4.75-19.57S746.3,462.28,746.3,462.28Z" transform="translate(-3.38 -2.19)"/></g><g id="Слой_8" data-name="Слой 8"><path class="cls-25" d="M815,446.89c-.64-1-.42-1.81-.78-2a.94.94,0,0,0-1.29.71c0,.59,1.82,10,3.56,11.36s14.29,6.54,31.52.09c.9-.34,2.46-10.68,1.45-11.18-.34-.17-.87-.31-1,0-.2.47.09,1.66-.36,1.9C845.91,448.86,831.34,453.34,815,446.89Z" transform="translate(-3.38 -2.19)"/><path class="cls-25" d="M741.11,448.08s13,6.21,38.11,2.22l.37-2s1-.22,1.1.67-.36,9.85-1.68,11.34c-.85,1-4.44,3.39-11.55,3.79-6.61.38-18.16.06-22.88-2.8-.93-.57-5.38-12.59-5.61-14.36-.11-.89,1.11-.88,1.18-.85C740.52,446.24,741.11,448.08,741.11,448.08Z" transform="translate(-3.38 -2.19)"/></g><g id="Слой_9" data-name="Слой 9"><path class="cls-24" d="M772.28,480.81c0,6.72,14.94,14.18,13.83,17.47-1,2.8-9.81,2.79-18.61,2.46s-17.5-1.13-18.44-3.13c-1-2.18.57-4.22.9-6.55a27.72,27.72,0,0,1,.5-3.38c.41-1.59.58-7.76,1.1-8,1.85-1,.33,5.23,3.3,5.53.56.06-.13-2.34.68-3.3C757.49,479.58,770.29,479.69,772.28,480.81Z" transform="translate(-3.38 -2.19)"/><path class="cls-24" d="M845.46,477.73c2.14,6,16.69,10.19,19.24,13.28a3.7,3.7,0,0,1-.06,4.21c-.86.91-4.66.89-9,1-6.65.19-14.67.06-16.27-.77-2.16-1.13-.77-2.14-2.93-2.95,0,0-.27,2.77-1.1,3.13s-11.82-.84-12-1.43c-.36-.89-.42-6,.35-8.9s1.44-6.83,1.2-8c0,0,1.71.89,1.77,2.07s-.12,1.72.59,2.32,7.36,3,8.43,1.45,1.07-4.3,1.9-5.19S844.33,477.4,845.46,477.73Z" transform="translate(-3.38 -2.19)"/></g><g id="Слой_2" data-name="Слой 2"><path class="cls-26" d="M793.33,312c-.85,5.17-1.83,7.75-10.73,8.71-12.87,1.39-33.44-2.46-39.42-5.32-9.11-4.34-7-6-7.61-12.63s6.66-47.87,11-67c.4-.14.8-.29,1.18-.46s.57-.24.84-.37l.58-.28.32-.17c.21-.1.41-.21.61-.33s.59-.34.87-.52c0,0,0,0,0,0,.44-.28.86-.57,1.27-.87s.8-.61,1.18-.93a22,22,0,0,0,2.75-2.8c.16-.19.31-.39.47-.59s.37-.49.54-.74.31-.45.46-.68l.43-.68c.14-.23.27-.46.4-.7a21.27,21.27,0,0,0,1-2.09l.27-.64a20.47,20.47,0,0,0,1.24-4.78l.06-.49a14.18,14.18,0,0,0,0-2.15c-.77-11.56-5.45-21.26-6.84-11.23-.16,1.17-.36,2.29-.59,3.37-.1.46-.2.92-.31,1.36s-.21.82-.32,1.21c-.15.58-.32,1.15-.5,1.71s-.28.86-.43,1.28-.21.59-.32.88l-.22.57c-.15.37-.3.74-.45,1.09s-.31.71-.47,1.05-.31.67-.48,1-.32.65-.49,1-.33.61-.5.91a36.36,36.36,0,0,1-2.54,3.91c-.33.45-.67.88-1,1.27s-.5.6-.75.87l-.39.44c-.7.76-1.33,1.38-1.87,1.87-.23.22-.45.4-.64.57s-.52.43-.7.56l-.35.26c-3.66,4.43-17.79,3.16-27.88-.9-2.37-1-4.69-1.94-6.93-3l-2.17-1q-2.64-1.23-5.15-2.49l-1.9-1A179.79,179.79,0,0,1,681.33,212c-.53-.34-1.06-.68-1.57-1-5.18-3.43-9.82-6.9-13.94-10.26l-1.22-1-1.19-1c-.78-.66-1.55-1.32-2.29-2s-1.45-1.29-2.15-1.92a1.49,1.49,0,0,0-.14-.12l-1.89-1.76c-2.69-2.54-5-4.93-7.06-7.1-.46-.48-.89-1-1.31-1.42-1.88-2.08-3.43-3.92-4.65-5.45-.4-.49-.76-.94-1.08-1.36-.2-.24-.38-.48-.54-.7l-.67-.89-.77-1.06v0a2.76,2.76,0,0,1,.48-2c.71-1.29,15.86-7.57,22.08-18.72s-1.15-10.58-.89-12a1.85,1.85,0,0,1,1.46-1.45l.12,0,.18,0h.07c39.43,22.3,54.89,29.83,92.25,33.7,14.65.65,22.8-.81,25.17-1.36l4.49-4.89,2.64,20.44c4.24,49.27,6,54.35,6.57,61.17C797.64,275.15,796.32,293.72,793.33,312Z" transform="translate(-3.38 -2.19)"/><path class="cls-26" d="M946.68,170.4c-2.46,6.62-6.07,15.37-10.18,23.73A35.16,35.16,0,0,0,916.83,193c-9.89,2.13-25.7,10.46-24.85,33.06-15.44,1.61-31.07,1.73-31.67,3.1-1.15,2.66,7.33,77.54,7.46,79.67.22,3.28-1.61,6.14-4.54,8.55-9.66,7.95-24,7-33.73,3.39s-8.37-10.55-8.64-15.78c-.33-6.5,1.81-55.34.21-73.68-.48-5.58-4.35-25.22-10.87-47.77l-2.66-15.83s2.11,3.67,5.78,4.3c8.85,1.52,57.43,3.24,68.54-.41,16.58-5.45,39.36-21.31,43.12-21.31C932.66,150.28,948.76,164.82,946.68,170.4Z" transform="translate(-3.38 -2.19)"/><g id="Слой_11" data-name="Слой 11"><line class="cls-27" x1="808.55" y1="185.2" x2="941.67" y2="172.79"/><line class="cls-27" x1="925.07" y1="148.42" x2="927.02" y2="190.08"/><line class="cls-27" x1="899.36" y1="159.95" x2="900.99" y2="196.81"/><line class="cls-27" x1="873.32" y1="170.55" x2="876.25" y2="224.26"/><line class="cls-27" x1="894.8" y1="201.8" x2="814.73" y2="209.94"/><line class="cls-27" x1="821.24" y1="170.55" x2="828.43" y2="319.01"/><line class="cls-27" x1="847.43" y1="171.62" x2="854.59" y2="318.33"/><line class="cls-27" x1="864.53" y1="304.98" x2="818.25" y2="309.25"/><line class="cls-27" x1="859.65" y1="280.24" x2="817.99" y2="284.49"/><line class="cls-27" x1="859.65" y1="255.13" x2="818.64" y2="259.28"/><line class="cls-27" x1="857.55" y1="230.44" x2="817.99" y2="234.35"/><line class="cls-27" x1="778.86" y1="170.55" x2="772.42" y2="318.33"/><line class="cls-27" x1="790.1" y1="309.56" x2="734.18" y2="309.56"/><line class="cls-27" x1="746.38" y1="315.4" x2="752.89" y2="171.62"/><line class="cls-27" x1="783.27" y1="184.8" x2="661.72" y2="184.8"/><line class="cls-27" x1="648.73" y1="164.04" x2="648.08" y2="185.2"/><polyline class="cls-27" points="653.55 159.95 701.14 159.95 699.51 201.08"/><line class="cls-27" x1="675.73" y1="146.79" x2="673.4" y2="199.82"/><line class="cls-27" x1="727.17" y1="167.95" x2="725.55" y2="199.52"/><line class="cls-27" x1="736.29" y1="209.94" x2="787.72" y2="209.94"/><line class="cls-27" x1="743.45" y1="234.35" x2="790.62" y2="234.35"/><line class="cls-27" x1="738.27" y1="259.74" x2="793.28" y2="259.74"/><line class="cls-27" x1="733.68" y1="284.8" x2="792.6" y2="284.8"/></g><path class="cls-28" d="M751,233.57c.13-.2,1.35-2.06-.06-3.26s-9.61-1.24-9.61-1.24c1.88-1.43,10.75-9,13-24.87,1.39-10,6.07-.33,6.84,11.23C761.47,220.64,758.38,228.9,751,233.57Z" transform="translate(-3.38 -2.19)"/><path class="cls-29" d="M761.56,216.48s-7.23,1.86-10.95.37" transform="translate(-3.38 -2.19)"/><path class="cls-29" d="M759,204.32s-4-1.26-4.65-.12" transform="translate(-3.38 -2.19)"/><path class="cls-29" d="M754.31,231s-7.14-4-8-6.9" transform="translate(-3.38 -2.19)"/><path class="cls-30" d="M747.73,235.14s-5.1-4.25-6.17-6.26" transform="translate(-3.38 -2.19)"/><path class="cls-30" d="M758.68,225.2s-9.06-4.06-9.73-5.18" transform="translate(-3.38 -2.19)"/><path class="cls-30" d="M760.91,213.14s-7-3.16-7.52-4" transform="translate(-3.38 -2.19)"/><path class="cls-31" d="M946.68,170.4c-2.46,6.62-6.07,15.37-10.18,23.73A35.16,35.16,0,0,0,916.83,193c-9.89,2.13-25.7,10.46-24.85,33.06-15.44,1.61-31.07,1.73-31.67,3.1-1.15,2.66,7.33,77.54,7.46,79.67.22,3.28-1.61,6.14-4.54,8.55-9.66,7.95-24,7-33.73,3.39s-8.37-10.55-8.64-15.78c-.33-6.5,1.81-55.34.21-73.68-.48-5.58-4.35-25.22-10.87-47.77l-2.66-15.83s2.11,3.67,5.78,4.3c8.85,1.52,57.43,3.24,68.54-.41,16.58-5.45,39.36-21.31,43.12-21.31C932.66,150.28,948.76,164.82,946.68,170.4Z" transform="translate(-3.38 -2.19)"/><path class="cls-31" d="M793.33,312c-.85,5.17-1.83,7.75-10.73,8.71-12.87,1.39-33.44-2.46-39.42-5.32-9.11-4.34-7-6-7.61-12.63s6.66-47.87,11-67c.4-.14.8-.29,1.18-.46s.57-.24.84-.37l.58-.28.32-.17c.21-.1.41-.21.61-.33s.59-.34.87-.52c0,0,0,0,0,0,.44-.28.86-.57,1.27-.87s.8-.61,1.18-.93a22,22,0,0,0,2.75-2.8c.16-.19.32-.39.47-.59s.37-.49.54-.74.32-.45.46-.68l.43-.68c.14-.23.28-.46.4-.7a21.27,21.27,0,0,0,1-2.09c.1-.21.18-.42.27-.64a20.47,20.47,0,0,0,1.24-4.78l.06-.49a14.18,14.18,0,0,0,0-2.15c-.77-11.56-5.45-21.26-6.84-11.23-.16,1.17-.36,2.29-.59,3.37-.1.46-.2.92-.31,1.36s-.21.82-.32,1.21c-.15.58-.32,1.15-.5,1.71s-.28.86-.43,1.28-.21.59-.32.88l-.22.57c-.15.37-.3.74-.45,1.09s-.31.71-.47,1.05-.31.67-.48,1-.32.65-.49,1-.33.61-.5.91a36.36,36.36,0,0,1-2.54,3.91c-.34.45-.67.87-1,1.27s-.5.6-.75.87l-.39.44c-.7.76-1.33,1.38-1.87,1.87-.23.22-.45.4-.64.57s-.52.43-.7.56l-.35.26c-3.66,4.43-17.79,3.16-27.88-.9-2.37-1-4.69-1.94-6.93-3l-2.17-1q-2.64-1.23-5.15-2.49l-1.9-1A179.79,179.79,0,0,1,681.33,212c-.53-.34-1.06-.68-1.57-1-5.18-3.43-9.82-6.9-13.94-10.26l-1.22-1-1.19-1c-.78-.66-1.55-1.32-2.29-2s-1.45-1.29-2.15-1.92a1.49,1.49,0,0,0-.14-.12l-1.89-1.76c-2.69-2.54-5-4.93-7.06-7.1-.46-.48-.89-1-1.31-1.42-1.88-2.08-3.43-3.92-4.65-5.45-.4-.49-.76-.94-1.08-1.36-.2-.24-.38-.48-.54-.7l-.67-.89-.77-1.06v0a2.76,2.76,0,0,1,.48-2c.71-1.29,15.86-7.57,22.08-18.72s-1.15-10.58-.89-12a1.85,1.85,0,0,1,1.46-1.45l.12,0,.18,0h.07c39.43,22.3,54.89,29.83,92.25,33.7,14.65.65,22.8-.81,25.17-1.36l4.49-4.89,2.64,20.44c4.24,49.27,6,54.35,6.57,61.17C797.64,275.15,796.32,293.72,793.33,312Z" transform="translate(-3.38 -2.19)"/></g><g id="Слой_12" data-name="Слой 12"><path class="cls-24" d="M936.65,193.93c-5.43,11-11.71,21.39-17.36,25.25-5.29,3.62-16.17,5.51-27.16,6.65-.85-22.6,15-30.93,24.85-33.06A35.16,35.16,0,0,1,936.65,193.93Z" transform="translate(-3.38 -2.19)"/><path class="cls-32" d="M892.11,226.09c0-.09,0-.17,0-.26" transform="translate(-3.38 -2.19)"/><path class="cls-32" d="M936.64,193.94h0" transform="translate(-3.38 -2.19)"/></g><g id="Слой_3" data-name="Слой 3"><path class="cls-33" d="M781.21,176c-1.34.33-3,19.63-4,20.48-1.68,1.34-9.71-7.08-10.75-6.21-3.19,2.68,13.94,32.23,25.36,61.11" transform="translate(-3.38 -2.19)"/><path class="cls-34" d="M814.79,175s11.92,18,14.44,18.67,7-5.91,9.57-5.24c3.7,1-12.43,54.9-13.43,62.29" transform="translate(-3.38 -2.19)"/><path class="cls-34" d="M781.72,274.84c-1.15-1.94-23.55-3.92-32.79-4.53,0,0-4.23,18.95-3,25.5a15.81,15.81,0,0,0,13.57,13.09c5.34.66,16.13-.61,19.44-10.79S782.86,276.78,781.72,274.84Z" transform="translate(-3.38 -2.19)"/><path class="cls-34" d="M859.32,273.49s3.38,22,.37,27.91c-3.27,6.43-7,7.65-10.85,8.1-6.24.72-13-2.79-14.42-9.3s-2.32-23.15-1.6-24.74C833.87,273.13,859.32,273.49,859.32,273.49Z" transform="translate(-3.38 -2.19)"/><path class="cls-33" d="M801,180.65s10.5,60.53,9.28,87.68" transform="translate(-3.38 -2.19)"/><path class="cls-35" d="M808.27,199.83c0,2.26-1.4,3.44-3.66,3.44a4.1,4.1,0,0,1-4.1-4.1,4.31,4.31,0,0,1,3.57-4.41C806.31,194.42,808.27,197.56,808.27,199.83Z" transform="translate(-3.38 -2.19)"/><path class="cls-35" d="M810.88,227.41a4.23,4.23,0,0,1-4.15,4.31c-2.3,0-4.38-1.79-3.84-4.11.46-2,2.48-4.51,4.77-4.51S810.88,225,810.88,227.41Z" transform="translate(-3.38 -2.19)"/><path class="cls-35" d="M813.73,257.33a4,4,0,0,1-3.8,4.14,4.56,4.56,0,0,1-4.27-4.14c-.56-3.68,1.81-4.16,4-4.16A4.1,4.1,0,0,1,813.73,257.33Z" transform="translate(-3.38 -2.19)"/><path class="cls-34" d="M815.54,285.52c0,3.45-1.58,6.62-5.19,6.62a6,6,0,0,1-5.9-6.15c0-2.87,2.62-6.93,5.9-6.93S815.54,282.08,815.54,285.52Z" transform="translate(-3.38 -2.19)"/><path class="cls-33" d="M813.39,299.94s2.45,22.67.85,26.73-6.33,7.58-10.1,9.94a.06.06,0,0,1-.1-.06c.13-2,1.41-27.45,1.41-36.61" transform="translate(-3.38 -2.19)"/><path class="cls-33" d="M768.71,330.26s29.85,4.82,29.94,6S785.24,341,784,343.48" transform="translate(-3.38 -2.19)"/><path class="cls-33" d="M841.44,330.26c-2.18,1.42-27,4.06-26.35,6.14s17.18,4.06,19.64,7.08" transform="translate(-3.38 -2.19)"/><path class="cls-33" d="M808.55,343.15s8,1.42,8.56,5.61c.64,4.75-2.62,60.48,3.31,99.87" transform="translate(-3.38 -2.19)"/><path class="cls-33" d="M752.18,322.58s-2,51.08-1.73,54.84a96.77,96.77,0,0,1-.08,12.51c-.66,6.95-7.46,25.12-7.27,30.45.21,6.06,5.86,30.11,5.81,30.06" transform="translate(-3.38 -2.19)"/><path class="cls-36" d="M771.77,485.93s-7.67-1.48-13,.44" transform="translate(-3.38 -2.19)"/><path class="cls-36" d="M758.78,489.68a46.32,46.32,0,0,1,15.87-.17" transform="translate(-3.38 -2.19)"/><path class="cls-36" d="M849.85,482.44s-7.52-.61-9.09.7" transform="translate(-3.38 -2.19)"/><path class="cls-36" d="M854.27,485.06s-9.68-.61-11.94.87" transform="translate(-3.38 -2.19)"/></g><g id="Слой_6" data-name="Слой 6"><path class="cls-37" d="M805.47,128.75c.75,1.6-8.71,10.74-10.84,12-1.34.77-4.87.29-7.3-.16-1.8-2.22-4.7-11.48-3.89-12.93,2-3.61,13.25-6.07,14.84-12.75,1-4.32-3.57-16.65-3.57-16.65,6.56.66,15.2,3.25,15.33,6.94C810.25,111.11,804.73,127.16,805.47,128.75Z" transform="translate(-3.38 -2.19)"/><path class="cls-38" d="M798.44,115.15c-1.59,6.68-13,8.93-14.89,12.81-.73,1.49,2.32,10.39,3.78,12.59-1.43-.27-2.47-.53-2.47-.53s-7.77-8.45-6.8-12.33c1.48-6,13.9-11.14,14.45-14.13.86-4.76-7.91-11.33-4.89-14.67.76-.84,3.64-1,7.09-.67C794.71,98.22,799.47,110.83,798.44,115.15Z" transform="translate(-3.38 -2.19)"/><path class="cls-39" d="M787.62,98.89c2.21-2.43,22.22.65,22.42,6.27.21,6-5.31,22-4.57,23.59s-8.71,10.74-10.84,12-9.77-.69-9.77-.69-7.77-8.45-6.8-12.33c1.48-6,13.9-11.14,14.45-14.13C793.37,108.8,784.6,102.23,787.62,98.89Z" transform="translate(-3.38 -2.19)"/></g><g id="Слой_13" data-name="Слой 13"><path class="cls-19" d="M804.85,177.39l-7.43.92-8.53-14.8s.62-10.69-.37-15.69c0,0-9.77-1.27-7.45-6.74,1.81-4.28,8.25.53,8.51-.37.41-1.36-2.81-5.58-1.69-10.15,1.34-5.48,8.91-10,12.48-8.08,3.29,1.81,9,25.45,7.58,26.65s-6.54,1.37-6.76,3c-.14,1,2.89,10.2,2.79,10.36S804.85,177.39,804.85,177.39Z" transform="translate(-3.38 -2.19)"/></g><g id="Слой_14" data-name="Слой 14"><ellipse class="cls-24" cx="802.86" cy="132.6" rx="3.78" ry="5.76"/><path class="cls-37" d="M797.91,141.76a3.88,3.88,0,0,1-2.67-.35h0L798,130.69A6.51,6.51,0,0,1,801,135C801.76,138.13,800.37,141.18,797.91,141.76Z" transform="translate(-3.38 -2.19)"/><path class="cls-38" d="M798,130.69l-2.71,10.71a6.38,6.38,0,0,1-3.16-4.32c-.76-3.17.63-6.22,3.1-6.8A3.85,3.85,0,0,1,798,130.69Z" transform="translate(-3.38 -2.19)"/><ellipse class="cls-39" cx="796.54" cy="136.02" rx="4.59" ry="5.9" transform="translate(-13.25 185.65) rotate(-13.37)"/></g><g id="Слой_4" data-name="Слой 4"><path class="cls-35" d="M803.82,175.4s-1.58-12.46.52-13.25c1.5-.55,11.54,21.69,10.33,23.15C813.68,186.5,806.43,181.45,803.82,175.4Z" transform="translate(-3.38 -2.19)"/><path class="cls-35" d="M797.87,177.41s-7.48-14.66-10.76-15c-1-.09-1.1,26,.18,26.45S796.53,180.75,797.87,177.41Z" transform="translate(-3.38 -2.19)"/></g></g><g id="Слой_24" data-name="Слой 24"><g id="Слой_22" data-name="Слой 22"><path class="cls-37" d="M992.82,254.23c-1.78.31-6.7,3.81-9.47,7s-8.35,2.89-9.34,2.39a2.57,2.57,0,0,1-.79-1c.77-1.36,12.09-12.11,14.21-14.11C990.33,250.87,993.92,254,992.82,254.23Z" transform="translate(-3.38 -2.19)"/><path class="cls-38" d="M987.43,248.49c-2.12,2-13.44,12.75-14.21,14.11-.81-1.5-1.71-4.07-2.57-4.25-2.24-.46-2.17-1.25-1.91-1.68,1.06-1.76,6.08,1.3,12-7.32a17.31,17.31,0,0,1,3.42-3.48S985.66,247,987.43,248.49Z" transform="translate(-3.38 -2.19)"/><path class="cls-39" d="M984.15,245.87a17.31,17.31,0,0,0-3.42,3.48c-5.91,8.62-10.93,5.56-12,7.32-.26.43-.33,1.22,1.91,1.68,1.15.24,2.38,4.79,3.36,5.28s6.58.8,9.34-2.39,7.69-6.7,9.47-7S984.15,245.87,984.15,245.87Z" transform="translate(-3.38 -2.19)"/></g><g id="Слой_20" data-name="Слой 20"><path class="cls-40" d="M912.19,463.6a20.41,20.41,0,0,1-20.54.95L891,453.9l22.73-.54C911.51,460,912.19,463.6,912.19,463.6Z" transform="translate(-3.38 -2.19)"/><path class="cls-38" d="M891.65,464.55a25.13,25.13,0,0,1-6.67-4.76l-.41-5.74,6.42-.15Z" transform="translate(-3.38 -2.19)"/><path class="cls-38" d="M1033.51,435.85c-.73.93-3.85,4.17-12,5-.73-3.09-1.27-5.52-1.27-5.52,2.17-.87,5.28-.19,6.14-.58,1.49-.68,1.8-3.34,2.48-3.25A14.45,14.45,0,0,1,1033.51,435.85Z" transform="translate(-3.38 -2.19)"/><path class="cls-37" d="M1035.47,452.81c-1,2.52-8.62-.86-8.62-.86a6.54,6.54,0,0,0-1.8,1.36c-.41.49-2.27-7-3.56-12.5,8.17-.79,11.29-4,12-5C1036.15,439.47,1038.38,445.24,1035.47,452.81Z" transform="translate(-3.38 -2.19)"/><path class="cls-39" d="M1020.22,435.29c2.17-.87,5.28-.19,6.14-.58,1.49-.68,1.8-3.34,2.48-3.25s11.82,7.85,6.63,21.35c-1,2.52-8.62-.86-8.62-.86a6.54,6.54,0,0,0-1.8,1.36C1024.41,454.07,1020.22,435.29,1020.22,435.29Z" transform="translate(-3.38 -2.19)"/><path class="cls-39" d="M884.57,454.05l.41,5.74s11.26,13.65,27.21,3.81c0,0-.68-3.59,1.53-10.24Z" transform="translate(-3.38 -2.19)"/></g><g id="Слой_21" data-name="Слой 21"><path class="cls-41" d="M1028.93,431.78c-.08,0-.18-.29-.09-.32a6.91,6.91,0,0,1,7.4,2c1.59,1.64,1.46,5.72,2,7.79,2.29,8,5.22,18.4,4.61,20.4-.84,2.8-16.51,4.41-17.76,3.44-.92-.73-.81-2.82-.38-3.75s3.93-3.38,3.88-4-.64-4.12-1.51-5.28c.26-.44,2.33-.21,3.77-.74.76-.28.86-.68,1.77-.72,1.37-.06,2.52,2.21,3.29,1.71s-.34-4.59-.51-6.88a28.8,28.8,0,0,0-1.83-8.6A11.4,11.4,0,0,0,1028.93,431.78Z" transform="translate(-3.38 -2.19)"/><path class="cls-41" d="M884.75,459.22c0-.23.44-.41.6-.25a58.74,58.74,0,0,1,4.81,4.77c.14,1.69,14.59,2.34,16.21,2.11s5.8-2.44,5.8-2.44,5,5.37,1.15,16.23c-.23.65-11.63-.42-17.65-.79-1-.06.45-3.77-1-4.78-1.27-.87-10.2,3.71-14.72,4.41S855.73,478,855,477.09s1.39-4.29,4.52-5.8S884.53,466.35,884.75,459.22Z" transform="translate(-3.38 -2.19)"/></g><g id="Слой_16" data-name="Слой 16"><path class="cls-19" d="M991.06,254.13s-7.61-5-9.7-9.46S979,235,979.42,233.76c.71-2,11.34-6.67,14.51-4.14,3.37,2.7,6.37,12.57,6.44,14,.12,2.54-1.64,9.57-1.5,11.45.12,1.47,5.92,8.24,5,10.42,0,0,.6,3.13-12.48,4.63-9.32,1.07-8.81,2-9.63,2.52-1.46-2.66-8.76,2.78-8.76,2.78s-14.53,5.83-16.49,0c-1.6-4.75,12.09-16.38,14.1-17.07,1.85-.62,3.62,4.18,4,4.47a9.12,9.12,0,0,0,8.34-3c.5-.63.49-3.35,1.24-4C985.73,254.38,991.06,254.13,991.06,254.13Z" transform="translate(-3.38 -2.19)"/><path class="cls-19" d="M949.08,370.2s1.49,21.35,58.48,25.06c0,0-.37,12.81-.37,16s-1.3,24.5-.18,25.43,9.35-2.84,13.62-1.91,6.89,11.88,4.38,19.18c-1.33,3.87-7.42,12.81-8.72,14.11S995.5,484.21,971,494.77c-1.62.7-1.12-1.22-16,3.64-6,2-20.86-4.65-21.73-6.24-1.77-3.22,2.08-24.68,4.64-35.08s7.46-31,6.13-32.49c-1-1.08-28.58-8-28.58-8s4.85,9.16,4.8,11.39c-.1,3.92-6.52,26.18-6.52,26.18s-14.53,3.35-29.3.32c-.43-.09-2-9.06-4.42-20.08-3.62-16.34-8.89-37.15-8.94-40.26-.1-5.09-2.18-18.68,2.88-21.58,9.41-5.4,57.64,1.71,60.24,1.34s4.22-3.87,4.22-3.87Z" transform="translate(-3.38 -2.19)"/></g><g id="Слой_17" data-name="Слой 17"><path class="cls-42" d="M1007.06,395.88c-.06,1.83-54.08-3.16-58-25.68,0,0,5.34-.06,11.49-.1,9.72-26,2.62-47.62,1.72-50.17l4.69.31c5.44-6.82,11.66-27.2,11.66-27.2.71,2,10.16,8,16.18,12.46,3,2.21,21.39,17.4,22.93,31.59C1019.73,355.31,1007.11,394.05,1007.06,395.88Z" transform="translate(-3.38 -2.19)"/><path class="cls-43" d="M967,320.24c6.62.42,13.24.83,15,.9,3.81.14,15.67,1,15.67,1" transform="translate(-3.38 -2.19)"/><path class="cls-39" d="M942.18,298.92s-2.24,15.72-.76,19.28" transform="translate(-3.38 -2.19)"/><path class="cls-43" d="M960.57,370.1c7.44-.07,16.06-.12,17.79-.06,5.93.2,21.42,1.3,29.93-11.91a28.32,28.32,0,0,0,4.52-12" transform="translate(-3.38 -2.19)"/><path class="cls-39" d="M940.19,357.27c-.15,1.44.88,3.21.41,4.3-.62,1.42-4.94,3.13-9.29,2.41" transform="translate(-3.38 -2.19)"/></g><g id="Слой_18" data-name="Слой 18"><path class="cls-37" d="M923.39,312.54c-7.48-3.13-18.57-7.76-31.87-13.25l-.13-.06a37.34,37.34,0,0,1,.54-14.38c1.52-5.58,13.5-20,13.5-22.71a1.26,1.26,0,0,0-1-1.19h0a14.8,14.8,0,0,0-2.58-2,9.17,9.17,0,0,1,1.34-1.7q.47-.49,1-1c.76-.72,1.56-1.41,2.18-1.92s1.12-.91,1.12-.91c.47.07,5.51,3.41,5.65,2.09.07-.68-1.39-1.84-3-3.14a7.69,7.69,0,0,1,2.19-.75,29,29,0,0,0,2,2.29l-.08.17a24.73,24.73,0,0,1-2.59,4.61c-1.13,1.33,8.11-3.68,10.06-4.5.39,1.49-1.7,3.57-3.25,4.48-1,.56-2.73,2.1-3.39,2.46a5.58,5.58,0,0,1-1.9.7c-.59,7.78,7.32,20,7.32,20,.14.32,2.49,5.61,4.78,12.4a.18.18,0,0,0,0,0C925.4,295,926.9,304,923.39,312.54Z" transform="translate(-3.38 -2.19)"/><path class="cls-38" d="M921.7,254.15c-2,.82-11.19,5.83-10.06,4.5a24.73,24.73,0,0,0,2.59-4.61l.23,0c1.18-.11,2.68-.29,3.36-1s-.19-3.45,1.47-4c1-.31,1.47,2.17,2.39,5A.36.36,0,0,1,921.7,254.15Z" transform="translate(-3.38 -2.19)"/><path class="cls-39" d="M914.23,254a4.37,4.37,0,0,0-1.35.22" transform="translate(-3.38 -2.19)"/><path class="cls-39" d="M910.92,255.27a3.88,3.88,0,0,0-1.65,4.74" transform="translate(-3.38 -2.19)"/><path class="cls-38" d="M918.69,246.28c-1.2,4.21-7.36,3.1-7.36,3.64a3.68,3.68,0,0,0,.93,1.66,7.69,7.69,0,0,0-2.19.75c-.43-.35-.87-.71-1.29-1.07-.64-.54-1.24-1.09-1.79-1.58,1-.35.52-3.37,1.56-4.27s2.12.58,4.1,1.24S919.2,244.47,918.69,246.28Z" transform="translate(-3.38 -2.19)"/><path class="cls-39" d="M907,249.68l-.06,0" transform="translate(-3.38 -2.19)"/><path class="cls-39" d="M914.31,253.87l.15.15.12.12" transform="translate(-3.38 -2.19)"/><path class="cls-39" d="M901.79,258.9a3,3,0,0,0-.17.38" transform="translate(-3.38 -2.19)"/><path class="cls-38" d="M913.07,255.47c-.14,1.32-5.18-2-5.65-2.09,0,0-.46.35-1.12.91a18.3,18.3,0,0,0-1.95-2c1.46-1.15-1-3.26.09-4.07.44-.34,1.37.41,2.55,1.46.55.49,1.15,1,1.79,1.58.42.36.86.72,1.29,1.07C911.68,253.63,913.14,254.79,913.07,255.47Z" transform="translate(-3.38 -2.19)"/><path class="cls-39" d="M904.35,252.29l-.2.14" transform="translate(-3.38 -2.19)"/><path class="cls-38" d="M906.3,254.29c-.62.51-1.42,1.2-2.18,1.92a9,9,0,0,1-2.08-2h0c-.65-.94-.91-1.91-.27-2.58s1.59-.12,2.58.71A18.3,18.3,0,0,1,906.3,254.29Z" transform="translate(-3.38 -2.19)"/><path class="cls-39" d="M905.58,257a5.33,5.33,0,0,1-1.46-.77" transform="translate(-3.38 -2.19)"/><path class="cls-39" d="M907.42,255.71s-.46-.63-1.12-1.42" transform="translate(-3.38 -2.19)"/><path class="cls-38" d="M891.93,284.85a37.34,37.34,0,0,0-.54,14.38l-4.71-1.94c-3.86-14.55,14.46-31.16,17.76-36.09,0-.05,0-.14-.06-.25a1.26,1.26,0,0,1,1,1.19C905.43,264.89,893.45,279.27,891.93,284.85Z" transform="translate(-3.38 -2.19)"/><path class="cls-39" d="M886.73,297.47c0-.06,0-.12-.05-.18" transform="translate(-3.38 -2.19)"/><path class="cls-38" d="M903.13,257.2a9.17,9.17,0,0,0-1.34,1.7l-1.63-1.09c-.6-.4-.51-2,.41-2.17a2,2,0,0,1,1.28.52A11.84,11.84,0,0,1,903.13,257.2Z" transform="translate(-3.38 -2.19)"/><path class="cls-39" d="M904,258s-.37-.38-.87-.83" transform="translate(-3.38 -2.19)"/><path class="cls-38" d="M904.12,256.21q-.52.5-1,1a11.84,11.84,0,0,0-1.28-1c.52-.52.28-1.65.19-2A9,9,0,0,0,904.12,256.21Z" transform="translate(-3.38 -2.19)"/><path class="cls-38" d="M901.85,256.16a.1.1,0,0,1,0,0" transform="translate(-3.38 -2.19)"/><path class="cls-39" d="M902,254.16a.66.66,0,0,0,0-.09" transform="translate(-3.38 -2.19)"/><path class="cls-37" d="M986.73,266.36c.14,1.07-1.67,2.4-5,2.4-.36,0-.83,2.82-.83,2.82s-3,19.49-2.26,21.46c0,0-6.22,20.38-11.66,27.2l-4.69-.31-4.17-.26c-.15-5.35,2.33-15.08,4.58-22.67,2.52-2.75,9.45-10.62,9.73-13.95a17.44,17.44,0,0,0-.42-5.21c.6-1.15,1.08-2.12,1.39-2.7a7.72,7.72,0,0,0,3.16-2.92c1.14-1.76,3.24-6,4.24-6.28C983.41,265.09,986.32,263.35,986.73,266.36Z" transform="translate(-3.38 -2.19)"/><path class="cls-38" d="M972.43,283.05c-.28,3.33-7.21,11.2-9.73,13.95,1.79-6,3.45-10.67,3.57-10.76,2-1.64,4.24-5.55,5.74-8.4A17.44,17.44,0,0,1,972.43,283.05Z" transform="translate(-3.38 -2.19)"/><path class="cls-31" d="M986.73,266.36c.14,1.07-1.67,2.4-5,2.4-.36,0-.83,2.82-.83,2.82s-3,19.49-2.26,21.46c0,0-6.22,20.38-11.66,27.2l-4.69-.31-4.17-.26c-.26-9.59,7.88-33.22,8.15-33.43,2.84-2.3,6.05-9.05,7.13-11.1a7.72,7.72,0,0,0,3.16-2.92c1.14-1.76,3.24-6,4.24-6.28C983.41,265.09,986.32,263.35,986.73,266.36Z" transform="translate(-3.38 -2.19)"/><path class="cls-38" d="M873.7,282c-.37.28-.69,1.87-.82,2.13-.25.49-.82-1.44-1.88-.95s-.14,1.47-.51,1.85a1.78,1.78,0,0,1-1.8.67c-.9-.22-1.87-1.4-2.32-1.15s.22,1.15,0,1.45-1.2.93-1.72.73-1.17-1.08-1.58-.95-.2.85,0,1.67,1.64,6.47,3.11,8.13c-5.56-4.56-9.55-13.83-9.25-14.2s5.07,3.24,5.64,3.17-4.82-8.05-4.21-8.54c.81-.64,6.61,6.78,6.89,6.35s-5.35-10.58-3.83-10.52c1,0,7.5,9.68,8.06,9.54s-5.56-9.54-3.91-9.69c1.12-.11,4.15,3.79,6,6.45A33.5,33.5,0,0,1,873.7,282Z" transform="translate(-3.38 -2.19)"/><path class="cls-38" d="M879.73,286.68c-.66.05-1.78,2.8-2.28,2.87s-1.09-1.75-1.3-2.71c.11.17.21.27.27.27.53,0,1.93-2.61,2.79-2.52C879.72,284.64,879.81,285.5,879.73,286.68Z" transform="translate(-3.38 -2.19)"/><path class="cls-40" d="M923.39,312.54c3.51-8.55,2-17.58,1.88-18.33,2.24,6.63,4.4,14.69,4.38,20.94Z" transform="translate(-3.38 -2.19)"/><path class="cls-38" d="M963.88,325.72c-3.13,0-19.26-.33-24.89-1.6-6.26-1.41-6.92-2.11-9.29-3.88-4-3-55.81-20.11-50.6-26.07l7.58,3.12,4.71,1.94.13.06c13.3,5.49,24.39,10.12,31.87,13.25l6.26,2.61,3.11,1.28c3.72,1.5,17.64,2.87,18.91,2.87.39,0,3,.15,6.45.37l4.17.26A51,51,0,0,1,963.88,325.72Z" transform="translate(-3.38 -2.19)"/><path class="cls-37" d="M960.57,370.1c-6.15,0-11.49.1-11.49.1s-21.83,1.06-35.08-6.05c-19-15.3-34.21-40.34-44.78-66.73a12,12,0,0,1-3-1.89c-1.47-1.66-2.88-7.3-3.11-8.13s-.56-1.5,0-1.67,1,.75,1.58.95,1.49-.43,1.72-.73-.45-1.2,0-1.45,1.42.93,2.32,1.15a1.78,1.78,0,0,0,1.8-.67c.37-.38-.53-1.36.51-1.85s1.63,1.44,1.88.95c.13-.26.45-1.85.82-2.13,1,2.06,1.93,4.15,2.44,4.88h0c.21,1,.7,2.78,1.3,2.71s1.62-2.82,2.28-2.87c-.19,2.73-1.34,7.2-.63,7.49-5.21,6,46.6,23.07,50.6,26.07,2.37,1.77,3,2.47,9.29,3.88,5.63,1.27,21.76,1.56,24.89,1.6A79.1,79.1,0,0,1,960.57,370.1Z" transform="translate(-3.38 -2.19)"/></g><g id="Слой_23" data-name="Слой 23"><path class="cls-39" d="M921.68,254.05c-.92-2.79-1.39-5.27-2.39-5-1.66.51-.85,3.33-1.47,4-1.12,1.12-4.42.87-4.94,1.21" transform="translate(-3.38 -2.19)"/><path class="cls-39" d="M920.48,281.76s-7.91-12.19-7.32-20a5.58,5.58,0,0,0,1.9-.7c.66-.36,2.43-1.9,3.39-2.46,1.58-.93,3.73-3.08,3.23-4.58" transform="translate(-3.38 -2.19)"/><path class="cls-43" d="M910.92,255.27a3.88,3.88,0,0,0-1.65,4.74" transform="translate(-3.38 -2.19)"/><path class="cls-39" d="M914.58,254.14s-3.25-3.18-3.25-4.22c0-.54,6.16.57,7.36-3.64.51-1.81-4.07,1-6,.37s-3-2.16-4.1-1.24-.58,4.05-1.62,4.3" transform="translate(-3.38 -2.19)"/><g id="Слой_34" data-name="Слой 34"><path class="cls-44" d="M910.15,255.28c-12,8.85-25.35,15.51-38.74,22" transform="translate(-3.38 -2.19)"/><path class="cls-44" d="M949.08,280.67c1.6-7.41,1.35-14.79-2.94-21.18s-11.23-13.24-19.38-13.39c-5.93-.11-9.75,3.88-14.1,7.28" transform="translate(-3.38 -2.19)"/><path class="cls-45" d="M915.65,249.69s1.29,3.38,3.68,1.22.31-3.81-.37-4" transform="translate(-3.38 -2.19)"/><path class="cls-46" d="M919.52,247.2c.08-.37,5.59-14.07,5.59-14.07" transform="translate(-3.38 -2.19)"/></g><path class="cls-39" d="M960.57,370.1c-6.15,0-11.49.1-11.49.1s-21.83,1.06-35.08-6.05c-19-15.3-34.21-40.34-44.78-66.73-7.06-3-12.62-15.66-12.27-16.09s5.07,3.24,5.64,3.17-4.82-8.05-4.21-8.54c.81-.64,6.61,6.78,6.89,6.35s-5.35-10.58-3.83-10.52c1,0,7.5,9.68,8.06,9.54s-5.56-9.54-3.91-9.69c1.12-.11,4.15,3.79,6,6.45s4.31,9,4.84,9,1.93-2.61,2.79-2.52c1.68.17-1.13,9.17-.11,9.58,23.66,9.71,42.53,17.65,50.55,21l3.11,1.28c3.72,1.5,17.64,2.87,18.91,2.87.39,0,3,.15,6.45.37l4.17.26C963.19,322.48,970.29,344.13,960.57,370.1Z" transform="translate(-3.38 -2.19)"/><path class="cls-43" d="M907.42,253.38c.47.07,5.51,3.41,5.65,2.09.09-.86-2.29-2.5-4.29-4.21s-3.69-3.54-4.34-3c-1.1.84,1.36,3.09-.09,4.07" transform="translate(-3.38 -2.19)"/><path class="cls-43" d="M907.42,255.71s-4.13-5.71-5.65-4.13,2,4.87,3.81,5.4" transform="translate(-3.38 -2.19)"/><path class="cls-43" d="M904,258s-2.51-2.59-3.43-2.39-1,1.77-.41,2.17,4.58,2.95,4.28,3.39c-3.31,4.95-21.77,21.68-17.71,36.27" transform="translate(-3.38 -2.19)"/><path class="cls-39" d="M902,254.07s.47,1.55-.21,2.14" transform="translate(-3.38 -2.19)"/><path class="cls-39" d="M925.26,294.16s1.8,9.45-1.87,18.38" transform="translate(-3.38 -2.19)"/><path class="cls-42" d="M958.12,319.67c-3.5-.22-6.06-.37-6.45-.37-1.27,0-15.19-1.37-18.91-2.87l-3.11-1.28c0-6.25-2.14-14.31-4.38-20.94a.18.18,0,0,1,0,0c-2.29-6.79-4.64-12.08-4.78-12.4,6.92,3.1,20.75,0,26.68-.72s15.53,6.5,17.79,5.93a3.51,3.51,0,0,0,1.32-.73C966,286.45,957.86,310.08,958.12,319.67Z" transform="translate(-3.38 -2.19)"/></g><g id="Слой_19" data-name="Слой 19"><path class="cls-47" d="M911.51,412.08s-9.59-10.56-11-13.42c-1.17-2.33-5.45-9.77-8.75-8.59-2.15.77,2.61,11.82,23.48,21" transform="translate(-3.38 -2.19)"/><path class="cls-47" d="M934.24,401c2.16,1.74,5.66,16.55,6.74,16.22,1.43-.45-1.67-21.33-5.36-30.23" transform="translate(-3.38 -2.19)"/><path class="cls-47" d="M945,396.82s-1.6,20.41.16,21.33c1,.5,2.14-9.67,5.06-13.66" transform="translate(-3.38 -2.19)"/><path class="cls-47" d="M970.15,433s-14.73-9.87-19.48-10.62c-1.12-.17,5,4.14,7.27,6.78,2.94,3.43,5.3,8.41,8.68,10.59" transform="translate(-3.38 -2.19)"/><path class="cls-47" d="M979.21,404.29a44,44,0,0,0,8.72,27.61" transform="translate(-3.38 -2.19)"/><path class="cls-47" d="M955.51,388.59c0,3.68-2.36,6.47-4.63,6.47-2.75,0-3.94-2.95-4.34-6.62s1.33-6.23,4-5.56C953,383.49,955.51,384.91,955.51,388.59Z" transform="translate(-3.38 -2.19)"/><path class="cls-47" d="M995.4,398.59s-2.14,30.26-3.45,34.87-15.46,37.33-29.44,55.91" transform="translate(-3.38 -2.19)"/><path class="cls-47" d="M1004.11,441.35s-10.67,25.92-21,37.63c-9.92,11.19-13.76,12.61-13.93,12.28s1.92-4.52,5.37-8.47" transform="translate(-3.38 -2.19)"/><path class="cls-47" d="M1023.74,449.52c-8.27,4.48-19,9.59-22.74,11-1.3.5-6.51,6.82-6.51,6.82" transform="translate(-3.38 -2.19)"/></g></g><g id="Слой_33" data-name="Слой 33"><path class="cls-48" d="M715.9,297.27c5.05-.94,25-20.85,15.83-35.93-4.88-8-19.28,5.85-14.88,11.79,9.84,13.27,39.59-63.29,27.12-90.53-2-4.35-77.5-16.91-78.69-11.65-1.85,8.2,26.16,85,23.93,104.4S680.07,300.9,676.5,300c-6.43-1.63-8.59-17.94-3.66-20.1,5.57-2.44,7.16,7.2,7.16,7.2" transform="translate(-3.38 -2.19)"/></g><g id="Слой_32" data-name="Слой 32"><g id="Слой_25" data-name="Слой 25"><path class="cls-37" d="M753.44,195.63c.17.82.73,1.67.32,2.76s-2,1.74-1.82,3.24a5.16,5.16,0,0,1-1.38,3.82c-1,1-7.88.91-8.7,1.86-.3.35-2.22,6.27-5.53,13.95.75-10.45-5.11-15.84-9.82-18.46,6.21-1,15.67-5,16.41-6.31s0-1.8,1-2.51a20.63,20.63,0,0,0,8.2-12.17c.3,1.78-.45,4.38.19,5.13.82.95,2,1.77,2.08,3.27S753.11,194.07,753.44,195.63Z" transform="translate(-3.38 -2.19)"/><path class="cls-38" d="M752.08,181.81a20.63,20.63,0,0,1-8.2,12.17c-1,.71-.19,1.16-1,2.51s-10.2,5.32-16.41,6.31a23.33,23.33,0,0,0-5.35-2.16c9-2,17-4.95,18.23-8,1.55-4-1.32-12.2-.68-13s3.13-.4,4.45,3.44c.86,2.5,2.11,4.83,2.53,3.88.63-1.41,1.19-1.54,1.79-3,.69-1.68-3.8-1.78-4.65-3.5-.63-1.26,7.48-1.28,8.73.08A2.23,2.23,0,0,1,752.08,181.81Z" transform="translate(-3.38 -2.19)"/><path class="cls-38" d="M648.85,193.82a16.12,16.12,0,0,1-2.52,3.47c-2.2-.45-12.33-2.48-16.44-2.37l4.08-3.25,4.58.61h0c2.06.29,4.66.66,7.5,1.1h0C647,193.52,647.91,193.66,648.85,193.82Z" transform="translate(-3.38 -2.19)"/><path class="cls-40" d="M646.33,197.29a34.27,34.27,0,0,1-11.76,7.91l-13-3.6,8.31-6.68C634,194.81,644.13,196.84,646.33,197.29Z" transform="translate(-3.38 -2.19)"/><path class="cls-38" d="M736.33,221.26h0c-5.7,13.23-15.52,31.67-28.31,36-13.82,4.67-35.58-13.21-36.58-13-1.29.27,2.87,11.74.8,18-1.53,4.64-14.81,20.36-15.5,22.18s-11.76,8.95-37.1,5.38c-27.52-3.88-44.66-9.55-49.58-17.76-2-3.4,3.63-11.62,3.79-15.45.18-4.5-3-9.58-2.5-12.58.39-2.14,32.09-27.9,50.23-42.49l13,3.6a34.27,34.27,0,0,0,11.76-7.91,16.12,16.12,0,0,0,2.52-3.47c6,1,12.64,2.14,17.1,3.33a20.41,20.41,0,0,1,4.57,1.61c4.5,2.66,9.54,4.84,25.64,3.82,11.48-.72,7.79,1.15,18.43-.65,2.2-.37,4.41-.81,6.57-1.29a23.33,23.33,0,0,1,5.35,2.16C731.22,205.42,737.08,210.81,736.33,221.26Z" transform="translate(-3.38 -2.19)"/><path class="cls-39" d="M669,242.53s-19-8.07-20.68-18.87" transform="translate(-3.38 -2.19)"/><path class="cls-38" d="M670.07,174.47c-.34-.06-.29,3.61-.48,4.82s-2.39,1.17-3.13,2.44-1.23,3.63-1.86,4.39c-1.19,1.43-15.64,5.52-18.53,7.26h0c-2.84-.44-5.44-.81-7.5-1.1,4.19-2.22,19.37-7,22.32-8.06,1-.32-3-1.8-1.93-4.35.47-1.18-1.13-2.08-.44-3.75.94-2.31,1.64-5.84,3.63-6.63,1.42-.56,2.31-.08,3.75-1s1.41,2.2-1.61,2.78c-1.14.22-.95,4.58.13,5.11s2.75-.34,2.92-2.82,1.58-2.4,2-2A13.41,13.41,0,0,1,670.07,174.47Z" transform="translate(-3.38 -2.19)"/><path class="cls-37" d="M671,183.25c-.52,1.7-.81,1-1.46,2.43s-3.1,9.94-3.54,11.47c-4.46-1.19-11.06-2.37-17.1-3.33-.94-.16-1.88-.3-2.78-.44,2.89-1.74,17.34-5.83,18.53-7.26.63-.76,1.13-3.13,1.86-4.39s2.93-1.16,3.13-2.44.14-4.88.48-4.82C670.66,177.55,671.3,182.13,671,183.25Z" transform="translate(-3.38 -2.19)"/><path class="cls-40" d="M675.08,201c-4.79-.13-16.77-.42-20.61-.17-4.83.3-12.24.43-12.24.43l7.07-7.42c9.62,1.43,17.89,3,21.22,4.94A26.16,26.16,0,0,0,675.08,201Z" transform="translate(-3.38 -2.19)"/><path class="cls-40" d="M634.55,208.51s70.56-1.56,76.75-.82,20.09.52,21.45.38,3.64,9.1,3.64,9.1-22-1.12-25.11-1.36-17.94-.7-23.39-.75c-8.93-.08-51.8.75-53.93.75S634.55,208.51,634.55,208.51Z" transform="translate(-3.38 -2.19)"/><path class="cls-40" d="M734.56,225.23c-1,2.09-2,4.24-3.14,6.41l-103.06-.49c-1.24,0,4.21-6.31,4.21-6.31C632.94,225,734.56,225.23,734.56,225.23Z" transform="translate(-3.38 -2.19)"/><path class="cls-40" d="M727.08,239.22a74.81,74.81,0,0,1-4.66,6.64c-5.76,0-18.61,0-47.29.67h0a21.36,21.36,0,0,0-3.67-2.25c-.35.07-.3,1-.08,2.34-54.53,1.24-75.3,0-75.3,0s-28.59-7.42,27.22-7.92S727.08,239.22,727.08,239.22Z" transform="translate(-3.38 -2.19)"/><path class="cls-40" d="M673.16,262.47l-1,0c-5.41-.09-31.8-.47-36.9.64-5.69,1.23-60,.45-63.31-.58.93-2.25,1.81-4.37,1.87-5.84a9.41,9.41,0,0,0-.06-1.5c7.36.07,53,.48,57.66.37,5.08-.13,39.61-1.71,41.09-1.72S673.16,262.47,673.16,262.47Z" transform="translate(-3.38 -2.19)"/><path class="cls-40" d="M667.91,269.44c-1.72,2.39-3.7,5-5.51,7.35-7.76-.1-37.47-.5-41.34-.34-8.67.37-43.93-.43-49.33-2.13h0a13.81,13.81,0,0,1-1.66-2.2c-.71-1.19-.48-3,.12-4.93,4.45.29,34.55,3.07,44.56,3.07,2.48,0,23.15-3.09,52.73-.86Z" transform="translate(-3.38 -2.19)"/><path class="cls-40" d="M656.49,284.89c-1.85,2.27-13.07,8.34-36.85,5-12.54-1.78-23-3.93-31-6.54,2.41,0,10.24,0,33.45,1.4C643.68,286,653.47,285.25,656.49,284.89Z" transform="translate(-3.38 -2.19)"/><path class="cls-40" d="M713,254.8a22.14,22.14,0,0,1-5,2.47c-5.27,1.78-11.69.28-17.67-2.23Z" transform="translate(-3.38 -2.19)"/></g><g id="Слой_26" data-name="Слой 26"><path class="cls-39" d="M753.44,195.63c.17.82.73,1.67.32,2.76s-2,1.74-1.82,3.24a5.16,5.16,0,0,1-1.38,3.82c-1,1-7.88.91-8.7,1.86-.35.41-2.9,8.4-7.3,17.92-1,2.09-2,4.24-3.14,6.41-1.33,2.55-2.78,5.11-4.34,7.58a74.81,74.81,0,0,1-4.66,6.64,40.46,40.46,0,0,1-9.4,8.94,22.14,22.14,0,0,1-5,2.47c-5.27,1.78-11.69.28-17.67-2.23a95.87,95.87,0,0,1-15.22-8.51h0a21.36,21.36,0,0,0-3.67-2.25c-.35.07-.3,1-.08,2.34.28,1.8.84,4.44,1.18,7.2.37,3,.48,6.11-.3,8.5a.69.69,0,0,1,0,.13,37.1,37.1,0,0,1-4.28,7c-1.72,2.39-3.7,5-5.51,7.35-2.9,3.78-5.38,6.95-5.66,7.71a1.31,1.31,0,0,1-.25.39c-1.85,2.27-13.07,8.34-36.85,5-12.54-1.78-23-3.93-31-6.54h-.05c-7.95-2.54-13.61-5.53-16.83-9h0a13.81,13.81,0,0,1-1.66-2.2c-.71-1.19-.48-3,.12-4.93.46-1.5,1.14-3.12,1.8-4.68.93-2.25,1.81-4.37,1.87-5.84a9.41,9.41,0,0,0-.06-1.5c-.42-4.09-2.92-8.41-2.44-11.08.55-3,62.62-52.42,62.62-52.42s4.38.56,10.14,1.42c9.62,1.43,23.08,3.71,26.41,5.67a26.16,26.16,0,0,0,4.56,2.22h0c4,1.46,9.88,2.3,21.07,1.59,11.48-.72,7.79,1.15,18.43-.65,11.38-1.93,23.33-5.51,24.8-9.3,1.55-4-1.32-12.2-.68-13s3.13-.4,4.45,3.44c.86,2.5,2.11,4.83,2.53,3.88.63-1.41,1.19-1.54,1.79-3,.69-1.68-3.8-1.78-4.65-3.5-.63-1.26,7.48-1.28,8.73.08s-.11,5.4.71,6.36,2,1.77,2.08,3.27S753.11,194.07,753.44,195.63Z" transform="translate(-3.38 -2.19)"/><path class="cls-39" d="M649,193.5s-2.63,6.56-14.43,11.7l-13-3.6" transform="translate(-3.38 -2.19)"/><path class="cls-43" d="M669,242.53s-19-8.07-20.68-18.87" transform="translate(-3.38 -2.19)"/><path class="cls-39" d="M720.94,200.59s16.63,3.5,15.39,20.68" transform="translate(-3.38 -2.19)"/><path class="cls-39" d="M638.54,192.29c4.16-2.22,19.39-7,22.34-8.07,1-.32-3-1.8-1.93-4.35.47-1.18-1.13-2.08-.44-3.75.94-2.31,1.64-5.84,3.63-6.63,1.42-.56,2.31-.08,3.75-1s1.41,2.2-1.61,2.78c-1.14.22-.95,4.58.13,5.11s2.75-.34,2.92-2.82,1.58-2.4,2-2,2.15,10,1.62,11.69-.81,1-1.46,2.43-3.6,11.7-3.6,11.7" transform="translate(-3.38 -2.19)"/></g><g id="Слой_30" data-name="Слой 30"><path class="cls-37" d="M670.94,443.54s-5.78,31.76-8.48,40c-1.92,5.85-12.08,6.5-18.36,5.64-1-3.57-4.67-16.42-7.18-20.52a11.29,11.29,0,0,0-7.42-5.39,61.66,61.66,0,0,1-2.66-7.89C626.58,452.54,670.94,443.54,670.94,443.54Z" transform="translate(-3.38 -2.19)"/><path class="cls-38" d="M644.1,489.17c-2.56-.34-4.47-.93-4.92-1.53,0,0-6.06-14.76-9.68-24.38a11.29,11.29,0,0,1,7.42,5.39C639.43,472.75,643.1,485.6,644.1,489.17Z" transform="translate(-3.38 -2.19)"/><path class="cls-37" d="M578.79,438.78c-13.23,13.84-23.56,40.33-23.56,40.33-5.57,5-10.68,3.59-14.09,1.33-1.73-12.89-2.83-33-1.76-43.29,1.22-11.64,3.79-17.19,5.38-19.6C559.79,419.33,592.07,424.87,578.79,438.78Z" transform="translate(-3.38 -2.19)"/><path class="cls-38" d="M541.14,480.44a18.26,18.26,0,0,1-4.32-4c-6.88-51.49.74-59.58.74-59.58s2.89.2,7.2.71c-1.59,2.41-4.16,8-5.38,19.6C538.31,447.4,539.41,467.55,541.14,480.44Z" transform="translate(-3.38 -2.19)"/><path class="cls-39" d="M541.27,481.42c0-.32-.09-.65-.13-1" transform="translate(-3.38 -2.19)"/><path class="cls-39" d="M546.12,415.91a7.23,7.23,0,0,0-1.36,1.64" transform="translate(-3.38 -2.19)"/><path class="cls-39" d="M644.35,490.1l-.25-.93" transform="translate(-3.38 -2.19)"/><path class="cls-39" d="M639.27,488.26S627.19,458.82,626.93,456,671,444.16,671,444.16s-5.79,31.76-8.49,40S640.82,490.32,639.27,488.26Z" transform="translate(-3.38 -2.19)"/><path class="cls-39" d="M537.65,417.46s-7.63,8.09-.75,59.59c0,0,8.46,11.67,18.42,2.68,0,0,10.33-26.49,23.55-40.33C596,421.51,537.65,417.46,537.65,417.46Z" transform="translate(-3.38 -2.19)"/></g><g id="Слой_29" data-name="Слой 29"><path class="cls-19" d="M638.37,485.79s-.88-.32-.55,1.43,2.62,11.79,2.52,14.63-1.06,7.63,2.29,12.57c2.06,3,9.18.65,9.18.65v-3.93a38.23,38.23,0,0,0,5.9,3.06c1.85.55,12.33-.49,17-2.68s8.19-8.11,6.4-10-11-1.88-13.81-4.22c-2.3-1.92-4.8-4-4.59-7.48.25-4.26,1.23-7.87.36-8.31s-.36.44-1.23,2-3.94,5.59-14.53,5.14C638.32,488.25,638.37,485.79,638.37,485.79Z" transform="translate(-3.38 -2.19)"/><path class="cls-19" d="M536.14,475.18s1.05,10.73.53,13.34-2,4.06-1.83,7.26,1,10,2.7,10.74,8,0,8.09-.6a29.94,29.94,0,0,0-.26-3.14s3.59,3.53,5.49,3.2,6.61-2.69,10.14-5.68c3-2.55,3.14-4.19,2-5.5-1.6-1.88-9.73-2.42-9.88-4.25-.26-3.14,2.46-10.09,2.62-11.45.22-2-2.55-.39-4.91,0s-8,.79-10.86-1.24S537.32,474.46,536.14,475.18Z" transform="translate(-3.38 -2.19)"/></g><g id="Слой_27" data-name="Слой 27"><path class="cls-19" d="M612.32,154c.17-.51,1.37-1.27,1.35-3.16,0-5.26,3.46-4.53,3.08-12.22-.55-10.88-10-13.07-14.65-12.09-5.32,1.12-12.48,3.44-17,9.83-6,8.47-.38,14.82-.8,21.74-.25,4.09-1.06,6-9.44,8.4-9.37,2.71-9.59,11.17-11.57,17.81-.95,3.21-.74,7.46-9.93,8-12.22.75-17.92,11.59-18.33,19-.23,4.34-.13,15.12,10.73,24,12,9.84,48.16,18.08,74.2,6,21.92-10.16,22.65-64.51-6.42-80-1.45-.78-2.39-3.26-2.43-4.74A3.07,3.07,0,0,1,612.32,154Z" transform="translate(-3.38 -2.19)"/><path class="cls-19" d="M656.83,283.91a184.46,184.46,0,0,1,5.39,21.83c1.53,9.65,7.67,41.44,9,45.82s6.58,30,6.8,35.74-3,46.8-7,57.67c-4.62,12.44-24.71,17.43-50.26,12.06-24.15-5.08-26.92-15.35-34.16-16s-12.58,5.85-28.5.44c-16.62-5.65-23.46-12.94-22.15-23.46s14.91-23.46,16-32-.66-52.62,1.1-60.3,12.49-52,17.1-58.76c-2.5,10.67,16.56,15.61,39,20.39C629.77,291.71,649.16,291.8,656.83,283.91Z" transform="translate(-3.38 -2.19)"/><g id="Слой_28" data-name="Слой 28"><path class="cls-49" d="M566.32,285.28c1.87,2.92,27,14.68,61.65,17,23.24,1.56,28.19-4.88,28.19-4.88" transform="translate(-3.38 -2.19)"/><path class="cls-49" d="M656.16,310.31s14.48,42.33,16.05,45.27" transform="translate(-3.38 -2.19)"/><path class="cls-49" d="M646.3,313.24s7.38,46.65,7.82,47.73,8.46,34.72,9.33,43.83,9.39,33,9.39,33" transform="translate(-3.38 -2.19)"/><path class="cls-49" d="M648.47,458.64s-9.76-49.06-10.63-57.31-4.13-34.72-4.13-42.53-2.6-45.56-2.6-45.56" transform="translate(-3.38 -2.19)"/><path class="cls-49" d="M609.2,311.07A460.22,460.22,0,0,0,614,402c2.09,13.21-1.08,52.95-1.08,52.95" transform="translate(-3.38 -2.19)"/><path class="cls-49" d="M590.1,307.16s-7.59,49.69-1.08,97.64c.76,5.58-4.77,35.81-4.77,35.81" transform="translate(-3.38 -2.19)"/><path class="cls-49" d="M575.57,300s-13,44.92-14.76,93.95c-.26,7.38-16.71,40.58-16.71,40.58" transform="translate(-3.38 -2.19)"/><path class="cls-30" d="M566.32,294.57a267.66,267.66,0,0,0-14.08,62" transform="translate(-3.38 -2.19)"/></g><path class="cls-39" d="M656.83,283.91a184.46,184.46,0,0,1,5.39,21.83c1.53,9.65,7.67,41.44,9,45.82s6.58,30,6.8,35.74-3,46.8-7,57.67c-4.62,12.44-24.71,17.43-50.26,12.06-24.15-5.08-26.92-15.35-34.16-16s-12.58,5.85-28.5.44c-16.62-5.65-23.46-12.94-22.15-23.46s14.91-23.46,16-32-.66-52.62,1.1-60.3,12.49-52,17.1-58.76c-2.5,10.67,16.56,15.61,39,20.39C629.77,291.71,649.16,291.8,656.83,283.91Z" transform="translate(-3.38 -2.19)"/></g><g id="Слой_31" data-name="Слой 31"><path class="cls-37" d="M618.07,162.66c-1.25.18-2.34.24-2.34.24a16.06,16.06,0,0,1-3.39-1.81c-1.13-.92-1.23-3.43-1.54-4.35s-1.58.17-3.17-1.33c-1.25-1.18-1.12-4.41,0-5.33s3.38,1.25,4.71,1.45.73-1.17,1-2.7a6.51,6.51,0,0,1,.61-1.67C614.92,149.49,617.55,156.22,618.07,162.66Z" transform="translate(-3.38 -2.19)"/><path class="cls-38" d="M621.63,161.24c-.12.76-2,1.19-3.56,1.42-.52-6.44-3.15-13.17-4.13-15.5a30.33,30.33,0,0,1,2.15-3.57c2.27,8.9,4.49,8.28,4.49,9.22s-.88.72-1.24,2.1C619,156.08,621.83,159.91,621.63,161.24Z" transform="translate(-3.38 -2.19)"/><path class="cls-39" d="M615.73,162.9s5.68-.3,5.9-1.66-2.59-5.16-2.29-6.33c.36-1.38,1.24-1.17,1.24-2.1s-2.22-.32-4.49-9.22c0,0-2.48,3.5-2.76,5.24-.25,1.53.35,2.9-1,2.7s-3.59-2.37-4.71-1.45-1.26,4.15,0,5.33c1.59,1.5,2.86.41,3.17,1.33s.41,3.43,1.54,4.35A16.06,16.06,0,0,0,615.73,162.9Z" transform="translate(-3.38 -2.19)"/></g></g><g id="Слой_35" data-name="Слой 35"><circle class="cls-50" cx="383.51" cy="468.65" r="4.08"/><circle class="cls-50" cx="333.15" cy="475.07" r="5.08"/><circle class="cls-50" cx="333.58" cy="459.17" r="2.89"/><path class="cls-5" d="M386.8,301.09c4.2,14.08,4.5,17.74,2.83,20.75-2.53,4.57-12.42,11.83-34.74,12.27-15.72.31-29.94-3.57-37.05-9.71.69-10,5.73-23.54,10-30.1,4.82-7.34,6.88-19,7.11-25.23s-14.22-31.88-14.22-31.88c2.75.69,6.35-2.68,7.11-9.17s-4.13-12.16-4.13-12.16c6-.92,19-4.36,19-4.36,21.33,8.26,23.16,2.3,26.83,2.07,3-.19,15.9,6,20.56,8.33.87,3.69,1.08,8.86-.55,11.91-2.52,4.72-1.89,5.51-1.1,7.08a16,16,0,0,1,1.56,8.41c-.82,6.25-7.19,10.85-8,13.91C381.41,265.76,379.34,276.13,386.8,301.09Z" transform="translate(-3.38 -2.19)"/><path class="cls-38" d="M390.18,221.9c-4.66-2.3-17.57-8.52-20.56-8.33-3.67.23-5.5,6.19-26.83-2.07,0,0-13.08,3.44-19,4.36,0,0,4.9,5.61,4.13,12.16s-4.36,9.86-7.11,9.17c0,0,14.45,25.69,14.22,31.88S332.7,287,327.88,294.3c-4.31,6.56-9.35,20.09-10,30.1-3.3-2.84-5.07-6.17-4.76-9.79.75-8.89,14.28-25.23,14.59-42.34.31-16.73-14.27-32.55-16.16-44.3-1.53-9.55,4-13.31,6.82-14.41s21.15-3.64,24.14-5.37h19.81s24.21,8,26.1,9.56C389.05,218.31,389.71,219.88,390.18,221.9Z" transform="translate(-3.38 -2.19)"/><path class="cls-22" d="M389.76,462.89c-4.86-2-15.5-5.38-31-5.44,0-.71,0-1.43-.06-2C373.63,455.91,385.82,458.92,389.76,462.89Z" transform="translate(-3.38 -2.19)"/><path class="cls-22" d="M351,455.41v2.47c-4.93-.06-22.27.1-28.27,4.68-3,2.29-3,4.94-1.95,7.22-2-1.25-3.05-2.65-3.05-4.12C317.77,460.3,332.39,455.88,351,455.41Z" transform="translate(-3.38 -2.19)"/><path class="cls-22" d="M387.49,467.27c-18.36,11.45-58.75,6.44-63.85,1.52-1.93-1.87-.62-3.23.5-4a1.47,1.47,0,0,0-.14.61c0,3.56,13.7,6.44,30.6,6.44s30.6-2.88,30.6-6.44a2.22,2.22,0,0,0-1.05-1.67C386.51,464.71,389.28,466.15,387.49,467.27Z" transform="translate(-3.38 -2.19)"/><path class="cls-51" d="M391.11,465.66c0,5.7-16.42,10.31-36.67,10.31-15,0-27.95-2.54-33.61-6.18h0c-1-2.28-1.06-4.93,1.95-7.22,6-4.58,23.08-5.07,28-5l.26,1.5c-14.25.35-25.52,2.75-26.9,5.78h0c-1.12.72-2.43,2.08-.5,4,5.1,4.92,45.49,9.93,63.85-1.52,1.79-1.12-1-2.56-3.34-3.49h0c-3.17-2.48-13.08-4.35-25.3-4.7,0-.47-.05-1-.07-1.62,15.5.06,26.14,3.47,31,5.44A4,4,0,0,1,391.11,465.66Z" transform="translate(-3.38 -2.19)"/><path class="cls-52" d="M391.11,465.66c0,5.7-16.42,10.31-36.67,10.31s-36.67-4.61-36.67-10.31c0-5.36,14.62-9.78,33.27-10.25v3.64c-15.22.37-27,3.09-27,6.4,0,3.56,13.7,6.44,30.6,6.44s30.6-2.88,30.6-6.44c0-3.26-11.47-5.95-26.37-6.38-.06-1-.1-2.57-.13-3.64C377,456,391.11,460.38,391.11,465.66Z" transform="translate(-3.38 -2.19)"/><path class="cls-51" d="M360.3,333.85l-.28,132a12.91,12.91,0,0,1-3.89,1.33,5.89,5.89,0,0,1-2.85-1.68V363.05s-2.08-1.22-3.71-2.12V334.05Z" transform="translate(-3.38 -2.19)"/><path class="cls-22" d="M356.13,467.13a7.51,7.51,0,0,1-6.56-1.68V360.93c1.63.9,3.71,2.12,3.71,2.12v102.4A5.89,5.89,0,0,0,356.13,467.13Z" transform="translate(-3.38 -2.19)"/><path class="cls-52" d="M362.28,208.19s24.21,8,26.1,9.56,3.77,11.35,1.25,16.06-1.89,5.51-1.1,7.08a16,16,0,0,1,1.56,8.41c-.82,6.25-7.19,10.85-8,13.91-.67,2.55-2.74,12.92,4.72,37.88,4.2,14.08,4.5,17.74,2.83,20.75-2.53,4.57-12.42,11.83-34.74,12.27-23,.45-42.78-8.05-41.81-19.5.75-8.89,14.28-25.23,14.59-42.34.31-16.73-14.27-32.55-16.16-44.3-1.53-9.55,4-13.31,6.82-14.41s21.15-3.64,24.14-5.37Z" transform="translate(-3.38 -2.19)"/><path class="cls-52" d="M349.57,334.05v131.4s3.65,3.84,10.45.35l.28-131.95Z" transform="translate(-3.38 -2.19)"/></g><g id="Слой_36" data-name="Слой 36"><circle class="cls-42" cx="1130.49" cy="489.73" r="5"/><circle class="cls-42" cx="1192.19" cy="497.6" r="6.23"/><circle class="cls-42" cx="1191.67" cy="478.12" r="3.54"/><path class="cls-37" d="M1217.63,482.61c-6-2.42-19-6.6-38-6.67,0-.87-.05-1.75-.07-2.47C1197.86,474.05,1212.8,477.74,1217.63,482.61Z" transform="translate(-3.38 -2.19)"/><path class="cls-37" d="M1169.48,473.47v3c-6-.07-27.29.12-34.64,5.74-3.69,2.8-3.66,6-2.39,8.84-2.41-1.53-3.74-3.24-3.74-5.05C1128.71,479.46,1146.62,474,1169.48,473.47Z" transform="translate(-3.38 -2.19)"/><path class="cls-37" d="M1213.79,487.55c-22.49,14-72,7.89-78.23,1.86-2.37-2.29-.76-4,.61-4.84a1.79,1.79,0,0,0-.17.75c0,4.36,16.78,7.89,37.49,7.89s37.5-3.53,37.5-7.89a2.7,2.7,0,0,0-1.29-2.05C1212.59,484.41,1216,486.17,1213.79,487.55Z" transform="translate(-3.38 -2.19)"/><path class="cls-26" d="M1218.33,485.57c0,7-20.13,12.64-44.94,12.64-18.42,0-34.25-3.12-41.18-7.58h0c-1.26-2.79-1.29-6,2.39-8.85,7.36-5.61,28.29-6.21,34.33-6.13l.31,1.83c-17.46.43-31.27,3.37-33,7.09h0c-1.37.88-3,2.55-.61,4.84,6.25,6,55.74,12.17,78.24-1.86,2.19-1.38-1.2-3.14-4.09-4.28h0c-3.88-3-16-5.33-31-5.76,0-.58-.06-1.28-.09-2,19,.08,32,4.25,38,6.67A4.87,4.87,0,0,1,1218.33,485.57Z" transform="translate(-3.38 -2.19)"/><path class="cls-52" d="M1128.71,485.57c0,7,20.12,12.64,44.93,12.64s44.94-5.65,44.94-12.64c0-6.57-17.92-12-40.77-12.56v4.46c18.65.46,33.13,3.79,33.13,7.85,0,4.36-16.78,7.89-37.49,7.89s-37.5-3.53-37.5-7.89c0-4,14.06-7.3,32.31-7.82.08-1.28.13-3.15.16-4.46C1146.06,473.76,1128.71,479.1,1128.71,485.57Z" transform="translate(-3.38 -2.19)"/><path class="cls-37" d="M1175.39,487.37c-5.26.87-8-2.05-8-2.05V357.24c2,1.1,4.54,2.6,4.54,2.6V485.32A7.24,7.24,0,0,0,1175.39,487.37Z" transform="translate(-3.38 -2.19)"/><path class="cls-26" d="M1179.62,324.06l-.32,161.68a14.09,14.09,0,0,1-4.45,1.63,6.66,6.66,0,0,1-3.26-2.05V361.85s-2.38-1.53-4.24-2.63V324.3Z" transform="translate(-3.38 -2.19)"/><path class="cls-52" d="M1167.35,332.12v153.3s4.17,4.48,12,.41l.32-153.94Z" transform="translate(-3.38 -2.19)"/><path class="cls-53" d="M1226.72,201.74c-1.3-1.57-2.84-3.09-4.22-3.55-5.61-1.88-24.82-7.18-30.25-9.89,0,0-1.49,4-8.72,5.53s-15.06,1.06-16.34-.21-1.68-6.17,2.8-12.4l18.32.52c3.66,2.12,26.61,7.55,30.08,8.9A13.7,13.7,0,0,1,1226.72,201.74Z" transform="translate(-3.38 -2.19)"/><path class="cls-53" d="M1145.11,278.87c-1,5.94-6.43,25.18-7.47,32.92a69.86,69.86,0,0,0-.22,14.83,15.63,15.63,0,0,1-5.1-5.28c-2-3.7-1.43-17,1.67-25.76a86.53,86.53,0,0,0,2.37-49.26c1.28-.33,3.07-.81,3.66-1a6.61,6.61,0,0,1,2.71,4.08c.68,2.88.68,10.34,1.36,13.57S1146.12,272.94,1145.11,278.87Z" transform="translate(-3.38 -2.19)"/><path class="cls-37" d="M1226.39,208.49c-2.31,14.4-15.38,40.7-15,61.21.19,10.48,4.46,16.57,6.8,23.37s2.72,14.32,3.18,19.77c1.19,14-20.4,24.07-48.53,22.34-19.32-1.2-29.9-4.68-35.62-8.56a69.86,69.86,0,0,1,.22-14.83c1-7.74,6.45-27,7.47-32.92s-.34-12.72-1-15.94-.68-10.69-1.36-13.57a6.61,6.61,0,0,0-2.71-4.08c-.59.23-2.38.71-3.66,1-.09-.36-.17-.65-.22-.85-1-3.75-5.17-5.69-6.18-13.35a19.7,19.7,0,0,1,1.91-10.31c1-1.93,1.74-2.89-1.35-8.67s-.78-17.75,1.53-19.68,33-12.38,33-12.38l5,.14c-4.48,6.23-4,11.17-2.8,12.4s9.12,1.7,16.34.21,8.72-5.53,8.72-5.53c5.43,2.71,24.64,8,30.25,9.89,1.38.46,2.92,2,4.22,3.55A22.11,22.11,0,0,1,1226.39,208.49Z" transform="translate(-3.38 -2.19)"/><path class="cls-52" d="M1164.85,181.22s-30.68,10.46-33,12.38-4.62,13.9-1.53,19.68,2.31,6.74,1.34,8.67a19.82,19.82,0,0,0-1.91,10.31c1,7.66,5.19,9.6,6.18,13.35a86.33,86.33,0,0,1-2.15,50.11c-3.1,8.76-3.72,22.06-1.67,25.76,3.1,5.59,12.75,12.11,40.72,13.84,28.13,1.73,49.72-8.32,48.54-22.34-.46-5.45-.86-13-3.19-19.76s-6.61-12.9-6.8-23.38c-.38-20.51,12.69-46.81,15-61.21,1.88-11.7-4.74-16.5-8.2-17.85s-26.42-6.78-30.08-8.9Z" transform="translate(-3.38 -2.19)"/></g><g id="Слой_37" data-name="Слой 37"><path class="cls-42" d="M1127.77,236.18c3.49.84,9.91,3.11,12.91,3.69a37.37,37.37,0,0,0,9.64,0c3.2-.43,4.48-1.6,6.5-3.42s9.38,1.26,9.38,1.26-6.54-51.41-2.06-54.74c3.81-2.83,5.27-1.28,5.4-2.25.2-1.57-.82-2.16-2.56-2.16s-35.69,7.77-37.07,9.93a56.62,56.62,0,0,0-4.17,8.83s-.61-.66-3,2c-4.62,6.65-13.06,45.65-12.48,49.69,1-.63,2.26-2.6,4.77-2.94,6.62-.89,9.49,3.28,13.4,2.64,2-.32,3.79-1.92,3.3-3.43h0" transform="translate(-3.38 -2.19)"/><g id="Слой_38" data-name="Слой 38"><path class="cls-27" d="M1155.56,237.51s-3.6-3.09-3.86-6.18-.39-6.81,2.83-8.87,8.36-.51,9.13-.51a.62.62,0,0,1,.68.71" transform="translate(-3.38 -2.19)"/><path class="cls-27" d="M1147.2,240.08s.77-4.76.77-6.05-5-8.48-9.9-7.58-7.71,9.51-7.58,10.16" transform="translate(-3.38 -2.19)"/><path class="cls-27" d="M1125.74,235.78s-2.51-5.77-5.47-8.43-5.47-2.57-5.47-2.57" transform="translate(-3.38 -2.19)"/><path class="cls-27" d="M1124.24,242.07a8,8,0,0,1-4,1.09c-2.9.26-6.24-.41-6.88-1.15s-2.06-2.2-2.06-2.2" transform="translate(-3.38 -2.19)"/><path class="cls-27" d="M1129.46,248.56a8.39,8.39,0,0,0-9.52-2.17" transform="translate(-3.38 -2.19)"/><path class="cls-27" d="M1128.16,227.22s5.36,1.67,7-4.89c1.33-5.14.27-8.68-4.28-11.63-4.17-2.7-7.2-.59-7.33.44a16.73,16.73,0,0,1-1.08,4.77,6.7,6.7,0,0,0,.31,6c1.28,2,.09,3.43,5.42,5.64" transform="translate(-3.38 -2.19)"/><path class="cls-27" d="M1141.69,210s6.8-7.84,11.3-6.68,5.08,3.08,5.47,4.11a17.11,17.11,0,0,1,.57,5.4c-.13,1.67-1.8,1.67-3.09,3.6-2,3-3.26,3.78-5.4,4.37-2.32.65-6.27,1.54-8.85-1.93a7.6,7.6,0,0,1,0-8.87" transform="translate(-3.38 -2.19)"/><path class="cls-27" d="M1163.42,207.29s-3.1,0-3.11-6c0-3.22.75-2.78,1.45-5.23s.81-2.23.81-2.23" transform="translate(-3.38 -2.19)"/><path class="cls-27" d="M1159.67,180s.4,8-1.21,10.16a13.41,13.41,0,0,1-4.86,4.44c-1.67.78-2.8,1.09-4.7-.23-2.56-1.77-4-2.15-4.91-4.47s.38-5.78.38-5.78" transform="translate(-3.38 -2.19)"/><path class="cls-27" d="M1141.84,193.53a3.12,3.12,0,0,1,2.15,2.7c.38,2.32.48,4.65-1.08,7a13,13,0,0,1-5,4.62c-1.8.9-2.83,1.28-4.75.38s-3.89-1.33-4.56-4.28-.33-4.59.83-6.54c1.4-2.35,4.43-5.82,6.27-5.69s4.73,1.72,6.11,1.85" transform="translate(-3.38 -2.19)"/><path class="cls-27" d="M1126.76,194.31a9.35,9.35,0,0,1-.65,5.52,11.17,11.17,0,0,1-6.17,6.18" transform="translate(-3.38 -2.19)"/><path class="cls-27" d="M1139.47,185.08s-1.14,3.57-5.9,4.08-3.37,0-3.37,0" transform="translate(-3.38 -2.19)"/></g><path class="cls-54" d="M1131.77,245.34a1.56,1.56,0,0,0-.25-.5c-1.4-2-13.32-3.66-13.44-5-.19-2.2,1.77-4.5,8-3.95a11.88,11.88,0,0,1,1.65.32S1132.22,243.68,1131.77,245.34Z" transform="translate(-3.38 -2.19)"/><line class="cls-55" x1="1128.39" y1="243.16" x2="1128.39" y2="243.15"/><path class="cls-55" d="M1142.45,215.4c-2.76-15.67.44-24.84-.63-24.93-4.45-.35-17.27,32.32-13,38.47,2,2.86,4.45,2.31,5.34,3.83" transform="translate(-3.38 -2.19)"/><path class="cls-55" d="M1118.08,239.81c-2.23-11.57,3-30.62,7.66-42.44" transform="translate(-3.38 -2.19)"/><path class="cls-31" d="M1127.77,236.18c3.49.84,9.91,3.11,12.91,3.69a37.37,37.37,0,0,0,9.64,0c3.2-.43,4.48-1.6,6.5-3.42s9.38,1.26,9.38,1.26-6.54-51.41-2.06-54.74c3.81-2.83,5.27-1.28,5.4-2.25.2-1.57-.82-2.16-2.56-2.16s-35.69,7.77-37.07,9.93a56.62,56.62,0,0,0-4.17,8.83s-.61-.66-3,2c-4.62,6.65-13.06,45.65-12.48,49.69,1-.63,2.26-2.6,4.77-2.94,6.62-.89,9.49,3.28,13.4,2.64,2-.32,3.79-1.92,3.3-3.43h0" transform="translate(-3.38 -2.19)"/></g><g id="Слой_45" data-name="Слой 45"><path class="cls-56" d="M1448.49,537.72s-1.35,14.78-1.69,16.12-1,4-3.37,3.71-1.51-3.54-1.68-4.55,1.35-16.51,1.35-16.51Z" transform="translate(-3.38 -2.19)"/><path class="cls-57" d="M1470.65,514.14c1.11-1.84,18.19,17.09,13.45,23-4.46,5.6-9-1.88-9.15-4.59C1474.34,521.89,1469.54,516,1470.65,514.14Z" transform="translate(-3.38 -2.19)"/><path class="cls-56" d="M1391.76,490.14a8.53,8.53,0,0,1-4.34,2.45c-2.46.38-9-2.61-14.55-1.23-7.37,1.83-17.43,10.89-20.59,23.33-.27,1.08,25.77-19.39,34.09-8.84,1.9,2.41-8.3-1.05-14.53,3.48s-15.47,14.89-16.88,16.87c-.63.89,8,8.72,9.92,8.72s-.13-1.34,2.89-6.44,17-15.57,18.18-14-7.9,9.21-9.3,12.08c-2.19,4.5-3.08,10.22-2.7,10.79.17.26,4.5.71,9.31-.37,5.76-1.3,9.67-3.26,12.47-5.9.63-.61-2.16-14.72-1.14-15.49,1.66-1.25,9.64,9.25,9.64,9.25s7-5.29,7-12.84c0-11.54-13.94-5-15.27-6s6.53-9.8,16-7.93c7.16,1.4,4-11.52,4-11.52Z" transform="translate(-3.38 -2.19)"/><path class="cls-56" d="M1393.51,493.34s-3.6,1.54-1.72,3.94,7.07,1.92,11.32,13.2,2.57,37.37,3.08,38.91.17,4.46,4.11,5.15,3.78-5.83,3.78-6.35-.11-27-4.29-36.68S1396.59,493.51,1393.51,493.34Z" transform="translate(-3.38 -2.19)"/><path class="cls-56" d="M1455.73,504.14s6.89,58.67,2.57,61c-1.88,1-6.51-8.74-6.51-12.85s2.45-37.37-.58-45.95S1455.73,504.14,1455.73,504.14Z" transform="translate(-3.38 -2.19)"/><path class="cls-56" d="M1426.48,411.22s8.28,23.92,9,34.36,12,61-7.64,122.4c-.47,1.47-7.54.27-7.11-3.53s28.49-67.27,2.78-150.71Z" transform="translate(-3.38 -2.19)"/><path class="cls-56" d="M1483.37,444s-14.75,16.52-23.65,46.41l-6.57-3.12s13-35.81,26.36-46Z" transform="translate(-3.38 -2.19)"/><path class="cls-56" d="M1444.29,459.85s7,14.43,7.47,25.55h-5s-4-21.55-5.56-24.16Z" transform="translate(-3.38 -2.19)"/><path class="cls-56" d="M1439.59,487.6s1.19-4.77,4.43-4.94,13.28,0,14.81,1.19,3.65,6.13,3.48,9.7-4.42,6.64-3.23,8.34,11.5.69,13-12.76c0,0,11.9,4.31,11,6.54-3.63,9.22-13,9.56-12.34,11.6s12.27.24,17.66-6.9c1.06-1.41,7.24,7.83,6.09,8.68s-13.44,3.25-15.28,3.57c-1.35.24,5.65,3.12,18,1.37,1.22-.18,6.48,15.37.86,21.45-.64.68-4.35-14.26-13.62-15.15-2.76-.27,5.28,3.32,7.83,19.06.31,1.92-16.74,6.59-28.78,4.86-1-.14,1.9-3.4,1.78-13-.12-9.37-5.41-25.2-11.48-24.39-4.82.63,9.39,26-7,33.53-2.55,1.18-8.34-6.44-8.34-6.44s10.36-15.19,5.16-16.35c-8.85-2-11.3,8-13.52,7.26-1.69-.56-3.67-8.6-3.73-11.88-.06-3.86,9.71-11.74,11.58-12.93S1439.59,487.6,1439.59,487.6Z" transform="translate(-3.38 -2.19)"/></g><g id="Слой_44" data-name="Слой 44"><path class="cls-41" d="M1483.24,470c.44.59.29-12.36-8.58-18-13.08-8.38-32.63-4-35.22-5s-1.73-4.6-3.07-6.5c-2.3-3.29-29.56-5.83-40.47,5.37-11.62,11.92-10.45,26.46-9.46,26.08,13.89-5.29,29.12-.82,32.29,7.33.74,1.91-13.74-2.34-18.3-1.38-5.3,1.12-13.2,7.09-13.2,8.12a7.7,7.7,0,0,0,2.5,5.17c2.71,2.55,4.17,5.64,5.14,6.19,1.28.73,19-10.65,20.41-6.7,1,2.76-4,4.31-9.67,11.22s-6,7.83-5.18,9.56,7.57,7.95,8.61,9.87,1,4,3.11,4.31,6.06-3.65,7.61-4.41c5.48-2.69,10-2.61,11.15-3.4s-2.6-11.5-5-17.1c-2.13-5.06-5.49-8.16-3.6-9.54s8.67,4.39,10.48,5.89c5.32,4.4,11.62,16.66,11.79,16.55,1-.63,14.16-5.17,14.5-6.21s-7.25-16.05-13.81-20-16-3-16.38-6c-.47-3.95,12.29-2.48,16.76-2.54,7.08-.1,19.8,5.09,24.59,10.63,2.64,3,2.83,4.91,3.91,6.26.64.81,6-8.78,5.81-9.3s-2.93-2.68-6.21-6-9-7.94-14.32-9.32-16.37-2.11-23.92-1.29c-6.26.68-.25-4.43,1.82-5.44,4.67-2.28,19.56-4.06,25.2-3.45C1469.68,461.65,1479.62,465.12,1483.24,470Z" transform="translate(-3.38 -2.19)"/><path class="cls-57" d="M1422.76,466s3.31-1.58,0-8.33-8.18-8.62-11.49-7.76-5.17,1.58-7.18,1.15-5.6-1.15-5.89,1.15.72,3.88,2.3,4.16,4.88-1.43,6.32-.28S1415.72,466.86,1422.76,466Z" transform="translate(-3.38 -2.19)"/><path class="cls-41" d="M1371.83,377.63s10.26-9.09,32.05-8.75c0,0-1.18,18.48,4.16,17.59,1.63-.28.55-14.27,4.59-17,2.67-1.82,13.81,1.51,12.67,2.48-3.67,3.13-12.6,16-10.06,19.66,3,4.26,6.8-11.23,18.18-16.14,3.58-1.54,13.41,9.39,10.62,9.2-7.46-.48-24.79,10.83-20.64,15.69,1.62,1.89,6.79-3.81,12.15-5.75,3.37-1.22,13.26-1.86,14-1.12s3.55,8.65-.44,13c-4.22,4.62-19.15,5.39-22.69,8.55s-8.21,11.58-20.32,12.51-28.27-3.82-28.78-5.76c-.81-3.06,6.05-6.91,11.83-9.14s26.31-3,26.49-6.35-4.14-3.9-6.56-3.71-31.35,1.4-38.75,8.75c-2.59,2.58-7.71-24.29-1.59-26.76,4.16-1.67,22-.16,27.12.31C1398.21,385.11,1391.6,377,1371.83,377.63Z" transform="translate(-3.38 -2.19)"/><path class="cls-57" d="M1406.55,394.49c-1.09-3-31.83-9.59-35.07-1.34-2.4,6.11,7.37,5.17,13.76,4.08S1406,397,1406.55,394.49Z" transform="translate(-3.38 -2.19)"/><path class="cls-41" d="M1520.84,422.67s-6.38-6.91-21.26-8.14c0,0-.44,12.72-4,11.76-1.09-.3.59-9.81-2-12-1.7-1.42-9.52.11-8.81.86,2.29,2.38,7.52,11.82,5.54,14.12C1488,432,1486.42,421.16,1479,417c-2.33-1.3-9.77,5.52-7.86,5.58,5.12.17,16.18,9.07,13,12.12-1.23,1.19-4.38-3.06-7.9-4.74-2.22-1.06-8.93-2.17-9.48-1.71s-3,5.68-.58,8.95c2.56,3.44,12.7,5,14.9,7.37s4.82,8.47,13,9.92,19.54-.71,20-2c.76-2-3.66-5.13-7.45-7s-17.74-3.81-17.64-6.12,3.08-2.39,4.72-2.1,21.29,3.06,25.84,8.59c1.59,1.94,6.9-16.1,2.88-18.2-2.72-1.43-15-1.59-18.51-1.61C1502.35,426,1507.41,420.88,1520.84,422.67Z" transform="translate(-3.38 -2.19)"/><path class="cls-57" d="M1496,431.88c1-2,22.35-4.43,24,1.43,1.23,4.34-5.38,3-9.66,1.87S1496.27,433.61,1496,431.88Z" transform="translate(-3.38 -2.19)"/></g></svg>