<svg xmlns="http://www.w3.org/2000/svg" xmlns:xlink="http://www.w3.org/1999/xlink" viewBox="0 0 741 741"><defs><style>.cls-1,.cls-12,.cls-14,.cls-17,.cls-8{fill:none;}.cls-2,.cls-9{fill:#f3f6fa;}.cls-3{fill:#ff80b5;}.cls-4{fill:#d4dde6;}.cls-5{fill:#ffcde0;}.cls-6{fill:#ffcede;}.cls-16,.cls-20,.cls-21,.cls-6,.cls-7,.cls-8,.cls-9{stroke:#232c3f;}.cls-12,.cls-13,.cls-14,.cls-16,.cls-18,.cls-20,.cls-21,.cls-6,.cls-7,.cls-8,.cls-9{stroke-linecap:round;stroke-linejoin:round;}.cls-7{fill:#ff86b3;}.cls-10{clip-path:url(#clip-path);}.cls-11{fill:#fff;}.cls-12,.cls-13,.cls-14{stroke:#a30042;}.cls-12{stroke-width:2px;}.cls-13{fill:#a30042;}.cls-13,.cls-14{stroke-width:3px;}.cls-15{fill:#f7e0ea;}.cls-16,.cls-18{fill:#232c3f;}.cls-17{stroke:#000;stroke-miterlimit:10;}.cls-18{stroke:#f3f6fa;}.cls-19{fill:#002e6b;}.cls-20{fill:#9e0043;}.cls-21{fill:#d5dce4;}</style><clipPath id="clip-path"><path class="cls-1" d="M632.751,261.0326a45.2956,45.2956,0,1,1-34.301-54.1A45.3086,45.3086,0,0,1,632.751,261.0326Z"/></clipPath></defs><g id="bg"><rect class="cls-2" width="741" height="741"/></g><g id="bg_copy_2" data-name="bg copy 2"><polygon class="cls-3" points="74.94 512.845 77.308 480.942 88.78 486.479 98.431 465.437 98.163 500.621 85.107 493.125 74.94 512.845"/><polygon class="cls-3" points="563.863 690.223 565.214 672.021 571.759 675.18 577.265 663.175 577.113 683.249 569.663 678.972 563.863 690.223"/><polygon class="cls-4" points="651.979 340.061 679.126 337.6 672.547 313.378 651.979 340.061"/><polygon class="cls-4" points="73.112 642.055 100.259 639.594 93.681 615.372 73.112 642.055"/><polygon class="cls-4" points="222.539 405.752 232.221 421.13 244.615 409.888 222.539 405.752"/><polygon class="cls-4" points="459.803 323.123 469.485 338.501 481.879 327.259 459.803 323.123"/><polygon class="cls-5" points="557.787 136.013 537.537 123.223 545.233 117.59 534.724 103.809 557.88 116.365 548.332 122.356 557.787 136.013"/><polygon class="cls-5" points="693.808 558.212 673.558 545.422 681.254 539.789 670.745 526.007 693.901 538.564 684.353 544.555 693.808 558.212"/><polygon class="cls-5" points="98.171 186.921 77.921 174.131 85.617 168.498 75.108 154.716 98.264 167.273 88.716 173.263 98.171 186.921"/><path class="cls-6" d="M184.8482,399.48a47.78,47.78,0,0,0,11.8738-30.8372l-22.9917-.3544a24.9585,24.9585,0,1,1-9.7351-20.1681l14.04-18.2278a47.9713,47.9713,0,1,0,6.8128,69.5875Z"/><path class="cls-7" d="M165.21,349.1165q-.5988-.5241-1.2143-.9962l14.04-18.2278q1.1824.9185,2.326,1.9138a47.86,47.86,0,0,1,16.3606,36.8365l-22.9917-.3544A24.9134,24.9134,0,0,0,165.21,349.1165Z"/><path class="cls-8" d="M132.3225,386.688A24.9659,24.9659,0,0,1,163.9952,348.12q.6156.4722,1.2143.9962a24.9658,24.9658,0,0,1-32.887,37.5715Z"/><path class="cls-9" d="M184.046,137.8933h2.5358a7.647,7.647,0,0,1,7.647,7.647v56.313a0,0,0,0,1,0,0h-17.83a0,0,0,0,1,0,0V145.54A7.647,7.647,0,0,1,184.046,137.8933Z" transform="translate(-61.5543 122.3938) rotate(-31.6242)"/><path class="cls-6" d="M205.2656,149.8631h2.5358a7.647,7.647,0,0,1,7.647,7.647v33.2845a0,0,0,0,1,0,0h-17.83a0,0,0,0,1,0,0V157.51A7.647,7.647,0,0,1,205.2656,149.8631Z" transform="translate(-58.6421 133.5879) rotate(-31.6242)"/><path class="cls-9" d="M215.9218,124.5325h2.5358a7.647,7.647,0,0,1,7.647,7.647v50.5479a0,0,0,0,1,0,0h-17.83a0,0,0,0,1,0,0V132.1795A7.647,7.647,0,0,1,215.9218,124.5325Z" transform="translate(-48.3037 136.6957) rotate(-31.6242)"/><path class="cls-6" d="M233.8519,124.887h2.5358a7.647,7.647,0,0,1,7.647,7.647V172.6a0,0,0,0,1,0,0h-17.83a0,0,0,0,1,0,0V132.534a7.647,7.647,0,0,1,7.647-7.647Z" transform="translate(-43.0791 145.3717) rotate(-31.6242)"/><g class="cls-10"><path class="cls-5" d="M632.751,261.0326a45.2956,45.2956,0,1,1-34.301-54.1A45.3086,45.3086,0,0,1,632.751,261.0326Z"/><path class="cls-11" d="M608.3279,202.1857c-2.4559.0606-4.7318-1.2228-7.1469-1.6721s-5.5317.4784-5.93,2.9025c-.3426,2.0854,1.5044,3.8144,3.1387,5.1542,7.871,6.4525,15.0579,13.9993,19.6323,23.0912s6.3353,19.89,3.2824,29.5989c-3.1173,9.9138-10.8838,17.785-19.6117,23.4261s-18.5117,9.3894-27.9532,13.7319c11.0671,3.8493,22.36,7.741,34.0751,7.9876s24.1361-3.7514,31.2348-13.0738c4.5288-5.9475,6.5024-13.48,7.27-20.9156,2.7191-26.328-9.4964-53.6956-30.9106-69.2517-3.4064-2.4746-7.7762-4.7438-11.651-3.0968"/></g><path class="cls-12" d="M632.751,261.0326a45.2956,45.2956,0,1,1-34.301-54.1A45.3086,45.3086,0,0,1,632.751,261.0326Z"/><path class="cls-13" d="M593.6,296.1606,588.44,319.21a7.0909,7.0909,0,0,1-8.4707,5.3717l-14.9748-3.3526A7.0892,7.0892,0,0,1,559.63,312.76l5.16-23.05a45.5347,45.5347,0,0,0,28.81,6.45Z"/><path class="cls-14" d="M580.7123,273.9241a70.95,70.95,0,0,0,2.0751-30.1289c-.4222-2.8608-1.0784-5.8219-2.9194-8.0521s-5.1933-3.4576-7.7248-2.0595c-1.9569,1.0807-2.9239,3.3955-3.1725,5.6172a13.0621,13.0621,0,0,0,15.3877,14.2911c4.4378-.8319,8.132-3.8893,11.163-7.2359a14.7516,14.7516,0,0,0,3.3767-5.2278,6.1639,6.1639,0,0,0-.9469-5.9177,5.9028,5.9028,0,0,0-6.4812-1.1915,10.82,10.82,0,0,0-5.0188,4.7252c-3.6256,6.107-3.2078,14.6936,1.8376,19.6921s14.57,4.8834,18.7451-.8615a7.93,7.93,0,0,0,1.6335-5.6709,5.0714,5.0714,0,0,0-3.7354-4.2778c-2.4579-.5022-4.7927,1.2476-6.47,3.1129a27.7641,27.7641,0,0,0-7.0473,18.2931,8.2114,8.2114,0,0,0,.7811,4.029,3.4844,3.4844,0,0,0,3.39,1.9166"/><path class="cls-7" d="M522.1656,408.7328c-1.827,12.7158-18.6287,53.6006-31.1586,70.2627a33.44,33.44,0,0,1-4.4844,5.0292c-16.5757,4.0858-90.0141-3.8865-147.0692-11.4536-12.0716-1.601-23.4054-3.1756-33.3178-4.6173-21.7977-3.1889-36.6926-5.7068-37.31-6.3047-2.2389-2.1659,0-6.4975,0-6.4975,9.6266-7.2814,49.9732-44.1932,82.56-59.9385,15.9778-2.1724,42.0141-1.5479,69.02.1661,10.736.6843,21.6316,1.5413,32.1019,2.4648,30.5539,2.684,57.5336,5.9327,66.7416,7.0754a3.3666,3.3666,0,0,1,2.9166,3.8134Z"/><path class="cls-6" d="M627.7257,513.9275c-.691-4.73-2.3785-39.9612-2.85-41.8546-.4784-1.8934,2.5975-5.9128,2.8368-8.2514.2324-2.3452-2.1326-8.537-3.7868-9.9587-1.6543-1.4151-9.6931-5.9062-11.819-7.5671-2.1326-1.6542-12.0649-26.01-14.6625-29.73-2.6042-3.72-10.8755-14.9614-34.7593-21.1067a42.89,42.89,0,0,0-7.5138-1.2424c-19.9508-1.4881-33.8491,11.7792-33.9223,11.6994a3.3314,3.3314,0,0,1,.9169,2.8169c-1.827,12.7158-18.6287,53.6006-31.1586,70.2627a33.44,33.44,0,0,1-4.4844,5.0292c-27.79,6.8562-215.4586-20.21-217.6974-22.3756s0-6.4975,0-6.4975c-10.8557,8.2049-75,26.993-88.22,36.0349a42.6238,42.6238,0,0,0-9.826,9.3675,44.728,44.728,0,0,0-4.6438,7.5272,15.0617,15.0617,0,0,0-1.03,10.3109c1.7008,6.7166,4.6838,18.8545,5.2818,23.7176,28.1887,10.9088,92.8774,31.8959,139.8012,32.1683a6.1042,6.1042,0,0,1,4.325-5.5474c24.96-7.6269,131.7027-40.0676,141.9537-40.4a15.0792,15.0792,0,0,1,13.9183,7.8394,3.2972,3.2972,0,0,1-.6511,4.1323c-9.4139,8.5636-29.471,42.054-33.1382,45.11-3.5344,2.95-55.5472,11.1214-66.0241,12.7491a6.9347,6.9347,0,0,1-3.5079-.3721c-26.0628-9.9853-34.7525-4.5309-46.3191-10.2178a22.2711,22.2711,0,0,1-3.6008-2.2057h-.0066c-52.252-3.82-150.1121-32.1484-153.1549-33.032-.0466-.0133-.073-.02-.073-.02-2.0264-.5249-15.3136-4.69-15.8318-7.56,0,0-4.7369,5.7732-5.3548,20.4357-.6244,14.669-2.8965,19.4192,0,23.3455,1.2026,1.6344,3.209,6.8828,6.0458,12.8687,0,0-.7375,20.748-.8039,23.7908-.0665,3.0493-.0665,17.8646,6.225,18.4758s49.1294,15.8383,61.1078,19.4923,104.3511,31.2648,113.486,33.6964c9.1349,2.4381,81.8159,8.1251,110.649-6.9028,0,0,28.8267-115.7182,52.9895-124.6538a20.104,20.104,0,0,1,6.4642-1.3487c.3256-.0066.6444-.0066.9567.0067.0929,0,.1794.0066.2656.0133.1728.0066.3455.02.5116.04.1794.0133.3588.0333.5315.06.1063.0132.2127.0332.3123.0464.1261.02.2459.04.3654.0665a10.0255,10.0255,0,0,1,1.1892.2923c.1262.0332.2457.0731.3719.12a.4224.4224,0,0,1,.12.04c.12.0333.2325.08.3522.1263a12.12,12.12,0,0,1,1.3684.6178l.2792.1595a12.8688,12.8688,0,0,1,2.8832,2.2522c.1064.1129.2193.2258.3255.3454.1131.12.2127.2392.3189.3654.2126.2392.412.4983.6113.7574.1.1328.1994.2657.2923.3986.2923.4119.5714.8371.8371,1.2822.0931.1528.1794.3056.2657.4651.0864.1461.1661.2989.2459.4517.0863.1595.1727.3189.2523.4783s.16.3256.2393.4917c.1594.3322.3056.671.4517,1.0165.1262.3056.2525.6112.3721.93.02.0465.0332.093.0532.1395.1.2657.1992.5447.2923.8238.1129.3322.2257.6644.3255,1.0032.2126.6776.3985,1.3818.5779,2.106l.04.1594c.0732.3123.1461.6312.2126.95.02.1063.0466.2126.0664.3189q.09.3986.16.8171c.073.3787.1461.7707.2058,1.1627.0665.3986.1264.7972.1794,1.2025.06.4052.1131.8171.1594,1.229.04.3521.0732.7109.1131,1.0763.02.2059.04.4052.053.6112.0266.2857.0466.5714.0732.857.0266.3455.0465.6976.0663,1.05.0133.1528.02.3056.0266.4584.0067.08.0067.16.0133.2392l.04.9168c.0133.4518.0266.91.0333,1.3686s.0133.9234.0133,1.3951-.0067.9434-.0133,1.4218c-.0133.5647-.0266,1.1294-.0466,1.7074-.0133.3986-.0266.7972-.0465,1.2025-.0265.4584-.0464.9168-.08,1.3818-.0266.4319-.06.87-.0931,1.3155-.0266.4052-.06.8105-.1,1.2224-.04.4385-.08.8769-.12,1.322-.08.7973-.1727,1.6145-.2658,2.4316-.3919,3.169-.9168,6.4576-1.5878,9.8392-.1062.5248-.2126,1.0563-.3255,1.5878-.1262.6046-.2592,1.2092-.392,1.82-.1794.8105-.372,1.621-.5647,2.4381-.166.6976-.3388,1.3886-.5182,2.0861-.1727.691-.3588,1.3819-.5448,2.0795-.0931.3654-.1993.7308-.2989,1.0962s-.206.7374-.3123,1.1028c-.186.6777-.3787,1.3487-.5847,2.0263-.1794.6179-.3719,1.2357-.5646,1.86q-.6678,2.1526-1.4019,4.3383c.1994-.1462,3.4148-2.4913,8.5238-6.225,13.7523-10.0585,41.23-30.1487,60.35-44.1866,11.5666-8.4906,20.07-14.7687,20.6483-15.267a12.7932,12.7932,0,0,0,1.2889-3.2089c3.0561-9.2678,10.2711-36.1345,16.7684-50.5511,2.445-5.4345,4.79-9.0951,6.77-9.3808,8.0388-1.1493,1.7939,32.082,1.4218,34.0285C625.3805,532.1244,628.2838,517.7011,627.7257,513.9275ZM167.3243,619.5209c-2.2987-2.81-17.6122-46.4454-18.1171-48.4916-.3388-1.3287,2.4514-5.089,4.4312-7.5471a5.4441,5.4441,0,0,1,4.91-1.9865c26.7472,3.3417,159.2005,39.1707,161.6388,39.9081,2.5511.764,9.9521,12.2442,9.188,14.29-.7639,2.04-31.6434,40.5724-31.6434,40.5724C272.2067,661.3756,169.623,622.3245,167.3243,619.5209Zm140.6516,56.5968a73.32,73.32,0,0,1-5.5872-8.1384c.4384.04.857.0665,1.2489.08,22.1033.8305,29.9494-6.1918,40.4861-13.0081s44.4125-6.8163,48.7508-4.9628c4.3383,1.86,20.449,9.0884,21.2794,12.6029C414.9777,666.2055,333.175,679.6322,307.9759,676.1177ZM605.2836,533.4c-5.68,21.04-11.0881,25.6244-13.3,29.883-.6178,1.1958-6.8694,5.9327-15.5262,12.1245.7309-1.88.9236-5.2816.877-9.208-22.05,16.21-54.9492,39.7353-55.474,38.6724-.7972-1.5879-.093-3.7005,2.5512-6.63,1.4216-1.5812,30.7266-23.9236,52.5973-40.5326-.2457-4.5177-.5182-8.836-.4384-11.6861.2126-7.2814,10.0385-50.2987,8.444-58.271-1.5944-7.9657-4.7834-17.9776-7.0555-19.5721-2.2788-1.5944-3.4348-6.3114-3.4348-6.3114L562.3,467.09l-.0066.0066V467.09l-42.8579,18.323-10.2244,4.3715h-.0068l-2.9032,1.2424s22.7676-78.2683,31.3644-84.42c8.6034-6.1587,25.9965-4.2054,41.5292,2.0528,15.5394,6.2517,25.6974,38.3,26.0894,40.0609,0,0,4.5775,7.9591,6.1586,9.0685,1.5811,1.1029,6.8031,7.9059,6.9558,15.1873C618.5575,480.2511,605.2836,533.4,605.2836,533.4Z"/><path class="cls-15" d="M452.5074,397.844c-34.2012,23.7043-105.9986,73.06-113.054,74.7271-9.3011,2.1991-103.4277,30.0889-107.1281,88.8848H197.2735c3.7006-58.7693,99.4879-91.2831,108.8621-93.5021.0067-.0066.0067-.0066.0133-.0066,7.2548-1.714,81.7761-50.9564,114.2566-72.568C431.1415,396.0635,442.0371,396.9205,452.5074,397.844Z"/><path class="cls-15" d="M496.4628,398.3186C462.2616,422.023,390.08,476.3274,383.0246,477.9949c-9.301,2.1991-108.0621,33.67-111.7624,92.466l-14.3387-2.2881c3.7006-58.7693,99.4879-91.283,108.8621-93.502.0067-.0066.0067-.0066.0133-.0066,7.2548-1.7141,80.5617-57.4029,113.0422-79.0146C489.5771,396.3339,485.9925,397.3952,496.4628,398.3186Z"/><path class="cls-8" d="M522.1656,408.7328c-1.827,12.7158-18.6287,53.6006-31.1586,70.2627a33.44,33.44,0,0,1-4.4844,5.0292c-27.79,6.8562-215.4586-20.21-217.6974-22.3756s0-6.4975,0-6.4975c9.6266-7.2814,49.9732-44.1932,82.56-59.9385,40.8648-5.5607,147.5609,7.1884,167.8638,9.7063a3.3666,3.3666,0,0,1,2.9166,3.8134Z"/><path class="cls-8" d="M627.7257,513.9275c-.691-4.73-2.3785-39.9612-2.85-41.8546-.4784-1.8934,2.5975-5.9128,2.8368-8.2514.2324-2.3452-2.1326-8.537-3.7868-9.9587-1.6543-1.4151-9.6931-5.9062-11.819-7.5671-2.1326-1.6542-12.0649-26.01-14.6625-29.73-2.6042-3.72-10.8755-14.9614-34.7593-21.1067a42.89,42.89,0,0,0-7.5138-1.2424c-19.9508-1.4881-33.8491,11.7792-33.9223,11.6994a3.3314,3.3314,0,0,1,.9169,2.8169c-1.827,12.7158-18.6287,53.6006-31.1586,70.2627a33.44,33.44,0,0,1-4.4844,5.0292c-27.79,6.8562-215.4586-20.21-217.6974-22.3756s0-6.4975,0-6.4975c-10.8557,8.2049-75,26.993-88.22,36.0349a42.6238,42.6238,0,0,0-9.826,9.3675,44.728,44.728,0,0,0-4.6438,7.5272,15.0617,15.0617,0,0,0-1.03,10.3109c1.7008,6.7166,4.6838,18.8545,5.2818,23.7176,28.1887,10.9088,92.8774,31.8959,139.8012,32.1683a6.1042,6.1042,0,0,1,4.325-5.5474c24.96-7.6269,131.7027-40.0676,141.9537-40.4a15.0792,15.0792,0,0,1,13.9183,7.8394,3.2972,3.2972,0,0,1-.6511,4.1323c-9.4139,8.5636-29.471,42.054-33.1382,45.11-3.5344,2.95-55.5472,11.1214-66.0241,12.7491a6.9347,6.9347,0,0,1-3.5079-.3721c-26.0628-9.9853-34.7525-4.5309-46.3191-10.2178a22.2711,22.2711,0,0,1-3.6008-2.2057h-.0066c-52.252-3.82-150.1121-32.1484-153.1549-33.032-.0466-.0133-.073-.02-.073-.02-2.0264-.5249-15.3136-4.69-15.8318-7.56,0,0-4.7369,5.7732-5.3548,20.4357-.6244,14.669-2.8965,19.4192,0,23.3455,1.2026,1.6344,3.209,6.8828,6.0458,12.8687,0,0-.7375,20.748-.8039,23.7908-.0665,3.0493-.0665,17.8646,6.225,18.4758s49.1294,15.8383,61.1078,19.4923,104.3511,31.2648,113.486,33.6964c9.1349,2.4381,81.8159,8.1251,110.649-6.9028,0,0,28.8267-115.7182,52.9895-124.6538a20.104,20.104,0,0,1,6.4642-1.3487c.3256-.0066.6444-.0066.9567.0067.0929,0,.1794.0066.2656.0133.1728.0066.3455.02.5116.04.1794.0133.3588.0333.5315.06.1063.0132.2127.0332.3123.0464.1261.02.2459.04.3654.0665a10.0255,10.0255,0,0,1,1.1892.2923c.1262.0332.2457.0731.3719.12a.4224.4224,0,0,1,.12.04c.12.0333.2325.08.3522.1263a12.12,12.12,0,0,1,1.3684.6178l.2792.1595a12.8688,12.8688,0,0,1,2.8832,2.2522c.1064.1129.2193.2258.3255.3454.1131.12.2127.2392.3189.3654.2126.2392.412.4983.6113.7574.1.1328.1994.2657.2923.3986.2923.4119.5714.8371.8371,1.2822.0931.1528.1794.3056.2657.4651.0864.1461.1661.2989.2459.4517.0863.1595.1727.3189.2523.4783s.16.3256.2393.4917c.1594.3322.3056.671.4517,1.0165.1262.3056.2525.6112.3721.93.02.0465.0332.093.0532.1395.1.2657.1992.5447.2923.8238.1129.3322.2257.6644.3255,1.0032.2126.6776.3985,1.3818.5779,2.106l.04.1594c.0732.3123.1461.6312.2126.95.02.1063.0466.2126.0664.3189q.09.3986.16.8171c.073.3787.1461.7707.2058,1.1627.0665.3986.1264.7972.1794,1.2025.06.4052.1131.8171.1594,1.229.04.3521.0732.7109.1131,1.0763.02.2059.04.4052.053.6112.0266.2857.0466.5714.0732.857.0266.3455.0465.6976.0663,1.05.0133.1528.02.3056.0266.4584.0067.08.0067.16.0133.2392l.04.9168c.0133.4518.0266.91.0333,1.3686s.0133.9234.0133,1.3951-.0067.9434-.0133,1.4218c-.0133.5647-.0266,1.1294-.0466,1.7074-.0133.3986-.0266.7972-.0465,1.2025-.0265.4584-.0464.9168-.08,1.3818-.0266.4319-.06.87-.0931,1.3155-.0266.4052-.06.8105-.1,1.2224-.04.4385-.08.8769-.12,1.322-.08.7973-.1727,1.6145-.2658,2.4316-.3919,3.169-.9168,6.4576-1.5878,9.8392-.1062.5248-.2126,1.0563-.3255,1.5878-.1262.6046-.2592,1.2092-.392,1.82-.1794.8105-.372,1.621-.5647,2.4381-.166.6976-.3388,1.3886-.5182,2.0861-.1727.691-.3588,1.3819-.5448,2.0795-.0931.3654-.1993.7308-.2989,1.0962s-.206.7374-.3123,1.1028c-.186.6777-.3787,1.3487-.5847,2.0263-.1794.6179-.3719,1.2357-.5646,1.86q-.6678,2.1526-1.4019,4.3383c.1994-.1462,3.4148-2.4913,8.5238-6.225,13.7523-10.0585,41.23-30.1487,60.35-44.1866,11.5666-8.4906,20.07-14.7687,20.6483-15.267a12.7932,12.7932,0,0,0,1.2889-3.2089c3.0561-9.2678,10.2711-36.1345,16.7684-50.5511,2.445-5.4345,4.79-9.0951,6.77-9.3808,8.0388-1.1493,1.7939,32.082,1.4218,34.0285C625.3805,532.1244,628.2838,517.7011,627.7257,513.9275ZM167.3243,619.5209c-2.2987-2.81-17.6122-46.4454-18.1171-48.4916-.3388-1.3287,2.4514-5.089,4.4312-7.5471a5.4441,5.4441,0,0,1,4.91-1.9865c26.7472,3.3417,159.2005,39.1707,161.6388,39.9081,2.5511.764,9.9521,12.2442,9.188,14.29-.7639,2.04-31.6434,40.5724-31.6434,40.5724C272.2067,661.3756,169.623,622.3245,167.3243,619.5209Zm140.6516,56.5968a73.32,73.32,0,0,1-5.5872-8.1384c.4384.04.857.0665,1.2489.08,22.1033.8305,29.9494-6.1918,40.4861-13.0081s44.4125-6.8163,48.7508-4.9628c4.3383,1.86,20.449,9.0884,21.2794,12.6029C414.9777,666.2055,333.175,679.6322,307.9759,676.1177ZM605.2836,533.4c-5.68,21.04-11.0881,25.6244-13.3,29.883-.6178,1.1958-6.8694,5.9327-15.5262,12.1245.7309-1.88.9236-5.2816.877-9.208-22.05,16.21-54.9492,39.7353-55.474,38.6724-.7972-1.5879-.093-3.7005,2.5512-6.63,1.4216-1.5812,30.7266-23.9236,52.5973-40.5326-.2457-4.5177-.5182-8.836-.4384-11.6861.2126-7.2814,10.0385-50.2987,8.444-58.271-1.5944-7.9657-4.7834-17.9776-7.0555-19.5721-2.2788-1.5944-3.4348-6.3114-3.4348-6.3114L562.3,467.09l-.0066.0066V467.09l-42.8579,18.323-10.2244,4.3715h-.0068l-2.9032,1.2424s22.7676-78.2683,31.3644-84.42c8.6034-6.1587,25.9965-4.2054,41.5292,2.0528,15.5394,6.2517,25.6974,38.3,26.0894,40.0609,0,0,4.5775,7.9591,6.1586,9.0685,1.5811,1.1029,6.8031,7.9059,6.9558,15.1873C618.5575,480.2511,605.2836,533.4,605.2836,533.4Z"/><path class="cls-8" d="M570.5641,459.4035v.0067l-45.8208,19.5853-2.1592-28.3549v-.0066c6.0921-18.4094,13.2938-38.0147,17.1935-40.805,4.1656-2.983,10.6564-3.8134,17.9378-3.0361C557.928,407.5037,569.521,446.2027,570.5641,459.4035Z"/><path class="cls-8" d="M598.2812,447.558l-22.2893,9.5269c-3.2952-19.9839-12.5364-48.857-12.7224-49.4283a74.9606,74.9606,0,0,1,13.2007,3.9861c12.2842,4.9429,20.7681,28.1556,22.6614,34.0817A1.5,1.5,0,0,1,598.2812,447.558Z"/><path class="cls-6" d="M555.171,394.2165c-19.9508-1.4881-33.8491,11.7792-33.9223,11.6994a3.3326,3.3326,0,0,0-2-.9965c-20.3029-2.5179-126.999-15.267-167.8638-9.7063a91.2209,91.2209,0,0,1,12.0581-4.91C397.2592,379.594,539.8641,388.9283,555.171,394.2165Z"/><path class="cls-16" d="M170.4867,543.7175c-.2657,3.86-4.4579,8.9887-6.5041,8.6167-.0466-.0133-.073-.02-.073-.02-2.0264-.5249-15.3136-4.69-15.8318-7.56-.5248-2.8634.7773-18.7549,3.1225-22.1432,0,0,1.9465,10.6165,5.2816,13.3669.97.7973,5.9992,3.0694,13.9052,6.1321A9.2036,9.2036,0,0,1,170.4867,543.7175Z"/><path class="cls-16" d="M469.7342,540.3026c-9.4139,8.5636-29.471,42.054-33.1382,45.11-3.5344,2.95-55.5472,11.1214-66.0241,12.7491a6.9347,6.9347,0,0,1-3.5079-.3721c-26.0628-9.9853-34.7525-4.5309-46.3191-10.2178a22.2711,22.2711,0,0,1-3.6008-2.2057h-.0066a19.38,19.38,0,0,1-6.57-8.69,5.8173,5.8173,0,0,1-.3787-2.3983s23.5249,1.6941,31.8028,3.84,24.2225,11.9585,29.7434,10.7361c4.7037-1.05,47.7343-10.9022,60.3239-13.7855a7.764,7.764,0,0,0,5.0559-3.8068C441.6983,563.0238,455.4039,540.7145,469.7342,540.3026Z"/><path class="cls-9" d="M469.7342,540.3026c-14.33.4119-28.0359,22.7212-32.62,30.9592a7.764,7.764,0,0,1-5.0559,3.8068c-12.59,2.8833-55.62,12.7358-60.3239,13.7855-5.5209,1.2224-21.4655-8.59-29.7434-10.7361s-31.8028-3.84-31.8028-3.84a6.1042,6.1042,0,0,1,4.325-5.5474c24.96-7.6269,131.7027-40.0676,141.9537-40.4a15.0792,15.0792,0,0,1,13.9183,7.8394A3.2972,3.2972,0,0,1,469.7342,540.3026Z"/><path class="cls-17" d="M148.7687,601.4038c3.96,8.351,9.54,18.137,16.8814,21.6249,12.377,5.8863,112.2569,42.8645,136.7385,44.9506"/><path class="cls-7" d="M515.3094,592.6608c0,.4717-.0067.9434-.0133,1.4218-.0133.5647-.0266,1.1294-.0466,1.7074-.0133.3986-.0266.7972-.0465,1.2025-.0265.4584-.0464.9168-.08,1.3818-.0266.4319-.06.87-.0931,1.3155-.0266.4052-.06.8105-.1,1.2224-.04.4385-.08.8769-.12,1.322-.08.7973-.1727,1.6145-.2658,2.4316-.3919,3.169-.9168,6.4576-1.5878,9.8392-.1062.5248-.2126,1.0563-.3255,1.5878-.1262.6046-.2592,1.2092-.392,1.82-.1794.8105-.372,1.621-.5647,2.4381-.166.6976-.3388,1.3886-.5182,2.0861-.1727.691-.3588,1.3819-.5448,2.0795-.0931.3654-.1993.7308-.2989,1.0962s-.206.7374-.3123,1.1028c-.186.6777-.3787,1.3487-.5847,2.0263-.1794.6179-.3719,1.2357-.5646,1.86q-.6678,2.1526-1.4019,4.3383l-.0066.0067-14.35-.7375q.3189-3.01.6179-6.0324c5.3016-15.6058,17.8978-56.743,4.9561-60.7291.1395-2.1592.2127-3.3882.2193-3.4946.3256-.0066.6444-.0066.9567.0067.0929,0,.1794.0066.2656.0133.1728.0066.3455.02.5116.04.1794.0133.3588.0333.5315.06.1063.0132.2127.0332.3123.0464.1261.02.2459.04.3654.0665a10.0255,10.0255,0,0,1,1.1892.2923c.1262.0332.2457.0731.3719.12a.4224.4224,0,0,1,.12.04c.12.0333.2325.08.3522.1263a12.12,12.12,0,0,1,1.3684.6178l.2792.1595a12.8688,12.8688,0,0,1,2.8832,2.2522c.1064.1129.2193.2258.3255.3454.1131.12.2127.2392.3189.3654.206.2392.412.4983.6113.7574.1.1328.1994.2657.2923.3986.2923.4119.5714.8371.8371,1.2822.0931.1528.1794.3056.2657.4651.0864.1461.1661.2989.2459.4517.0863.1595.1727.3189.2523.4783s.16.3256.2393.4917c.1528.3322.3056.671.4517,1.0165.1262.3056.2525.6112.3721.93.02.0465.0332.093.0532.1395.1.2657.1992.5447.2923.8238.1129.3322.2193.6644.3255,1.0032.2126.6776.3985,1.3818.5779,2.106l.04.1594c.0732.3123.1461.6312.2126.95.02.1063.0466.2126.0664.3189q.09.3986.16.8171c.073.3787.1461.7707.2058,1.1627.0665.3986.1264.7972.1794,1.2025.06.4052.1131.8171.1594,1.229.04.3521.0732.7109.1131,1.0763.02.2059.04.4052.053.6112.0266.2857.0466.5714.0732.857.0266.3455.0465.6976.0663,1.05.0133.1528.02.3056.0266.4584.0067.08.0067.16.0133.2392l.04.9168c.0133.4518.0266.91.0333,1.3686S515.3094,592.1891,515.3094,592.6608Z"/><path class="cls-17" d="M460.62,528.32s.8291-12.7985,6.9093-16.115,31.7828-14.6477,32.1974-17.55-6.1125-14.7424-8.7219-15.6623"/><path class="cls-16" d="M317.1375,585.3662c-52.252-3.82-150.1121-32.1484-153.1549-33.032,2.0462.372,6.2384-4.7568,6.5041-8.6167a9.2036,9.2036,0,0,0-.1-1.6078c28.1887,10.9088,92.8774,31.8959,139.8012,32.1683a5.8173,5.8173,0,0,0,.3787,2.3983A19.38,19.38,0,0,0,317.1375,585.3662Z"/><path class="cls-9" d="M414.1539,662.691c.8238,3.5145-80.9789,16.9412-106.178,13.4267a73.32,73.32,0,0,1-5.5872-8.1384c.4384.04.857.0665,1.2489.08,22.1033.8305,29.9494-6.1918,40.4861-13.0081s44.4125-6.8163,48.7508-4.9628C397.2128,651.9483,413.3235,659.1765,414.1539,662.691Z"/><path class="cls-7" d="M577.0084,557.7089c.1528,2.8567.2923,5.8.3255,8.49-22.05,16.21-54.9492,39.7353-55.474,38.6724-.7972-1.5879-.093-3.7005,2.5512-6.63C525.8327,596.66,555.1377,574.3179,577.0084,557.7089Z"/><path class="cls-17" d="M617.0627,552.9853c-1.5148,13.2872-5.0757,23.7973-7.9524,23.4718-2.87-.3255-3.9729-11.3672-2.4581-24.661,1.5148-13.2872,5.069-23.7974,7.9457-23.4719S618.5774,539.6914,617.0627,552.9853Z"/><path class="cls-6" d="M618.398,472.9764c.1595,7.2747-13.1144,60.4235-13.1144,60.4235-5.68,21.04-11.0881,25.6244-13.3,29.883-.6178,1.1958-6.8694,5.9327-15.5262,12.1245.7309-1.88.9236-5.2816.877-9.208,10.962-8.0521,19.2532-14.297,19.5589-14.8285a85.9656,85.9656,0,0,0,3.1622-9.3808.7674.7674,0,0,0-1.2024-.8305c-3.581,2.7106-11.9518,9.042-21.8442,16.5493-.2457-4.5177-.5182-8.836-.4384-11.6861.2126-7.2814,10.0385-50.2987,8.444-58.271-1.5944-7.9657-4.7834-17.9776-7.0555-19.5721-2.2788-1.5944-3.4348-6.3114-3.4348-6.3114l30.76-13.1477s4.5775,7.9591,6.1586,9.0685C613.0233,458.892,618.2453,465.695,618.398,472.9764Z"/><path class="cls-7" d="M623.2213,540.15a.296.296,0,0,0-.0133.0665.0517.0517,0,0,0-.0066.02c-.1861.7042-.3655,1.3353-.5449,1.9266.1927-14.5827-2.75-25.5845-7.6268-26.6607,2.445-5.4345,4.79-9.0951,6.77-9.3808C629.8383,504.972,623.5934,538.2033,623.2213,540.15Z"/><path class="cls-16" d="M579.1942,408.66c-15.5327-6.2582-32.9258-8.2115-41.5292-2.0528-8.5968,6.1519-31.3644,84.42-31.3644,84.42l68.2231-29.1588,30.76-13.1477C604.8916,446.96,594.7336,414.9114,579.1942,408.66Zm19.087,38.8983-22.2893,9.5269-2.4647,1.0564-2.9631,1.2622v.0067l-45.8208,19.5853L512.0739,484.41s4.7567-16.35,10.51-33.7694v-.0066c6.0921-18.4094,13.2938-38.0147,17.1935-40.805,4.1656-2.983,10.6564-3.8134,17.9378-3.0361.95.1,1.9134.2259,2.89.3853.877.1329,1.7671.2923,2.6641.4717v.0067a74.9606,74.9606,0,0,1,13.2007,3.9861c12.2842,4.9429,20.7681,28.1556,22.6614,34.0817A1.5,1.5,0,0,1,598.2812,447.558Z"/><path class="cls-16" d="M524.7433,478.9955,512.0739,484.41s4.7567-16.35,10.51-33.7694Z"/><path class="cls-16" d="M573.5272,458.1413l-2.9631,1.2622c-1.0431-13.2008-12.6361-51.9-12.8487-52.6106.95.1,1.9134.2259,2.89.3853C560.7848,407.7628,571.8463,444.8275,573.5272,458.1413Z"/><path class="cls-16" d="M575.9919,457.0849l-2.4647,1.0564c-1.6809-13.3138-12.7424-50.3785-12.9218-50.9631.877.1329,1.7671.2923,2.6641.4717v.0067C563.4555,408.2279,572.6967,437.101,575.9919,457.0849Z"/><path class="cls-17" d="M512.3732,493.9507s10.456,12.7216,11.89,28.85-8.1279,88.539-7.8467,93.788c.1117,2.0841-.4434,12.1245-.4434,12.1245"/><path class="cls-17" d="M516.4188,616.5911s37.9017-25.3453,60.0382-41.1837"/><path class="cls-7" d="M600.055,541.99a85.9656,85.9656,0,0,1-3.1622,9.3808c-.3057.5315-8.5969,6.7764-19.5589,14.8285-.0332-2.6907-.1727-5.6338-.3255-8.49,9.8924-7.5073,18.2632-13.8387,21.8442-16.5493A.7674.7674,0,0,1,600.055,541.99Z"/><path class="cls-17" d="M557.7154,406.7929v-.0067"/><path class="cls-17" d="M560.6054,407.1782v-.0066"/><path class="cls-9" d="M165.1053,518.3921c1.7008,6.7166,4.6838,18.8545,5.2818,23.7176-7.906-3.0627-12.9353-5.3348-13.9052-6.1321-3.3351-2.75-5.2816-13.3669-5.2816-13.3669s3.5542-12.9417,19.5786-22.0567a44.728,44.728,0,0,0-4.6438,7.5272A15.0617,15.0617,0,0,0,165.1053,518.3921Z"/><path class="cls-16" d="M329.3749,615.6942c-.7639,2.04-31.6434,40.5724-31.6434,40.5724-25.5248,5.109-128.1085-33.9421-130.4072-36.7457-2.2987-2.81-17.6122-46.4454-18.1171-48.4916-.3388-1.3287,2.4514-5.089,4.4312-7.5471a5.4441,5.4441,0,0,1,4.91-1.9865c26.7472,3.3417,159.2005,39.1707,161.6388,39.9081C322.738,602.1678,330.139,613.648,329.3749,615.6942Z"/><path class="cls-16" d="M615.03,515.5021c-6.4973,14.4166-13.7123,41.2833-16.7684,50.5511.3321,13.0414,3.3284,22.4421,7.9989,22.9736a3.938,3.938,0,0,0,1.5877-.1528c.1994-.0731.3058-.113.3058-.113,5.78-2.1923,11.686-16.9146,13.7721-35.2243a112.8519,112.8519,0,0,0,.7307-11.3606c.0067-.0066.0067-.0066,0-.0133C622.8492,527.58,619.9062,516.5783,615.03,515.5021Zm2.033,37.4832c-1.5148,13.2872-5.0757,23.7973-7.9524,23.4718-2.87-.3255-3.9729-11.3672-2.4581-24.661,1.5148-13.2872,5.069-23.7974,7.9457-23.4719S618.5774,539.6914,617.0627,552.9853Z"/><path class="cls-16" d="M607.8479,588.874c-2.4712.93-19.386,6.9492-27.2851,1.3287a12.8078,12.8078,0,0,1-4.2387-5.6736c11.5666-8.4906,20.07-14.7687,20.6483-15.267a12.7932,12.7932,0,0,0,1.2889-3.2089c.3321,13.0414,3.3284,22.4421,7.9989,22.9736A3.938,3.938,0,0,0,607.8479,588.874Z"/><path class="cls-16" d="M498.8864,563.9538c-.0066.1064-.08,1.3354-.2193,3.4946-.578,9.0552-2.2986,34.4205-4.9561,60.7291q-.2989,3.02-.6179,6.0324c-3.5809,33.69-8.6632,67.0273-14.8417,68.0171-12.59,2.0131-34.7328,1.01-37.2507-3.521a13.4405,13.4405,0,0,1-1.568-8.75s28.8267-115.7182,52.9895-124.6538A20.104,20.104,0,0,1,498.8864,563.9538Z"/><path class="cls-17" d="M498.8864,563.9538v-.0066"/><path class="cls-18" d="M156.3624,561.6751c18.8678,6.3911,95.4884,31.59,168.5281,44.7114"/><path class="cls-18" d="M150.4163,567.8935c22.1365,7.4541,102.3513,33.57,179.0051,47.3622"/><path class="cls-18" d="M324.8108,621.9724c-16.7419-2.9431-33.71-6.544-50.1658-10.4238"/><path class="cls-18" d="M211.8962,594.9927c-31.577-9.1482-54.9957-17.074-61.0945-19.1667"/><path class="cls-9" d="M275.05,613.741l-.7041,5.6271-.97,7.7132-.3322,2.6708a3.6871,3.6871,0,0,1-4.5375,3.1291l-55.8128-13.5928c-.0266-.0067-.0466-.0133-.0732-.02l-30.8528-7.5072a3.71,3.71,0,0,1-2.79-4.046l.7706-6.1519.99-7.9192.2459-1.9466a3.698,3.698,0,0,1,4.5375-3.1291l26.3752,6.4243L272.26,609.695a3.6959,3.6959,0,0,1,2.79,4.046Z"/><path class="cls-18" d="M319.35,629.0146c-15.0943-2.8567-30.255-6.152-45.0038-9.6465"/><path class="cls-18" d="M180.7377,593.6441c-10.9354-3.375-20.03-6.3181-26.6807-8.51"/><path class="cls-18" d="M314.181,635.5785c-13.6326-2.4914-27.365-5.388-40.805-8.4972"/><path class="cls-18" d="M179.7478,601.5633c-8.8692-2.7438-16.4429-5.1754-22.349-7.1153"/><path class="cls-18" d="M209.5236,617.4788c28.6007,8.0719,65.4868,18.5049,99.1432,25.0755"/><path class="cls-18" d="M179.1765,609.4359c-6.7964-2.0861-12.975-4.0194-18.3895-5.7533"/><path class="cls-18" d="M164.2284,612.6647c30.1088,9.6266,84.8454,25.9964,139.1634,36.5132"/><path class="cls-18" d="M184.9165,627.1079a.3721.3721,0,0,1,.08.0266c30.6668,9.1947,71.5183,20.4556,112.9013,28.9262"/><path class="cls-8" d="M329.3749,615.6942c-.7639,2.04-31.6434,40.5724-31.6434,40.5724-25.5248,5.109-128.1085-33.9421-130.4072-36.7457-2.2987-2.81-17.6122-46.4454-18.1171-48.4916-.3388-1.3287,2.4514-5.089,4.4312-7.5471a5.4441,5.4441,0,0,1,4.91-1.9865c26.7472,3.3417,159.2005,39.1707,161.6388,39.9081C322.738,602.1678,330.139,613.648,329.3749,615.6942Z"/><path class="cls-7" d="M570.5641,459.4035v.0067l-18.23,7.7929-6.0324,2.5777-7.6335,3.2621-11.3407,4.85-2.5842,1.1028-2.1592-28.3549v-.0066c4.9029-14.8152,10.5233-30.4144,14.5627-37.3835a11.5058,11.5058,0,0,1,2.6308-3.4215,19.0109,19.0109,0,0,1,8.9624-3.0826,38.0711,38.0711,0,0,1,7.1617-.113q.897.06,1.8137.1595c.06.2059,1.07,3.5742,2.498,8.5769C563.7411,427.7136,569.82,450.01,570.5641,459.4035Z"/><path class="cls-7" d="M598.2812,447.558l-6.6569,2.8435-11.334,4.85-4.2984,1.8336c-3.2952-19.9839-12.5364-48.857-12.7224-49.4283a74.9606,74.9606,0,0,1,13.2007,3.9861c3.4149,1.3752,6.5307,4.1523,9.2946,7.58a71.0167,71.0167,0,0,1,8.4573,14.1043,109.8751,109.8751,0,0,1,4.91,12.397A1.5,1.5,0,0,1,598.2812,447.558Z"/><path class="cls-7" d="M565.9,489.5987c-3.5808.3056-9.9388.2657-17.1671.3322-2.4116.02-4.9229.06-7.4608.12-2.0527.0466-4.1189.12-6.1719.2193a125.9079,125.9079,0,0,0-13.6325,1.2556,36.4925,36.4925,0,0,0-9.0952,2.4249s-7.3943,2.8037-3.7735-3.335c.1594-.2724,8.7695-11.8854,17.9177-19.7116,4.3982-3.7669,8.9225-6.6569,12.6894-6.9824.7506-.0665,1.5412-.1,2.3784-.1063a53.3276,53.3276,0,0,1,6.0257.3587c2.3119.2525,4.7369.6378,7.1551,1.1162,10.1714,2.02,20.263,5.7068,21.2862,8.4971C577.6462,478.1385,575.9056,488.7284,565.9,489.5987Z"/><path class="cls-15" d="M541.5848,463.8149,535.1005,490.27a125.9079,125.9079,0,0,0-13.6325,1.2556l5.049-20.6217c4.3982-3.7669,8.9225-6.6569,12.6894-6.9824C539.957,463.8547,540.7476,463.8215,541.5848,463.8149Z"/><path class="cls-15" d="M554.7656,465.29l-6.0324,24.6411c-2.4116.02-4.9229.06-7.4608.12l6.3381-25.8768C549.9224,464.4261,552.3474,464.8114,554.7656,465.29Z"/><path class="cls-15" d="M548.74,406.7464l-10.0718,66.2965-11.3407,4.85,9.8193-64.6422a11.5058,11.5058,0,0,1,2.6308-3.4215A19.0109,19.0109,0,0,1,548.74,406.7464Z"/><path class="cls-15" d="M560.2134,415.37l-7.8793,51.8333-6.0324,2.5777,9.6-63.1474q.897.06,1.8137.1595C557.7752,406.9988,558.785,410.3671,560.2134,415.37Z"/><path class="cls-15" d="M594.2221,433.3274l-2.5978,17.0741-11.334,4.85,5.4745-36.0282A71.0167,71.0167,0,0,1,594.2221,433.3274Z"/><path class="cls-8" d="M570.5641,459.4035v.0067l-14.4232,6.1653c-6.132-1.3022-12.4368-2.0463-16.9345-1.6543-4.4115.3853-9.8592,4.2784-14.9282,8.9821l-1.6941-22.2627v-.0066c6.0921-18.4094,13.2938-38.0147,17.1935-40.805,4.1656-2.983,10.6564-3.8134,17.9378-3.0361C557.928,407.5037,569.521,446.2027,570.5641,459.4035Z"/><path class="cls-8" d="M598.2812,447.558l-22.2893,9.5269c-3.2952-19.9839-12.5364-48.857-12.7224-49.4283a74.9606,74.9606,0,0,1,13.2007,3.9861c12.2842,4.9429,20.7681,28.1556,22.6614,34.0817A1.5,1.5,0,0,1,598.2812,447.558Z"/><path class="cls-8" d="M565.9,489.5987c-10.0119.87-41.7749-1.0165-53.5275,4.3515,0,0-7.3943,2.8037-3.7735-3.335a141.188,141.188,0,0,1,15.6789-17.7119c5.069-4.7037,10.5167-8.5968,14.9282-8.9821,4.4977-.392,10.8025.3521,16.9345,1.6543,9.6863,2.0661,18.9343,5.5473,19.9109,8.2114C577.6462,478.1385,575.9056,488.7284,565.9,489.5987Z"/><g id="layer1"><g id="g63141"><path id="path52220-4" class="cls-19" d="M342.5507,46.8974V55.97H332.268V46.8974H326.6V70.7035h5.6678V61.1318h10.2827v9.5717h5.6678V46.8974Z"/><path id="path52222-4" class="cls-19" d="M368.9822,46.8974l-5.9276,9.4281-5.9207-9.4281h-6.6865l9.7836,15.5608v8.2453h5.6609V62.4582l9.7837-15.5608Z"/><path id="path52224-8" class="cls-19" d="M393.8958,46.8974V64.3452a1.1739,1.1739,0,0,1-1.2033,1.1964h-9.0794V46.8972h-5.6678V70.7034h16.7436a4.52,4.52,0,0,0,4.8679-4.8679V46.8972Z"/><path id="path52226-8" class="cls-19" d="M421.5511,46.8974H404.8076V70.7035h5.6609V52.0525h9.0931a1.1742,1.1742,0,0,1,1.1965,1.19V70.7037h5.6609V51.7654a4.52,4.52,0,0,0-4.8679-4.8679Z"/><path id="path52228-2" class="cls-19" d="M448.4133,46.8974H431.67V70.7035h16.7436a4.5281,4.5281,0,0,0,4.861-4.8679v-14.07a4.5281,4.5281,0,0,0-4.861-4.8679Zm-.8,6.3856V64.3109a1.1933,1.1933,0,0,1-1.2033,1.2307h-9.0862V52.0524h9.0452a1.1845,1.1845,0,0,1,1.2443,1.2306Z"/><path id="path52230-5" class="cls-19" d="M463.1469,46.8974a4.519,4.519,0,0,0-4.8611,4.8679V70.7035h5.6472V63.34h10.29v7.3634h5.661V46.8974Zm11.0757,5.1551v6.1328H463.9331V53.2627a1.2059,1.2059,0,0,1,1.21-1.21Z"/><path id="path52232-2" class="cls-19" d="M485.3941,70.7035h5.6678V46.8974h-5.6678Z"/><path id="path52234-4" class="cls-19" d="M282.3176,75.38c17.8854,0,32.3865-7.4249,32.3865-16.5794,0-9.1614-14.5011-16.5863-32.3865-16.5863-17.8784,0-32.38,7.4249-32.38,16.5863,0,9.1545,14.5011,16.5794,32.38,16.5794Zm6.0986-8.1359c-.54,1.2511-1.47,3.9243-3.6031,4.991a5.51,5.51,0,0,1-2.16.4991h-.3284a56.4431,56.4431,0,0,1-16.1966-2.2494c-.0348-.0148-.1434-.0545-.1776-.0684-.4307-.1434-.65-.3419-.65-.5879a.7473.7473,0,0,1,.2664-.5265c.0685-.0614.1642-.1433.2942-.26a38.1513,38.1513,0,0,1,10.4126-5.5789,51.9821,51.9821,0,0,1,7.6232-2.4271c1.6408-.3419,7.7393-1.2785,4.5192,6.2079Zm16.3607-16.7165a.6514.6514,0,0,1,.5469-.383,1.0577,1.0577,0,0,1,.67.2188c3.8013,2.3381,6.0575,5.2644,6.0575,8.43,0,5.7156-7.35,10.6314-17.8648,12.7782-.67.1369-1.1213.13-1.2717-.04-.1092-.1026-.1364-.2872,0-.5128a2.1985,2.1985,0,0,1,.28-.39c5.7225-6.748,10.0844-16.7026,11.3219-19.5742.0958-.1985.1846-.3963.26-.5264Zm-28.455-.211c.54-1.2511,1.47-3.9244,3.603-4.9841a5.3927,5.3927,0,0,1,2.1605-.499c.1642-.005.28,0,.3215,0A56.2588,56.2588,0,0,1,298.61,47.0827c.0348.0148.1434.0545.1776.0684.4307.1434.65.3419.65.588a.7329.7329,0,0,1-.2664.52c-.0685.0684-.1642.15-.2942.26-1.0734.9023-4.3141,3.2407-10.4126,5.5789a51.599,51.599,0,0,1-7.6163,2.427c-1.6477.3489-7.7462,1.2785-4.526-6.2078Zm-5.873-4.3c.6769-.13,1.1213-.13,1.2853.04a.426.426,0,0,1-.005.5128,2.3888,2.3888,0,0,1-.28.3831c-5.7225,6.7549-10.0844,16.7025-11.3287,19.5808-.0888.1985-.1846.3964-.26.5264a.6409.6409,0,0,1-.54.3831,1.1431,1.1431,0,0,1-.6768-.2188c-3.8013-2.3382-6.0575-5.2644-6.0575-8.43,0-5.7157,7.35-10.6314,17.8648-12.7782Z"/></g></g><path class="cls-6" d="M370.7348,236.1321s.4216,5.7583.3573,12.96v.0072l-17.6678,19.6253c-3.9007-7.7444-6.4084-19.7968-8.0015-31.199-.2571-1.8361-.4858-3.6579-.7-5.444-1.4574-12.331-1.886-22.84-1.95-24.6334-.0072-.1786-.0072-.2715-.0072-.2715s3.9365,1.9718,9.852,0c5.9083-1.9718-9.5947-37.0859-9.852-36.3429-4.8224,13.7956-10.5092,12.9169-12.0451,11.8238-1.529-1.0931-4.8154-8.1016-8.7591,0-3.9363,8.1016,8.7591,7.88,8.7591,7.88a166.0246,166.0246,0,0,1-6.5014,41.5582c-6.1226,20.69-14.5529,32.0849-16.3533,34.564a6.0242,6.0242,0,0,1-1.7,1.6217c-2.9292,1.7861-9.5234,2.1076-8.6161-32.2278,0,0-17.06,8.03-19.961,10.5592a33.292,33.292,0,0,1,3.1434-6.13c4.701-7.4229,12.3382-15.2316,17.7679-23.04,8.43-12.1381,9.0161-44.6373,9.0161-44.6373a14.9922,14.9922,0,0,1,4.1579-10.0734c4.38-4.5938,31.6491-17.6607,35.8-15.06,2.0217,1.2646,3.7221,3.5222,5.1724,6.4442,6.9013,13.867,8.2872,42.7441,12.4453,51.9673,4.3294,9.5876,11.8808,24.9978,13.2311,34.9784C376.779,239.4756,370.7348,236.1321,370.7348,236.1321Z"/><path class="cls-6" d="M385.2592,413.2884c-.4929,1.8-1.1074,6.1941-1.1074,6.1941-.2144.5716-2.129,21.1828-3.7507,38.2147a53.2936,53.2936,0,0,1-7.3158,1.6289,55.7475,55.7475,0,0,1-26.2837-2.4148h-.007c-3.1507-16.31-6.8586-36.4715-6.3442-38.479.55-2.1575,2.9507-9.1589,4.6366-13.9884.0072-.0215.0143-.0358.0215-.0572l-9.1233-14.76-9.1876,28.5985c1.1432,4.9867,2.7649,12.2025,3.0792,14.41.2931,2.05-5.6009,21.69-10.5091,37.5574h-.0072a55.4225,55.4225,0,0,1-33.4851-2.8934c.25-17.1034.5929-37.8.4429-38.3933,0,0-.1286-4.4366-.4216-6.28s.6717-5.1725.6717-6.1655c0-.5072.5215-8.9732.9644-18.3393a21.1344,21.1344,0,0,0,12.1595-6.1655l.7359.6644a2.18,2.18,0,0,0,2.9221-3.2364l-.7216-.65,29.2486-32.4921a1.29,1.29,0,0,0,.5286.3787c1.2646.3643,10.8521.3643,11.3951-.7216,0,0,1.3647-1.5146.8859-1.9861,0,0,3.2006-1.1574,2.3147-2.5863,0,0,3.8151-1.3,3.4079-2.6576,0,0,3.7435-3.1364,3.6078-3.8793-.1071-.6-5.9582-2.9792-8.3017-3.9223l14.0887-15.653,4.7294-5.2511c2.2,6.88,10.9736,34.3711,12.4311,38.5433,1.6645,4.78,8.3015,48.581,8.3015,48.581C385.1593,408.0731,385.7521,411.4881,385.2592,413.2884Z"/><path class="cls-11" d="M352.6457,154.116c-2.4006.2071-4.8224-.0643-7.2372-.05a31.4166,31.4166,0,0,0-27.37,17.089c-4.3294,8.7446-4.2653,18.918-6.2585,28.47a66.433,66.433,0,0,1-13.6741,28.5341c-4.2937,5.2082-10.4734,10.5307-17.3749,12.3239,4.701-7.4229,12.3382-15.2316,17.7679-23.04,8.43-12.1381,9.0161-44.6373,9.0161-44.6373a14.9922,14.9922,0,0,1,4.1579-10.0734c4.38-4.5938,31.6491-17.6607,35.8-15.06C349.495,148.9364,351.1954,151.194,352.6457,154.116Z"/><path class="cls-11" d="M385.2592,413.2884c-.4929,1.8-1.1074,6.1941-1.1074,6.1941-.2144.5716-2.129,21.1828-3.7507,38.2147a53.2936,53.2936,0,0,1-7.3158,1.6289,100.9548,100.9548,0,0,1,1.5433-14.0671c1.836-10.6592,4.5866-21.2542,4.5365-32.0706-.05-9.8519-2.429-19.5324-4.7938-29.0986q-7.2872-29.4378-14.567-58.8758l4.7294-5.2511c2.2,6.88,10.9736,34.3711,12.4311,38.5433,1.6645,4.78,8.3015,48.581,8.3015,48.581C385.1593,408.0731,385.7521,411.4881,385.2592,413.2884Z"/><path class="cls-8" d="M370.7382,236.1286s.4214,5.7583.3572,12.96v.0072l-17.6677,19.6253c-3.901-7.7444-6.4086-19.7968-8.0018-31.1991-.2571-1.836-.4857-3.6578-.7-5.4439-1.4574-12.331-1.886-22.84-1.95-24.6334-.0071-.1786-.0071-.2715-.0071-.2715s3.9365,1.9718,9.852,0c5.9083-1.9718-9.5947-37.0858-9.852-36.3429-4.8224,13.7956-10.5092,12.9169-12.0453,11.8238-1.5288-1.0931-4.8151-8.1016-8.7587,0-3.9365,8.1016,8.7587,7.88,8.7587,7.88a166.0254,166.0254,0,0,1-6.5012,41.5582c-6.1227,20.69-14.5528,32.0849-16.3531,34.564a6.0252,6.0252,0,0,1-1.7,1.6217c-2.929,1.7861-9.5233,2.1076-8.616-32.2278,0,0-17.06,8.03-19.961,10.5593,3.4007-9.1875,13.9671-19.1824,20.9113-29.17,8.43-12.1381,9.0159-44.6373,9.0159-44.6373a14.9934,14.9934,0,0,1,4.158-10.0735c4.38-4.5937,31.6492-17.6606,35.8-15.06,11.6166,7.28,12.581,47.245,17.6177,58.4115,4.3295,9.5876,11.881,24.9977,13.2312,34.9783C376.7822,239.4722,370.7382,236.1286,370.7382,236.1286Z"/><path class="cls-8" d="M385.2624,413.2849c-.4929,1.8-1.1074,6.1941-1.1074,6.1941-.2142.5716-2.129,21.1828-3.7508,38.2147a55.401,55.401,0,0,1-33.5993-.7859h-.0073c-3.1506-16.31-6.8584-36.4714-6.344-38.479.55-2.1576,2.9505-9.1589,4.6366-13.9885.0071-.0214.0143-.0357.0214-.0571l-9.1232-14.76-9.1874,28.5986c1.1429,4.9866,2.7647,12.2023,3.079,14.41.293,2.05-5.601,21.69-10.5092,37.5574h-.0071a55.4225,55.4225,0,0,1-33.4851-2.8934c.25-17.1034.5929-37.8.4429-38.3933,0,0-.1286-4.4366-.4214-6.28s.6715-5.1724.6715-6.1655c0-.5073.5215-8.9732.9643-18.3393a21.1347,21.1347,0,0,0,12.16-6.1655l.7359.6644a2.18,2.18,0,0,0,2.922-3.2364l-.7215-.65L331.88,356.238a1.29,1.29,0,0,0,.5287.3786c1.2646.3644,10.8521.3644,11.3951-.7215,0,0,1.3646-1.5146.8859-1.9861,0,0,3.2008-1.1574,2.3147-2.5862,0,0,3.8151-1.3,3.4078-2.6577,0,0,3.7436-3.1363,3.6079-3.8794-.1071-.6-5.9584-2.9791-8.3015-3.9222l18.8178-20.9041c2.2,6.88,10.9737,34.3711,12.4312,38.5433,1.6645,4.7795,8.3015,48.581,8.3015,48.581C385.1624,408.07,385.7555,411.4846,385.2624,413.2849Z"/><path class="cls-16" d="M350.4126,348.6651c.4073,1.3574-3.4078,2.6577-3.4078,2.6577.8861,1.4288-2.3147,2.5862-2.3147,2.5862.4787.4715-.8859,1.9861-.8859,1.9861-.543,1.0859-10.13,1.0859-11.3951.7215a1.29,1.29,0,0,1-.5287-.3786c-1.2216-1.3074-2.7291-5.4082-2.7291-5.4082A103.463,103.463,0,0,1,312.3837,346.1a117.3855,117.3855,0,0,1-13.524-6.0369q-2.2077-1.1467-4.3295-2.3719c-.7073-.4-1.4-.8073-2.0932-1.2217-3.0506-1.8218-5.9512-3.7221-8.6876-5.6582,0,0,18.5751-7.98,26.22-26.2124,1.9647,1.9,3.9365,3.8722,5.88,5.8584,1.7431,1.7789,3.4434,3.5578,5.108,5.3153v.0071c3.4651,3.6793,6.7014,7.2372,9.4447,10.3092,5.1439,5.7726,8.5731,9.8448,8.5731,9.8448s9.459-5.0439,11.3023-3.2006c1.8361,1.836-5.5153,7.7586-5.5153,7.7586s.3643.1429.9574.3715c2.3431.9431,8.1944,3.3221,8.3015,3.9222C354.1562,345.5288,350.4126,348.6651,350.4126,348.6651Z"/><path class="cls-20" d="M353.4277,268.7208l-37.5789,41.7368c-1.9433-1.9862-3.9151-3.958-5.88-5.8584-7.6445,18.2322-26.22,26.2124-26.22,26.2124-18.0106-12.724-28.9627-26.9482-28.9627-30.2846,0-5.6082,19.9039-51.3815,22.8045-53.9177,2.9006-2.5291,19.961-10.5593,19.961-10.5593-.9073,34.3354,5.687,34.0139,8.616,32.2278a6.0252,6.0252,0,0,0,1.7-1.6217c1.8-2.4791,10.23-13.8742,16.3531-34.564,1.4432,4.6366,5.8368,17.182,11.5379,18.4322,5.0582,1.1074,8.7446-7.38,9.6662-13.0026C347.0191,248.924,349.5267,260.9764,353.4277,268.7208Z"/><path class="cls-17" d="M290.901,289.3605a53.91,53.91,0,0,1,10.152,7.1086c2.8505,2.4076,5.8725,5.1867,8.916,8.13"/><path class="cls-17" d="M378.3253,241.0582a17.4239,17.4239,0,0,1,.1286,4.4294"/><path class="cls-16" d="M352.62,207.1729c-5.9155,1.9718-9.852,0-9.852,0s0,.0929.0071.2715c.0644,1.7932.493,12.3024,1.95,24.6334.2144,1.7861.443,3.6079.7,5.4439-.9216,5.6226-4.608,14.11-9.6662,13.0026-5.7011-1.25-10.0947-13.7956-11.5379-18.4322a166.0254,166.0254,0,0,0,6.5012-41.5582s-12.6952.2215-8.7587-7.88c3.9436-8.1016,7.23-1.0931,8.7587,0,1.5361,1.0931,7.2229,1.9718,12.0453-11.8238C343.0256,170.0871,358.5286,205.2011,352.62,207.1729Z"/><path class="cls-17" d="M353.4276,268.7208c1.7217,3.4292,3.7221,6.0083,6.0369,7.3085,9.68,5.4368,11.5237-13.31,11.6308-26.9338"/><path class="cls-17" d="M301.0546,296.4718s6.3143-14.4053,8.9143-22.2055"/><path class="cls-7" d="M312.9553,490.6216c1.4932,1.9932,1.9861,13.4455,1.9861,13.4455s-6.4656,1.2431-7.4657,1.2431c-.9932,0-3.2364-7.7158-3.2364-7.7158s-.9931,6.9657-1.9861,7.4658c-1,.5-30.3631,3.9793-32.1063,1.7432-1.7433-2.2433,15.7389-14.56,15.5245-17.0534-.0858-1,.0427-10.9093.2072-22.4544a55.4225,55.4225,0,0,0,33.4851,2.8934C315.92,481.3341,312.9553,490.6216,312.9553,490.6216Z"/><path class="cls-17" d="M325.6435,413.2207s.5,2.1289,1.1574,5.0009"/><path class="cls-17" d="M294.53,337.6915s-6.03,25.7836-6.4584,35.4213a16.5068,16.5068,0,0,0-.0071,1.7789c.0143.2357.0286.4858.0357.7573.0572,1.5288.0572,3.5507.0214,5.8868-.0714,4.78-.3143,10.845-.5858,16.5819"/><line class="cls-17" x1="342.0753" y1="370.6623" x2="335.9884" y2="389.6231"/><path class="cls-7" d="M391.728,498.68c-1.979,2.0361-30.7847-4.63-31.7277-5.2368-.9287-.6073-1.1574-7.6372-1.1574-7.6372s-3.0721,7.4229-4.0579,7.3157c-.9932-.1143-7.2871-2.0575-7.2871-2.0575s1.7431-11.3237,3.4434-13.1455c0,0-1.9361-9.5519-4.1364-21.0113a55.401,55.401,0,0,0,33.5993.7859c-1.1,11.488-2.05,21.3542-2.25,22.34C377.6681,482.4914,393.7,496.6442,391.728,498.68Z"/><path class="cls-17" d="M345.1116,404.3832c.95-2.7577,1.6718-4.7867,1.6718-4.7867"/><line class="cls-17" x1="335.9884" y1="389.6231" x2="335.9027" y2="389.4874"/><line class="cls-17" x1="345.1902" y1="404.5118" x2="345.1116" y2="404.3832"/><path class="cls-17" d="M364.5369,319.9594c-.3144-1-.493-1.5646-.493-1.5646"/><path class="cls-17" d="M414.6182,306.4c-.0286-.0714-.0572-.1357-.0929-.2072"/><path class="cls-21" d="M331.88,356.238,302.6319,388.73,288.1,375.649l-1.2789-1.15,1.25-1.386L312.3837,346.1a103.463,103.463,0,0,0,16.7676,4.7295S330.6588,354.9306,331.88,356.238Z"/><path class="cls-21" d="M436.0939,227.0483c-.8574.2643,2.7862,6.6584,4.0865,8.88l-.1359.1572c-1.7-1.729-6.544-6.53-7.4085-6.0655-.7359.4,2.5363,6.0083,4.5224,9.2661l-.6073.6787c-1.7575-1.336-4.1151-2.9434-4.7938-2.5576-.7073.4.7715,3.4506,1.979,5.6868L394.1,287.1244l-24.1762,26.8481-5.3869,5.9869L345.719,340.8635c-.5931-.2286-.9574-.3715-.9574-.3715s7.3514-5.9226,5.5153-7.7586c-1.8433-1.8433-11.3023,3.2006-11.3023,3.2006s-3.4292-4.0722-8.5731-9.8448l122.76-136.37,21.7043,7.68L442.395,233.471C440.9376,231.6777,436.9583,226.7839,436.0939,227.0483Z"/><path class="cls-7" d="M312.3837,346.1l-24.3119,27.0125-1.25,1.386-15.81-14.2315L292.437,336.47c.693.4144,1.3859.8216,2.0932,1.2217q2.1219,1.2216,4.3295,2.3719A117.3855,117.3855,0,0,0,312.3837,346.1Z"/><path class="cls-20" d="M371.0954,249.0883c.0642-7.2014-.3572-12.96-.3572-12.96s6.044,3.3436,7.5871,4.93Z"/><path class="cls-7" d="M453.1615,189.72l-122.76,136.37c-2.7433-3.072-5.98-6.63-9.4447-10.3092v-.0071c-1.6646-1.7575-3.3649-3.5364-5.108-5.3153l37.5789-41.7368,17.6677-19.6253v-.0072l7.23-8.03,64.9272-72.1214Z"/><polygon class="cls-6" points="474.866 197.398 453.16 189.721 443.252 168.939 470.172 161.576 479.368 169.855 474.866 197.398"/><polygon class="cls-16" points="479.368 169.855 470.172 161.576 481.218 158.552 479.368 169.855"/><path class="cls-6" d="M303.5106,392.4594a2.1667,2.1667,0,0,1-3.0792.1572l-.7359-.6644-11.5737-10.4164-20.0039-18.0107-.7359-.6644a2.1777,2.1777,0,1,1,2.9149-3.2363l.7144.6429,15.81,14.2315,1.2789,1.15L302.6319,388.73l.7215.65A2.18,2.18,0,0,1,303.5106,392.4594Z"/><path class="cls-6" d="M299.6955,391.9522a21.2629,21.2629,0,0,1-31.5776-28.4271l20.0039,18.0107Z"/><path class="cls-20" d="M414.5252,306.1924c-8.13,9.1232-19.8038,21.6329-22.3043,21.2042-2.7147-.4644-14.7958-8.3731-22.2972-13.4241L394.1,287.1244S409.803,295.49,414.5252,306.1924Z"/><path class="cls-16" d="M443.3238,238.4576s-.7216,3.3936-1.6861,3.6222c0,0-.9644,5.2939-2.0074,5.9369s-6.6728,7.7158-6.6728,7.7158-8.6731,39.2077-10.4448,41.2938c-.6.7073-3.8294,4.4938-7.9875,9.1661C409.803,295.49,394.1,287.1244,394.1,287.1244l39.6364-44.03c-1.2075-2.2362-2.6863-5.2868-1.979-5.6868.6787-.3858,3.0363,1.2216,4.7938,2.5576,1.0788.8144,1.9217,1.5288,2.029,1.6146-.0644-.1-.6431-1.0216-1.4217-2.2933-1.9861-3.2578-5.2583-8.8661-4.5224-9.2661.8645-.4644,5.7083,4.3365,7.4085,6.0655.3217.3214.5289.5429.5788.5929-.0286-.05-.1929-.3286-.4429-.75-1.3-2.2219-4.9439-8.616-4.0865-8.88.8644-.2644,4.8437,4.6294,6.3011,6.4227.3.3643.486.6.5287.643C442.9237,234.114,444.21,237.8147,443.3238,238.4576Z"/><path class="cls-8" d="M433.7362,243.0943c.7288,1.3431,1.3574,2.3933,1.3574,2.3933"/></g></svg>