<svg width="950" height="1226" viewBox="0 0 950 1226" fill="none" xmlns="http://www.w3.org/2000/svg">
<path fill-rule="evenodd" clip-rule="evenodd" d="M604.5 1226C938.356 1226 1209 955.356 1209 621.5C1209 287.644 938.356 17 604.5 17C270.644 17 0 287.644 0 621.5C0 955.356 270.644 1226 604.5 1226Z" fill="#FBFDFF"/>
<mask id="mask0" mask-type="alpha" maskUnits="userSpaceOnUse" x="0" y="17" width="1209" height="1209">
<path fill-rule="evenodd" clip-rule="evenodd" d="M604.5 1226C938.356 1226 1209 955.356 1209 621.5C1209 287.644 938.356 17 604.5 17C270.644 17 0 287.644 0 621.5C0 955.356 270.644 1226 604.5 1226Z" fill="white"/>
</mask>
<g mask="url(#mask0)">
<path fill-rule="evenodd" clip-rule="evenodd" d="M365.508 1180L333.225 1127.97C333.225 1127.97 349.367 1095.38 349.367 1077.63C349.367 1059.89 325.876 1068.29 365.508 1034.95C405.141 1001.62 373.763 1008.12 418.657 963.482C463.551 918.841 476.731 904.754 494.94 871.578C513.149 838.402 527.223 824.083 527.223 793.492C527.223 762.9 430.224 738.009 430.224 738.009C430.224 738.009 327.434 670.198 296.767 637.319C266.1 604.441 237.452 606.576 220.397 619.893C203.341 633.209 138.169 604.441 138.169 604.441C138.169 604.441 121.642 539.319 106.52 539.319C91.3983 539.319 46.8596 539.319 46.8596 539.319C46.8596 539.319 26.341 488.339 46.8596 466.762C67.3782 445.186 47.0465 445.186 106.52 445.186C165.994 445.186 185.035 419.5 202.716 398.95C220.397 378.401 214.457 403.06 281.912 337.303C349.367 271.546 312.359 302.37 365.508 271.546C418.657 240.723 418.657 193.161 418.657 193.161C418.657 193.161 381.65 172.911 365.508 172.911C349.367 172.911 311.622 240.723 296.767 240.723C281.912 240.723 244.436 240.723 244.436 240.723C244.436 240.723 220.397 220.473 220.397 206.817C220.397 193.161 225.822 172.911 244.436 172.911C263.05 172.911 267.057 156.472 281.912 152.362C296.767 148.252 333.225 148.252 333.225 126.676C333.225 105.099 285.993 81.8994 265.215 81.8994C244.436 81.8994 215.154 105.099 202.716 105.099C190.278 105.099 75.0835 171.695 13.2103 296.205C-48.6629 420.716 -50 520.19 -50 520.19C-50 520.19 13.2103 542.794 13.2103 557.178C13.2103 571.562 23.0511 558.673 46.8596 571.562C70.6681 584.451 88.5701 588.989 106.52 604.441C124.47 619.893 138.169 629.1 138.169 633.209C138.169 637.319 182.477 655.729 182.477 655.729C182.477 655.729 139.856 733.406 152.925 763.449C165.994 793.492 265.215 840.189 265.215 910.621C265.215 981.054 279.779 1107.63 296.767 1127.97C313.755 1148.31 365.508 1180 365.508 1180Z" fill="#F5F8FC"/>
<path fill-rule="evenodd" clip-rule="evenodd" d="M876.631 1016.59C876.631 1016.59 834.29 1009.13 834.29 941.33C834.29 873.528 821.452 910.394 821.452 861.2C821.452 812.005 821.452 815.594 821.452 793.397C821.452 771.2 821.452 786.575 821.452 753.477C821.452 720.378 802.811 725.594 802.811 704.021C802.811 682.447 817.789 702.41 778.551 682.447C739.314 662.484 723.484 661.31 700.76 661.897C678.036 662.484 632.756 686.549 632.756 661.897C632.756 637.245 598.15 604.371 598.15 604.371C598.15 604.371 581.331 669.551 581.331 604.371C581.331 539.191 581.331 546.841 581.331 520.131C581.331 493.421 577.196 466.711 598.15 466.711C619.104 466.711 634.239 440.927 645.426 423.855C656.613 406.784 634.239 419.454 645.426 378.362C656.613 337.269 673.919 321.105 673.919 321.105C673.919 321.105 678.204 346.033 700.76 321.105C723.316 296.177 700.76 320.832 700.76 296.177C700.76 271.521 605.115 240.702 678.036 240.702C750.957 240.702 778.551 240.702 778.551 240.702C778.551 240.702 784.171 254.938 802.811 240.702C821.452 226.466 802.811 248.92 802.811 206.8C802.811 164.68 808.613 169.817 821.452 148.243C834.29 126.67 852.981 148.243 852.981 126.67C852.981 105.096 876.631 81.8994 876.631 81.8994H922.163C922.163 81.8994 1084.36 229.401 1131.36 337.269C1178.37 445.137 1177.82 549.246 1177.82 549.246C1177.82 549.246 1129.22 555.098 1113.54 571.497C1097.86 587.896 1071.26 593.092 1071.26 590.494C1071.26 587.896 1077.6 578.36 1041.96 549.246C1006.32 520.131 1020.68 520.131 1006.32 493.421C991.954 466.711 983.28 445.137 983.28 445.137L1071.26 630.876L1131.36 604.371L1113.54 661.897C1113.54 661.897 1087.05 673.201 1071.26 704.021C1055.47 734.84 1041.96 732.876 1041.96 753.477C1041.96 774.077 1041.96 792.406 1041.96 814.401C1041.96 836.397 1006.32 855.036 1006.32 873.528C1006.32 892.019 1029.35 861.236 1006.32 910.511C983.28 959.785 945.854 981.338 945.854 981.338C945.854 981.338 876.631 1016.59 876.631 1016.59Z" fill="#F5F8FC"/>
<path fill-rule="evenodd" clip-rule="evenodd" d="M527.848 172.526C527.848 172.526 483.755 199.102 498.739 152.083C513.723 105.063 527.848 81.9828 527.848 81.9828C527.848 81.9828 524.048 63.822 511.393 63.822C498.739 63.822 478.831 63.822 478.831 63.822C478.831 63.822 461.877 40.75 461.877 40.75C461.877 40.75 561.334 23.9677 586.858 23.9677C612.382 23.9677 618.868 37.9354 664.225 23.9677C709.582 10 720.236 10 737.588 10C754.939 10 795.142 23.9677 795.142 23.9677C795.142 23.9677 705.459 67.9042 705.459 81.9828C705.459 96.0615 664.225 62.1325 664.225 105.063C664.225 147.994 670.161 164.349 628.51 164.349C586.858 164.349 527.848 172.526 527.848 172.526Z" fill="#F5F8FC"/>
</g>
<path fill-rule="evenodd" clip-rule="evenodd" d="M184.88 266.382C183.707 268.509 183.707 271.055 184.88 273.183L201.817 303.618C202.991 305.746 205.117 307 207.5 307C209.883 307 212.009 305.746 213.183 303.618L230.12 273.183C231.293 271.055 231.293 268.509 230.12 266.382C228.947 264.254 226.821 263 224.438 263H190.562C188.179 263 186.053 264.254 184.88 266.382Z" fill="#CC0A4D"/>
<path fill-rule="evenodd" clip-rule="evenodd" d="M213.175 289.409H202.637L221.538 276.933L226 269H190L195.775 279.282L202.863 274.622H213.362L198.625 284.326L208 301L215.35 287.946L213.175 289.409Z" fill="white"/>
<path fill-rule="evenodd" clip-rule="evenodd" d="M306.88 612.382C305.707 614.509 305.707 617.055 306.88 619.183L323.817 649.618C324.991 651.746 327.117 653 329.5 653C331.883 653 334.009 651.746 335.183 649.618L352.12 619.183C353.293 617.055 353.293 614.509 352.12 612.382C350.947 610.254 348.821 609 346.438 609H312.562C310.179 609 308.053 610.254 306.88 612.382Z" fill="#D0D6D8"/>
<path fill-rule="evenodd" clip-rule="evenodd" d="M609.88 427.382C608.707 429.509 608.707 432.055 609.88 434.183L626.817 464.618C627.991 466.746 630.117 468 632.5 468C634.883 468 637.009 466.746 638.183 464.618L655.12 434.183C656.293 432.055 656.293 429.509 655.12 427.382C653.947 425.254 651.821 424 649.438 424H615.562C613.179 424 611.053 425.254 609.88 427.382Z" fill="#D0D6D8"/>
<path fill-rule="evenodd" clip-rule="evenodd" d="M554.88 3.38169C553.707 5.5095 553.707 8.05527 554.88 10.1831L571.817 40.6183C572.991 42.7461 575.117 44 577.5 44C579.883 44 582.009 42.7461 583.183 40.6183L600.12 10.1831C601.293 8.05527 601.293 5.5095 600.12 3.38169C598.947 1.25389 596.821 0 594.438 0H560.562C558.179 0 556.053 1.25389 554.88 3.38169Z" fill="#D0D6D8"/>
</svg>
