<svg xmlns="http://www.w3.org/2000/svg" xmlns:xlink="http://www.w3.org/1999/xlink" viewBox="0 0 741 741"><defs><style>.cls-1,.cls-11,.cls-14,.cls-15,.cls-7{fill:none;}.cls-2,.cls-9{fill:#f3f6fa;}.cls-3{fill:#d4dde6;}.cls-17,.cls-4{fill:#ff80b5;}.cls-18,.cls-5{fill:#ffcde0;}.cls-6{fill:#232c3f;}.cls-10,.cls-11,.cls-12,.cls-6,.cls-7,.cls-8,.cls-9{stroke:#232c3f;}.cls-10,.cls-11,.cls-12,.cls-14,.cls-17,.cls-18,.cls-6,.cls-7,.cls-8,.cls-9{stroke-linecap:round;stroke-linejoin:round;}.cls-7{stroke-width:4px;}.cls-8{fill:#ffcede;}.cls-10{fill:#ff86b3;}.cls-12{fill:#d5dce4;}.cls-13{clip-path:url(#clip-path);}.cls-14{stroke:#9e0043;stroke-width:1.5px;}.cls-15{stroke:#000;stroke-miterlimit:10;}.cls-16{fill:#fff;}.cls-17,.cls-18{stroke:#212c41;}.cls-19{fill:#d9222a;fill-rule:evenodd;}</style><clipPath id="clip-path"><path class="cls-1" d="M397.991,429.9476c-11.0265,11.64-31.5929,30.9919-38.9611,31.7481-7.239.7433-22.486-6.528-32.8727-17.3024.33,6.3276.53,10.8519.4718,11.8667-65.4932,27.521-112.3655.6334-113.4707-.0065-.0646-.963.1422-5.371.4912-11.5565-10.3931,10.7486-25.4075,17.7355-32.64,16.9987-7.2325-.7433-27.1849-19.403-38.3471-31.1017a140.6322,140.6322,0,0,0,24.7418-61.15c2.6758,2.01,5.2741,4.0008,7.756,5.9269.0065.0065.0194.013.0258.0194,1.6417-7.226,4.9833-20.3273,8.68-24.8645,5.1707-6.3535,70.8191-30.5717,74.3416-31.47.2392,2.0425,11.7892,49.4706,19.5452,49.4706,7.7948,0,9.1651-46.6267,9.1651-46.6267s-.0647-.42-.1875-1.1634c16.0356,5.746,65.0085,24.341,69.4424,29.79,3.6905,4.5308,7.1032,17.5932,8.7449,24.8193,1.3379-1.0406,2.7081-2.1006,4.1107-3.1671A131.5455,131.5455,0,0,0,397.991,429.9476Z"/></clipPath></defs><g id="bg"><rect class="cls-2" width="741" height="741"/></g><g id="bg_copy_2" data-name="bg copy 2"><polygon class="cls-3" points="562.037 135.796 576.56 158.863 595.151 142 562.037 135.796"/><polygon class="cls-3" points="154.199 215.504 168.722 238.572 187.313 221.709 154.199 215.504"/><polygon class="cls-3" points="383.291 644.527 397.814 667.594 416.405 650.732 383.291 644.527"/><polygon class="cls-3" points="60.905 624.045 75.428 647.112 94.019 630.249 60.905 624.045"/><polygon class="cls-4" points="108.176 500.53 122.699 523.598 141.29 506.735 108.176 500.53"/><polygon class="cls-5" points="376.494 177.678 356.244 164.888 363.941 159.255 353.431 145.474 376.588 158.03 367.04 164.021 376.494 177.678"/><polygon class="cls-5" points="427.337 519.759 407.087 506.969 414.783 501.336 404.274 487.555 427.43 500.111 417.882 506.102 427.337 519.759"/><polygon class="cls-5" points="106.839 136.013 86.589 123.223 94.286 117.59 83.776 103.809 106.932 116.365 97.385 122.356 106.839 136.013"/><path class="cls-6" d="M665.4938,607.9249,466.1651,587.0514c-4.13-.4325-7.4543-4.7594-7.4543-9.6674V260.1623c0-4.908,3.3248-9.5652,7.4543-10.4079l197.8635-41.2205c5.8221-1.1881,12.0458,3.1612,12.0458,9.0526V598.3656A9.4026,9.4026,0,0,1,665.4938,607.9249Z"/><polyline class="cls-7" points="489.877 700.682 554.559 552.916 627.336 728.733"/><path class="cls-8" d="M662.5564,607.5976,463.2277,586.7241c-4.13-.4324-7.4543-4.7593-7.4543-9.6674V259.835c0-4.908,3.3248-9.5652,7.4543-10.4079l199.3287-40.676c5.8222-1.1881,10.5806,2.6167,10.5806,8.5081V598.0383A9.4026,9.4026,0,0,1,662.5564,607.5976Z"/><path class="cls-6" d="M663.7579,229.2193V587.0077a9.3947,9.3947,0,0,1-7.5284,9.4442,9.86,9.86,0,0,1-2.8971.1411l-183.418-17.7724c-4.181-.41-7.5486-4.7389-7.5486-9.6727V267.09c0-4.94,3.3676-9.5987,7.5486-10.4188l183.418-35.9953a9.5533,9.5533,0,0,1,4.08.0471A8.3386,8.3386,0,0,1,663.7579,229.2193Z"/><path class="cls-9" d="M663.7579,229.2193V587.0077a9.3947,9.3947,0,0,1-7.5284,9.4442L474.2432,578.8206c-4.1809-.41-7.5486-4.7389-7.5486-9.6727V267.09c0-4.94,3.3677-9.5987,7.5486-10.4188l183.1693-35.9482A8.3386,8.3386,0,0,1,663.7579,229.2193Z"/><path class="cls-8" d="M597.8279,255.7234c-11.0456,0-21.1545,5.118-28.9606,13.6051l13.887,20.9691a20.4867,20.4867,0,0,1,15.0736-7.0726c12.8723,0,23.3091,13.3564,23.3091,29.842,0,16.4769-10.4368,29.8419-23.3091,29.8419-12.38,0-22.4971-12.362-23.2544-27.9645l-21.4355,1.7232c1.4519,29.9876,20.9047,53.7343,44.69,53.7343,24.73,0,44.7836-25.667,44.7836-57.3349S622.5577,255.7234,597.8279,255.7234Z"/><path class="cls-10" d="M574.5267,313.067q0,.9516.0468,1.8774l-21.4355,1.7232c-.0546-1.1917-.0859-2.3919-.0859-3.6006,0-17.5228,6.1434-33.22,15.8152-43.7385l13.887,20.9691C577.7194,295.7756,574.5267,303.9455,574.5267,313.067Z"/><path class="cls-11" d="M621.137,313.067c0,16.4769-10.4368,29.8419-23.3091,29.8419-12.38,0-22.4971-12.362-23.2544-27.9645q-.0468-.9258-.0468-1.8774c0-9.1215,3.1927-17.2914,8.2276-22.7694a20.4867,20.4867,0,0,1,15.0736-7.0726C610.7,283.225,621.137,296.5814,621.137,313.067Z"/><polyline class="cls-11" points="648.948 489.141 584.578 535.45 533.601 508.168 485.837 546.6"/><ellipse class="cls-10" cx="485.8369" cy="546.5996" rx="5.9841" ry="6.7135"/><ellipse class="cls-10" cx="533.6009" cy="508.1677" rx="5.9841" ry="6.7135"/><ellipse class="cls-10" cx="584.5783" cy="535.4504" rx="5.9841" ry="6.7135"/><ellipse class="cls-10" cx="648.9483" cy="489.1412" rx="5.9841" ry="6.7135"/><path class="cls-10" d="M629.0045,403.3426l-135.446,4.6263c-2.0385.07-3.6816-1.8808-3.6816-4.3561h0c0-2.4752,1.6431-4.5608,3.6816-4.6588l135.446-6.51a5.1686,5.1686,0,0,1,5.4492,5.2252h0A5.7064,5.7064,0,0,1,629.0045,403.3426Z"/><path class="cls-8" d="M629.0045,435.3615l-135.446-.9074c-2.0385-.0136-3.6816-2.0312-3.6816-4.5065h0c0-2.4752,1.6431-4.4937,3.6816-4.5084l135.446-.9761a5.4267,5.4267,0,0,1,5.4492,5.4478h0A5.43,5.43,0,0,1,629.0045,435.3615Z"/><path class="cls-12" d="M629.0045,467.7788l-135.446-6.51c-2.0385-.098-3.6816-2.1835-3.6816-4.6588h0c0-2.4752,1.6431-4.4257,3.6816-4.3561l135.446,4.6264a5.7064,5.7064,0,0,1,5.4492,5.6732h0A5.1686,5.1686,0,0,1,629.0045,467.7788Z"/><g class="cls-13"><path class="cls-10" d="M397.991,429.9476c-11.0265,11.64-31.5929,30.9919-38.9611,31.7481-7.239.7433-22.486-6.528-32.8727-17.3024.33,6.3276.53,10.8519.4718,11.8667-65.4932,27.521-112.3655.6334-113.4707-.0065-.0646-.963.1422-5.371.4912-11.5565-10.3931,10.7486-25.4075,17.7355-32.64,16.9987-7.2325-.7433-27.1849-19.403-38.3471-31.1017a140.6322,140.6322,0,0,0,24.7418-61.15c2.6758,2.01,5.2741,4.0008,7.756,5.9269.0065.0065.0194.013.0258.0194,1.6417-7.226,4.9833-20.3273,8.68-24.8645,5.1707-6.3535,70.8191-30.5717,74.3416-31.47.2392,2.0425,11.7892,49.4706,19.5452,49.4706,7.7948,0,9.1651-46.6267,9.1651-46.6267s-.0647-.42-.1875-1.1634c16.0356,5.746,65.0085,24.341,69.4424,29.79,3.6905,4.5308,7.1032,17.5932,8.7449,24.8193,1.3379-1.0406,2.7081-2.1006,4.1107-3.1671A131.5455,131.5455,0,0,0,397.991,429.9476Z"/><line class="cls-14" x1="204.4064" y1="271.9508" x2="204.4064" y2="495.8546"/><line class="cls-14" x1="186.4538" y1="271.9508" x2="186.4538" y2="495.8546"/><line class="cls-14" x1="168.5012" y1="271.9508" x2="168.5012" y2="495.8546"/><line class="cls-14" x1="150.5486" y1="271.9508" x2="150.5486" y2="495.8546"/><line class="cls-14" x1="276.2167" y1="271.9508" x2="276.2167" y2="495.8546"/><line class="cls-14" x1="258.2641" y1="271.9508" x2="258.2641" y2="495.8546"/><line class="cls-14" x1="240.3116" y1="271.9508" x2="240.3116" y2="495.8546"/><line class="cls-14" x1="222.359" y1="271.9508" x2="222.359" y2="495.8546"/><line class="cls-14" x1="348.0271" y1="271.9508" x2="348.0271" y2="495.8546"/><line class="cls-14" x1="330.0745" y1="271.9508" x2="330.0745" y2="495.8546"/><line class="cls-14" x1="312.1219" y1="271.9508" x2="312.1219" y2="495.8546"/><line class="cls-14" x1="294.1693" y1="271.9508" x2="294.1693" y2="495.8546"/><line class="cls-14" x1="419.8375" y1="271.9508" x2="419.8375" y2="495.8546"/><line class="cls-14" x1="401.8849" y1="271.9508" x2="401.8849" y2="495.8546"/><line class="cls-14" x1="383.9323" y1="271.9508" x2="383.9323" y2="495.8546"/><line class="cls-14" x1="365.9797" y1="271.9508" x2="365.9797" y2="495.8546"/><line class="cls-14" x1="435.9778" y1="303.1161" x2="134.4081" y2="303.1161"/><line class="cls-14" x1="435.9778" y1="285.1635" x2="134.4081" y2="285.1635"/><line class="cls-14" x1="435.9778" y1="267.2109" x2="134.4081" y2="267.2109"/><line class="cls-14" x1="435.9778" y1="249.2583" x2="134.4081" y2="249.2583"/><line class="cls-14" x1="435.9778" y1="374.9264" x2="134.4081" y2="374.9264"/><line class="cls-14" x1="435.9778" y1="356.9738" x2="134.4081" y2="356.9738"/><line class="cls-14" x1="435.9778" y1="339.0213" x2="134.4081" y2="339.0213"/><line class="cls-14" x1="435.9778" y1="321.0687" x2="134.4081" y2="321.0687"/><line class="cls-14" x1="435.9778" y1="446.7368" x2="134.4081" y2="446.7368"/><line class="cls-14" x1="435.9778" y1="428.7842" x2="134.4081" y2="428.7842"/><line class="cls-14" x1="435.9778" y1="410.8316" x2="134.4081" y2="410.8316"/><line class="cls-14" x1="435.9778" y1="392.879" x2="134.4081" y2="392.879"/><line class="cls-14" x1="435.9778" y1="518.5472" x2="134.4081" y2="518.5472"/><line class="cls-14" x1="435.9778" y1="500.5946" x2="134.4081" y2="500.5946"/><line class="cls-14" x1="435.9778" y1="482.642" x2="134.4081" y2="482.642"/><line class="cls-14" x1="435.9778" y1="464.6894" x2="134.4081" y2="464.6894"/></g><path class="cls-11" d="M397.991,429.9476c-11.0265,11.64-31.5929,30.9919-38.9611,31.7481-7.239.7433-22.486-6.528-32.8727-17.3024.33,6.3276.53,10.8519.4718,11.8667-65.4932,27.521-112.3655.6334-113.4707-.0065-.0646-.963.1422-5.371.4912-11.5565-10.3931,10.7486-25.4075,17.7355-32.64,16.9987-7.2325-.7433-27.1849-19.403-38.3471-31.1017a140.6322,140.6322,0,0,0,24.7418-61.15c2.6758,2.01,5.2741,4.0008,7.756,5.9269.0065.0065.0194.013.0258.0194,1.6417-7.226,4.9833-20.3273,8.68-24.8645,5.1707-6.3535,70.8191-30.5717,74.3416-31.47.2392,2.0425,11.7892,49.4706,19.5452,49.4706,7.7948,0,9.1651-46.6267,9.1651-46.6267s-.0647-.42-.1875-1.1634c16.0356,5.746,65.0085,24.341,69.4424,29.79,3.6905,4.5308,7.1032,17.5932,8.7449,24.8193,1.3379-1.0406,2.7081-2.1006,4.1107-3.1671A131.5455,131.5455,0,0,0,397.991,429.9476Z"/><path class="cls-6" d="M292.4508,262.915c-7.8659-2.469-8.9194,9.0358-8.9194,9.0358l-10.3285-15.3763a29.8025,29.8025,0,0,0,0-4.6989c-.2391-1.5254-4.227-6.1014-4.6989-6.2178l16.9017-4.6988S291.9144,254.5191,292.4508,262.915Z"/><path class="cls-6" d="M286.9182,321.9s-1.37,46.6267-9.1651,46.6267c-7.756,0-19.306-47.4281-19.5452-49.4706a.0484.0484,0,0,1-.0065-.0258c-.1357-1.6417,9.2491-47.1955,9.2491-47.1955s-7.5169-8.57-5.636-12.9137c1.8743-4.3434,9.74,3.29,10.4448,4.6988.44.879.1938,4.9122-.0518,7.8207a12.932,12.932,0,0,0,1.1118,6.4892,35.8533,35.8533,0,0,0,8.8612,12.19v.0065c1.1117,9.0163,3.794,25.9051,4.5438,30.5587,0,.0194.0064.0388.0064.0517C286.8535,321.48,286.9182,321.9,286.9182,321.9Z"/><path class="cls-15" d="M258.3113,319.03c-.0258.0065-.0581.0129-.1034.0259"/><path class="cls-15" d="M175.186,375.39c-.0064.0453-.0193.084-.0258.1228"/><path class="cls-15" d="M89.6629,454.9534a.1334.1334,0,0,1-.0388-.0259"/><path class="cls-15" d="M213.7982,444.5419c-.0517.0517-.1035.1034-.1487.1551"/><path class="cls-15" d="M89.6629,454.9534a.1334.1334,0,0,1-.0388-.0259"/><line class="cls-15" x1="90.3027" y1="455.464" x2="90.2963" y2="455.4575"/><path class="cls-6" d="M115.5486,332.1958s-.8079-6.1467-2.7921-7.73c-1.9843-1.59-10.5547-8.0146-11.8215-6.5862-.9372,1.0535,1.8743,6.2307,3.4191,8.8936a.8759.8759,0,0,1-.892,1.3056l-5.5843-.8208a2.5322,2.5322,0,0,1-1.4672-.7756c-2.6564-2.8762-10.9618-10.91-12.0541-10.3285-1.157.614,7.4263,12.5583,7.8594,13.1723-.5688-.5558-10.2056-10.0052-11.5953-8.7772-1.26,1.1182,6.5216,9.8178,9.0035,12.1059-2.5143-1.9778-11.24-8.6932-12.0994-7.4781-.8791,1.2409,7.6655,11.815,10.93,15.77a6.1822,6.1822,0,0,0,3.0636,2.0167l16.6367,4.8281c0,.1551,21.9108,67.7231,27.6245,75.0978,1.26,1.6287,3.7228,4.3886,6.8834,7.7043a140.6322,140.6322,0,0,0,24.7418-61.15C144.13,351.8961,115.5486,332.1958,115.5486,332.1958Zm-25.8858.4847c.362.2909.5882.4718.6335.5042A2.9284,2.9284,0,0,1,89.6628,332.6805Z"/><path class="cls-15" d="M175.186,375.39c8.8936,6.9029,16.23,13.0108,19.6293,16.7918"/><path class="cls-15" d="M92.2417,451.6248l-.0258-.0259"/><path class="cls-15" d="M213.1648,456.3182c0-.0194-.0065-.0388-.0065-.0647"/><path class="cls-15" d="M213.65,444.697c1.1569-20.3725,3.8909-60.0834,3.8909-60.0834"/><path class="cls-15" d="M364.95,375.4938c-.0129-.0452-.0194-.0969-.0323-.1486"/><path class="cls-15" d="M286.7307,320.7362a1.1763,1.1763,0,0,0-.1357-.0517"/><path class="cls-6" d="M462.5147,325.1766c-.86-1.2151-9.5851,5.5-12.0994,7.4781,2.4819-2.2881,10.2639-10.9877,9.0035-12.1059-1.39-1.228-11.0265,8.2214-11.5953,8.7772.4331-.614,9.0164-12.5583,7.8595-13.1723-1.0924-.5817-9.3978,7.4523-12.0542,10.3285a2.5322,2.5322,0,0,1-1.4672.7756l-5.5843.8208a.8759.8759,0,0,1-.892-1.3056c1.5448-2.6629,4.3564-7.84,3.4192-8.8936-1.2669-1.4284-9.8373,4.9962-11.8216,6.5862-1.9842,1.5835-2.7921,7.73-2.7921,7.73s-31.6511,21.82-55.4621,39.9823a131.5455,131.5455,0,0,0,28.9623,57.77c2.87-3.0313,5.0932-5.5326,6.2695-7.0579,5.7136-7.3747,27.6244-74.9427,27.6244-75.0978l16.6367-4.8281a6.1818,6.1818,0,0,0,3.0636-2.0167C454.8492,336.9916,463.3938,326.4175,462.5147,325.1766Zm-12.7716,8.0081c.0453-.0324.2715-.2133.6335-.5042A2.9284,2.9284,0,0,1,449.7431,333.1847Z"/><path class="cls-15" d="M450.4153,332.6547a.1339.1339,0,0,1-.0387.0258"/><path class="cls-15" d="M326.1572,444.3933c-.0388-.0324-.0711-.0711-.1034-.1035"/><path class="cls-15" d="M450.4153,332.6547a.1339.1339,0,0,1-.0387.0258"/><line class="cls-15" x1="449.7431" y1="333.1847" x2="449.7367" y2="333.1911"/><path class="cls-15" d="M345.2241,392.1822c3.4062-3.7875,10.7486-9.9018,19.6551-16.8112a.1343.1343,0,0,1,.0388-.0258"/><path class="cls-15" d="M447.8235,329.326l-.0258.0259"/><path class="cls-15" d="M326.629,456.26c0,.0323-.0064.0582-.0064.084"/><path class="cls-15" d="M322.4925,384.6136s2.566,39.31,3.6647,59.78"/><path class="cls-6" d="M248.7132,696.1342c-2.4044,9.6433-4.1688,16.5462-4.1688,16.5462s-6.011,1.5383-7.7431,1.4478-9.2943-6.3794-10.6646-6.9481c-1.3637-.5688-10.5547,0-10.5547,0-.4718-2.2945-1.2926-6.3277-2.3655-11.5759A63.1087,63.1087,0,0,0,248.7132,696.1342Z"/><path class="cls-8" d="M348.2813,586.7617c-.4524,6.1143-15.344,79.4153-21.6781,110.4265a63.1091,63.1091,0,0,1-35.4968.53c-5.2547-21.1352-13.5407-55.4685-12.9073-59.2949.53-3.1605,5.3452-19.28,9.4236-32.6529v-.0064c-.1487-.5106-9.9213-24.955-17.7161-45.5409-7.8013,20.6117-17.5868,45.1014-17.71,45.5409v.0064c4.0784,13.3727,8.8936,29.4924,9.4236,32.6529.6334,3.8264-7.6526,38.16-12.9074,59.2949a63.1087,63.1087,0,0,1-35.4967-.53c-6.3342-31.0112-21.2257-104.3122-21.6782-110.4265-.5752-7.7819,21.6006-130.5211,21.6006-130.5211a.08.08,0,0,0,.0194.0129c1.1052.64,47.9775,27.5275,113.4707.0065.0195-.0065.0324-.013.0518-.0194C326.6808,456.2406,348.8565,578.98,348.2813,586.7617Z"/><path class="cls-15" d="M279.4207,532.5018c-.0711,2.204-4.3628,14.1224-9.5141,27.7213"/><path class="cls-10" d="M247.9183,729.6209H231.4237v-5.2354l-5.2288,5.2354H195.5973a1.8953,1.8953,0,0,1-1.8937-1.5965c-.2456-1.6546.2391-4.2723,4.7247-6.2436,9.0293-3.962,15.874-3.4127,17.1537-14.6007,0,0,9.191-.5688,10.5547,0,1.37.5687,8.9324,6.8576,10.6646,6.9481s7.7431-1.4478,7.7431-1.4478S249.1075,725.5231,247.9183,729.6209Z"/><path class="cls-15" d="M246.4058,586.9427s2.6758,8.6027,5.7912,18.8213"/><path class="cls-6" d="M326.6032,695.6042c-1.0729,5.2482-1.8938,9.2814-2.3656,11.5759,0,0-9.1909-.5688-10.5546,0-1.37.5687-8.9324,6.8576-10.6646,6.9481s-7.7431-1.4478-7.7431-1.4478-1.7645-6.9029-4.1689-16.5462A63.1091,63.1091,0,0,0,326.6032,695.6042Z"/><path class="cls-10" d="M346.1161,728.0244a1.8955,1.8955,0,0,1-1.8938,1.5965H313.6248l-5.2289-5.2354v5.2354H291.9014c-1.1893-4.0978,3.3739-16.9405,3.3739-16.9405s6.0109,1.5383,7.7431,1.4478,9.2943-6.3794,10.6646-6.9481c1.3637-.5688,10.5546,0,10.5546,0,1.28,11.188,8.1244,10.6387,17.1538,14.6007C345.8769,723.7521,346.3617,726.37,346.1161,728.0244Z"/><path class="cls-15" d="M287.6227,605.764c3.1153-10.2186,5.7911-18.8213,5.7911-18.8213"/><path class="cls-8" d="M307.95,293.6677c0,1.5189-2.7018,2.9537-6.709,3.2575a26.5308,26.5308,0,0,1-19.06-6.7994v-.0065a35.8533,35.8533,0,0,1-8.8612-12.19,12.932,12.932,0,0,1-1.1118-6.4892c.2456-2.9085.4913-6.9417.0518-7.8207-.7045-1.409-8.57-9.0422-10.4448-4.6988-1.8809,4.3434,5.636,12.9137,5.636,12.9137s-32.0518,7.866-33.338.8209c-1.2927-7.0451,6.8059-10.5676,5.9851-14.0837-.6528-2.7857-13.98-3.7423-16.9146-7.756-.7692-1.047-.8274-2.3074.2456-3.8651,5.1642-7.5169,53.8785-29.1174,61.04-21.6005,5.4809,5.7459,3.1218,11.8408,1.7127,14.3809a10.7669,10.7669,0,0,1-.7756,1.2281l-16.9017,4.6988c.4719.1164,4.46,4.6924,4.6989,6.2178a29.8025,29.8025,0,0,1,0,4.6989l10.3285,15.3763s1.0535-11.5048,8.9194-9.0358a10.1248,10.1248,0,0,1,4.4209,3.4385C302.9537,273.6959,307.95,289.8672,307.95,293.6677Z"/><path class="cls-16" d="M214.4057,240.5841l-.2456,1.4284A5.7562,5.7562,0,0,1,214.4057,240.5841Z"/><path class="cls-16" d="M284.4686,225.35c5.4809,5.7459,3.1218,11.8408,1.7127,14.3809a21.8411,21.8411,0,0,0-9.1327-5.41c-8.06-2.3074-16.6884.6528-24.0889,4.5825-7.4071,3.9362-14.3939,8.9259-22.4861,11.1235a20.3986,20.3986,0,0,1-7.2906.7885c-.7692-1.047-.8274-2.3074.2456-3.8651C228.5928,239.4336,277.3071,217.8331,284.4686,225.35Z"/><path class="cls-16" d="M307.95,293.6677c0,1.5189-2.7018,2.9537-6.709,3.2575-2.2428-4.13-2.9344-9.01-3.3093-13.7346-.4395-5.5908-.53-11.2527-1.06-16.8371C302.9537,273.6959,307.95,289.8672,307.95,293.6677Z"/><path class="cls-11" d="M307.95,293.6677c0,3.49-14.2259,6.528-25.7695-3.5419v-.0065a35.8533,35.8533,0,0,1-8.8612-12.19,12.932,12.932,0,0,1-1.1118-6.4892c.2456-2.9085.4913-6.9417.0518-7.8207-.7045-1.409-8.57-9.0422-10.4448-4.6988-1.8809,4.3434,5.636,12.9137,5.636,12.9137s-32.0518,7.866-33.338.8209c-1.2927-7.0451,6.8059-10.5676,5.9851-14.0837-.8209-3.5225-21.8332-4.1107-16.669-11.6211,5.1642-7.5169,53.8785-29.1174,61.04-21.6005,7.1614,7.51.9371,15.609.9371,15.609l-16.9017,4.6988c.4719.1164,4.46,4.6924,4.6989,6.2178a29.8025,29.8025,0,0,1,0,4.6989l10.3285,15.3763s1.0535-11.5048,8.9194-9.0358C300.3167,265.3775,307.95,288.9753,307.95,293.6677Z"/><path class="cls-11" d="M268.6983,477.2761a6.5523,6.5523,0,0,0-.5054,3.6792,6.74,6.74,0,0,0,2.4512,4.55,4.601,4.601,0,0,0,4.9847.4338,4.994,4.994,0,0,0,1.7856-1.9713c1.4246-2.6661.9491-7.0385-1.7667-8.8208C273.4116,473.6793,269.8062,474.9885,268.6983,477.2761Z"/><path class="cls-11" d="M222.4934,474.2766a46.9506,46.9506,0,0,0,28.7483,4.3247"/><path class="cls-11" d="M292.7311,478.2836a64.6109,64.6109,0,0,0,32.7771-7.3247"/><path class="cls-17" d="M78.6748,241.8994,52.37,261.1329a5.9,5.9,0,0,0-1.28,8.2448l46.4745,63.561a5.9,5.9,0,0,0,8.2448,1.28l26.3048-19.2335a5.9,5.9,0,0,0,1.28-8.2444L86.9191,243.18A5.9,5.9,0,0,0,78.6748,241.8994Zm50.2922,62.6915L96.8578,328.0685l-41.3994-56.62,32.1092-23.4776Z"/><rect class="cls-18" x="72.3389" y="252.9691" width="39.7768" height="70.1408" transform="translate(-152.232 109.9601) rotate(-36.1735)"/><circle class="cls-17" cx="115.8851" cy="320.395" r="3.2708"/><path class="cls-6" d="M335.2037,335.9131s109.96-33.1877,111.1136-33.1877,50.1833,10.3827,50.1833,10.3827Z"/><path class="cls-8" d="M411.214,332.5025,337.76,342.5791a3.6724,3.6724,0,0,1-4.12-3.1622v0a3.6724,3.6724,0,0,1,3.1622-4.12L410.2565,325.22Z"/><path class="cls-8" d="M515.6088,248.732l-4.8894,67.193a4.3364,4.3364,0,0,1-3.7633,3.9883L409.34,332.7489a4.3414,4.3414,0,0,1-4.8951-4.62l4.8894-67.193a4.3486,4.3486,0,0,1,3.7632-3.9883l97.6158-12.8356A4.3441,4.3441,0,0,1,515.6088,248.732Z"/><path class="cls-10" d="M413.0978,256.9475a4.3486,4.3486,0,0,0-3.7632,3.9883l-4.8894,67.193a4.3414,4.3414,0,0,0,4.8951,4.62l-4.5853.6029a4.3414,4.3414,0,0,1-4.8952-4.62l4.8894-67.1931a4.3377,4.3377,0,0,1,3.7633-3.9883Z"/><path class="cls-10" d="M467.7864,289.7459c-1.1851,5.3878-5.5976,9.003-9.8536,8.0765a.1384.1384,0,0,1-.0551-.0152c3.1952-.7811,6.0269-3.8814,6.932-8.0342,1.182-5.3638-1.2937-10.47-5.5205-11.4333a6.5025,6.5025,0,0,1,2.9216-.0422C466.4667,279.224,468.9635,284.3571,467.7864,289.7459Z"/><path class="cls-11" d="M319.836,715.14a10.3253,10.3253,0,0,1,11.5216-2.12"/><path class="cls-11" d="M324.3818,717.3144a19.7155,19.7155,0,0,1,10.2719-.4172"/><path class="cls-11" d="M209.3876,712.9107a9.8025,9.8025,0,0,1,9.3421.7078"/><path class="cls-11" d="M207.3584,717.0126a12.1659,12.1659,0,0,1,9.3019,2.0012"/></g><g id="Layer_7" data-name="Layer 7"><g id="Page-1"><g id="Artboard"><g id="Media_Markt-1-Copy" data-name="Media Markt-1-Copy"><path id="Fill-2" class="cls-19" d="M479.98,57.127l.0883-.5569a.7668.7668,0,0,0-.7535-.91h-4.0008a.7676.7676,0,0,0-.7635.6236l-.1117.6053-4.2743,23.3651a.7823.7823,0,0,0,.18.6353.8032.8032,0,0,0,.6118.2718l1.9737-.03h1.8554a.765.765,0,0,0,.7518-.6136L478.47,66.0159a6.3,6.3,0,0,1,5.5562-5.0872,2.9478,2.9478,0,0,0,.6418-.0684c-1.4753,8.7922-3.2223,19.2017-3.2523,19.3751a.7687.7687,0,0,0,.7551.8954H486.48a.76.76,0,0,0,.7318-.54c.1384-.4236,1.1686-6.3978,1.7871-9.986,1.5953,2.4193,6.69,10.1727,6.69,10.1727a.77.77,0,0,0,.6435.3452l5.1494.0083a.84.84,0,0,0,.2651-.05.81.81,0,0,0,.3517.08l4.3476-.03a.7646.7646,0,0,0,.7519-.6336s3.149-18.1913,3.3557-19.3851c1.0119-.0017,4.991-.0067,4.991-.0067a.7722.7722,0,0,0,.7586-.6386l.6718-3.9117a.6642.6642,0,0,0,.0133-.13.7848.7848,0,0,0-.1784-.4918.7733.7733,0,0,0-.5934-.2735H511.3c.24-1.3823,1.1153-6.4828,1.1153-6.4828a1.2254,1.2254,0,0,0,.01-.13.7675.7675,0,0,0-.7669-.77h-4.3209a.7722.7722,0,0,0-.7585.6369s-.9619,5.7009-1.14,6.7463c-.39.0117-.7936.02-.7936.02l-.6734.005-.7152-.0133a.7671.7671,0,0,0-.6635.3568.7569.7569,0,0,0-.6334-.3485l-3.9559-.0083h-1.1586a.7889.7889,0,0,0-.5667.2468S492.3,60.48,490.1857,62.77c.6184-3.6266,2.3238-13.5826,2.3238-13.5826a1.1973,1.1973,0,0,0,.01-.1334.7763.7763,0,0,0-.77-.767l-4.3042-.01a.7664.7664,0,0,0-.7635.6353c-.1.5936-.5468,3.2431-1.1453,6.7729a.1821.1821,0,0,0-.02-.03.75.75,0,0,0-.6051-.2634A9.6925,9.6925,0,0,0,479.98,57.127Zm21.5612,21.8745c-1.772-2.8479-6.95-11.1615-7.4049-11.8951.5985-.707,6.9015-8.3887,8.1818-9.8927l-.5668,2.978a.7621.7621,0,0,0,.1667.6336.774.774,0,0,0,.5935.28h1.9637C504.252,62.4627,502.1982,74.98,501.5414,79.0015ZM353.7481,69.0572a10.4119,10.4119,0,0,1-6.7681,6.828c-2.2172.2934-3.8442.085-4.9778-.6486a6.9188,6.9188,0,0,1-2.2555-3.53,8.0654,8.0654,0,0,1-.1217-1.3756c0-2.8579,1.5287-5.6124,4.341-7.7217a7.4045,7.4045,0,0,1,5.7395-1.1171A5.2218,5.2218,0,0,1,353.208,64.07a6.5938,6.5938,0,0,1,.7968,3.1948A6.18,6.18,0,0,1,353.7481,69.0572ZM331.8317,48.8884l-.93,5.0522a.7711.7711,0,0,0,.7635.9188h4.496a.77.77,0,0,0,.7585-.6336l.8451-5.0072a.8021.8021,0,0,0-.1667-.6336.7792.7792,0,0,0-.5868-.28l-4.4192-.0366A.77.77,0,0,0,331.8317,48.8884ZM322.12,69.0572h0a6.2341,6.2341,0,0,0,.25-1.7924,6.6083,6.6083,0,0,0-.7919-3.1948,5.236,5.236,0,0,0-3.5074-2.5777,7.4087,7.4087,0,0,0-5.74,1.1171c-2.8072,2.1093-4.3409,4.8638-4.3409,7.7217a8.069,8.069,0,0,0,.1234,1.3756,6.9107,6.9107,0,0,0,2.2571,3.53c1.1336.7336,2.7623.942,4.9761.6486A10.4289,10.4289,0,0,0,322.12,69.0572Zm-36.8812-3.6049h0c1.84-.0167,10.6539-.1,11.9225-.1117a4.3678,4.3678,0,0,0-1.4836-2.5978,6.6484,6.6484,0,0,0-4.4893-1.3206A8.2552,8.2552,0,0,0,285.2384,65.4523Zm180.6837,3.6049a10.4011,10.4011,0,0,1-6.7681,6.828c-2.2188.2934-3.8458.085-4.9727-.6486a6.9057,6.9057,0,0,1-2.2605-3.53,8.4182,8.4182,0,0,1-.1233-1.3756c0-2.8579,1.53-5.6124,4.3459-7.7217a7.3979,7.3979,0,0,1,5.7379-1.1171,5.2216,5.2216,0,0,1,3.5024,2.5777,6.6476,6.6476,0,0,1,.7935,3.1948A6.1765,6.1765,0,0,1,465.9221,69.0572Zm-241.91,11.6784v-.4785a.5472.5472,0,0,1,.0917-.14l32.0352-36.9294a.59.59,0,0,1,.4384-.1967H261.75a.5838.5838,0,0,1,.4451.2117.5975.5975,0,0,1,.1317.3635.7376.7376,0,0,1-.015.1184s-4.0125,19.82-4.7577,23.4052c2.5255-2.8546,21.1729-23.9021,21.1729-23.9021a.5566.5566,0,0,1,.4284-.1967h4.8677a.5726.5726,0,0,1,.56.7153l-5.1094,20.749c.0417-.0767.0784-.1517.1167-.2251a16.0744,16.0744,0,0,1,12.0542-8.6671A.2821.2821,0,0,1,291.7,55.56c4.5226-.23,8.0133,1.4823,10.1071,4.9405.0117.0183.02.035.0334.055a14.63,14.63,0,0,1,1.4119,5.6291,16.4374,16.4374,0,0,1,4.4793-6.74,13.4749,13.4749,0,0,1,12.276-3.68.9614.9614,0,0,1,.1434.0466l.4034.1735a10.2072,10.2072,0,0,1,2.8989,1.6707c.47-2.211,1.8471-8.7672,1.8471-8.7672a.776.776,0,0,1,.7568-.6119h3.9942a.7717.7717,0,0,1,.7635.91l-5.8262,31.422a.7739.7739,0,0,1-.7619.63l-3.9625-.0117a.7619.7619,0,0,1-.7768-.7653.66.66,0,0,1,.015-.1418s.1-.5269.1634-.8753A13.5572,13.5572,0,0,1,310.1,81.661a10.1594,10.1594,0,0,1-7.4233-7.795,15.4518,15.4518,0,0,1-.25-2.94.7738.7738,0,0,1-.5185.2s-17.5271.0067-18.3989.0084a.8315.8315,0,0,0-.0317.2234,4.0618,4.0618,0,0,0,.2234,1.0638s.0533.19.0783.2718a5.5485,5.5485,0,0,0,5.3462,3.4348,8.95,8.95,0,0,0,6.5-3.3614.7605.7605,0,0,1,.5718-.2585H300.3a.78.78,0,0,1,.7019,1.1055,14.65,14.65,0,0,1-13.0328,8.1869,10.3126,10.3126,0,0,1-8.7953-5.1072,12.1239,12.1239,0,0,1-1.2819-5.8076l-2.4072,9.776a.5822.5822,0,0,1-.5651.4435h-5.19a.5892.5892,0,0,1-.5784-.5786.7165.7165,0,0,1,.015-.1351c2.0271-8.44,4.8694-20.4372,5.9013-25.1842-2.4822,2.9062-21.9331,25.6594-21.9331,25.6594a.56.56,0,0,1-.4334.2l-4.3843.0384a.5845.5845,0,0,1-.5818-.5786.5024.5024,0,0,1,.0117-.1217c1.8554-8.54,4.4509-20.7024,5.3645-25.4328-2.3922,2.858-21.683,25.928-21.683,25.928a.5939.5939,0,0,1-.4618.2051c-1.497-.0517-2.6255-.045-3.9358-.0384h-2.4972A.5622.5622,0,0,1,224.0119,80.7356ZM473.0537,55.9365a.7672.7672,0,0,0-.59-.2768H468.466a.7709.7709,0,0,0-.7551.6119l-.3084,1.5124a9.26,9.26,0,0,0-3.0424-1.7991l-.3984-.1735a.9389.9389,0,0,0-.1467-.0466,13.4731,13.4731,0,0,0-12.2743,3.68,16.7259,16.7259,0,0,0-4.0308,5.5924l5.2528-21.3309a.5761.5761,0,0,0-.1051-.4952.57.57,0,0,0-.4534-.22h-4.866a.5594.5594,0,0,0-.4335.1967S428.2591,64.2351,425.7335,67.09c.7435-3.5849,4.9027-23.4052,4.9027-23.4052,0-.0383.01-.0817.01-.1184a.5579.5579,0,0,0-.1283-.3635.5821.5821,0,0,0-.4468-.2117H424.695a.5807.5807,0,0,0-.4368.1967L397.4058,74.2028a36.9672,36.9672,0,0,0-2.5989-9.4325c-3.5991-7.3748-11.6058-9.7642-16.1468-5.534l-.0317.0066-.7118.5169c3.294-5.2573,11.6508-5.0238,17.032,1.1672a29.0275,29.0275,0,0,1,4.0875,7.1515,19.91,19.91,0,0,0,.8119-4.6737,29.4356,29.4356,0,0,0-5.958-6.0177c-6.7964-4.5853-14.9332-2.6478-16.7519,3.2848l-.0233.025-.3518.802c.2217-6.2043,7.5733-10.1777,15.325-7.5082a29.0036,29.0036,0,0,1,7.3332,4.3085c-.05-.2368-.1-.4735-.165-.71a19.4611,19.4611,0,0,0-1.72-4.4386,29.4452,29.4452,0,0,0-8.1051-2.2076c-8.1817-.5686-14.2547,5.1689-12.8644,11.22l-.01.0317.0917.8737c-2.9056-5.4857,1.472-12.5971,9.5187-14.1678a28.9975,28.9975,0,0,1,8.33.0367,19.7017,19.7017,0,0,0-3.9708-3.22,29.1787,29.1787,0,0,0-8.0418,2.1342c-7.3649,3.5949-9.7587,11.6067-5.5295,16.152l.005.0267.52.717c-5.2594-3.2981-5.0211-11.6551,1.1636-17.0341a29.0624,29.0624,0,0,1,7.19-4.1168,19.5041,19.5041,0,0,0-5.4679-.8153,29.3818,29.3818,0,0,0-5.6928,5.7091c-4.5827,6.8013-2.6489,14.9332,3.2823,16.7557l.0217.02.8068.3585c-6.2013-.2235-10.1738-7.5767-7.5049-15.3317a28.8763,28.8763,0,0,1,3.9392-6.858,19.781,19.781,0,0,0-4.3976,1.7274,29.2837,29.2837,0,0,0-2.0771,7.8117c-.5718,8.1853,5.1694,14.26,11.219,12.8706l.0267.0084.88-.0984c-5.4862,2.9129-12.6027-1.469-14.1647-9.5208a28.8641,28.8641,0,0,1,0-8.0785,19.8648,19.8648,0,0,0-3.3974,4.2485,29.3937,29.3937,0,0,0,2.0854,7.6617c3.5958,7.3715,11.6025,9.7625,16.1452,5.5307l.0333-.0067.71-.5152c-3.2907,5.2573-11.6509,5.0239-17.027-1.1672a29.7958,29.7958,0,0,1-4.1976-7.4582.7581.7581,0,0,0-.77-.7887h-3.9925a.7747.7747,0,0,0-.7585.6119,3.734,3.734,0,0,0-.4484,1.384,10.2459,10.2459,0,0,0-2.8973-1.6707l-.4051-.1735a.98.98,0,0,0-.145-.0466,13.4724,13.4724,0,0,0-12.2726,3.68,16.507,16.507,0,0,0-4.4877,6.74s-.0267.0634-.0733.1634l1.6987-9.7876a.7719.7719,0,0,0-.7652-.9l-4.2609.005a.7783.7783,0,0,0-.76.6386L326.3155,80.32a.7915.7915,0,0,0,.17.6353.7709.7709,0,0,0,.5918.2718l4.4909.0117a.7708.7708,0,0,0,.7635-.6436l1.697-9.771c.0184.0617.0334.1018.0334.1018a14.92,14.92,0,0,0,.2467,2.94,10.1587,10.1587,0,0,0,7.4249,7.795,13.5608,13.5608,0,0,0,9.5654-2.2159c-.0633.3484-.165.8753-.165.8753a.7939.7939,0,0,0,.165.6353.7691.7691,0,0,0,.5985.2718l3.9625.0117a.7683.7683,0,0,0,.76-.63l3.489-18.9032a45.5405,45.5405,0,0,0,6.0263,5.7491c6.7948,4.5887,14.9266,2.6512,16.7453-3.28l.0267-.025.3534-.8054c-.2217,6.2044-7.575,10.1795-15.3283,7.5066a28.9957,28.9957,0,0,1-6.8648-3.94c.03.1284.055.2618.0883.3918a19.863,19.863,0,0,0,1.8071,4.5937,29.1879,29.1879,0,0,0,7.6316,2.0059c8.1768.5719,14.2514-5.169,12.8611-11.22l.0117-.0317-.0967-.8771c2.909,5.4858-1.47,12.6089-9.5187,14.1679a28.6964,28.6964,0,0,1-7.9267.02,19.7114,19.7114,0,0,0,3.5591,2.9629,29.07,29.07,0,0,0,7.955-2.1276c7.3683-3.5932,9.7638-11.6067,5.5329-16.147l-.0084-.035-.5167-.7086c5.2594,3.2947,5.0244,11.6484-1.162,17.0324a29.3208,29.3208,0,0,1-7.3115,4.16,19.5889,19.5889,0,0,0,3.6908.8587h1.7837a29.32,29.32,0,0,0,5.8012-5.7992c4.5877-6.8,2.6539-14.9365-3.279-16.7539l-.025-.025-.8018-.3552c6.2029.2251,10.1755,7.5783,7.5066,15.3333a29.1,29.1,0,0,1-4.2893,7.3082c.2384-.0533.4668-.1017.7018-.1634A19.8491,19.8491,0,0,0,389.284,79.89a29.2643,29.2643,0,0,0,2.1705-8.0369c.5751-8.1752-5.1678-14.2562-11.2207-12.8656l-.025-.0066-.8752.0933c5.4811-2.9079,12.601,1.4723,14.1663,9.5242a22.9629,22.9629,0,0,1,.2267,8.0752,9.83,9.83,0,0,1-.9051,2.5261q-.2327.4076-.5818.967l.0066-.01c-.0016.01-.0116.0184-.0183.03a.04.04,0,0,0-.005.0216.5756.5756,0,0,0-.0333.5269.5624.5624,0,0,0,.5267.3318H395.21c1.31-.0066,2.4372-.0133,3.9358.0384a.6022.6022,0,0,0,.4635-.2051s19.2908-23.07,21.6813-25.928c-.9152,4.73-3.5091,16.8924-5.3662,25.4328a.7568.7568,0,0,0-.01.1217.5749.5749,0,0,0,.5818.5786l4.386-.0384a.565.565,0,0,0,.4334-.2s19.4459-22.7532,21.9347-25.6594c-1.0369,4.747-3.8758,16.7439-5.9,25.1842a.4584.4584,0,0,0-.02.1351.5844.5844,0,0,0,.125.3568.5774.5774,0,0,0,.4551.2218h5.1878a.5789.5789,0,0,0,.5635-.4435l2.2455-9.1107.3117-1.28c.01.3651.015.6553.015.6553a15.3174,15.3174,0,0,0,.2517,2.94,10.1555,10.1555,0,0,0,7.42,7.795,13.569,13.569,0,0,0,9.5687-2.2159c-.065.3484-.165.8753-.165.8753a.7562.7562,0,0,0,.7568.9071l3.9659.0117a.7686.7686,0,0,0,.7618-.63l3.5808-19.0316.8585-5.1289a.7474.7474,0,0,0-.18-.5119Z"/></g></g></g></g></svg>