<svg width="223" height="279" xmlns="http://www.w3.org/2000/svg" xmlns:xlink="http://www.w3.org/1999/xlink">
  <defs>
    <path id="d" d="M-5.53-3.186H6.223v239.962H-5.53z"/>
    <path id="e" d="M.171.577h35.954v96.21H.17z"/>
    <path id="l" d="M.033.34h90.82v47.647H.032z"/>
    <path d="M4.994.145c-.132.644.744 2.978.744 3.497C5.738 4.16 3.11.875 2.552.875c-.557 0 1.633 3.112 1.872 3.415.239.302-2.589-1.265-3.186-1.497-.597-.232 1.434 1.886 2.07 2.404.638.519-2.23-.13-2.946-.173-.717-.043 1.951 1.686 2.668 2.032.717.346 3.04 1.214 3.756 1.387.717.173 1.91 14.898 2.482 17.415 0 0 2.869 1.6 7.7.801 4.832-.798 5.748-3.909 5.748-3.909L12.025 7.563c-1.13-1.604 1.825-3.962 1.912-5 .087-1.037-2.26 1.321-3.39 1.604-1.13.283-2.587-.15-3.312-1.05-.65-.804-1.828-3.07-2.161-3.07-.039 0-.066.031-.08.098" id="n"/>
    <path d="M3.294.022c-.541.033.542 2.585.12 2.486-.42-.1-.872-2.154-1.474-2.088-.432.047.692 2.685.21 2.585-.48-.1-.888-1.622-1.564-1.89-.676-.266.068.976.504 2.1.438 1.123 1.786 1.485 1.371 1.594-1.247.325-3.217 1.066-.657 1.208a24.11 24.11 0 001.785.014c1.588-.03 2.886-.058 3.223.879.457 1.272 2.746 10.547 4.06 14.224.52 1.455 4.13.173 6.477-.887 2.347-1.06 6.723-2.714 5.398-4.67C21.422 13.621 9.894 2.94 8.42 1.911c-1.474-1.027-2.947-.1-2.947-.1-.32-.33-.703-1.789-1.004-1.79-.146 0-.088.542-.03 1.082.063.58.126 1.16-.06 1.073-.359-.164-.54-2.154-1.07-2.154h-.014z" id="p"/>
    <path d="M65.447.294c-5.124.806-6.029 5-6.029 5s3.165 8.356 3.316 11.098c.151 2.742-.452 13.389-1.96 16.937-1.506 3.55-11.454 4.55-15.976 5.517-4.521.968-18.244-1.427-21.252-2.742-1.973-.863-10.7-17.131-10.7-17.131s-.905 2.936-5.427 3.742c-4.522.807-7.385-.059-7.385-.059s2.26 18.126 6.393 21.747c7.9 6.922 18.16 12.83 19.491 14.73 1.332 1.9 1.428 15.186 1.367 19.23-.067 4.455 2.618 6.886 5.658 7.916 4.636 1.57 31.684.48 34.917-2.817 3.495-3.564 8.27-16.211 8.42-18.647.152-2.435-2.73-13.312-2.275-16.235.455-2.922 5.006-25.813 4.702-31.982-.303-6.17-6.46-15.428-6.46-15.428S71.157.075 68.046.075c-.746 0-1.608.063-2.6.219" id="r"/>
    <path d="M65.447.294c-5.124.806-6.029 5-6.029 5s3.165 8.356 3.316 11.098c.151 2.742-.452 13.389-1.96 16.937-1.506 3.55-11.454 4.55-15.976 5.517-4.521.968-18.244-1.427-21.252-2.742-1.973-.863-10.7-17.131-10.7-17.131s-.905 2.936-5.427 3.742c-4.522.807-7.385-.059-7.385-.059s2.26 18.126 6.393 21.747c7.9 6.922 18.16 12.83 19.491 14.73 1.332 1.9 1.428 15.186 1.367 19.23-.067 4.455 2.618 6.886 5.658 7.916 4.636 1.57 31.684.48 34.917-2.817 3.495-3.564 8.27-16.211 8.42-18.647.152-2.435-2.73-13.312-2.275-16.235.455-2.922 5.006-25.813 4.702-31.982-.303-6.17-6.46-15.428-6.46-15.428S71.157.075 68.046.075c-.746 0-1.608.063-2.6.219" id="t"/>
    <path d="M65.447.294c-5.124.806-6.029 5-6.029 5s3.165 8.356 3.316 11.098c.151 2.742-.452 13.389-1.96 16.937-1.506 3.55-11.454 4.55-15.976 5.517-4.521.968-18.244-1.427-21.252-2.742-1.973-.863-10.7-17.131-10.7-17.131s-.905 2.936-5.427 3.742c-4.522.807-7.385-.059-7.385-.059s2.26 18.126 6.393 21.747c7.9 6.922 18.16 12.83 19.491 14.73 1.332 1.9 1.428 15.186 1.367 19.23-.067 4.455 2.618 6.886 5.658 7.916 4.636 1.57 31.684.48 34.917-2.817 3.495-3.564 8.27-16.211 8.42-18.647.152-2.435-2.73-13.312-2.275-16.235.455-2.922 5.006-25.813 4.702-31.982-.303-6.17-6.46-15.428-6.46-15.428S71.157.075 68.046.075c-.746 0-1.608.063-2.6.219" id="v"/>
    <path d="M65.447.294c-5.124.806-6.029 5-6.029 5s3.165 8.356 3.316 11.098c.151 2.742-.452 13.389-1.96 16.937-1.506 3.55-11.454 4.55-15.976 5.517-4.521.968-18.244-1.427-21.252-2.742-1.973-.863-10.7-17.131-10.7-17.131s-.905 2.936-5.427 3.742c-4.522.807-7.385-.059-7.385-.059s2.26 18.126 6.393 21.747c7.9 6.922 18.16 12.83 19.491 14.73 1.332 1.9 1.428 15.186 1.367 19.23-.067 4.455 2.618 6.886 5.658 7.916 4.636 1.57 31.684.48 34.917-2.817 3.495-3.564 8.27-16.211 8.42-18.647.152-2.435-2.73-13.312-2.275-16.235.455-2.922 5.006-25.813 4.702-31.982-.303-6.17-6.46-15.428-6.46-15.428S71.157.075 68.046.075c-.746 0-1.608.063-2.6.219" id="x"/>
    <path d="M65.447.294c-5.124.806-6.029 5-6.029 5s3.165 8.356 3.316 11.098c.151 2.742-.452 13.389-1.96 16.937-1.506 3.55-11.454 4.55-15.976 5.517-4.521.968-18.244-1.427-21.252-2.742-1.973-.863-10.7-17.131-10.7-17.131s-.905 2.936-5.427 3.742c-4.522.807-7.385-.059-7.385-.059s2.26 18.126 6.393 21.747c7.9 6.922 18.16 12.83 19.491 14.73 1.332 1.9 1.428 15.186 1.367 19.23-.067 4.455 2.618 6.886 5.658 7.916 4.636 1.57 31.684.48 34.917-2.817 3.495-3.564 8.27-16.211 8.42-18.647.152-2.435-2.73-13.312-2.275-16.235.455-2.922 5.006-25.813 4.702-31.982-.303-6.17-6.46-15.428-6.46-15.428S71.157.075 68.046.075c-.746 0-1.608.063-2.6.219" id="z"/>
    <path d="M65.447.294c-5.124.806-6.029 5-6.029 5s3.165 8.356 3.316 11.098c.151 2.742-.452 13.389-1.96 16.937-1.506 3.55-11.454 4.55-15.976 5.517-4.521.968-18.244-1.427-21.252-2.742-1.973-.863-10.7-17.131-10.7-17.131s-.905 2.936-5.427 3.742c-4.522.807-7.385-.059-7.385-.059s2.26 18.126 6.393 21.747c7.9 6.922 18.16 12.83 19.491 14.73 1.332 1.9 1.428 15.186 1.367 19.23-.067 4.455 2.618 6.886 5.658 7.916 4.636 1.57 31.684.48 34.917-2.817 3.495-3.564 8.27-16.211 8.42-18.647.152-2.435-2.73-13.312-2.275-16.235.455-2.922 5.006-25.813 4.702-31.982-.303-6.17-6.46-15.428-6.46-15.428S71.157.075 68.046.075c-.746 0-1.608.063-2.6.219" id="B"/>
    <path d="M65.447.294c-5.124.806-6.029 5-6.029 5s3.165 8.356 3.316 11.098c.151 2.742-.452 13.389-1.96 16.937-1.506 3.55-11.454 4.55-15.976 5.517-4.521.968-18.244-1.427-21.252-2.742-1.973-.863-10.7-17.131-10.7-17.131s-.905 2.936-5.427 3.742c-4.522.807-7.385-.059-7.385-.059s2.26 18.126 6.393 21.747c7.9 6.922 18.16 12.83 19.491 14.73 1.332 1.9 1.428 15.186 1.367 19.23-.067 4.455 2.618 6.886 5.658 7.916 4.636 1.57 31.684.48 34.917-2.817 3.495-3.564 8.27-16.211 8.42-18.647.152-2.435-2.73-13.312-2.275-16.235.455-2.922 5.006-25.813 4.702-31.982-.303-6.17-6.46-15.428-6.46-15.428S71.157.075 68.046.075c-.746 0-1.608.063-2.6.219" id="D"/>
    <path d="M65.447.294c-5.124.806-6.029 5-6.029 5s3.165 8.356 3.316 11.098c.151 2.742-.452 13.389-1.96 16.937-1.506 3.55-11.454 4.55-15.976 5.517-4.521.968-18.244-1.427-21.252-2.742-1.973-.863-10.7-17.131-10.7-17.131s-.905 2.936-5.427 3.742c-4.522.807-7.385-.059-7.385-.059s2.26 18.126 6.393 21.747c7.9 6.922 18.16 12.83 19.491 14.73 1.332 1.9 1.428 15.186 1.367 19.23-.067 4.455 2.618 6.886 5.658 7.916 4.636 1.57 31.684.48 34.917-2.817 3.495-3.564 8.27-16.211 8.42-18.647.152-2.435-2.73-13.312-2.275-16.235.455-2.922 5.006-25.813 4.702-31.982-.303-6.17-6.46-15.428-6.46-15.428S71.157.075 68.046.075c-.746 0-1.608.063-2.6.219" id="F"/>
    <path d="M65.447.294c-5.124.806-6.029 5-6.029 5s3.165 8.356 3.316 11.098c.151 2.742-.452 13.389-1.96 16.937-1.506 3.55-11.454 4.55-15.976 5.517-4.521.968-18.244-1.427-21.252-2.742-1.973-.863-10.7-17.131-10.7-17.131s-.905 2.936-5.427 3.742c-4.522.807-7.385-.059-7.385-.059s2.26 18.126 6.393 21.747c7.9 6.922 18.16 12.83 19.491 14.73 1.332 1.9 1.428 15.186 1.367 19.23-.067 4.455 2.618 6.886 5.658 7.916 4.636 1.57 31.684.48 34.917-2.817 3.495-3.564 8.27-16.211 8.42-18.647.152-2.435-2.73-13.312-2.275-16.235.455-2.922 5.006-25.813 4.702-31.982-.303-6.17-6.46-15.428-6.46-15.428S71.157.075 68.046.075c-.746 0-1.608.063-2.6.219" id="H"/>
    <path d="M65.447.294c-5.124.806-6.029 5-6.029 5s3.165 8.356 3.316 11.098c.151 2.742-.452 13.389-1.96 16.937-1.506 3.55-11.454 4.55-15.976 5.517-4.521.968-18.244-1.427-21.252-2.742-1.973-.863-10.7-17.131-10.7-17.131s-.905 2.936-5.427 3.742c-4.522.807-7.385-.059-7.385-.059s2.26 18.126 6.393 21.747c7.9 6.922 18.16 12.83 19.491 14.73 1.332 1.9 1.428 15.186 1.367 19.23-.067 4.455 2.618 6.886 5.658 7.916 4.636 1.57 31.684.48 34.917-2.817 3.495-3.564 8.27-16.211 8.42-18.647.152-2.435-2.73-13.312-2.275-16.235.455-2.922 5.006-25.813 4.702-31.982-.303-6.17-6.46-15.428-6.46-15.428S71.157.075 68.046.075c-.746 0-1.608.063-2.6.219" id="J"/>
    <path d="M2.384 6.153c-.41.553.818 1.33.613 1.7-.101.184-.328.09-.663-.005-.342-.096-.798-.193-1.349.006-1.09.392-1.022 1.849 0 2.551.507.349 1.106.216 1.61.083.514-.136.93-.27 1.05.102.239.74 2.556 8.13 1.84 11.834-.43 2.232 2.38 8.702 7.208 8.456 2.755-.14 2.922-5.838.607-8.513-2.911-3.363-5.41-8.602-4.998-9.588.413-.985 2.314-.717 2.561-2.33.082-.536-.612-1.827-1.62-3.32-.327-.486 1.176-1.683.545-1.667-1.117.026-2.793-1.153-3.493-2.233C5.112 1.407 3.626.248 3.181.145c0 0 .464 4.307-.797 6.008" id="L"/>
    <path d="M40.786 8.44c-5.87 5.213-5.38 57.064-9.293 65.02C27.58 81.416 9.24 117.629.68 130.797c-8.559 13.169 80.459 18.107 87.062 6.585 1.87-3.264 6.602-11.797 10.76-12.346 4.157-.549 40.35-3.84 41.818-8.23 1.467-4.39 3.669-21.947 3.669-26.611 0 0-11.048 3.152-16.917-5.627 0 0-3.148 4.746-5.174 6.959-2.304 2.517-7.745 2.234-11.168.863-3.424-1.372-18.386-12.997-24.211-15.912-3.66-1.832-17.853-6.859-21.276-9.328-3.424-2.47-3.18-29.629-2.201-33.196.978-3.566 14.745-17.378 14.745-17.378S71.844 15.025 69.644.21c0 0-22.988 3.018-28.858 8.23z" id="N"/>
    <path d="M40.786 8.44c-5.87 5.213-5.38 57.064-9.293 65.02C27.58 81.416 9.24 117.629.68 130.797c-8.559 13.169 80.459 18.107 87.062 6.585 1.87-3.264 6.602-11.797 10.76-12.346 4.157-.549 40.35-3.84 41.818-8.23 1.467-4.39 3.669-21.947 3.669-26.611 0 0-11.048 3.152-16.917-5.627 0 0-3.148 4.746-5.174 6.959-2.304 2.517-7.745 2.234-11.168.863-3.424-1.372-18.386-12.997-24.211-15.912-3.66-1.832-17.853-6.859-21.276-9.328-3.424-2.47-3.18-29.629-2.201-33.196.978-3.566 14.745-17.378 14.745-17.378S71.844 15.025 69.644.21c0 0-22.988 3.018-28.858 8.23z" id="P"/>
    <path d="M40.786 8.44c-5.87 5.213-5.38 57.064-9.293 65.02C27.58 81.416 9.24 117.629.68 130.797c-8.559 13.169 80.459 18.107 87.062 6.585 1.87-3.264 6.602-11.797 10.76-12.346 4.157-.549 40.35-3.84 41.818-8.23 1.467-4.39 3.669-21.947 3.669-26.611 0 0-11.048 3.152-16.917-5.627 0 0-3.148 4.746-5.174 6.959-2.304 2.517-7.745 2.234-11.168.863-3.424-1.372-18.386-12.997-24.211-15.912-3.66-1.832-17.853-6.859-21.276-9.328-3.424-2.47-3.18-29.629-2.201-33.196.978-3.566 14.745-17.378 14.745-17.378S71.844 15.025 69.644.21c0 0-22.988 3.018-28.858 8.23z" id="R"/>
    <path d="M40.786 8.44c-5.87 5.213-5.38 57.064-9.293 65.02C27.58 81.416 9.24 117.629.68 130.797c-8.559 13.169 80.459 18.107 87.062 6.585 1.87-3.264 6.602-11.797 10.76-12.346 4.157-.549 40.35-3.84 41.818-8.23 1.467-4.39 3.669-21.947 3.669-26.611 0 0-11.048 3.152-16.917-5.627 0 0-3.148 4.746-5.174 6.959-2.304 2.517-7.745 2.234-11.168.863-3.424-1.372-18.386-12.997-24.211-15.912-3.66-1.832-17.853-6.859-21.276-9.328-3.424-2.47-3.18-29.629-2.201-33.196.978-3.566 14.745-17.378 14.745-17.378S71.844 15.025 69.644.21c0 0-22.988 3.018-28.858 8.23z" id="T"/>
    <path d="M40.786 8.44c-5.87 5.213-5.38 57.064-9.293 65.02C27.58 81.416 9.24 117.629.68 130.797c-8.559 13.169 80.459 18.107 87.062 6.585 1.87-3.264 6.602-11.797 10.76-12.346 4.157-.549 40.35-3.84 41.818-8.23 1.467-4.39 3.669-21.947 3.669-26.611 0 0-11.048 3.152-16.917-5.627 0 0-3.148 4.746-5.174 6.959-2.304 2.517-7.745 2.234-11.168.863-3.424-1.372-18.386-12.997-24.211-15.912-3.66-1.832-17.853-6.859-21.276-9.328-3.424-2.47-3.18-29.629-2.201-33.196.978-3.566 14.745-17.378 14.745-17.378S71.844 15.025 69.644.21c0 0-22.988 3.018-28.858 8.23z" id="V"/>
    <path d="M40.786 8.44c-5.87 5.213-5.38 57.064-9.293 65.02C27.58 81.416 9.24 117.629.68 130.797c-8.559 13.169 80.459 18.107 87.062 6.585 1.87-3.264 6.602-11.797 10.76-12.346 4.157-.549 40.35-3.84 41.818-8.23 1.467-4.39 3.669-21.947 3.669-26.611 0 0-11.048 3.152-16.917-5.627 0 0-3.148 4.746-5.174 6.959-2.304 2.517-7.745 2.234-11.168.863-3.424-1.372-18.386-12.997-24.211-15.912-3.66-1.832-17.853-6.859-21.276-9.328-3.424-2.47-3.18-29.629-2.201-33.196.978-3.566 14.745-17.378 14.745-17.378S71.844 15.025 69.644.21c0 0-22.988 3.018-28.858 8.23z" id="X"/>
    <path d="M40.786 8.44c-5.87 5.213-5.38 57.064-9.293 65.02C27.58 81.416 9.24 117.629.68 130.797c-8.559 13.169 80.459 18.107 87.062 6.585 1.87-3.264 6.602-11.797 10.76-12.346 4.157-.549 40.35-3.84 41.818-8.23 1.467-4.39 3.669-21.947 3.669-26.611 0 0-11.048 3.152-16.917-5.627 0 0-3.148 4.746-5.174 6.959-2.304 2.517-7.745 2.234-11.168.863-3.424-1.372-18.386-12.997-24.211-15.912-3.66-1.832-17.853-6.859-21.276-9.328-3.424-2.47-3.18-29.629-2.201-33.196.978-3.566 14.745-17.378 14.745-17.378S71.844 15.025 69.644.21c0 0-22.988 3.018-28.858 8.23z" id="Z"/>
    <path d="M40.786 8.44c-5.87 5.213-5.38 57.064-9.293 65.02C27.58 81.416 9.24 117.629.68 130.797c-8.559 13.169 80.459 18.107 87.062 6.585 1.87-3.264 6.602-11.797 10.76-12.346 4.157-.549 40.35-3.84 41.818-8.23 1.467-4.39 3.669-21.947 3.669-26.611 0 0-11.048 3.152-16.917-5.627 0 0-3.148 4.746-5.174 6.959-2.304 2.517-7.745 2.234-11.168.863-3.424-1.372-18.386-12.997-24.211-15.912-3.66-1.832-17.853-6.859-21.276-9.328-3.424-2.47-3.18-29.629-2.201-33.196.978-3.566 14.745-17.378 14.745-17.378S71.844 15.025 69.644.21c0 0-22.988 3.018-28.858 8.23z" id="ab"/>
    <path d="M40.786 8.44c-5.87 5.213-5.38 57.064-9.293 65.02C27.58 81.416 9.24 117.629.68 130.797c-8.559 13.169 80.459 18.107 87.062 6.585 1.87-3.264 6.602-11.797 10.76-12.346 4.157-.549 40.35-3.84 41.818-8.23 1.467-4.39 3.669-21.947 3.669-26.611 0 0-11.048 3.152-16.917-5.627 0 0-3.148 4.746-5.174 6.959-2.304 2.517-7.745 2.234-11.168.863-3.424-1.372-18.386-12.997-24.211-15.912-3.66-1.832-17.853-6.859-21.276-9.328-3.424-2.47-3.18-29.629-2.201-33.196.978-3.566 14.745-17.378 14.745-17.378S71.844 15.025 69.644.21c0 0-22.988 3.018-28.858 8.23z" id="ad"/>
    <path d="M40.786 8.44c-5.87 5.213-5.38 57.064-9.293 65.02C27.58 81.416 9.24 117.629.68 130.797c-8.559 13.169 80.459 18.107 87.062 6.585 1.87-3.264 6.602-11.797 10.76-12.346 4.157-.549 40.35-3.84 41.818-8.23 1.467-4.39 3.669-21.947 3.669-26.611 0 0-11.048 3.152-16.917-5.627 0 0-3.148 4.746-5.174 6.959-2.304 2.517-7.745 2.234-11.168.863-3.424-1.372-18.386-12.997-24.211-15.912-3.66-1.832-17.853-6.859-21.276-9.328-3.424-2.47-3.18-29.629-2.201-33.196.978-3.566 14.745-17.378 14.745-17.378S71.844 15.025 69.644.21c0 0-22.988 3.018-28.858 8.23z" id="af"/>
    <path d="M40.786 8.44c-5.87 5.213-5.38 57.064-9.293 65.02C27.58 81.416 9.24 117.629.68 130.797c-8.559 13.169 80.459 18.107 87.062 6.585 1.87-3.264 6.602-11.797 10.76-12.346 4.157-.549 40.35-3.84 41.818-8.23 1.467-4.39 3.669-21.947 3.669-26.611 0 0-11.048 3.152-16.917-5.627 0 0-3.148 4.746-5.174 6.959-2.304 2.517-7.745 2.234-11.168.863-3.424-1.372-18.386-12.997-24.211-15.912-3.66-1.832-17.853-6.859-21.276-9.328-3.424-2.47-3.18-29.629-2.201-33.196.978-3.566 14.745-17.378 14.745-17.378S71.844 15.025 69.644.21c0 0-22.988 3.018-28.858 8.23z" id="ah"/>
    <path d="M40.786 8.44c-5.87 5.213-5.38 57.064-9.293 65.02C27.58 81.416 9.24 117.629.68 130.797c-8.559 13.169 80.459 18.107 87.062 6.585 1.87-3.264 6.602-11.797 10.76-12.346 4.157-.549 40.35-3.84 41.818-8.23 1.467-4.39 3.669-21.947 3.669-26.611 0 0-11.048 3.152-16.917-5.627 0 0-3.148 4.746-5.174 6.959-2.304 2.517-7.745 2.234-11.168.863-3.424-1.372-18.386-12.997-24.211-15.912-3.66-1.832-17.853-6.859-21.276-9.328-3.424-2.47-3.18-29.629-2.201-33.196.978-3.566 14.745-17.378 14.745-17.378S71.844 15.025 69.644.21c0 0-22.988 3.018-28.858 8.23z" id="aj"/>
    <path d="M17.807.48c-3.434 1.504-3.175 6.564-7 8.068C6.986 10.05.958 10.462.246 16.205c-.713 5.743 3.694 8 7.129 8 3.434 0 6.675-.89 8.295.205l-.13-3.35s-2.463 0-2.851-1.915c-.39-1.914 1.62-2.803 3.045-1.367 1.142 1.149 3.954 12.648 6.092 13.879 2.139 1.23 3.565 1.504 5.185.342 1.62-1.162 2.203-1.983 1.685-4.444-.519-2.462-2.75-4.917-3.721-5.942-.973-1.026-2.446-.995-3.035.061-.52.933-.891 2.052-1.41 1.095-.518-.957-3.629-4.718-3.629-5.949 0-1.23 2.592-1.846 2.398-5.332 0 0 2.756.44 2.851 1.504.005.047 2.981 0 2.852-5.88-.104-4.7-2.443-7.084-5.132-7.085a5.14 5.14 0 00-2.062.453z" id="ak"/>
    <path id="an" d="M-5-3H6.753v239.962H-5z"/>
    <filter x="-38.3%" y="-1.9%" width="176.6%" height="103.8%" filterUnits="objectBoundingBox" id="c">
      <feOffset in="SourceAlpha" result="shadowOffsetOuter1"/>
      <feGaussianBlur stdDeviation="1.5" in="shadowOffsetOuter1" result="shadowBlurOuter1"/>
      <feComposite in="shadowBlurOuter1" in2="SourceAlpha" operator="out" result="shadowBlurOuter1"/>
      <feColorMatrix values="0 0 0 0 0 0 0 0 0 0 0 0 0 0 0 0 0 0 0.33630548 0" in="shadowBlurOuter1"/>
    </filter>
    <filter x="-30.3%" y="-11%" width="156.9%" height="140.2%" filterUnits="objectBoundingBox" id="g">
      <feOffset dx="-3" dy="21" in="SourceAlpha" result="shadowOffsetOuter1"/>
      <feGaussianBlur stdDeviation="12" in="shadowOffsetOuter1" result="shadowBlurOuter1"/>
      <feComposite in="shadowBlurOuter1" in2="SourceAlpha" operator="out" result="shadowBlurOuter1"/>
      <feColorMatrix values="0 0 0 0 0.0597330865 0 0 0 0 0.0738445633 0 0 0 0 0.100499575 0 0 0 1 0" in="shadowBlurOuter1"/>
    </filter>
    <filter x="-25.4%" y="-11%" width="156.9%" height="140.2%" filterUnits="objectBoundingBox" id="j">
      <feOffset dx="5" dy="21" in="SourceAlpha" result="shadowOffsetOuter1"/>
      <feGaussianBlur stdDeviation="12" in="shadowOffsetOuter1" result="shadowBlurOuter1"/>
      <feColorMatrix values="0 0 0 0 0.0597330865 0 0 0 0 0.0738445633 0 0 0 0 0.100499575 0 0 0 0.0714164402 0" in="shadowBlurOuter1"/>
    </filter>
    <filter x="-38.3%" y="-1.9%" width="176.6%" height="103.8%" filterUnits="objectBoundingBox" id="am">
      <feOffset in="SourceAlpha" result="shadowOffsetOuter1"/>
      <feGaussianBlur stdDeviation="1.5" in="shadowOffsetOuter1" result="shadowBlurOuter1"/>
      <feComposite in="shadowBlurOuter1" in2="SourceAlpha" operator="out" result="shadowBlurOuter1"/>
      <feColorMatrix values="0 0 0 0 0 0 0 0 0 0 0 0 0 0 0 0 0 0 0.33630548 0" in="shadowBlurOuter1"/>
    </filter>
    <rect id="a" x=".347" y=".732" width="163.566" height="231.147" rx="2.938"/>
    <rect id="h" x="1.037" y=".267" width="163.566" height="231.147" rx="2.938"/>
    <rect id="i" x=".877" y=".918" width="163.566" height="231.147" rx="2.938"/>
  </defs>
  <g fill="none" fill-rule="evenodd">
    <g transform="translate(-.347 32.836)">
      <mask id="b" fill="#fff">
        <use xlink:href="#a"/>
      </mask>
      <use fill="#CC0A4D" fill-rule="nonzero" xlink:href="#a"/>
      <g opacity=".4" mask="url(#b)" fill="#000">
        <use filter="url(#c)" xlink:href="#d"/>
        <use fill-opacity=".319" xlink:href="#d"/>
      </g>
      <g mask="url(#b)">
        <g transform="translate(161.885 158.266)">
          <mask id="f" fill="#fff">
            <use xlink:href="#e"/>
          </mask>
          <path d="M40.928 14.617l-24.086 39.62C13.783 59.266 9.736 63.608 5 67.106 1.756 69.502.92 74.766 1.618 76.284c.64 1.395 3.138-2.935 5.61-3.407.616-.118 1.086.545.777 1.092-4.38 7.757-8.879 15.98-7.618 17.872 1.166 1.75 9.006-9.233 10.74-11.705.13-.186.428-.11.45.116.467 4.836-7.722 14.132-6.594 16.186.586 1.069 2.836-.563 5.219-2.928a.236.236 0 00.048-.068c1.819-3.847 6.076-9.776 6.551-8.825.381.763-3.197 5.502-6.537 8.831a.25.25 0 00-.05.072c-.669 1.43-.992 2.562-.635 2.918 1.03 1.032 3.076-.37 5.18-2.372a.23.23 0 00.064-.115c.25-1.078 2.01-2.52 3.65-3.826a.286.286 0 00.03-.03c1.675-1.892 2.894-3.329 2.894-2.851 0 .576-1.388 1.657-2.892 2.855a.235.235 0 00-.03.028c-1.1 1.242-2.39 2.671-3.666 3.89a.926.926 0 00.022.451c.267.8 2.593-.025 5.26-1.288 4.792-2.267 9.222-5.233 13.208-8.728C51.8 68.238 68.767 53.2 77.46 35.212c5.075-10.504 5.43-22.612.786-33.184a.251.251 0 00-.311-.136C68.283-1.049 57.138.054 41.059 14.511a.247.247 0 00-.131.106" fill="#3A4354" fill-rule="nonzero" mask="url(#f)"/>
        </g>
      </g>
    </g>
    <g transform="translate(29.792 2.65)">
      <g opacity=".5" fill-rule="nonzero">
        <use fill="#000" filter="url(#g)" xlink:href="#h"/>
        <use fill-opacity="0" fill="#DC1447" xlink:href="#h"/>
      </g>
      <mask id="k" fill="#fff">
        <use xlink:href="#i"/>
      </mask>
      <g fill-rule="nonzero">
        <use fill="#000" filter="url(#j)" xlink:href="#i"/>
        <use fill-opacity="0" fill="#DC1447" xlink:href="#i"/>
        <use fill="#E3E9F2" xlink:href="#i"/>
      </g>
      <g mask="url(#k)">
        <path d="M-65.232 196.5c2.078-1.809 65.623-47.246 67.716-48.636 2.092-1.391 4.554-3.75 5.986-4.757 1.432-1.007 7.56-4.913 8.876-3.385 1.317 1.528-63.145 45.702-66.873 48.577-3.728 2.875-16.107 11.484-17.91 11.651-1.934.18-.096-1.447 2.205-3.45" fill="#A10244"/>
        <g transform="translate(168.655 45.589)">
          <mask id="m" fill="#fff">
            <use xlink:href="#l"/>
          </mask>
          <path d="M1.367 45.98C3.669 44.468 72.755 8.005 75.016 6.91c2.261-1.096 5.018-3.103 6.572-3.907 1.555-.805 8.153-3.85 9.251-2.158 1.1 1.691-68.724 36.779-72.806 39.126-4.081 2.346-13.915 8.093-15.724 8.016-1.941-.083-3.492-.331-.942-2.006" fill="#A10244" mask="url(#m)"/>
        </g>
        <path d="M24.82 129.063c-3.151-.076-6.32 6.086-4.564 9.482 1.755 3.395 8.425 2.538 9.83.24 1.403-2.298 1.052-4.727.116-6.771-.936-2.045-2.574-2.882-5.383-2.95M127.714 167.288c.515-3.138-4.687-5.89-8.165-4.224-3.479 1.667-2.438 7.47-.447 8.927 1.991 1.455 3.817 1.87 5.894.987 2.078-.883 2.259-2.893 2.718-5.69M169.963 99.415c.515-3.138-4.686-5.89-8.165-4.223-3.478 1.666-2.437 7.47-.446 8.926 1.99 1.456 3.816 1.87 5.894.987 2.077-.883 2.259-2.893 2.717-5.69" fill="#FD065F"/>
        <path d="M33.304 137.164c2.99-1.621 4.436-.385 7.065-.444 2.628-.06 74.92 26.584 75.085 27.246.165.662-1.479 1.884-4.108.89-2.628-.995-58.162-21.68-60.79-21.971-2.63-.292-19.224-4.652-17.252-5.721M127.665 162.623c-1.272-2.5.028-3.343.204-5.294.176-1.95 31.818-50.52 32.46-50.522.642-.002 1.655 1.43.48 3.192-1.175 1.761-25.687 39.032-26.197 40.92-.509 1.887-6.108 13.351-6.947 11.704" fill="#A10244"/>
        <path d="M-76.79 177.036c11.03-4.131 36.408-11.739 53.434-7.3 17.026 4.437 39.629 13.79 64.789 6.842 25.16-6.947 44.052-43.22 68.033-53.358 35.447-14.985 54.427 22.943 103.909 19.761M-3.209 88.542c0 28.766-23.192 52.086-51.8 52.086-28.608 0-51.8-23.32-51.8-52.086s23.192-52.086 51.8-52.086c28.608 0 51.8 23.32 51.8 52.086z" stroke="#FD065F" stroke-width="1.936" stroke-linecap="round" stroke-linejoin="round" stroke-dasharray="4.646400174713108,9.292800349426216"/>
        <path d="M211.534 137.99c0 37.81-30.483 68.46-68.086 68.46-37.602 0-68.085-30.65-68.085-68.46 0-37.81 30.483-68.461 68.085-68.461 37.603 0 68.086 30.65 68.086 68.46z" stroke="#FD065F" stroke-width="1.936" stroke-linecap="round" stroke-linejoin="round" stroke-dasharray="4.646400174713108,9.292800349426216"/>
        <path d="M156.319 200.245c-.326-4.481-2.6-9.127-5.537-10.555-2.937-1.429-4.248-4.977-3.867-8.168.38-3.192 1.74-6.177-.683-11.463-2.424-5.286-4.932-2.913-5.322-2.215-.389.698-1.643-2.466-6.357.652-4.714 3.117-5.925 7.911-5.665 11.122.26 3.211-6.438 1.723-9.309 6.322-2.87 4.599 1.276 7.207-3.317 9.54-4.592 2.334-8.547 2.884-9.185 6.727-.638 3.844.383 6.796-3.7 8.03-4.082 1.236-7.845 4.6-5.996 10.571 1.85 5.972 3.023 8.598-.637 10.982-2.894 1.886-.354 11.422 12.509 12.39 15.75 1.185 30.028-4.084 32.716-13.124 2.688-9.04 0-14.946 6.832-16.634 6.833-1.687 7.837-9.783 7.518-14.177" fill="#242E3E"/>
        <path d="M156.319 200.245c-.326-4.481-2.6-9.127-5.537-10.555-2.937-1.429-4.248-4.977-3.867-8.168.38-3.192 1.74-6.177-.683-11.463-2.424-5.286-4.932-2.913-5.322-2.215-.389.698-1.643-2.466-6.357.652-4.714 3.117-5.925 7.911-5.665 11.122.26 3.211-6.438 1.723-9.309 6.322-2.87 4.599 1.276 7.207-3.317 9.54-4.592 2.334-8.547 2.884-9.185 6.727-.638 3.844.383 6.796-3.7 8.03-4.082 1.236-7.845 4.6-5.996 10.571 1.85 5.972 3.023 8.598-.637 10.982-2.894 1.886-.354 11.422 12.509 12.39 15.75 1.185 30.028-4.084 32.716-13.124 2.688-9.04 0-14.946 6.832-16.634 6.833-1.687 7.837-9.783 7.518-14.177z" stroke="#242E3E" stroke-width=".5"/>
        <path d="M117.136 178.136s-9.695-13.658-10.841-15.27c-1.146-1.612 1.851-3.983 1.939-5.026.088-1.044-2.292 1.327-3.437 1.612-1.146.284-2.623-.152-3.358-1.055-.736-.903-2.14-3.637-2.273-2.99-.134.648.754 2.995.754 3.516 0 .522-2.665-2.78-3.23-2.78s1.656 3.128 1.898 3.432c.242.304-2.625-1.272-3.23-1.505-.606-.233 1.453 1.896 2.1 2.418.646.521-2.262-.13-2.99-.174-.726-.044 1.98 1.695 2.707 2.042.726.348 3.081 1.222 3.808 1.395.727.174 1.936 14.98 2.517 17.51 0 0 2.908 1.609 7.808.806 4.9-.804 5.828-3.931 5.828-3.931" fill="#FFF"/>
        <g transform="translate(94 155.35)">
          <mask id="o" fill="#fff">
            <use xlink:href="#n"/>
          </mask>
          <path d="M19.323 22.75s-5.029-9.358-6.159-10.961c-.72-1.023 3.093-.792 4.292-3.18.68-1.357-1.053-5.823-1.022-6.199.087-1.037-6.222.24-7.352.523C7.952 3.215 7.901.946 7.175.048 6.45-.851 3.207-.8 3.075-.155 2.943.488.847.875.29.875c-.558 0-.717 2.15-1.314 1.918-.598-.232-.16 2.275-.877 2.231C-2.617 4.981.051 6.71.768 7.056c.717.346 3.039 1.215 3.756 1.387.717.173 1.909 14.898 2.482 17.416 0 0 2.868 1.599 7.7.8 4.832-.799 4.617-3.909 4.617-3.909" fill="#FFCFDF" mask="url(#o)"/>
        </g>
        <g>
          <path d="M116.903 178.052s-9.64-13.739-10.78-15.36c-1.139-1.622 1.84-4.007 1.928-5.057.088-1.05-2.278 1.336-3.418 1.622-1.139.286-2.607-.152-3.338-1.06-.731-.91-2.127-3.659-2.26-3.008-.133.651.75 3.012.75 3.536 0 .525-2.65-2.797-3.212-2.797-.562 0 1.646 3.147 1.887 3.453.241.306-2.61-1.28-3.212-1.514-.602-.234 1.445 1.908 2.088 2.432.643.525-2.248-.131-2.971-.175-.723-.044 1.967 1.705 2.69 2.055.723.35 3.064 1.228 3.787 1.403.723.175 1.924 15.068 2.502 17.614 0 0 2.892 1.617 7.764.81 4.871-.808 5.795-3.954 5.795-3.954z" stroke="#242E3E" stroke-width=".5"/>
          <path d="M162.556 163.78c-1.348-3.729-3.697-13.133-4.166-14.423-.469-1.29-2.755-.775-5.138-.906-2.626-.144-.605-.896.675-1.226.426-.11-.958-.476-1.406-1.616-.45-1.139-1.211-2.399-.518-2.127.693.27 1.111 1.814 1.605 1.915.494.101-.66-2.573-.216-2.621.618-.067 1.08 2.016 1.513 2.117.432.1-.68-2.487-.124-2.52.556-.034.741 2.016 1.112 2.184.37.168-.217-2.185.093-2.185.308 0 .702 1.48 1.03 1.815 0 0 1.51-.94 3.023.101 1.513 1.042 13.34 11.873 14.7 13.857 1.36 1.984-3.13 3.66-5.538 4.735-2.408 1.076-6.111 2.375-6.645.9" fill="#FFF"/>
        </g>
        <g transform="translate(152 142.35)">
          <mask id="q" fill="#fff">
            <use xlink:href="#p"/>
          </mask>
          <path d="M23.527 19.802S9.66 5.029 8.961 4.259c-.458-.504 4.212-1.966 4.212-1.966L9.115-.542H-.242l-.166 22.33 23.932.747.003-2.733z" fill="#FFCFDF" mask="url(#q)"/>
        </g>
        <g>
          <path d="M162.957 164.5c-1.36-3.68-3.73-12.962-4.203-14.235-.473-1.273-2.779-.765-5.183-.894-2.65-.142-.61-.884.68-1.21.43-.107-.966-.47-1.418-1.594-.453-1.125-1.222-2.368-.523-2.1.7.267 1.122 1.79 1.62 1.89.498.1-.665-2.54-.218-2.587.623-.066 1.09 1.99 1.526 2.09.436.1-.685-2.455-.125-2.488.56-.033.748 1.99 1.122 2.156.374.166-.219-2.157.093-2.156.312 0 .708 1.46 1.04 1.791 0 0 1.523-.928 3.05.1 1.526 1.028 13.457 11.718 14.83 13.676 1.37 1.957-3.159 3.611-5.588 4.673-2.43 1.061-6.165 2.344-6.703.887z" stroke="#242E3E" stroke-width=".5"/>
          <path d="M130.285 235.755c.061-4.024-.035-17.245-1.367-19.136-1.331-1.89-11.591-7.77-19.491-14.658-4.133-3.603-6.393-21.64-6.393-21.64s2.863.861 7.385.059c4.522-.803 5.426-3.725 5.426-3.725s8.728 16.189 10.701 17.048c3.008 1.308 16.73 3.692 21.252 2.728 4.522-.963 14.47-1.958 15.977-5.49 1.507-3.531 2.11-14.126 1.96-16.855-.152-2.728-3.317-11.043-3.317-11.043s.905-4.173 6.03-4.976c5.124-.803 6.799.872 6.799.872s6.157 9.213 6.46 15.352c.304 6.14-4.247 28.92-4.702 31.827-.455 2.908 2.427 13.732 2.276 16.156-.152 2.423-4.926 15.009-8.42 18.556-3.234 3.281-30.282 4.365-34.918 2.802-3.04-1.024-5.725-3.443-5.658-7.877" fill="#FE89B3"/>
        </g>
        <g>
          <g transform="translate(103 157.35)">
            <mask id="s" fill="#fff">
              <use xlink:href="#r"/>
            </mask>
            <path d="M72.061 4.338c-3.119.311-10.452.936-13.619 1.88-3.167.942-9.194 1.92-11.615 1.849-2.42-.072-11.998 2.76-14.836 4.167-2.839 1.408-14.013 1.592-17.607 2.96C10.79 16.563 2.723 19.388.695 18.997c-2.027-.39-3.651 4.586-1.098 3.941 2.553-.643 6.963-1.693 9.424-2.07 2.461-.376 3.572-1.626 8.296-2.532 4.723-.906 9.938-1.306 13.094-2.149 3.157-.842 9.076-2.466 14.477-3.776 5.4-1.31 12.701-2.13 16.111-2.962 3.41-.832 9.51-2.286 12.29-2.662 2.78-.376 3.308-2.9-1.228-2.449" fill="#FFCFDF" mask="url(#s)"/>
          </g>
          <g transform="translate(103 157.35)">
            <mask id="u" fill="#fff">
              <use xlink:href="#t"/>
            </mask>
            <path d="M.805 26.555c3.811-.893 9.428-2.334 13.454-2.978 4.025-.644 10.478-2.664 14.042-3.22 3.564-.555 9.653-1.284 14.52-2.486 4.867-1.2 12.608-3.188 16.891-4.123 4.284-.936 13.262-1.96 16.59-2.965 3.326-1.006 3.696 1.827 1.26 2.49-2.435.663-14.59 2.983-18.82 4.167-4.23 1.184-17.313 4.675-20.995 4.674-3.683 0-10.444 2.551-14.383 3.6-3.938 1.049-12.333 2.96-15.575 3.157-3.242.197-7.398 1.859-8.275 1.063-.877-.795-3.13-2.343 1.29-3.379" fill="#FFCFDF" mask="url(#u)"/>
          </g>
          <g transform="translate(103 157.35)">
            <mask id="w" fill="#fff">
              <use xlink:href="#v"/>
            </mask>
            <path d="M80.538 62.65c-2.543.04-8.52.034-11.098.697-2.578.662-7.489 1.115-9.463.838-1.974-.278-9.772 1.707-12.08 2.857-2.309 1.15-11.42.38-14.346 1.427-2.924 1.047-9.49 3.155-11.145 2.595-1.655-.56-2.958 4.226-.878 3.806 2.079-.42 5.67-1.081 7.676-1.244 2.005-.162 2.905-1.304 6.753-1.798 3.848-.493 8.099-.444 10.669-1.009 2.57-.564 7.39-1.665 11.788-2.5 4.399-.836 10.348-1.024 13.126-1.556 2.777-.533 7.744-1.451 10.01-1.585 2.265-.135 2.685-2.588-1.012-2.528" fill="#FFCFDF" mask="url(#w)"/>
          </g>
          <g transform="translate(103 157.35)">
            <mask id="y" fill="#fff">
              <use xlink:href="#x"/>
            </mask>
            <path d="M22.529 78.553c3.104-.559 7.678-1.506 10.957-1.8 3.28-.293 8.533-1.74 11.437-1.986s7.866-.448 11.83-1.221c3.963-.773 10.267-2.08 13.756-2.64 3.489-.56 10.806-.806 13.515-1.517 2.708-.712 3.023 2.124 1.039 2.572-1.984.448-11.884 1.706-15.328 2.517-3.445.81-14.099 3.148-17.102 2.833-3.002-.315-8.504 1.633-11.712 2.335-3.207.702-10.044 1.876-12.687 1.794-2.643-.082-6.024 1.208-6.743.346-.72-.862-2.562-2.586 1.038-3.233" fill="#FFCFDF" mask="url(#y)"/>
          </g>
          <g transform="translate(103 157.35)">
            <mask id="A" fill="#fff">
              <use xlink:href="#z"/>
            </mask>
            <path d="M2.228 33.179c2.805-.802 6.944-1.223 12.598-1.724 5.654-.501 23.392-4.154 27.045-5.081 3.654-.927 11.335-4.069 14.078-4.131 2.743-.062 9.568-.713 13.199-2.362 3.63-1.648 10.413-1.548 11.743-1.345 1.33.202.283 3.697-4.203 4.628-4.486.932-16.992 4.102-19.617 4.314-2.624.212-10.849 1.634-14.68 3.379-3.978 1.813-16.688 3.07-20.828 3.947-4.139.877-8.397.7-10.581 1.057-2.185.357-6.96 1.036-8.475 1.122-1.516.086-4.956-2.468-.28-3.804" fill="#FFCFDF" mask="url(#A)"/>
          </g>
          <g transform="translate(103 157.35)">
            <mask id="C" fill="#fff">
              <use xlink:href="#B"/>
            </mask>
            <path d="M23.333 62.81c2.02-.604 5.028-.804 9.143-1.01 4.113-.206 16.936-2.741 19.57-3.422 2.635-.682 8.125-2.786 10.128-2.721 2.003.064 6.967-.636 9.555-1.974 2.589-1.337 7.552-.946 8.532-.703.981.242.356 3.37-2.887 4.019-3.242.648-12.26 2.976-14.17 3.053-1.91.076-7.867 1.005-10.598 2.42-2.836 1.472-12.079 2.054-15.07 2.668-2.991.614-6.112.265-7.695.493-1.583.227-5.046.633-6.151.644-1.105.012-3.723-2.46-.357-3.467" fill="#FFCFDF" mask="url(#C)"/>
          </g>
          <g transform="translate(103 157.35)">
            <mask id="E" fill="#fff">
              <use xlink:href="#D"/>
            </mask>
            <path d="M2.737 43.093c2.914-1.236 13.818-3.995 19.464-4.301 5.646-.306 16.168-2.632 21.776-3.994 5.608-1.363 18.629-4.498 20.973-4.578 2.343-.08 9.147-1.336 12.282-2.152 3.134-.817 4.193 4.506 1.089 5.079-3.105.571-13.97 1.297-17.606 1.871-3.34.528-18.052 4.029-22.212 4.948-4.16.92-19.825 2.735-22.388 3.258-2.563.524-9.607 3.032-11.81 2.61-2.2-.422-4.482-1.504-1.568-2.74" fill="#FFCFDF" mask="url(#E)"/>
          </g>
          <g transform="translate(103 157.35)">
            <mask id="G" fill="#fff">
              <use xlink:href="#F"/>
            </mask>
            <path d="M10.827 48.615c5.385-.747 23.745-4.255 29.713-4.694 5.968-.438 18.16-3.53 22.247-4.153 4.086-.623 15.155-3.17 16.622-2.647 1.467.523 1.984 2.412-5.187 3.793-7.173 1.38-13.872 2.708-17.817 3.425-3.945.716-21.706 4.558-26.231 5.122-4.525.565-16.915 2.465-19.674 3.048-2.758.581-5.058-3.147.327-3.894" fill="#FFCFDF" mask="url(#G)"/>
          </g>
          <g transform="translate(103 157.35)">
            <mask id="I" fill="#fff">
              <use xlink:href="#H"/>
            </mask>
            <path d="M30.633 52.974c5.285-.593 17.051-2.241 20.461-3.182 3.41-.941 16.087-3.666 19.667-3.708 3.58-.042 8.784-.945 8.482.439-.301 1.383-.012 2.155-5.846 2.728-5.835.572-25.606 6.268-31.112 6.773-5.506.505-20.58 2.334-22.026 2.202-1.446-.132-3.55-1.204-.544-2.535 3.006-1.33 6.21-2.189 10.918-2.717" fill="#FFCFDF" mask="url(#I)"/>
          </g>
          <g transform="translate(103 157.35)">
            <mask id="K" fill="#fff">
              <use xlink:href="#J"/>
            </mask>
            <path d="M69.326 81.602c-5.284.593-17.05 2.24-20.461 3.182-3.41.941-16.086 3.665-19.667 3.707-3.58.042-8.783.945-8.482-.438.302-1.384.012-2.156 5.847-2.728 5.834-.572 25.76-5.238 31.267-5.743 5.505-.505 20.425-3.365 21.87-3.233 1.446.132 3.55 1.204.544 2.535-3.005 1.331-6.21 2.19-10.918 2.718" fill="#FFCFDF" mask="url(#K)"/>
          </g>
        </g>
        <g>
          <path d="M130.285 235.713c.061-4.044-.035-17.33-1.367-19.23-1.331-1.9-11.591-7.808-19.491-14.73-4.133-3.62-6.393-21.747-6.393-21.747s2.863.866 7.385.06c4.522-.807 5.426-3.743 5.426-3.743s8.728 16.268 10.701 17.131c3.008 1.315 16.73 3.71 21.252 2.742 4.522-.967 14.47-1.968 15.977-5.517 1.507-3.548 2.11-14.195 1.96-16.937-.152-2.742-3.317-11.097-3.317-11.097s.905-4.194 6.03-5.001c5.124-.807 6.799.876 6.799.876s6.157 9.259 6.46 15.428c.304 6.17-4.247 29.06-4.702 31.983-.455 2.922 2.427 13.8 2.276 16.234-.152 2.435-4.926 15.083-8.42 18.648-3.234 3.297-30.282 4.386-34.918 2.815-3.04-1.03-5.725-3.46-5.658-7.915z" stroke="#000" stroke-width=".5"/>
          <path d="M152.029 205.29c2.818-.14 2.989-5.89.621-8.588-2.977-3.394-5.533-8.68-5.111-9.674.423-.995 2.365-.724 2.619-2.351.084-.541-.626-1.844-1.656-3.35-.335-.491 1.201-1.698.556-1.683-1.142.027-2.856-1.163-3.572-2.252-1.21-1.84-2.729-3.008-3.184-3.112 0 0 .474 4.345-.816 6.062-.42.558.837 1.343.628 1.716-.21.373-.942-.397-2.057 0-1.116.396-1.046 1.865 0 2.575 1.046.708 2.475-.56 2.72.186.243.746 2.613 8.202 1.882 11.94-.44 2.252 2.433 8.78 7.37 8.532" fill="#FFF"/>
        </g>
        <g transform="translate(139 174.35)">
          <mask id="M" fill="#fff">
            <use xlink:href="#L"/>
          </mask>
          <path d="M12.482 31.234c.659-1.274 1.701-3.996.818-6.338-.882-2.343-4.791-6.39-5.749-9.087-.958-2.698-.56-2.114.751-3.03 1.313-.916 1.703-1.123.65-3.095-1.052-1.972-4.88-7.369-6.602-8.2C.628.655-.52 4.124-.52 8.202c0 4.078 6.25 21.438 7.787 22.235 1.538.798 5.215.798 5.215.798" fill="#FFCFDF" mask="url(#M)"/>
        </g>
        <g>
          <path d="M151.651 205.471c2.806-.141 2.976-5.888.619-8.586-2.965-3.393-5.51-8.677-5.089-9.67.42-.995 2.355-.724 2.607-2.35.084-.542-.623-1.844-1.648-3.35-.334-.49 1.196-1.697.554-1.681-1.138.026-2.843-1.163-3.557-2.252-1.204-1.839-2.716-3.007-3.17-3.111 0 0 .473 4.344-.812 6.06-.418.558.833 1.342.625 1.715-.208.374-.937-.396-2.048 0-1.11.396-1.041 1.865 0 2.574 1.042.709 2.464-.56 2.708.187.242.745 2.602 8.199 1.874 11.936-.438 2.251 2.422 8.776 7.337 8.528z" stroke="#242E3E" stroke-width=".5"/>
          <path d="M79.292 197.66c1.398-7.84-5.16-21.105-5.808-23.029 0 0 .744-2.415-.51-3.482-1.254-1.066-3.093-1.129-3.148-2.07-.056-.94.111-1.975-.251-2.101-.363-.126-.641 1.788-.641 2.129 0 .34.26.511.165.635-.097.123-.386-.047-.633-.325-.247-.28.069-2.028-.344-2.4-.412-.37-.581.465-.687 2.26-.041.697.44 1.069.206 1.192-.234.124-.818-.426-.983-.649-.165-.223.088-2.03-.473-2.353-.561-.321-.43 2.08-.462 2.415-.033.334.597.939.582 1.155-.027.415-.86-.154-1.135-.585-.273-.431-.095-2.278-.751-2.724-.657-.446-.424 2.4-.383 3.016.04.616 1.613 2.54 2.105 2.97.492.432-1.818-.523-2.72-.307-.903.215-1.245.892-.042 1.139 1.204.246 3.612 1.527 5.581 1.373 0 0-.779 7.496-6.676 16.326-5.896 8.83 1.053 12.268 5.107 14.639 4.054 2.37 10.534-1.556 11.901-9.223" fill="#242E3E"/>
          <path d="M79.292 197.66c1.398-7.84-5.16-21.105-5.808-23.029 0 0 .744-2.415-.51-3.482-1.254-1.066-3.093-1.129-3.148-2.07-.056-.94.111-1.975-.251-2.101-.363-.126-.641 1.788-.641 2.129 0 .34.26.511.165.635-.097.123-.386-.047-.633-.325-.247-.28.069-2.028-.344-2.4-.412-.37-.581.465-.687 2.26-.041.697.44 1.069.206 1.192-.234.124-.818-.426-.983-.649-.165-.223.088-2.03-.473-2.353-.561-.321-.43 2.08-.462 2.415-.033.334.597.939.582 1.155-.027.415-.86-.154-1.135-.585-.273-.431-.095-2.278-.751-2.724-.657-.446-.424 2.4-.383 3.016.04.616 1.613 2.54 2.105 2.97.492.432-1.818-.523-2.72-.307-.903.215-1.245.892-.042 1.139 1.204.246 3.612 1.527 5.581 1.373 0 0-.779 7.496-6.676 16.326-5.896 8.83 1.053 12.268 5.107 14.639 4.054 2.37 10.534-1.556 11.901-9.223z" stroke="#242E3E" stroke-width=".5"/>
          <path d="M3.423 108.004c4.866-.82 15.69-.24 17.47-.358 1.78-.118 1.124-3.13 1.762-4.43.637-1.302 3.138-2.81 4.07-2.81.932 0-1.707 2.39-1.756 3.015-.05.624 2.516-2.13 3.354-2.13.84 0-2.007 3.178-1.827 3.528.18.35 2.696-2.67 3.265-2.51.57.158-1.797 3.464-1.767 3.972.03.509 2.546-2.797 3.055-2.51.51.285-1.707 3.241-2.036 4.1-.33.858-.57 1.557 0 1.557.568 0 1.827-1.113 3.325-.413 1.497.698-2.854 1.073-3.685 2.065-.48.572-1.977.127-2.786 1.017-.809.89-9.285 9.064-12.93 12.613-3.644 3.549-11.037-1.36-12.76-5.69-1.724-4.332-2.489-10.049 3.246-11.016" fill="#242E3E"/>
          <path d="M3.423 108.004c4.866-.82 15.69-.24 17.47-.358 1.78-.118 1.124-3.13 1.762-4.43.637-1.302 3.138-2.81 4.07-2.81.932 0-1.707 2.39-1.756 3.015-.05.624 2.516-2.13 3.354-2.13.84 0-2.007 3.178-1.827 3.528.18.35 2.696-2.67 3.265-2.51.57.158-1.797 3.464-1.767 3.972.03.509 2.546-2.797 3.055-2.51.51.285-1.707 3.241-2.036 4.1-.33.858-.57 1.557 0 1.557.568 0 1.827-1.113 3.325-.413 1.497.698-2.854 1.073-3.685 2.065-.48.572-1.977.127-2.786 1.017-.809.89-9.285 9.064-12.93 12.613-3.644 3.549-11.037-1.36-12.76-5.69-1.724-4.332-2.489-10.049 3.246-11.016z" stroke="#242E3E" stroke-width=".5"/>
          <path d="M23.317 244.78c1.861-3.259 6.57-11.78 10.708-12.327 4.138-.548 40.156-3.836 41.617-8.219 1.46-4.383 3.65-21.916 3.65-26.573 0 0-10.994 3.148-16.835-5.618 0 0-3.133 4.738-5.148 6.948-2.294 2.514-7.708 2.231-11.115.862-3.408-1.37-18.296-12.978-24.094-15.89-3.641-1.828-17.766-6.848-21.173-9.314-3.408-2.466-3.164-29.587-2.19-33.148.973-3.561 14.674-17.353 14.674-17.353s-5.914-1.55-8.104-16.343c0 0-22.877 3.014-28.718 8.219-5.84 5.205-5.354 56.981-9.248 64.926-3.894 7.944-22.147 44.106-30.665 57.255-8.518 13.15 80.07 18.081 86.64 6.575" fill="#FBFDFF"/>
        </g>
        <g>
          <g transform="translate(-64 107.35)">
            <mask id="O" fill="#fff">
              <use xlink:href="#N"/>
            </mask>
            <path d="M35.363 10.903c2.124 8.528 17.453 4.098 24.352.683 6.9-3.415 6.088-9.106 1.421-16.62-4.668-7.512-29.63.456-25.773 15.937z" stroke="#FE89B3" stroke-width=".774" mask="url(#O)"/>
          </g>
          <g transform="translate(-64 107.35)">
            <mask id="Q" fill="#fff">
              <use xlink:href="#P"/>
            </mask>
            <path d="M50.38 75.103c-3.15-6.991.61-17.075 6.9-21.4 6.291-4.326 19.15-1.582 19.685 5.008.72 8.871-9.558 8.112-9.91 14.292-.533 9.342-11.759 13.01-16.675 2.1z" stroke="#FE89B3" stroke-width=".774" mask="url(#Q)"/>
          </g>
          <g transform="translate(-64 107.35)">
            <mask id="S" fill="#fff">
              <use xlink:href="#R"/>
            </mask>
            <path d="M12.025 87.396c3.77-8.248 13.597-16.391 24.758-11.838 11.162 4.553 13.394 15.936 10.147 21.628-3.247 5.691-13.458 8.915-18.67 4.553-3.056-2.558-8.125.627-13.558-.413-3.418-.653-6.736-5.051-2.677-13.93z" stroke="#FE89B3" stroke-width=".774" mask="url(#S)"/>
          </g>
          <g transform="translate(-64 107.35)">
            <mask id="U" fill="#fff">
              <use xlink:href="#T"/>
            </mask>
            <path d="M19.94 59.622c7.192 6.602 17.452 2.96 23.54-4.553 6.088-7.513 6.495-16.62 3.247-22.538-3.247-5.92-12.785-5.236-15.423 1.366-2.638 6.601-7.509 5.691-11.162 10.244-3.653 4.553-4.667 11.383-.203 15.481z" stroke="#FE89B3" stroke-width=".774" mask="url(#U)"/>
          </g>
          <g transform="translate(-64 107.35)">
            <mask id="W" fill="#fff">
              <use xlink:href="#V"/>
            </mask>
            <path d="M84.27 38.905c3.687-5.345-4.464-17.53-12.987-19.579-8.523-2.049-17.453.228-18.467 7.058-1.015 6.83 2.24 11.05 7.914 10.472 8.93-.91 15.22 14.115 23.54 2.049z" stroke="#FE89B3" stroke-width=".774" mask="url(#W)"/>
          </g>
          <g transform="translate(-64 107.35)">
            <mask id="Y" fill="#fff">
              <use xlink:href="#X"/>
            </mask>
            <path d="M72.256 109.473c-6.698-1.398-13.343-6.29-9.994-16.153 2.71-7.98 11.388-4.912 12.574-15.743.833-7.613 9.614-8.007 16.058-2.587 6.442 5.421 6.765 14.637 2.738 24.214-4.027 9.576-14.45 11.714-21.376 10.269z" stroke="#FE89B3" stroke-width=".774" mask="url(#Y)"/>
          </g>
          <g transform="translate(-64 107.35)">
            <mask id="aa" fill="#fff">
              <use xlink:href="#Z"/>
            </mask>
            <path d="M117.354 113.528c-6.39 1.882-14.819-3.975-15.946-14.094-1.128-10.119 5.154-17.708 10.791-17.708 5.638 0 9.182 5.24 7.893 10.48-1.288 5.24 10.148 17.528-2.738 21.322z" stroke="#FE89B3" stroke-width=".774" mask="url(#aa)"/>
          </g>
          <g transform="translate(-64 107.35)">
            <mask id="ac" fill="#fff">
              <use xlink:href="#ab"/>
            </mask>
            <path d="M124.236 85.203c-.648 5.748 1.932 12.106 11.436 8.854 9.503-3.253 14.496-12.287 14.174-22.587-.322-10.3-8.33-14.429-14.316-9.342-2.974 2.527-1.352 7.886-4.056 11.93-2.703 4.044-6.546 5.001-7.238 11.145z" stroke="#FE89B3" stroke-width=".774" mask="url(#ac)"/>
          </g>
          <g transform="translate(-64 107.35)">
            <mask id="ae" fill="#fff">
              <use xlink:href="#ad"/>
            </mask>
            <path d="M133.277 128.453c-5.185-1.555-4.687-18.098.27-23.456 4.957-5.359 9.914-11.324 15.051-9.504 5.137 1.82 5.318 13.346.09 18.401-5.227 5.055.09 19.21-15.411 14.56z" stroke="#FE89B3" stroke-width=".774" mask="url(#ae)"/>
          </g>
          <g transform="translate(-64 107.35)">
            <mask id="ag" fill="#fff">
              <use xlink:href="#af"/>
            </mask>
            <path d="M100.02 136.444c7.38-1.718 6.854-11 3.999-16.232-2.856-5.233-12.756-8.757-22.942-2.99-10.186 5.766-9.33 18.047-7.14 22.426 2.19 4.378 11.417 6.513 15.612-.961 3.237-5.767 5.426-1.068 10.471-2.243z" stroke="#FE89B3" stroke-width=".774" mask="url(#ag)"/>
          </g>
          <g transform="translate(-64 107.35)">
            <mask id="ai" fill="#fff">
              <use xlink:href="#ah"/>
            </mask>
            <path d="M49.521 136.83c3.808-7.261 12.946-1.601 15.326-10.038 2.38-8.436-7.996-19.115-18.943-16.872-10.948 2.242-18.278 12.6-19.61 21.998-1.333 9.398 6.378 13.776 12.47 13.563 6.092-.214 8.177-3.73 10.757-8.65z" stroke="#FE89B3" stroke-width=".774" mask="url(#ai)"/>
          </g>
        </g>
        <g>
          <path d="M23.59 243.77c1.866-3.265 6.59-11.8 10.741-12.35 4.15-.549 40.282-3.841 41.747-8.232 1.465-4.39 3.662-21.953 3.662-26.619 0 0-11.028 3.154-16.888-5.628 0 0-3.143 4.747-5.164 6.96-2.301 2.519-7.732 2.236-11.15.864-3.418-1.373-18.353-13-24.17-15.917-3.652-1.831-17.821-6.86-21.239-9.33-3.417-2.47-3.173-29.637-2.197-33.204.977-3.568 14.72-17.383 14.72-17.383s-5.931-1.552-8.128-16.37c0 0-22.949 3.018-28.808 8.232-5.859 5.214-5.371 57.079-9.277 65.037-3.906 7.958-22.216 44.181-30.76 57.353-8.545 13.172 80.319 18.112 86.91 6.586z" stroke="#242E3E" stroke-width=".5"/>
          <path d="M14.07 196.294c5.722 2.309 7.622-9.93 7.976-15.097.355-5.168 1.242-8.456 1.951-8.174.71.281 3.99 1.785 3.99.281 0-1.503-.562-6.944-.28-8.136 0 0 1.688-.299 1.688-.895 0-.596-2.603-.97-2.814-2.31-.211-1.342-.633-3.653-1.267-5.815 0 0-1.981-1.277-3.365-1.186 0 0-1.293 4.65-2.115 5.566 0 0-.047 1.537-.87 1.033-.821-.504-2.433-.312-2.897.916-.519 1.375.735 3.07 2.249 3.208 1.514.138.995 8.477-3.07 15.122-2.196 3.587-5.379 13.792-1.176 15.487" fill="#242E3E"/>
          <path d="M14.07 196.294c5.722 2.309 7.622-9.93 7.976-15.097.355-5.168 1.242-8.456 1.951-8.174.71.281 3.99 1.785 3.99.281 0-1.503-.562-6.944-.28-8.136 0 0 1.688-.299 1.688-.895 0-.596-2.603-.97-2.814-2.31-.211-1.342-.633-3.653-1.267-5.815 0 0-1.981-1.277-3.365-1.186 0 0-1.293 4.65-2.115 5.566 0 0-.047 1.537-.87 1.033-.821-.504-2.433-.312-2.897.916-.519 1.375.735 3.07 2.249 3.208 1.514.138.995 8.477-3.07 15.122-2.196 3.587-5.379 13.792-1.176 15.487z" stroke="#242E3E" stroke-width=".5"/>
          <path d="M19.196 162.052c1.145 1.159 3.967 12.749 6.114 13.99 2.146 1.24 3.577 1.516 5.203.344 1.626-1.171 2.212-1.998 1.691-4.48-.52-2.48-2.76-4.955-3.735-5.989-.975-1.033-2.454-1.002-3.045.063-.522.94-.895 2.067-1.415 1.103-.52-.965-3.643-4.756-3.643-5.996 0-1.24 2.602-1.86 2.407-5.375 0 0 2.766.444 2.862 1.516.004.047 2.992 0 2.862-5.927-.13-5.927-3.773-8.201-7.22-6.685-3.448 1.516-3.187 6.616-7.025 8.132-3.837 1.516-9.887 1.93-10.602 7.719-.715 5.789 3.708 8.063 7.155 8.063s6.7-.896 8.325.206L19 165.36s-2.471 0-2.861-1.93c-.39-1.93 1.626-2.826 3.057-1.378" fill="#FFF"/>
        </g>
        <g transform="translate(4 145.35)">
          <mask id="al" fill="#fff">
            <use xlink:href="#ak"/>
          </mask>
          <path fill="#FFCFDF" mask="url(#al)" d="M6.585 33.084h7.475V17.549H6.585z"/>
          <path d="M18.391 32.865c2.139 1.23 3.406 2.386 5.026 1.223 1.62-1.162 1.95-2.7 1.432-5.162-.518-2.462-1.935-5.522-2.907-6.547-.972-1.026-3.312-6.552-3.359-7.62-.082-1.884 2.577-1.296 2.447-7.176-.13-5.88-3.222-7.4-6.657-5.895-3.435 1.504-3.276 5.806-7.1 7.31-3.823 1.504-9.75 2.671-10.463 8.415-.712 5.743 3.698 8.15 7.13 8 13.425-.59 12.313 6.22 14.451 7.452" fill="#FFCFDF" mask="url(#al)"/>
        </g>
        <g>
          <path d="M19.743 163.027c1.142 1.163 3.955 12.794 6.095 14.039 2.14 1.245 3.566 1.521 5.187.346 1.621-1.176 2.205-2.006 1.686-4.495-.518-2.49-2.75-4.974-3.723-6.011-.973-1.037-2.447-1.006-3.037.063-.52.942-.891 2.075-1.41 1.106-.519-.968-3.631-4.771-3.631-6.016s2.594-1.867 2.399-5.394c0 0 2.758.445 2.853 1.52.004.049 2.983 0 2.853-5.946-.13-5.948-3.76-8.23-7.197-6.709-3.437 1.522-3.178 6.64-7.004 8.16-3.825 1.522-9.856 1.937-10.569 7.746-.713 5.81 3.696 8.092 7.133 8.092 3.436 0 6.678-.899 8.3.207l-.13-3.389s-2.464 0-2.853-1.936c-.389-1.936 1.621-2.835 3.048-1.383z" stroke="#242E3E" stroke-width=".5"/>
          <path fill="#E3E9F2" d="M48.885 125.145l2.254 52.103 190.732-60.531z"/>
          <path stroke="#242E3E" stroke-width=".5" d="M48.885 125.145l2.254 52.103 190.732-60.531z"/>
          <path fill="#E3E9F2" d="M64.215 138.57L51.14 177.247l190.732-60.53z"/>
          <path stroke="#242E3E" stroke-width=".5" d="M64.215 138.57L51.14 177.247l190.732-60.53z"/>
          <path fill="#FFF" d="M64.215 138.57l33.818 31.11 143.838-52.963z"/>
          <path stroke="#242E3E" stroke-width=".5" d="M64.215 138.57l33.818 31.11 143.838-52.963z"/>
          <path fill="#FFF" d="M48.885 125.145l192.986-8.428-216.884-15.35z"/>
          <path stroke="#242E3E" stroke-width=".5" d="M48.885 125.145l192.986-8.428-216.884-15.35z"/>
        </g>
      </g>
      <g opacity=".4" mask="url(#k)" fill="#000">
        <use filter="url(#am)" xlink:href="#an"/>
        <use fill-opacity=".269" xlink:href="#an"/>
      </g>
      <path d="M32.964 39.104h6.3v.756c0 1.638-.558 3.006-1.692 4.104-1.134 1.08-2.628 1.62-4.482 1.62-1.926 0-3.51-.63-4.77-1.89-1.242-1.278-1.872-2.826-1.872-4.644s.63-3.366 1.872-4.626c1.26-1.278 2.844-1.908 4.734-1.908 1.17 0 2.232.288 3.204.846s1.728 1.278 2.25 2.196l-1.44.846c-.72-1.368-2.286-2.268-4.032-2.268-1.44 0-2.628.468-3.546 1.422-.918.936-1.386 2.106-1.386 3.492 0 1.386.468 2.556 1.386 3.492.936.936 2.142 1.404 3.618 1.404 2.52 0 4.14-1.368 4.482-3.33h-4.626v-1.512zm14.382 2.016v-4.77h1.566v9h-1.566v-1.296c-.63 1.026-1.602 1.53-2.916 1.53-2.106 0-3.492-1.422-3.492-3.708V36.35h1.566v5.436c0 1.458.846 2.304 2.232 2.304 1.566 0 2.61-.954 2.61-2.97zm4.734-6.408a1.049 1.049 0 01-1.062-1.044c0-.576.468-1.062 1.062-1.062a1.06 1.06 0 011.044 1.062c0 .576-.468 1.044-1.044 1.044zm.774 10.638h-1.566v-9h1.566v9zm9.846-7.452V32.75h1.566v12.6H62.7v-1.548c-.774 1.188-1.908 1.782-3.402 1.782-1.26 0-2.34-.45-3.222-1.368-.882-.918-1.332-2.052-1.332-3.366s.45-2.43 1.332-3.348c.882-.918 1.962-1.386 3.222-1.386 1.494 0 2.628.594 3.402 1.782zm-3.204 6.174c.918 0 1.674-.306 2.286-.918.612-.63.918-1.386.918-2.304 0-.918-.306-1.674-.918-2.286-.612-.63-1.368-.936-2.286-.936-.9 0-1.656.306-2.268.936-.612.612-.918 1.368-.918 2.286 0 .918.306 1.674.918 2.304.612.612 1.368.918 2.268.918zm15.786-2.502H67.74c.306 1.602 1.548 2.538 3.258 2.538 1.188 0 2.052-.432 2.592-1.314l1.332.756c-.882 1.35-2.196 2.034-3.96 2.034-1.422 0-2.592-.45-3.492-1.332-.882-.9-1.332-2.034-1.332-3.402 0-1.35.432-2.484 1.314-3.384.882-.9 2.016-1.35 3.402-1.35 1.314 0 2.394.468 3.222 1.404.846.918 1.26 2.034 1.26 3.348 0 .234-.018.468-.054.702zm-4.428-3.978c-1.674 0-2.844 1.026-3.114 2.61h6.012c-.27-1.71-1.458-2.61-2.898-2.61zm11.25-1.476c1.26 0 2.34.468 3.222 1.386.882.918 1.332 2.034 1.332 3.348s-.45 2.448-1.332 3.366c-.882.918-1.962 1.368-3.222 1.368-1.494 0-2.628-.594-3.402-1.782v1.548h-1.566v-12.6h1.566v5.148c.774-1.188 1.908-1.782 3.402-1.782zm-.198 7.956c.9 0 1.656-.306 2.268-.918.612-.63.918-1.386.918-2.304 0-.918-.306-1.674-.918-2.286-.612-.63-1.368-.936-2.268-.936-.918 0-1.674.306-2.286.936-.612.612-.918 1.368-.918 2.286 0 .918.306 1.674.918 2.304.612.612 1.368.918 2.286.918zm14.22.144c-.918.918-2.052 1.368-3.366 1.368s-2.448-.45-3.366-1.368c-.918-.918-1.368-2.034-1.368-3.366 0-1.332.45-2.448 1.368-3.366.918-.918 2.052-1.368 3.366-1.368s2.448.45 3.366 1.368c.918.918 1.386 2.034 1.386 3.366 0 1.332-.468 2.448-1.386 3.366zm-3.366-.162c.9 0 1.656-.306 2.268-.918.612-.612.918-1.368.918-2.286 0-.918-.306-1.674-.918-2.286-.612-.612-1.368-.918-2.268-.918-.882 0-1.638.306-2.25.918-.612.612-.918 1.368-.918 2.286 0 .918.306 1.674.918 2.286.612.612 1.368.918 2.25.918zm14.202.162c-.918.918-2.052 1.368-3.366 1.368s-2.448-.45-3.366-1.368c-.918-.918-1.368-2.034-1.368-3.366 0-1.332.45-2.448 1.368-3.366.918-.918 2.052-1.368 3.366-1.368s2.448.45 3.366 1.368c.918.918 1.386 2.034 1.386 3.366 0 1.332-.468 2.448-1.386 3.366zm-3.366-.162c.9 0 1.656-.306 2.268-.918.612-.612.918-1.368.918-2.286 0-.918-.306-1.674-.918-2.286-.612-.612-1.368-.918-2.268-.918-.882 0-1.638.306-2.25.918-.612.612-.918 1.368-.918 2.286 0 .918.306 1.674.918 2.286.612.612 1.368.918 2.25.918zm9.774-3.348l4.446 4.644h-1.944l-4.104-4.266v4.266h-1.566v-12.6h1.566v7.578l3.888-3.978h2.016l-4.302 4.356zm7.254-1.926c0 .702.792 1.08 1.782 1.35 1.404.306 3.276.828 3.258 2.754 0 .81-.324 1.476-.954 1.962-.63.486-1.422.738-2.412.738-1.746 0-3.06-.828-3.582-2.106l1.35-.774c.288.864 1.134 1.404 2.232 1.404 1.026 0 1.782-.378 1.782-1.224 0-.702-.792-1.098-1.782-1.332-1.422-.378-3.258-.846-3.258-2.754 0-.774.306-1.422.9-1.926.612-.504 1.368-.756 2.286-.756 1.458 0 2.664.702 3.24 1.872l-1.314.738c-.324-.774-.972-1.152-1.926-1.152-.882 0-1.602.432-1.602 1.206z" fill="#012535" fill-rule="nonzero" mask="url(#k)"/>
    </g>
  </g>
</svg>
