<svg width="502" height="295" xmlns="http://www.w3.org/2000/svg" xmlns:xlink="http://www.w3.org/1999/xlink">
    <defs>
        <path d="M40.109.037C33.416.57 9.796 9.44 4.686 11.527c-6.243 2.552-5.83 79.011-1.222 78.085 4.608-.927 18.034-14.666 22.558-19.325 4.524-4.66 9.91-8.02 16.05-9.102 6.14-1.084 7.326-3.576 10.234-6.827 2.909-3.251 16.912-5.743 24.453-11.486 7.54-5.743 15.16-26.347 16.384-26.694.25-.07.816-.067 1.423-.065.68.004 1.413.007 1.81-.093.754-.19 3.674-2.147 2.983-2.368-.303-.097-.84.06-1.304.215-.552.186-1.001.373-.83.132.313-.442 1.851-4.074 1.569-3.979-.282.095-2.511 3.095-2.198 2.494.314-.6 1.79-3.946 1.287-3.662-.502.284-2.982 3.568-2.7 3.063.283-.505 1.822-3.379 1.068-3.03-.577.264-1.723 1.62-2.089 2.073.368-.532 1.16-2.12.52-1.885-.69.253-2.732 2.242-3.579 3.063-.848.821-.66 1.58-1.664 1.894-1.004.317-8.593 3.813-14.165 6.663-5.572 2.85-7.195 4.772-10.972 6.957-3.777 2.185-6.988.665-7.743-.475-.756-1.14-.378-3.8 2.36-4.75 2.738-.95 5.683-.922 13.05-4.87 7.365-3.95 10.899-6.73 12.055-7.46 1.157-.731 1.515-.754 2.313-1.155.796-.401 4.225-4.371 3.507-4.131-.497.166-1.721.853-2.175 1.113.76-.462 2.09-2.434 1.379-2.155-.42.163-1.259.75-1.799 1.164.692-.754 1.758-2.245 1.16-2.087-.727.193-3.308 2.447-2.79 1.925.518-.521 1.514-2.286.956-2.125-.558.16-2.87 2.607-3.149 2.165-.28-.44.32-1.404 0-1.724-.319-.321-.986 1.282-1.323 2.384-.338 1.104.504 1.268.167 1.947-.337.679-5.39-.636-9.691-1.57C68.479 4.957 48.769 0 41.139 0c-.373 0-.718.012-1.03.037" id="a"/>
        <path d="M40.109.037C33.416.57 9.796 9.44 4.686 11.527c-6.243 2.552-5.83 79.011-1.222 78.085 4.608-.927 18.034-14.666 22.558-19.325 4.524-4.66 9.91-8.02 16.05-9.102 6.14-1.084 7.326-3.576 10.234-6.827 2.909-3.251 16.912-5.743 24.453-11.486 7.54-5.743 15.16-26.347 16.384-26.694.25-.07.816-.067 1.423-.065.68.004 1.413.007 1.81-.093.754-.19 3.674-2.147 2.983-2.368-.303-.097-.84.06-1.304.215-.552.186-1.001.373-.83.132.313-.442 1.851-4.074 1.569-3.979-.282.095-2.511 3.095-2.198 2.494.314-.6 1.79-3.946 1.287-3.662-.502.284-2.982 3.568-2.7 3.063.283-.505 1.822-3.379 1.068-3.03-.577.264-1.723 1.62-2.089 2.073.368-.532 1.16-2.12.52-1.885-.69.253-2.732 2.242-3.579 3.063-.848.821-.66 1.58-1.664 1.894-1.004.317-8.593 3.813-14.165 6.663-5.572 2.85-7.195 4.772-10.972 6.957-3.777 2.185-6.988.665-7.743-.475-.756-1.14-.378-3.8 2.36-4.75 2.738-.95 5.683-.922 13.05-4.87 7.365-3.95 10.899-6.73 12.055-7.46 1.157-.731 1.515-.754 2.313-1.155.796-.401 4.225-4.371 3.507-4.131-.497.166-1.721.853-2.175 1.113.76-.462 2.09-2.434 1.379-2.155-.42.163-1.259.75-1.799 1.164.692-.754 1.758-2.245 1.16-2.087-.727.193-3.308 2.447-2.79 1.925.518-.521 1.514-2.286.956-2.125-.558.16-2.87 2.607-3.149 2.165-.28-.44.32-1.404 0-1.724-.319-.321-.986 1.282-1.323 2.384-.338 1.104.504 1.268.167 1.947-.337.679-5.39-.636-9.691-1.57C68.479 4.957 48.769 0 41.139 0c-.373 0-.718.012-1.03.037" id="c"/>
        <path d="M40.109.037C33.416.57 9.796 9.44 4.686 11.527c-6.243 2.552-5.83 79.011-1.222 78.085 4.608-.927 18.034-14.666 22.558-19.325 4.524-4.66 9.91-8.02 16.05-9.102 6.14-1.084 7.326-3.576 10.234-6.827 2.909-3.251 16.912-5.743 24.453-11.486 7.54-5.743 15.16-26.347 16.384-26.694.25-.07.816-.067 1.423-.065.68.004 1.413.007 1.81-.093.754-.19 3.674-2.147 2.983-2.368-.303-.097-.84.06-1.304.215-.552.186-1.001.373-.83.132.313-.442 1.851-4.074 1.569-3.979-.282.095-2.511 3.095-2.198 2.494.314-.6 1.79-3.946 1.287-3.662-.502.284-2.982 3.568-2.7 3.063.283-.505 1.822-3.379 1.068-3.03-.577.264-1.723 1.62-2.089 2.073.368-.532 1.16-2.12.52-1.885-.69.253-2.732 2.242-3.579 3.063-.848.821-.66 1.58-1.664 1.894-1.004.317-8.593 3.813-14.165 6.663-5.572 2.85-7.195 4.772-10.972 6.957-3.777 2.185-6.988.665-7.743-.475-.756-1.14-.378-3.8 2.36-4.75 2.738-.95 5.683-.922 13.05-4.87 7.365-3.95 10.899-6.73 12.055-7.46 1.157-.731 1.515-.754 2.313-1.155.796-.401 4.225-4.371 3.507-4.131-.497.166-1.721.853-2.175 1.113.76-.462 2.09-2.434 1.379-2.155-.42.163-1.259.75-1.799 1.164.692-.754 1.758-2.245 1.16-2.087-.727.193-3.308 2.447-2.79 1.925.518-.521 1.514-2.286.956-2.125-.558.16-2.87 2.607-3.149 2.165-.28-.44.32-1.404 0-1.724-.319-.321-.986 1.282-1.323 2.384-.338 1.104.504 1.268.167 1.947-.337.679-5.39-.636-9.691-1.57C68.479 4.957 48.769 0 41.139 0c-.373 0-.718.012-1.03.037" id="e"/>
        <path d="M40.109.037C33.416.57 9.796 9.44 4.686 11.527c-6.243 2.552-5.83 79.011-1.222 78.085 4.608-.927 18.034-14.666 22.558-19.325 4.524-4.66 9.91-8.02 16.05-9.102 6.14-1.084 7.326-3.576 10.234-6.827 2.909-3.251 16.912-5.743 24.453-11.486 7.54-5.743 15.16-26.347 16.384-26.694.25-.07.816-.067 1.423-.065.68.004 1.413.007 1.81-.093.754-.19 3.674-2.147 2.983-2.368-.303-.097-.84.06-1.304.215-.552.186-1.001.373-.83.132.313-.442 1.851-4.074 1.569-3.979-.282.095-2.511 3.095-2.198 2.494.314-.6 1.79-3.946 1.287-3.662-.502.284-2.982 3.568-2.7 3.063.283-.505 1.822-3.379 1.068-3.03-.577.264-1.723 1.62-2.089 2.073.368-.532 1.16-2.12.52-1.885-.69.253-2.732 2.242-3.579 3.063-.848.821-.66 1.58-1.664 1.894-1.004.317-8.593 3.813-14.165 6.663-5.572 2.85-7.195 4.772-10.972 6.957-3.777 2.185-6.988.665-7.743-.475-.756-1.14-.378-3.8 2.36-4.75 2.738-.95 5.683-.922 13.05-4.87 7.365-3.95 10.899-6.73 12.055-7.46 1.157-.731 1.515-.754 2.313-1.155.796-.401 4.225-4.371 3.507-4.131-.497.166-1.721.853-2.175 1.113.76-.462 2.09-2.434 1.379-2.155-.42.163-1.259.75-1.799 1.164.692-.754 1.758-2.245 1.16-2.087-.727.193-3.308 2.447-2.79 1.925.518-.521 1.514-2.286.956-2.125-.558.16-2.87 2.607-3.149 2.165-.28-.44.32-1.404 0-1.724-.319-.321-.986 1.282-1.323 2.384-.338 1.104.504 1.268.167 1.947-.337.679-5.39-.636-9.691-1.57C68.479 4.957 48.769 0 41.139 0c-.373 0-.718.012-1.03.037" id="g"/>
        <path d="M40.109.037C33.416.57 9.796 9.44 4.686 11.527c-6.243 2.552-5.83 79.011-1.222 78.085 4.608-.927 18.034-14.666 22.558-19.325 4.524-4.66 9.91-8.02 16.05-9.102 6.14-1.084 7.326-3.576 10.234-6.827 2.909-3.251 16.912-5.743 24.453-11.486 7.54-5.743 15.16-26.347 16.384-26.694.25-.07.816-.067 1.423-.065.68.004 1.413.007 1.81-.093.754-.19 3.674-2.147 2.983-2.368-.303-.097-.84.06-1.304.215-.552.186-1.001.373-.83.132.313-.442 1.851-4.074 1.569-3.979-.282.095-2.511 3.095-2.198 2.494.314-.6 1.79-3.946 1.287-3.662-.502.284-2.982 3.568-2.7 3.063.283-.505 1.822-3.379 1.068-3.03-.577.264-1.723 1.62-2.089 2.073.368-.532 1.16-2.12.52-1.885-.69.253-2.732 2.242-3.579 3.063-.848.821-.66 1.58-1.664 1.894-1.004.317-8.593 3.813-14.165 6.663-5.572 2.85-7.195 4.772-10.972 6.957-3.777 2.185-6.988.665-7.743-.475-.756-1.14-.378-3.8 2.36-4.75 2.738-.95 5.683-.922 13.05-4.87 7.365-3.95 10.899-6.73 12.055-7.46 1.157-.731 1.515-.754 2.313-1.155.796-.401 4.225-4.371 3.507-4.131-.497.166-1.721.853-2.175 1.113.76-.462 2.09-2.434 1.379-2.155-.42.163-1.259.75-1.799 1.164.692-.754 1.758-2.245 1.16-2.087-.727.193-3.308 2.447-2.79 1.925.518-.521 1.514-2.286.956-2.125-.558.16-2.87 2.607-3.149 2.165-.28-.44.32-1.404 0-1.724-.319-.321-.986 1.282-1.323 2.384-.338 1.104.504 1.268.167 1.947-.337.679-5.39-.636-9.691-1.57C68.479 4.957 48.769 0 41.139 0c-.373 0-.718.012-1.03.037" id="i"/>
        <path d="M40.109.037C33.416.57 9.796 9.44 4.686 11.527c-6.243 2.552-5.83 79.011-1.222 78.085 4.608-.927 18.034-14.666 22.558-19.325 4.524-4.66 9.91-8.02 16.05-9.102 6.14-1.084 7.326-3.576 10.234-6.827 2.909-3.251 16.912-5.743 24.453-11.486 7.54-5.743 15.16-26.347 16.384-26.694.25-.07.816-.067 1.423-.065.68.004 1.413.007 1.81-.093.754-.19 3.674-2.147 2.983-2.368-.303-.097-.84.06-1.304.215-.552.186-1.001.373-.83.132.313-.442 1.851-4.074 1.569-3.979-.282.095-2.511 3.095-2.198 2.494.314-.6 1.79-3.946 1.287-3.662-.502.284-2.982 3.568-2.7 3.063.283-.505 1.822-3.379 1.068-3.03-.577.264-1.723 1.62-2.089 2.073.368-.532 1.16-2.12.52-1.885-.69.253-2.732 2.242-3.579 3.063-.848.821-.66 1.58-1.664 1.894-1.004.317-8.593 3.813-14.165 6.663-5.572 2.85-7.195 4.772-10.972 6.957-3.777 2.185-6.988.665-7.743-.475-.756-1.14-.378-3.8 2.36-4.75 2.738-.95 5.683-.922 13.05-4.87 7.365-3.95 10.899-6.73 12.055-7.46 1.157-.731 1.515-.754 2.313-1.155.796-.401 4.225-4.371 3.507-4.131-.497.166-1.721.853-2.175 1.113.76-.462 2.09-2.434 1.379-2.155-.42.163-1.259.75-1.799 1.164.692-.754 1.758-2.245 1.16-2.087-.727.193-3.308 2.447-2.79 1.925.518-.521 1.514-2.286.956-2.125-.558.16-2.87 2.607-3.149 2.165-.28-.44.32-1.404 0-1.724-.319-.321-.986 1.282-1.323 2.384-.338 1.104.504 1.268.167 1.947-.337.679-5.39-.636-9.691-1.57C68.479 4.957 48.769 0 41.139 0c-.373 0-.718.012-1.03.037" id="k"/>
        <path d="M40.109.037C33.416.57 9.796 9.44 4.686 11.527c-6.243 2.552-5.83 79.011-1.222 78.085 4.608-.927 18.034-14.666 22.558-19.325 4.524-4.66 9.91-8.02 16.05-9.102 6.14-1.084 7.326-3.576 10.234-6.827 2.909-3.251 16.912-5.743 24.453-11.486 7.54-5.743 15.16-26.347 16.384-26.694.25-.07.816-.067 1.423-.065.68.004 1.413.007 1.81-.093.754-.19 3.674-2.147 2.983-2.368-.303-.097-.84.06-1.304.215-.552.186-1.001.373-.83.132.313-.442 1.851-4.074 1.569-3.979-.282.095-2.511 3.095-2.198 2.494.314-.6 1.79-3.946 1.287-3.662-.502.284-2.982 3.568-2.7 3.063.283-.505 1.822-3.379 1.068-3.03-.577.264-1.723 1.62-2.089 2.073.368-.532 1.16-2.12.52-1.885-.69.253-2.732 2.242-3.579 3.063-.848.821-.66 1.58-1.664 1.894-1.004.317-8.593 3.813-14.165 6.663-5.572 2.85-7.195 4.772-10.972 6.957-3.777 2.185-6.988.665-7.743-.475-.756-1.14-.378-3.8 2.36-4.75 2.738-.95 5.683-.922 13.05-4.87 7.365-3.95 10.899-6.73 12.055-7.46 1.157-.731 1.515-.754 2.313-1.155.796-.401 4.225-4.371 3.507-4.131-.497.166-1.721.853-2.175 1.113.76-.462 2.09-2.434 1.379-2.155-.42.163-1.259.75-1.799 1.164.692-.754 1.758-2.245 1.16-2.087-.727.193-3.308 2.447-2.79 1.925.518-.521 1.514-2.286.956-2.125-.558.16-2.87 2.607-3.149 2.165-.28-.44.32-1.404 0-1.724-.319-.321-.986 1.282-1.323 2.384-.338 1.104.504 1.268.167 1.947-.337.679-5.39-.636-9.691-1.57C68.479 4.957 48.769 0 41.139 0c-.373 0-.718.012-1.03.037" id="m"/>
        <path d="M40.109.037C33.416.57 9.796 9.44 4.686 11.527c-6.243 2.552-5.83 79.011-1.222 78.085 4.608-.927 18.034-14.666 22.558-19.325 4.524-4.66 9.91-8.02 16.05-9.102 6.14-1.084 7.326-3.576 10.234-6.827 2.909-3.251 16.912-5.743 24.453-11.486 7.54-5.743 15.16-26.347 16.384-26.694.25-.07.816-.067 1.423-.065.68.004 1.413.007 1.81-.093.754-.19 3.674-2.147 2.983-2.368-.303-.097-.84.06-1.304.215-.552.186-1.001.373-.83.132.313-.442 1.851-4.074 1.569-3.979-.282.095-2.511 3.095-2.198 2.494.314-.6 1.79-3.946 1.287-3.662-.502.284-2.982 3.568-2.7 3.063.283-.505 1.822-3.379 1.068-3.03-.577.264-1.723 1.62-2.089 2.073.368-.532 1.16-2.12.52-1.885-.69.253-2.732 2.242-3.579 3.063-.848.821-.66 1.58-1.664 1.894-1.004.317-8.593 3.813-14.165 6.663-5.572 2.85-7.195 4.772-10.972 6.957-3.777 2.185-6.988.665-7.743-.475-.756-1.14-.378-3.8 2.36-4.75 2.738-.95 5.683-.922 13.05-4.87 7.365-3.95 10.899-6.73 12.055-7.46 1.157-.731 1.515-.754 2.313-1.155.796-.401 4.225-4.371 3.507-4.131-.497.166-1.721.853-2.175 1.113.76-.462 2.09-2.434 1.379-2.155-.42.163-1.259.75-1.799 1.164.692-.754 1.758-2.245 1.16-2.087-.727.193-3.308 2.447-2.79 1.925.518-.521 1.514-2.286.956-2.125-.558.16-2.87 2.607-3.149 2.165-.28-.44.32-1.404 0-1.724-.319-.321-.986 1.282-1.323 2.384-.338 1.104.504 1.268.167 1.947-.337.679-5.39-.636-9.691-1.57C68.479 4.957 48.769 0 41.139 0c-.373 0-.718.012-1.03.037" id="o"/>
        <path d="M40.109.037C33.416.57 9.796 9.44 4.686 11.527c-6.243 2.552-5.83 79.011-1.222 78.085 4.608-.927 18.034-14.666 22.558-19.325 4.524-4.66 9.91-8.02 16.05-9.102 6.14-1.084 7.326-3.576 10.234-6.827 2.909-3.251 16.912-5.743 24.453-11.486 7.54-5.743 15.16-26.347 16.384-26.694.25-.07.816-.067 1.423-.065.68.004 1.413.007 1.81-.093.754-.19 3.674-2.147 2.983-2.368-.303-.097-.84.06-1.304.215-.552.186-1.001.373-.83.132.313-.442 1.851-4.074 1.569-3.979-.282.095-2.511 3.095-2.198 2.494.314-.6 1.79-3.946 1.287-3.662-.502.284-2.982 3.568-2.7 3.063.283-.505 1.822-3.379 1.068-3.03-.577.264-1.723 1.62-2.089 2.073.368-.532 1.16-2.12.52-1.885-.69.253-2.732 2.242-3.579 3.063-.848.821-.66 1.58-1.664 1.894-1.004.317-8.593 3.813-14.165 6.663-5.572 2.85-7.195 4.772-10.972 6.957-3.777 2.185-6.988.665-7.743-.475-.756-1.14-.378-3.8 2.36-4.75 2.738-.95 5.683-.922 13.05-4.87 7.365-3.95 10.899-6.73 12.055-7.46 1.157-.731 1.515-.754 2.313-1.155.796-.401 4.225-4.371 3.507-4.131-.497.166-1.721.853-2.175 1.113.76-.462 2.09-2.434 1.379-2.155-.42.163-1.259.75-1.799 1.164.692-.754 1.758-2.245 1.16-2.087-.727.193-3.308 2.447-2.79 1.925.518-.521 1.514-2.286.956-2.125-.558.16-2.87 2.607-3.149 2.165-.28-.44.32-1.404 0-1.724-.319-.321-.986 1.282-1.323 2.384-.338 1.104.504 1.268.167 1.947-.337.679-5.39-.636-9.691-1.57C68.479 4.957 48.769 0 41.139 0c-.373 0-.718.012-1.03.037" id="q"/>
        <path d="M40.109.037C33.416.57 9.796 9.44 4.686 11.527c-6.243 2.552-5.83 79.011-1.222 78.085 4.608-.927 18.034-14.666 22.558-19.325 4.524-4.66 9.91-8.02 16.05-9.102 6.14-1.084 7.326-3.576 10.234-6.827 2.909-3.251 16.912-5.743 24.453-11.486 7.54-5.743 15.16-26.347 16.384-26.694.25-.07.816-.067 1.423-.065.68.004 1.413.007 1.81-.093.754-.19 3.674-2.147 2.983-2.368-.303-.097-.84.06-1.304.215-.552.186-1.001.373-.83.132.313-.442 1.851-4.074 1.569-3.979-.282.095-2.511 3.095-2.198 2.494.314-.6 1.79-3.946 1.287-3.662-.502.284-2.982 3.568-2.7 3.063.283-.505 1.822-3.379 1.068-3.03-.577.264-1.723 1.62-2.089 2.073.368-.532 1.16-2.12.52-1.885-.69.253-2.732 2.242-3.579 3.063-.848.821-.66 1.58-1.664 1.894-1.004.317-8.593 3.813-14.165 6.663-5.572 2.85-7.195 4.772-10.972 6.957-3.777 2.185-6.988.665-7.743-.475-.756-1.14-.378-3.8 2.36-4.75 2.738-.95 5.683-.922 13.05-4.87 7.365-3.95 10.899-6.73 12.055-7.46 1.157-.731 1.515-.754 2.313-1.155.796-.401 4.225-4.371 3.507-4.131-.497.166-1.721.853-2.175 1.113.76-.462 2.09-2.434 1.379-2.155-.42.163-1.259.75-1.799 1.164.692-.754 1.758-2.245 1.16-2.087-.727.193-3.308 2.447-2.79 1.925.518-.521 1.514-2.286.956-2.125-.558.16-2.87 2.607-3.149 2.165-.28-.44.32-1.404 0-1.724-.319-.321-.986 1.282-1.323 2.384-.338 1.104.504 1.268.167 1.947-.337.679-5.39-.636-9.691-1.57C68.479 4.957 48.769 0 41.139 0c-.373 0-.718.012-1.03.037" id="s"/>
        <path d="M40.109.037C33.416.57 9.796 9.44 4.686 11.527c-6.243 2.552-5.83 79.011-1.222 78.085 4.608-.927 18.034-14.666 22.558-19.325 4.524-4.66 9.91-8.02 16.05-9.102 6.14-1.084 7.326-3.576 10.234-6.827 2.909-3.251 16.912-5.743 24.453-11.486 7.54-5.743 15.16-26.347 16.384-26.694.25-.07.816-.067 1.423-.065.68.004 1.413.007 1.81-.093.754-.19 3.674-2.147 2.983-2.368-.303-.097-.84.06-1.304.215-.552.186-1.001.373-.83.132.313-.442 1.851-4.074 1.569-3.979-.282.095-2.511 3.095-2.198 2.494.314-.6 1.79-3.946 1.287-3.662-.502.284-2.982 3.568-2.7 3.063.283-.505 1.822-3.379 1.068-3.03-.577.264-1.723 1.62-2.089 2.073.368-.532 1.16-2.12.52-1.885-.69.253-2.732 2.242-3.579 3.063-.848.821-.66 1.58-1.664 1.894-1.004.317-8.593 3.813-14.165 6.663-5.572 2.85-7.195 4.772-10.972 6.957-3.777 2.185-6.988.665-7.743-.475-.756-1.14-.378-3.8 2.36-4.75 2.738-.95 5.683-.922 13.05-4.87 7.365-3.95 10.899-6.73 12.055-7.46 1.157-.731 1.515-.754 2.313-1.155.796-.401 4.225-4.371 3.507-4.131-.497.166-1.721.853-2.175 1.113.76-.462 2.09-2.434 1.379-2.155-.42.163-1.259.75-1.799 1.164.692-.754 1.758-2.245 1.16-2.087-.727.193-3.308 2.447-2.79 1.925.518-.521 1.514-2.286.956-2.125-.558.16-2.87 2.607-3.149 2.165-.28-.44.32-1.404 0-1.724-.319-.321-.986 1.282-1.323 2.384-.338 1.104.504 1.268.167 1.947-.337.679-5.39-.636-9.691-1.57C68.479 4.957 48.769 0 41.139 0c-.373 0-.718.012-1.03.037z" id="u"/>
        <path d="M16.333.01c-.558.16-2.87 2.607-3.149 2.165-.28-.44.32-1.403 0-1.723-.32-.321-.986 1.281-1.323 2.384-.338 1.103.504 1.268.167 1.946-.338.68-5.39-.635-9.691-1.568-.535-.117-1.335-.301-2.337-.536 1.1 1.493 2.263 3.69 2.171 6.231-.098 2.704-1.083 5.181-1.874 6.757.457-.231.933-.479 1.429-.745 7.366-3.949 10.9-6.73 12.056-7.46 1.156-.73 1.514-.754 2.312-1.154.797-.401 4.226-4.372 3.508-4.132-.497.167-1.722.855-2.175 1.114.76-.463 2.09-2.434 1.378-2.156-.419.164-1.258.751-1.798 1.164.691-.753 1.758-2.244 1.16-2.086-.728.193-3.309 2.446-2.79 1.925C15.872 1.637 16.806 0 16.397 0a.252.252 0 0 0-.064.01m11.308 6.208c-.502.285-2.982 3.569-2.7 3.064.283-.506 1.821-3.38 1.068-3.031-.577.265-1.723 1.622-2.09 2.074.37-.532 1.161-2.12.52-1.885-.69.252-2.731 2.242-3.578 3.063-.848.82-.66 1.579-1.664 1.894-.945.298-7.723 3.413-13.162 6.153 2.072.342 4.728 1.178 6.316 3.207 1.891 2.42 2.545 5.786 2.771 7.825 3.973-7.244 7.04-14.828 7.78-15.038.248-.07.814-.067 1.422-.064.68.003 1.412.007 1.81-.094.754-.189 3.673-2.147 2.983-2.368-.303-.096-.84.06-1.304.216-.552.186-1.002.372-.831.131.314-.441 1.852-4.073 1.57-3.978-.283.095-2.511 3.095-2.198 2.494.301-.576 1.672-3.68 1.339-3.68a.111.111 0 0 0-.052.017" id="w"/>
        <path d="M40.109.037C33.416.57 9.796 9.44 4.686 11.527c-6.243 2.552-5.83 79.011-1.222 78.085 4.608-.927 18.034-14.666 22.558-19.325 4.524-4.66 9.91-8.02 16.05-9.102 6.14-1.084 7.326-3.576 10.234-6.827 2.909-3.251 16.912-5.743 24.453-11.486 7.54-5.743 15.16-26.347 16.384-26.694.25-.07.816-.067 1.423-.065.68.004 1.413.007 1.81-.093.754-.19 3.674-2.147 2.983-2.368-.303-.097-.84.06-1.304.215-.552.186-1.001.373-.83.132.313-.442 1.851-4.074 1.569-3.979-.282.095-2.511 3.095-2.198 2.494.314-.6 1.79-3.946 1.287-3.662-.502.284-2.982 3.568-2.7 3.063.283-.505 1.822-3.379 1.068-3.03-.577.264-1.723 1.62-2.089 2.073.368-.532 1.16-2.12.52-1.885-.69.253-2.732 2.242-3.579 3.063-.848.821-.66 1.58-1.664 1.894-1.004.317-8.593 3.813-14.165 6.663-5.572 2.85-7.195 4.772-10.972 6.957-3.777 2.185-6.988.665-7.743-.475-.756-1.14-.378-3.8 2.36-4.75 2.738-.95 5.683-.922 13.05-4.87 7.365-3.95 10.899-6.73 12.055-7.46 1.157-.731 1.515-.754 2.313-1.155.796-.401 4.225-4.371 3.507-4.131-.497.166-1.721.853-2.175 1.113.76-.462 2.09-2.434 1.379-2.155-.42.163-1.259.75-1.799 1.164.692-.754 1.758-2.245 1.16-2.087-.727.193-3.308 2.447-2.79 1.925.518-.521 1.514-2.286.956-2.125-.558.16-2.87 2.607-3.149 2.165-.28-.44.32-1.404 0-1.724-.319-.321-.986 1.282-1.323 2.384-.338 1.104.504 1.268.167 1.947-.337.679-5.39-.636-9.691-1.57C68.479 4.957 48.769 0 41.139 0c-.373 0-.718.012-1.03.037z" id="y"/>
        <path d="M.443 6.357C-.393 8.279.084 13.983.8 14.943c.716.96 5.013 2.616 5.013 3.422s-.358 3.963-1.194 6.604c-.835 2.642.598 4.444 1.85 5.944 1.254 1.501 3.88 3.422 3.522 2.102-.443-1.639-1.79-4.443-.835-6.665.955-2.221 3.044-5.884 4.297-6.424 1.254-.54 5.79-.6 5.85-1.801.06-1.201-2.746-5.883-2.806-6.784-.06-.901.657-1.382.776-2.161.12-.781-1.49-.357-3.04-1.678C12.68 6.182 11.263.403 10.496.08a1.192 1.192 0 0 0-.463-.08C7.652 0 1.22 4.57.443 6.357" id="A"/>
        <path d="M42.058 2.082c-8.598 3.843-8.283 2.419-8.283 4.82 0 2.4-.643 1.941-.73 3.266-.088 1.325 2.632 5.388 2.808 6.536.175 1.148-.45 2.822-.006 3.17.219.171.449.03.668-.11.227-.146.442-.291.618-.088.347.397 1.534 2.238 2.474 2.238.94 0 2.03-.172 2.03-.172s.393 3.008-.2 3.307c-.594.298-17.718 3.512-22.598 6.635-4.88 3.124-10.416 13.538-11.63 13.717-.634.094-1.828.08-2.964.065-1.032-.013-2.016-.026-2.49.042-1 .144 1.461 1.004 1.497 1.327.036.324-1.89 2.655-2.853 3.23-.964.573-.071.932 1.497.25 1.57-.68.286 1.005-.606 1.543-.891.538.678.682 1.82-.108 1.14-.789.53.489-.433 1.207-.963.717.896 1.09 2.108.12 1.213-.968-.128 1.436-.778 1.687-.648.25.6.717 2.133-.395 1.534-1.111 3.103-3.408 3.96-4.09.371-.295 2.819-.205 5.76-.115 3.819.118 8.47.235 10.493-.494 1.07-.386-1.542 3.529-4.838 4.47-1.384.397-2.669.387-4.055.379-.843-.006-1.724-.011-2.687.074-2.29.203-8.727 1.13-7.192 1.695 1.536.565 3.596.114 2.585.528-1.012.414-3.558.678-2.248 1.13 1.311.453 4.009.414 2.885.716-1.124.301-3.745.716-2.098 1.206.89.264 1.954.232 2.639.2.584-.027.892-.055.583.1-.675.34-4.12.906-1.836 1.396.962.206 2.03.091 2.89-.023 1.186-.158 1.98-.315 1.567.361-.711 1.168-.954 1.77-.187 1.583 1.63-.396 4.655-2.81 5.564-3.765.907-.955 1.367-.11 3.184.949 1.816 1.058 7.718 5.044 10.443 5.335 2.723.291 10.207.803 11.517.872 1.31.07 5.14 6.755 4.903 9.935-.237 3.18-5.058 30.513-5.058 34.921 0 4.409-3.825 29.666-2.29 30.988 1.533 1.322 13.365.22 16.214 0 2.849-.22 7.113-13.134 7.113-15.778 0-2.646-1.645-3.97-.987-5.956.658-1.986 5.758-19.707 7.569-21.439 1.81-1.732 7.897 10.019 8.226 11.343.33 1.324-1.81 4.966 0 7.117 1.81 2.152 4.673 8.98 5.825 9.312 1.152.331 13.492.165 15.467-1.49 1.974-1.655 2.73-2.03.592-5.174-2.139-3.145-4.607-9.434-5.265-12.413-.658-2.98-2.633-20.69-3.126-22.179-.494-1.489-9.544-28.137-12.835-30.951-3.29-2.814-14.643-24.33-18.757-26.648-4.114-2.317-10.837-3.591-12.38-4.478-1.54-.886-4.33-5.361-3.853-6.883.477-1.522 1.307-2.793.272-4.314-.674-.992 2.465-.536 3.65-2.06.632-.815-1.518-2.644-.99-3.817 1.512-3.362 2.261-5.005 1.306-5.565C50.104 1.017 50.2 0 48.625 0c-1.103 0-3.026.499-6.567 2.082z" id="C"/>
        <path d="M0 .333c3.352.281 8.299.616 9.34.671 1.311.07 5.141 6.755 4.904 9.935-.237 3.18-5.058 30.513-5.058 34.921 0 4.409-3.825 29.666-2.291 30.988 1.533 1.322 13.366.22 16.215 0s7.113-13.134 7.113-15.778c0-2.646-1.645-3.97-.987-5.956.658-1.986 5.758-19.707 7.568-21.439 1.81-1.732 7.898 10.019 8.227 11.343.329 1.324-1.81 4.966 0 7.117 1.81 2.152 4.673 8.98 5.825 9.312 1.152.331 13.492.165 15.467-1.49 1.974-1.655 2.73-2.03.592-5.174-2.139-3.145-4.607-9.434-5.265-12.413-.658-2.98-2.633-20.69-3.126-22.179-.292-.879-3.563-10.518-6.871-18.85L.055 0" id="E"/>
        <path d="M0 .333c3.352.281 8.299.616 9.34.671 1.311.07 5.141 6.755 4.904 9.935-.237 3.18-5.058 30.513-5.058 34.921 0 4.409-3.825 29.666-2.291 30.988 1.533 1.322 13.366.22 16.215 0s7.113-13.134 7.113-15.778c0-2.646-1.645-3.97-.987-5.956.658-1.986 5.758-19.707 7.568-21.439 1.81-1.732 7.898 10.019 8.227 11.343.329 1.324-1.81 4.966 0 7.117 1.81 2.152 4.673 8.98 5.825 9.312 1.152.331 13.492.165 15.467-1.49 1.974-1.655 2.73-2.03.592-5.174-2.139-3.145-4.607-9.434-5.265-12.413-.658-2.98-2.633-20.69-3.126-22.179-.292-.879-3.563-10.518-6.871-18.85L.055 0" id="G"/>
        <path d="M0 .333c3.352.281 8.299.616 9.34.671 1.311.07 5.141 6.755 4.904 9.935-.237 3.18-5.058 30.513-5.058 34.921 0 4.409-3.825 29.666-2.291 30.988 1.533 1.322 13.366.22 16.215 0s7.113-13.134 7.113-15.778c0-2.646-1.645-3.97-.987-5.956.658-1.986 5.758-19.707 7.568-21.439 1.81-1.732 7.898 10.019 8.227 11.343.329 1.324-1.81 4.966 0 7.117 1.81 2.152 4.673 8.98 5.825 9.312 1.152.331 13.492.165 15.467-1.49 1.974-1.655 2.73-2.03.592-5.174-2.139-3.145-4.607-9.434-5.265-12.413-.658-2.98-2.633-20.69-3.126-22.179-.292-.879-3.563-10.518-6.871-18.85L.055 0" id="I"/>
        <path d="M0 .333c3.352.281 8.299.616 9.34.671 1.311.07 5.141 6.755 4.904 9.935-.237 3.18-5.058 30.513-5.058 34.921 0 4.409-3.825 29.666-2.291 30.988 1.533 1.322 13.366.22 16.215 0s7.113-13.134 7.113-15.778c0-2.646-1.645-3.97-.987-5.956.658-1.986 5.758-19.707 7.568-21.439 1.81-1.732 7.898 10.019 8.227 11.343.329 1.324-1.81 4.966 0 7.117 1.81 2.152 4.673 8.98 5.825 9.312 1.152.331 13.492.165 15.467-1.49 1.974-1.655 2.73-2.03.592-5.174-2.139-3.145-4.607-9.434-5.265-12.413-.658-2.98-2.633-20.69-3.126-22.179-.292-.879-3.563-10.518-6.871-18.85L.055 0" id="K"/>
        <path d="M0 .333c3.352.281 8.299.616 9.34.671 1.311.07 5.141 6.755 4.904 9.935-.237 3.18-5.058 30.513-5.058 34.921 0 4.409-3.825 29.666-2.291 30.988 1.533 1.322 13.366.22 16.215 0s7.113-13.134 7.113-15.778c0-2.646-1.645-3.97-.987-5.956.658-1.986 5.758-19.707 7.568-21.439 1.81-1.732 7.898 10.019 8.227 11.343.329 1.324-1.81 4.966 0 7.117 1.81 2.152 4.673 8.98 5.825 9.312 1.152.331 13.492.165 15.467-1.49 1.974-1.655 2.73-2.03.592-5.174-2.139-3.145-4.607-9.434-5.265-12.413-.658-2.98-2.633-20.69-3.126-22.179-.292-.879-3.563-10.518-6.871-18.85L.055 0" id="M"/>
        <path d="M0 .333c3.352.281 8.299.616 9.34.671 1.311.07 5.141 6.755 4.904 9.935-.237 3.18-5.058 30.513-5.058 34.921 0 4.409-3.825 29.666-2.291 30.988 1.533 1.322 13.366.22 16.215 0s7.113-13.134 7.113-15.778c0-2.646-1.645-3.97-.987-5.956.658-1.986 5.758-19.707 7.568-21.439 1.81-1.732 7.898 10.019 8.227 11.343.329 1.324-1.81 4.966 0 7.117 1.81 2.152 4.673 8.98 5.825 9.312 1.152.331 13.492.165 15.467-1.49 1.974-1.655 2.73-2.03.592-5.174-2.139-3.145-4.607-9.434-5.265-12.413-.658-2.98-2.633-20.69-3.126-22.179-.292-.879-3.563-10.518-6.871-18.85L.055 0" id="O"/>
        <path d="M0 .333c3.352.281 8.299.616 9.34.671 1.311.07 5.141 6.755 4.904 9.935-.237 3.18-5.058 30.513-5.058 34.921 0 4.409-3.825 29.666-2.291 30.988 1.533 1.322 13.366.22 16.215 0s7.113-13.134 7.113-15.778c0-2.646-1.645-3.97-.987-5.956.658-1.986 5.758-19.707 7.568-21.439 1.81-1.732 7.898 10.019 8.227 11.343.329 1.324-1.81 4.966 0 7.117 1.81 2.152 4.673 8.98 5.825 9.312 1.152.331 13.492.165 15.467-1.49 1.974-1.655 2.73-2.03.592-5.174-2.139-3.145-4.607-9.434-5.265-12.413-.658-2.98-2.633-20.69-3.126-22.179-.292-.879-3.563-10.518-6.871-18.85L.055 0" id="Q"/>
        <path d="M0 .333c3.352.281 8.299.616 9.34.671 1.311.07 5.141 6.755 4.904 9.935-.237 3.18-5.058 30.513-5.058 34.921 0 4.409-3.825 29.666-2.291 30.988 1.533 1.322 13.366.22 16.215 0s7.113-13.134 7.113-15.778c0-2.646-1.645-3.97-.987-5.956.658-1.986 5.758-19.707 7.568-21.439 1.81-1.732 7.898 10.019 8.227 11.343.329 1.324-1.81 4.966 0 7.117 1.81 2.152 4.673 8.98 5.825 9.312 1.152.331 13.492.165 15.467-1.49 1.974-1.655 2.73-2.03.592-5.174-2.139-3.145-4.607-9.434-5.265-12.413-.658-2.98-2.633-20.69-3.126-22.179-.292-.879-3.563-10.518-6.871-18.85L.055 0" id="S"/>
        <path d="M0 .333c3.352.281 8.299.616 9.34.671 1.311.07 5.141 6.755 4.904 9.935-.237 3.18-5.058 30.513-5.058 34.921 0 4.409-3.825 29.666-2.291 30.988 1.533 1.322 13.366.22 16.215 0s7.113-13.134 7.113-15.778c0-2.646-1.645-3.97-.987-5.956.658-1.986 5.758-19.707 7.568-21.439 1.81-1.732 7.898 10.019 8.227 11.343.329 1.324-1.81 4.966 0 7.117 1.81 2.152 4.673 8.98 5.825 9.312 1.152.331 13.492.165 15.467-1.49 1.974-1.655 2.73-2.03.592-5.174-2.139-3.145-4.607-9.434-5.265-12.413-.658-2.98-2.633-20.69-3.126-22.179-.292-.879-3.563-10.518-6.871-18.85L.055 0" id="U"/>
        <path d="M0 .333c3.352.281 8.299.616 9.34.671 1.311.07 5.141 6.755 4.904 9.935-.237 3.18-5.058 30.513-5.058 34.921 0 4.409-3.825 29.666-2.291 30.988 1.533 1.322 13.366.22 16.215 0s7.113-13.134 7.113-15.778c0-2.646-1.645-3.97-.987-5.956.658-1.986 5.758-19.707 7.568-21.439 1.81-1.732 7.898 10.019 8.227 11.343.329 1.324-1.81 4.966 0 7.117 1.81 2.152 4.673 8.98 5.825 9.312 1.152.331 13.492.165 15.467-1.49 1.974-1.655 2.73-2.03.592-5.174-2.139-3.145-4.607-9.434-5.265-12.413-.658-2.98-2.633-20.69-3.126-22.179-.292-.879-3.563-10.518-6.871-18.85L.055 0" id="W"/>
        <path d="M0 .333c3.352.281 8.299.616 9.34.671 1.311.07 5.141 6.755 4.904 9.935-.237 3.18-5.058 30.513-5.058 34.921 0 4.409-3.825 29.666-2.291 30.988 1.533 1.322 13.366.22 16.215 0s7.113-13.134 7.113-15.778c0-2.646-1.645-3.97-.987-5.956.658-1.986 5.758-19.707 7.568-21.439 1.81-1.732 7.898 10.019 8.227 11.343.329 1.324-1.81 4.966 0 7.117 1.81 2.152 4.673 8.98 5.825 9.312 1.152.331 13.492.165 15.467-1.49 1.974-1.655 2.73-2.03.592-5.174-2.139-3.145-4.607-9.434-5.265-12.413-.658-2.98-2.633-20.69-3.126-22.179-.292-.879-3.563-10.518-6.871-18.85L.055 0" id="Y"/>
        <path d="M0 .333c3.352.281 8.299.616 9.34.671 1.311.07 5.141 6.755 4.904 9.935-.237 3.18-5.058 30.513-5.058 34.921 0 4.409-3.825 29.666-2.291 30.988 1.533 1.322 13.366.22 16.215 0s7.113-13.134 7.113-15.778c0-2.646-1.645-3.97-.987-5.956.658-1.986 5.758-19.707 7.568-21.439 1.81-1.732 7.898 10.019 8.227 11.343.329 1.324-1.81 4.966 0 7.117 1.81 2.152 4.673 8.98 5.825 9.312 1.152.331 13.492.165 15.467-1.49 1.974-1.655 2.73-2.03.592-5.174-2.139-3.145-4.607-9.434-5.265-12.413-.658-2.98-2.633-20.69-3.126-22.179-.292-.879-3.563-10.518-6.871-18.85L.055 0" id="aa"/>
        <path d="M0 .333c3.352.281 8.299.616 9.34.671 1.311.07 5.141 6.755 4.904 9.935-.237 3.18-5.058 30.513-5.058 34.921 0 4.409-3.825 29.666-2.291 30.988 1.533 1.322 13.366.22 16.215 0s7.113-13.134 7.113-15.778c0-2.646-1.645-3.97-.987-5.956.658-1.986 5.758-19.707 7.568-21.439 1.81-1.732 7.898 10.019 8.227 11.343.329 1.324-1.81 4.966 0 7.117 1.81 2.152 4.673 8.98 5.825 9.312 1.152.331 13.492.165 15.467-1.49 1.974-1.655 2.73-2.03.592-5.174-2.139-3.145-4.607-9.434-5.265-12.413-.658-2.98-2.633-20.69-3.126-22.179-.292-.879-3.563-10.518-6.871-18.85L.055 0" id="ac"/>
        <path d="M0 .333c3.352.281 8.299.616 9.34.671 1.311.07 5.141 6.755 4.904 9.935-.237 3.18-5.058 30.513-5.058 34.921 0 4.409-3.825 29.666-2.291 30.988 1.533 1.322 13.366.22 16.215 0s7.113-13.134 7.113-15.778c0-2.646-1.645-3.97-.987-5.956.658-1.986 5.758-19.707 7.568-21.439 1.81-1.732 7.898 10.019 8.227 11.343.329 1.324-1.81 4.966 0 7.117 1.81 2.152 4.673 8.98 5.825 9.312 1.152.331 13.492.165 15.467-1.49 1.974-1.655 2.73-2.03.592-5.174-2.139-3.145-4.607-9.434-5.265-12.413-.658-2.98-2.633-20.69-3.126-22.179-.292-.879-3.563-10.518-6.871-18.85L.055 0" id="ae"/>
        <path d="M0 .333c3.352.281 8.299.616 9.34.671 1.311.07 5.141 6.755 4.904 9.935-.237 3.18-5.058 30.513-5.058 34.921 0 4.409-3.825 29.666-2.291 30.988 1.533 1.322 13.366.22 16.215 0s7.113-13.134 7.113-15.778c0-2.646-1.645-3.97-.987-5.956.658-1.986 5.758-19.707 7.568-21.439 1.81-1.732 7.898 10.019 8.227 11.343.329 1.324-1.81 4.966 0 7.117 1.81 2.152 4.673 8.98 5.825 9.312 1.152.331 13.492.165 15.467-1.49 1.974-1.655 2.73-2.03.592-5.174-2.139-3.145-4.607-9.434-5.265-12.413-.658-2.98-2.633-20.69-3.126-22.179-.292-.879-3.563-10.518-6.871-18.85L.055 0" id="ag"/>
        <path d="M0 .333c3.352.281 8.299.616 9.34.671 1.311.07 5.141 6.755 4.904 9.935-.237 3.18-5.058 30.513-5.058 34.921 0 4.409-3.825 29.666-2.291 30.988 1.533 1.322 13.366.22 16.215 0s7.113-13.134 7.113-15.778c0-2.646-1.645-3.97-.987-5.956.658-1.986 5.758-19.707 7.568-21.439 1.81-1.732 7.898 10.019 8.227 11.343.329 1.324-1.81 4.966 0 7.117 1.81 2.152 4.673 8.98 5.825 9.312 1.152.331 13.492.165 15.467-1.49 1.974-1.655 2.73-2.03.592-5.174-2.139-3.145-4.607-9.434-5.265-12.413-.658-2.98-2.633-20.69-3.126-22.179-.292-.879-3.563-10.518-6.871-18.85L.055 0" id="ai"/>
        <path d="M0 .333c3.352.281 8.299.616 9.34.671 1.311.07 5.141 6.755 4.904 9.935-.237 3.18-5.058 30.513-5.058 34.921 0 4.409-3.825 29.666-2.291 30.988 1.533 1.322 13.366.22 16.215 0s7.113-13.134 7.113-15.778c0-2.646-1.645-3.97-.987-5.956.658-1.986 5.758-19.707 7.568-21.439 1.81-1.732 7.898 10.019 8.227 11.343.329 1.324-1.81 4.966 0 7.117 1.81 2.152 4.673 8.98 5.825 9.312 1.152.331 13.492.165 15.467-1.49 1.974-1.655 2.73-2.03.592-5.174-2.139-3.145-4.607-9.434-5.265-12.413-.658-2.98-2.633-20.69-3.126-22.179-.292-.879-3.563-10.518-6.871-18.85L.055 0" id="ak"/>
        <path d="M42.058 2.082c-8.598 3.843-8.283 2.419-8.283 4.82 0 2.4-.643 1.941-.73 3.266-.088 1.325 2.632 5.388 2.808 6.536.175 1.148-.45 2.822-.006 3.17.219.171.449.03.668-.11.227-.146.442-.291.618-.088.347.397 1.534 2.238 2.474 2.238.94 0 2.03-.172 2.03-.172s.393 3.008-.2 3.307c-.594.298-17.718 3.512-22.598 6.635-4.88 3.124-10.416 13.538-11.63 13.717-.634.094-1.828.08-2.964.065-1.032-.013-2.016-.026-2.49.042-1 .144 1.461 1.004 1.497 1.327.036.324-1.89 2.655-2.853 3.23-.964.573-.071.932 1.497.25 1.57-.68.286 1.005-.606 1.543-.891.538.678.682 1.82-.108 1.14-.789.53.489-.433 1.207-.963.717.896 1.09 2.108.12 1.213-.968-.128 1.436-.778 1.687-.648.25.6.717 2.133-.395 1.534-1.111 3.103-3.408 3.96-4.09.371-.295 2.819-.205 5.76-.115 3.819.118 8.47.235 10.493-.494 1.07-.386-1.542 3.529-4.838 4.47-1.384.397-2.669.387-4.055.379-.843-.006-1.724-.011-2.687.074-2.29.203-8.727 1.13-7.192 1.695 1.536.565 3.596.114 2.585.528-1.012.414-3.558.678-2.248 1.13 1.311.453 4.009.414 2.885.716-1.124.301-3.745.716-2.098 1.206.89.264 1.954.232 2.639.2.584-.027.892-.055.583.1-.675.34-4.12.906-1.836 1.396.962.206 2.03.091 2.89-.023 1.186-.158 1.98-.315 1.567.361-.711 1.168-.954 1.77-.187 1.583 1.63-.396 4.655-2.81 5.564-3.765.907-.955 1.367-.11 3.184.949 1.816 1.058 7.718 5.044 10.443 5.335 2.723.291 10.207.803 11.517.872 1.31.07 5.14 6.755 4.903 9.935-.237 3.18-5.058 30.513-5.058 34.921 0 4.409-3.825 29.666-2.29 30.988 1.533 1.322 13.365.22 16.214 0 2.849-.22 7.113-13.134 7.113-15.778 0-2.646-1.645-3.97-.987-5.956.658-1.986 5.758-19.707 7.569-21.439 1.81-1.732 7.897 10.019 8.226 11.343.33 1.324-1.81 4.966 0 7.117 1.81 2.152 4.673 8.98 5.825 9.312 1.152.331 13.492.165 15.467-1.49 1.974-1.655 2.73-2.03.592-5.174-2.139-3.145-4.607-9.434-5.265-12.413-.658-2.98-2.633-20.69-3.126-22.179-.494-1.489-9.544-28.137-12.835-30.951-3.29-2.814-14.643-24.33-18.757-26.648-4.114-2.317-10.837-3.591-12.38-4.478-1.54-.886-4.33-5.361-3.853-6.883.477-1.522 1.307-2.793.272-4.314-.674-.992 2.465-.536 3.65-2.06.632-.815-1.518-2.644-.99-3.817 1.512-3.362 2.261-5.005 1.306-5.565C50.104 1.017 50.2 0 48.625 0c-1.103 0-3.026.499-6.567 2.082" id="am"/>
        <path d="M42.058 2.082c-8.598 3.843-8.283 2.419-8.283 4.82 0 2.4-.643 1.941-.73 3.266-.088 1.325 2.632 5.388 2.808 6.536.175 1.148-.45 2.822-.006 3.17.219.171.449.03.668-.11.227-.146.442-.291.618-.088.347.397 1.534 2.238 2.474 2.238.94 0 2.03-.172 2.03-.172s.393 3.008-.2 3.307c-.594.298-17.718 3.512-22.598 6.635-4.88 3.124-10.416 13.538-11.63 13.717-.634.094-1.828.08-2.964.065-1.032-.013-2.016-.026-2.49.042-1 .144 1.461 1.004 1.497 1.327.036.324-1.89 2.655-2.853 3.23-.964.573-.071.932 1.497.25 1.57-.68.286 1.005-.606 1.543-.891.538.678.682 1.82-.108 1.14-.789.53.489-.433 1.207-.963.717.896 1.09 2.108.12 1.213-.968-.128 1.436-.778 1.687-.648.25.6.717 2.133-.395 1.534-1.111 3.103-3.408 3.96-4.09.371-.295 2.819-.205 5.76-.115 3.819.118 8.47.235 10.493-.494 1.07-.386-1.542 3.529-4.838 4.47-1.384.397-2.669.387-4.055.379-.843-.006-1.724-.011-2.687.074-2.29.203-8.727 1.13-7.192 1.695 1.536.565 3.596.114 2.585.528-1.012.414-3.558.678-2.248 1.13 1.311.453 4.009.414 2.885.716-1.124.301-3.745.716-2.098 1.206.89.264 1.954.232 2.639.2.584-.027.892-.055.583.1-.675.34-4.12.906-1.836 1.396.962.206 2.03.091 2.89-.023 1.186-.158 1.98-.315 1.567.361-.711 1.168-.954 1.77-.187 1.583 1.63-.396 4.655-2.81 5.564-3.765.907-.955 1.367-.11 3.184.949 1.816 1.058 7.718 5.044 10.443 5.335 2.723.291 10.207.803 11.517.872 1.31.07 5.14 6.755 4.903 9.935-.237 3.18-5.058 30.513-5.058 34.921 0 4.409-3.825 29.666-2.29 30.988 1.533 1.322 13.365.22 16.214 0 2.849-.22 7.113-13.134 7.113-15.778 0-2.646-1.645-3.97-.987-5.956.658-1.986 5.758-19.707 7.569-21.439 1.81-1.732 7.897 10.019 8.226 11.343.33 1.324-1.81 4.966 0 7.117 1.81 2.152 4.673 8.98 5.825 9.312 1.152.331 13.492.165 15.467-1.49 1.974-1.655 2.73-2.03.592-5.174-2.139-3.145-4.607-9.434-5.265-12.413-.658-2.98-2.633-20.69-3.126-22.179-.494-1.489-9.544-28.137-12.835-30.951-3.29-2.814-14.643-24.33-18.757-26.648-4.114-2.317-10.837-3.591-12.38-4.478-1.54-.886-4.33-5.361-3.853-6.883.477-1.522 1.307-2.793.272-4.314-.674-.992 2.465-.536 3.65-2.06.632-.815-1.518-2.644-.99-3.817 1.512-3.362 2.261-5.005 1.306-5.565C50.104 1.017 50.2 0 48.625 0c-1.103 0-3.026.499-6.567 2.082z" id="ao"/>
        <path d="M6.321 3.91C2.041 5.884-.133 7.155.006 9.414c.14 2.258 1.614 3.034 2.597 2.893.982-.14 2.279-1.438 4.945-1.932 1.333-.247.369 2.677 1.036 3.645.666.968 2.461 3.759 3.21.264.158-.734.842-1.483 2.386-1.271 1.543.212 2.035 1.27 2.035 2.894 0 1.7 6.634-2.17 6.65-4.221.007-1.068-2.973-.693-2.202-3.163.772-2.47 4.978-4.48 3.2-7.579C23.475.273 22.447 0 21.057 0c-4.15 0-11.53 2.429-14.737 3.91" id="aq"/>
        <path d="M38.22 1.22c-.057.966.395 1.762.056 2.273-.338.51-10.288 3.21-11.586 3.777-1.299.569-7.227 2.33-9.993 3.238-2.766.909-8.807 6.19-9.88 8.121C5.746 20.559 1.342 36.859.1 42.821c-1.242 5.962 9.484 7.439 12.927 6.303 3.445-1.135 10.448-1.752 11.236-3.858.862-2.298 1.822-4.207 3.936-5.833 2.114-1.625 3.233-1.375 3.233-3.377 0-2-1.544-3.897-.798-4.397.746-.5 9.627-3.859 12.114-7.611s3.855-14.51 4.601-15.886c.746-1.376 2.427-1.325 2.937-1.787.51-.46 1.427-3.433 1.427-4.355 0-.923-1.529 1.588-2.497 1.793-.498.106-.591-.534-.62-1.172-.028-.605.002-1.21-.195-1.185-.407.05-1.682 1.691-1.682 2.1 0 .411 0 1.487-.254 1.795-.255.307-8.95 7.656-9.863 7.84-.915.184 3.142-5.44 3.255-6.348.113-.909.678-1.363.395-2.271-.282-.909-.734-1.59-.79-2.216-.056-.624-.056-1.305-.056-2.044 0-.217-.099-.312-.239-.312-.334 0-.907.54-.947 1.22z" id="as"/>
        <path d="M8.91 1.22c-.056.966.395 1.762.057 2.273-.246.371-5.579 1.9-8.967 2.926l4.55 5.95 1.253 9.801 4.486 4.798c1.327-.912 2.474-1.901 3.15-2.92 2.486-3.752 3.855-14.51 4.6-15.886.747-1.376 2.428-1.325 2.938-1.787.509-.46 1.426-3.433 1.426-4.355 0-.923-1.528 1.588-2.497 1.793-.497.106-.59-.534-.62-1.172-.028-.605.003-1.21-.194-1.185-.408.05-1.682 1.691-1.682 2.1 0 .411 0 1.487-.254 1.795-.255.307-8.95 7.656-9.864 7.84-.914.184 3.143-5.44 3.255-6.348.114-.909.678-1.363.396-2.271-.282-.909-.734-1.59-.79-2.216-.057-.624-.057-1.305-.057-2.044 0-.217-.098-.312-.238-.312-.335 0-.908.54-.947 1.22" id="au"/>
        <path d="M8.91 1.22c-.056.966.395 1.762.057 2.273-.246.371-5.579 1.9-8.967 2.926l4.55 5.95 1.253 9.801 4.486 4.798c1.327-.912 2.474-1.901 3.15-2.92 2.486-3.752 3.855-14.51 4.6-15.886.747-1.376 2.428-1.325 2.938-1.787.509-.46 1.426-3.433 1.426-4.355 0-.923-1.528 1.588-2.497 1.793-.497.106-.59-.534-.62-1.172-.028-.605.003-1.21-.194-1.185-.408.05-1.682 1.691-1.682 2.1 0 .411 0 1.487-.254 1.795-.255.307-8.95 7.656-9.864 7.84-.914.184 3.143-5.44 3.255-6.348.114-.909.678-1.363.396-2.271-.282-.909-.734-1.59-.79-2.216-.057-.624-.057-1.305-.057-2.044 0-.217-.098-.312-.238-.312-.335 0-.908.54-.947 1.22" id="aw"/>
        <path d="M38.22 1.22c-.057.966.395 1.762.056 2.273-.338.51-10.288 3.21-11.586 3.777-1.299.569-7.227 2.33-9.993 3.238-2.766.909-8.807 6.19-9.88 8.121C5.746 20.559 1.342 36.859.1 42.821c-1.242 5.962 9.484 7.439 12.927 6.303 3.445-1.135 10.448-1.752 11.236-3.858.862-2.298 1.822-4.207 3.936-5.833 2.114-1.625 3.233-1.375 3.233-3.377 0-2-1.544-3.897-.798-4.397.746-.5 9.627-3.859 12.114-7.611s3.855-14.51 4.601-15.886c.746-1.376 2.427-1.325 2.937-1.787.51-.46 1.427-3.433 1.427-4.355 0-.923-1.529 1.588-2.497 1.793-.498.106-.591-.534-.62-1.172-.028-.605.002-1.21-.195-1.185-.407.05-1.682 1.691-1.682 2.1 0 .411 0 1.487-.254 1.795-.255.307-8.95 7.656-9.863 7.84-.915.184 3.142-5.44 3.255-6.348.113-.909.678-1.363.395-2.271-.282-.909-.734-1.59-.79-2.216-.056-.624-.056-1.305-.056-2.044 0-.217-.099-.312-.239-.312-.334 0-.907.54-.947 1.22z" id="ay"/>
        <path d="M4.456 2.407C1.771 7.98.105 16.254.006 23.91c-.101 7.657 1.242 12.146 1.872 12.482.63.337 1.79.501 1.863-.184.073-.685-.007-2.34.574-2.285.583.055 1.424 3.108 3.059 3.368 1.635.26 8.507 1.394 8.314.268-.194-1.125-4.008-4.603-4.4-6.44-.392-1.837-.057-3.267.698-5.463 1.505-4.375 5.54-13.04 7.51-18.358C20.86 3.607 14.382 0 9.391 0 7.19 0 5.278.702 4.456 2.407z" id="aA"/>
        <path d="M.003 6.194c.07 2.1 3.41 10.22 3.967 12.11.556 1.89 2.018 6.861 4.871 6.651 1.326-.097-.278-2.17-.974-4.34s-2.714-7.7-2.227-8.68c.207-.417.59-.328.963-.237.503.121.985.243.985-.884 0-1.96-4.245-8.54-5.358-10.43C2.073.118 1.915 0 1.76 0 .808 0-.058 4.39.002 6.194" id="aC"/>
    </defs>
    <g fill="none" fill-rule="evenodd">
        <path d="M152.233 229.724c-35.91 7.24-141.898 4.657-151.56-18.426-9.663-23.083 87.56-28.55 112.319-34.625 24.759-6.074 170.895 10.935 157.61 14.58-13.285 3.644-102.156 35.203-118.369 38.471M288.239 211.235c8.395-3.619 35.08-4.916 47.27-3.04 11.369 1.749 22.103 8.431 34.609 7.832 12.505-.599 36.324 1.198 44.959 13.178 8.634 11.98-28.881 19.168-43.173 20.366-14.292 1.198-53.594-8.685-69.671-14.975-16.078-6.29-26.499-17.97-13.994-23.36M497.855 295c-12.19-2.044-46.393-26.91-43.683-38.15 2.708-11.242 44.36 4.768 44.36 4.768L497.855 295zM265.035 197.641c7.831-.357 21.085-.427 20.663 6.797-.422 7.222-19.853 12.109-26.611 12.32-6.758.214-21.603.092-21.64-4.157-.072-8.152 18.295-14.535 27.588-14.96" fill="#D5DFE8"/>
        <path d="M161.657 176.229c-9.814 2.221-84.156 15.795-87.837 15.302-3.68-.494 19.86-156.851 20.213-161.863.117-1.647 11.922 1.79 15.837 3.58 3.915 1.79 51.787 142.98 51.787 142.98" fill="#AEB7C9"/>
        <path d="M161.657 176.229c-9.814 2.221-84.156 15.795-87.837 15.302-3.68-.494 19.86-156.851 20.213-161.863.117-1.647 11.922 1.79 15.837 3.58 3.915 1.79 51.787 142.98 51.787 142.98z" stroke="#7F879A" stroke-width=".6" stroke-linecap="round" stroke-linejoin="round"/>
        <path d="M146.681 229.089c-2.55-10.392-40.61-196.351-41.15-201.778-.338-3.409 130.976 32.123 134.365 32.805 3.389.682 32.708 128.458 30.675 130.504-2.033 2.045-36.475 13.266-53.992 19.278-17.517 6.012-68.698 24.078-69.898 19.19" fill="#FFF"/>
        <path d="M146.681 229.089c-2.55-10.392-40.61-196.351-41.15-201.778-.338-3.409 130.976 32.123 134.365 32.805 3.389.682 32.708 128.458 30.675 130.504-2.033 2.045-36.475 13.266-53.992 19.278-17.517 6.012-68.698 24.078-69.898 19.19z" stroke="#7F879A" stroke-width=".6" stroke-linecap="round" stroke-linejoin="round"/>
        <path d="M224.033 61.76s9.876-4.968 8.53-19.87c-1.347-14.903-10.55-21.677-20.876-19.87-10.326 1.806-16.611 11.29-15.937 20.321.673 9.032 3.815 18.741 8.978 18.29 5.163-.452 9.877-11.968 6.734-25.064-3.142-13.096-4.938-22.128-16.386-25.289-11.448-3.162-19.305 7-21.324 9.483-2.021 2.484-5.163 11.516-5.163 15.354 0 3.839 1.122 18.29 6.734 20.322 5.611 2.033 12.57-11.29 6.51-29.805C175.77 7.116 168.14 8.697 161.854 9.149c-6.285.451-16.161 10.838-17.508 17.613-1.347 6.773 2.02 16.708 4.938 19.87 2.918 3.16 4.49 4.064 5.387 1.58.898-2.484 3.368-10.838 1.347-21-2.02-10.16-6.285-20.321-14.366-23.708-8.08-3.387-17.733-5.42-23.12 8.128-5.388 13.549-3.592 20.323-2.245 24.612 1.347 4.29 6.06 9.936 7.408 7.678 1.346-2.258 3.591-14-.225-26.644-3.816-12.645-9.505-15.739-15.807-15.206-7.627.645-14.911 16.352-10.197 27.416" stroke="#7F879A" stroke-width="1.2" stroke-linecap="round" stroke-linejoin="round"/>
        <path d="M183.752 128.27c3.042.09 8.043 3.584 9.456 9.23 1.414 5.646-.76 12.27-3.26 12.487-2.5.217-7.718.109-10.218-5.212-2.5-5.32-1.956-9.338-1.848-12.487.109-3.149 2.175-4.126 5.87-4.017M156.579 115.024c5.09.696 5.108-5.43 5-10.316-.109-4.886-3.913-11.51-8.26-11.51-4.349 0-6.631 5.213-6.196 10.1.434 4.885 1.521 10.64 9.456 11.726" fill="#FE89B3"/>
        <path d="M238.448 101.302s-85.877-13.679-103.046-17.338" stroke="#7F879A" stroke-width="1.2" stroke-linecap="round" stroke-linejoin="round"/>
        <path d="M132.29 57.912s23.63 130.36 26.452 135.997c0 0 69.48-15.854 92.404-18.32" stroke="#7F879A" stroke-width="1.2" stroke-linecap="round" stroke-linejoin="round"/>
        <path d="M245.856 153.04s-76.533 2.113-94.873 0M244.093 126.616s-34.211.352-99.811-9.16" stroke="#7F879A" stroke-width="1.2" stroke-linecap="round" stroke-linejoin="round"/>
        <path d="M159.447 69.539s18.693 105.697 22.573 112.04M188.015 71.653s14.248 103.024 17.282 111.334M208.118 72.005s16.224 73.283 19.398 107.107" stroke="#7F879A" stroke-width="1.2" stroke-linecap="round" stroke-linejoin="round"/>
        <path d="M496.313 145.978c-5.109-2.088-28.729-10.958-35.422-11.49-6.693-.532-28.169 4.876-32.47 5.81-4.301.933-9.354 2.248-9.69 1.57-.339-.68.504-.845.166-1.947-.337-1.103-1.004-2.706-1.323-2.385-.32.32.279 1.284 0 1.724-.28.441-2.592-2.005-3.15-2.165-.558-.16.439 1.604.957 2.126.519.521-2.063-1.733-2.79-1.925-.758-.201 1.155 2.245 1.594 2.486.439.24-1.515-1.284-2.232-1.564-.718-.281.637 1.724 1.395 2.165.757.441-1.475-.883-2.193-1.123-.717-.24 2.711 3.73 3.509 4.131.797.401 1.156.424 2.312 1.154s4.69 3.512 12.055 7.46c7.366 3.95 10.311 3.922 13.05 4.872 2.739.95 3.116 3.61 2.36 4.749-.754 1.14-3.965 2.66-7.743.475-3.777-2.184-5.4-4.107-10.972-6.957-5.572-2.85-13.16-6.346-14.165-6.662-1.004-.316-.816-1.074-1.664-1.895-.847-.82-2.888-2.81-3.579-3.063-.69-.253.283 1.61.597 1.99.314.378-1.413-1.832-2.166-2.18-.754-.347.784 2.527 1.067 3.032.283.505-2.198-2.779-2.7-3.063-.502-.284.973 3.063 1.288 3.662.314.601-1.915-2.399-2.198-2.494-.282-.095 1.256 3.537 1.57 3.979.313.442-1.473-.56-2.135-.347-.69.22 2.229 2.179 2.982 2.368.754.19 2.706.008 3.233.158 1.225.348 8.845 20.951 16.386 26.694 7.54 5.743 21.544 8.235 24.452 11.486 2.909 3.25 4.093 5.743 10.233 6.826 6.14 1.084 11.527 4.443 16.05 9.103 4.525 4.659 17.951 18.397 22.56 19.324 4.608.928 5.02-75.532-1.224-78.084" fill="#A10244"/>
        <g transform="matrix(-1 0 0 1 501 134.451)">
            <mask id="b" fill="#fff">
                <use xlink:href="#a"/>
            </mask>
            <path d="M-24.547-42.319c.474 7.721 1.446 25.835 2.773 33.903 1.327 8.068 2.75 23.125 2.697 29.003-.054 5.878 3.93 30.272 5.876 37.708 1.947 7.436 2.393 34.758 4.3 44.024 1.908 9.266 5.856 29.972 5.366 34.775-.49 4.802 6.241 10.582 5.328 4.119-.912-6.463-2.405-17.602-2.956-23.742-.55-6.14-2.253-9.305-3.557-21.157-1.305-11.852-1.937-24.716-3.128-32.722-1.19-8.007-3.483-23.036-5.343-36.687-1.861-13.65-3.094-31.756-4.275-40.377-1.182-8.621-3.249-24.028-3.804-30.946-.556-6.919-3.965-9.128-3.277 2.1" fill="#FFCFDF" mask="url(#b)"/>
        </g>
        <g transform="matrix(-1 0 0 1 501 134.451)">
            <mask id="d" fill="#fff">
                <use xlink:href="#c"/>
            </mask>
            <path d="M6.643 139.588c-1.27-9.622-3.312-23.847-4.25-33.9-.939-10.054-3.774-26.53-4.586-35.425-.811-8.896-1.902-24.013-3.606-36.322-1.705-12.309-4.519-31.915-5.855-42.704-1.336-10.788-2.874-33.06-4.288-41.542-1.413-8.481 2.396-8.35 3.332-2.166.936 6.184 4.277 36.674 5.946 47.423 1.67 10.75 6.605 43.936 6.67 52.916.064 8.98 3.621 26.403 5.103 36.392 1.483 9.99 4.206 31.162 4.529 39.14.322 7.981 2.635 18.723 1.58 20.572-1.057 1.849-3.1 6.775-4.575-4.384" fill="#FFCFDF" mask="url(#d)"/>
        </g>
        <g transform="matrix(-1 0 0 1 501 134.451)">
            <mask id="f" fill="#fff">
                <use xlink:href="#e"/>
            </mask>
            <path d="M53.844-41.684c.1 6.215.197 20.79 1.136 27.321.939 6.53 1.636 18.672 1.297 23.386-.339 4.715 2.473 24.458 4.063 30.508 1.591 6.049.714 27.99 2.177 35.507 1.462 7.516 4.417 24.299 3.693 28.13-.724 3.833 5.745 8.759 5.142 3.534-.601-5.224-1.557-14.226-1.812-19.176-.254-4.95-1.808-7.562-2.54-17.127-.734-9.565-.743-19.915-1.55-26.39-.805-6.474-2.374-18.632-3.578-29.664-1.203-11.033-1.561-25.613-2.328-32.58-.767-6.968-2.092-19.418-2.313-24.993-.222-5.575-3.533-7.494-3.387 1.544" fill="#FFCFDF" mask="url(#f)"/>
        </g>
        <g transform="matrix(-1 0 0 1 501 134.451)">
            <mask id="h" fill="#fff">
                <use xlink:href="#g"/>
            </mask>
            <path d="M76.295 105.607c-.808-7.776-2.165-19.277-2.618-27.383-.454-8.107-2.497-21.448-2.88-28.62-.382-7.172-.742-19.348-1.854-29.298-1.112-9.949-2.983-25.8-3.8-34.513-.815-8.714-1.277-26.65-2.284-33.516-1.006-6.866 2.808-6.597 3.446-1.595.639 5.002 2.51 29.608 3.662 38.304 1.153 8.697 4.492 35.535 4.121 42.744-.371 7.209 2.35 21.34 3.353 29.417 1.001 8.08 2.705 25.183 2.641 31.6-.063 6.417 1.735 15.135.586 16.572-1.148 1.44-3.437 5.304-4.373-3.712" fill="#FFCFDF" mask="url(#h)"/>
        </g>
        <g transform="matrix(-1 0 0 1 501 134.451)">
            <mask id="j" fill="#fff">
                <use xlink:href="#i"/>
            </mask>
            <path d="M15.54 138.539c-1.13-7.135-1.77-17.384-2.546-31.357-.775-13.973-6.01-58.568-7.325-67.818-1.313-9.25-5.681-29.13-5.814-35.843-.133-6.712-1.13-23.597-3.415-33.053-2.285-9.457-2.27-25.963-2.021-29.132.249-3.17 4.975.659 6.31 11.94 1.334 11.28 5.826 42.941 6.158 49.42C7.22 9.174 9.28 29.753 11.7 39.733c2.512 10.366 4.432 41.825 5.686 52.24 1.255 10.417 1.093 20.737 1.612 26.196.52 5.457 1.518 17.35 1.661 21.078.143 3.729-3.236 11.186-5.119-.708" fill="#FFCFDF" mask="url(#j)"/>
        </g>
        <g transform="matrix(-1 0 0 1 501 134.451)">
            <mask id="l" fill="#fff">
                <use xlink:href="#k"/>
            </mask>
            <path d="M55.076 97.892c-.85-5.145-1.173-12.558-1.523-22.667-.35-10.108-3.993-42.308-4.957-48.982C47.632 19.57 44.7 5.41 44.75.55c.05-4.862-.98-17.226-2.828-24.027-1.847-6.8-1.408-18.763-1.1-21.066.31-2.303 4.535.365 5.465 8.51.932 8.146 4.227 30.988 4.364 35.675.137 4.688 1.494 19.555 3.45 26.733 2.032 7.455 2.98 30.21 3.86 37.73.88 7.52.465 15.003.8 18.947.335 3.944.943 12.54.978 15.238.035 2.699-3.248 8.18-4.664-.397" fill="#FFCFDF" mask="url(#l)"/>
        </g>
        <g transform="matrix(-1 0 0 1 501 134.451)">
            <mask id="n" fill="#fff">
                <use xlink:href="#m"/>
            </mask>
            <path d="M28.884 140.92c-1.717-7.56-5.626-35.162-6.139-49.044-.513-13.882-3.831-40.395-5.767-54.57C15.043 23.13 10.59-9.77 10.441-15.515c-.15-5.746-1.963-22.798-3.118-30.742-1.155-7.944 5.996-8.581 6.821-.801.826 7.78 1.996 34.543 2.834 43.623.77 8.337 5.747 45.5 7.06 55.982 1.312 10.482 4.035 49.35 4.786 55.792.75 6.444 4.254 24.54 3.724 29.755-.53 5.215-1.946 10.384-3.664 2.825" fill="#FFCFDF" mask="url(#n)"/>
        </g>
        <g transform="matrix(-1 0 0 1 501 134.451)">
            <mask id="p" fill="#fff">
                <use xlink:href="#o"/>
            </mask>
            <path d="M36.178 123.207C35.077 109.8 30.026 63.74 29.33 49.024c-.697-14.717-5.078-45.583-5.99-55.776-.912-10.193-4.538-38.12-3.86-41.508.678-3.388 3.214-3.958 5.2 14.038C26.668-16.225 28.574.6 29.61 10.483c1.036 9.884 6.524 54.604 7.365 65.848.842 11.242 3.622 42.153 4.454 49.094.833 6.942-4.148 11.188-5.25-2.218" fill="#FFCFDF" mask="url(#p)"/>
        </g>
        <g transform="matrix(-1 0 0 1 501 134.451)">
            <mask id="r" fill="#fff">
                <use xlink:href="#q"/>
            </mask>
            <path d="M41.698 76.493c-.893-13.105-3.322-42.404-4.65-51.066-1.328-8.661-5.223-40.572-5.343-49.32-.12-8.748-1.428-21.767.44-20.527 1.869 1.24 2.904.817 3.778 15.256.874 14.44 8.898 64.741 9.677 78.353.778 13.614 3.51 51.048 3.357 54.526-.152 3.477-1.56 8.216-3.405.4-1.846-7.817-3.059-15.945-3.854-27.622" fill="#FFCFDF" mask="url(#r)"/>
        </g>
        <g transform="matrix(-1 0 0 1 501 134.451)">
            <mask id="t" fill="#fff">
                <use xlink:href="#s"/>
            </mask>
            <path d="M79.57-7.414c.893 13.104 3.321 42.404 4.65 51.065 1.328 8.662 5.223 40.573 5.343 49.32.12 8.749 1.429 21.768-.44 20.527-1.869-1.24-2.904-.816-3.778-15.256-.875-14.439-7.512-64.742-8.29-78.355-.779-13.613-4.896-51.045-4.744-54.523.152-3.478 1.56-8.216 3.405-.4 1.846 7.817 3.059 15.945 3.854 27.622" fill="#FFCFDF" mask="url(#t)"/>
        </g>
        <g transform="matrix(-1 0 0 1 501 134.451)">
            <mask id="v" fill="#fff">
                <use xlink:href="#u"/>
            </mask>
            <path d="M68.378 3.25s4.207 3.542 4.035 8.293c-.165 4.578-2.878 8.508-2.878 8.508l3.731-.094s6.435-.263 9.327 3.433c2.891 3.697 2.891 9.608 2.891 9.608l14.642-.469.116-32.871L68.378 3.25z" fill="#FFF" mask="url(#v)"/>
        </g>
        <g transform="matrix(-1 0 0 1 430.758 137.084)">
            <mask id="x" fill="#fff">
                <use xlink:href="#w"/>
            </mask>
            <path d="M.346 5.462s13.055 2.055 14.402 1.45c1.346-.606 1.465-1.829.619-2.302-.847-.473-2.198-1.525-2.183-2.434.015-.91 5.898-4.809 5.898-4.809l12.366 5.73-3.056 7.142-1.975.946s-2.116-.426-3.104-.851c-.987-.426-1.379-1.047-2.453-.831-1.073.216-16.639 5.854-17.697 6.85-1.059.994 3.88 3.394 5.197 2.684 1.316-.71 11.991-6.102 13.073-6.102 1.081 0 .654.56 2.351.545 1.698-.015-6.976 17.588-8.982 17.571-2.006-.015-15.612.284-15.612-.614C-.81 29.538.346 5.462.346 5.462" fill="#FFCFDF" mask="url(#x)"/>
        </g>
        <g transform="matrix(-1 0 0 1 501 134.451)">
            <mask id="z" fill="#fff">
                <use xlink:href="#y"/>
            </mask>
            <path d="M68.378 3.25s4.207 3.542 4.035 8.293c-.165 4.578-2.878 8.508-2.878 8.508l3.731-.094s6.435-.263 9.327 3.433c2.891 3.697 2.891 9.608 2.891 9.608l14.642-.469.116-32.871L68.378 3.25z" stroke="#242E3E" stroke-width=".6" mask="url(#z)"/>
        </g>
        <g>
            <path d="M496.313 145.978c-5.109-2.088-28.729-10.958-35.422-11.49-6.693-.532-28.169 4.876-32.47 5.81-4.301.933-9.354 2.248-9.69 1.57-.339-.68.504-.845.166-1.947-.337-1.103-1.004-2.706-1.323-2.385-.32.32.279 1.284 0 1.724-.28.441-2.592-2.005-3.15-2.165-.558-.16.439 1.604.957 2.126.519.521-2.063-1.733-2.79-1.925-.758-.201 1.155 2.245 1.594 2.486.439.24-1.515-1.284-2.232-1.564-.718-.281.637 1.724 1.395 2.165.757.441-1.475-.883-2.193-1.123-.717-.24 2.711 3.73 3.509 4.131.797.401 1.156.424 2.312 1.154s4.69 3.512 12.055 7.46c7.366 3.95 10.311 3.922 13.05 4.872 2.739.95 3.116 3.61 2.36 4.749-.754 1.14-3.965 2.66-7.743.475-3.777-2.184-5.4-4.107-10.972-6.957-5.572-2.85-13.16-6.346-14.165-6.662-1.004-.316-.816-1.074-1.664-1.895-.847-.82-2.888-2.81-3.579-3.063-.69-.253.283 1.61.597 1.99.314.378-1.413-1.832-2.166-2.18-.754-.347.784 2.527 1.067 3.032.283.505-2.198-2.779-2.7-3.063-.502-.284.973 3.063 1.288 3.662.314.601-1.915-2.399-2.198-2.494-.282-.095 1.256 3.537 1.57 3.979.313.442-1.473-.56-2.135-.347-.69.22 2.229 2.179 2.982 2.368.754.19 2.706.008 3.233.158 1.225.348 8.845 20.951 16.386 26.694 7.54 5.743 21.544 8.235 24.452 11.486 2.909 3.25 4.093 5.743 10.233 6.826 6.14 1.084 11.527 4.443 16.05 9.103 4.525 4.659 17.951 18.397 22.56 19.324 4.608.928 5.02-75.532-1.224-78.084z" stroke="#242E3E" stroke-width=".6"/>
            <path d="M446.01 157.4c.444-1.638 1.79-4.443.836-6.664-.955-2.222-3.044-5.883-4.298-6.425-1.253-.54-5.79-.6-5.849-1.8-.06-1.201 2.745-5.884 2.805-6.785.06-.9-.656-1.381-.775-2.16-.12-.782 1.489-.357 3.04-1.678 1.552-1.321 2.97-7.1 3.736-7.422 1.85-.781 9.219 4.356 10.055 6.277.835 1.921.358 7.625-.359 8.586-.716.96-5.013 2.616-5.013 3.422 0 .805.358 3.962 1.194 6.604.835 2.641-.597 4.443-1.85 5.944-1.254 1.5-3.88 3.422-3.522 2.101" fill="#FFF"/>
        </g>
        <g transform="matrix(-1 0 0 1 456.002 124.386)">
            <mask id="B" fill="#fff">
                <use xlink:href="#A"/>
            </mask>
            <path d="M10.424 6.006C11.44 8.674 17.2 17.64 17.19 19.203c-.009 1.563-7.11 5.232-10.72 11.71-1.897 3.403-3.428-11.578-3.428-15.425 0-3.847 7.38-9.482 7.38-9.482" fill="#FFCFDF" mask="url(#B)"/>
        </g>
        <g>
            <path d="M446.01 157.4c.444-1.638 1.79-4.443.836-6.664-.955-2.222-3.044-5.883-4.298-6.425-1.253-.54-5.79-.6-5.849-1.8-.06-1.201 2.745-5.884 2.805-6.785.06-.9-.656-1.381-.775-2.16-.12-.782 1.489-.357 3.04-1.678 1.552-1.321 2.97-7.1 3.736-7.422 1.85-.781 9.219 4.356 10.055 6.277.835 1.921.358 7.625-.359 8.586-.716.96-5.013 2.616-5.013 3.422 0 .805.358 3.962 1.194 6.604.835 2.641-.597 4.443-1.85 5.944-1.254 1.5-3.88 3.422-3.522 2.101z" stroke="#242E3E" stroke-width=".6"/>
            <path d="M460.408 149.618c-5.15 2.11-13.776-4.717-16.023-6.388-2.247-1.67 1.368-11.891 0-13.464-1.367-1.572-5.178-2.719-5.178-3.816 0-1.098 2.736-7.977 5.57-8.567 2.833-.59 6.154 4.521 7.424 4.226 1.27-.295 1.839-.688 3.802.983 1.963 1.67 13.98 15.233 13.98 17.592 0 2.358 0 3.538-2.052 5.307-2.052 1.768-4.885 3.046-7.523 4.127" fill="#FE89B3"/>
            <path d="M460.408 149.618c-5.15 2.11-13.776-4.717-16.023-6.388-2.247-1.67 1.368-11.891 0-13.464-1.367-1.572-5.178-2.719-5.178-3.816 0-1.098 2.736-7.977 5.57-8.567 2.833-.59 6.154 4.521 7.424 4.226 1.27-.295 1.839-.688 3.802.983 1.963 1.67 13.98 15.233 13.98 17.592 0 2.358 0 3.538-2.052 5.307-2.052 1.768-4.885 3.046-7.523 4.127z" stroke="#242E3E" stroke-width=".6"/>
            <path d="M318.544 203.18c-.924 2.583-10.67 7.764-11.124 8.905-.454 1.143-.113 2.855-2.27 3.083-2.157.229-9.421 2.74-11.237 2.056-1.816-.686-1.681-2.556-.731-2.73.949-.173 3.624-1.389 4.4-2.083.777-.695 4.832-9.375 5.868-11.024 1.035-1.65 16.035-.842 15.094 1.793M358.614 214.238c.27 3.332-.435 18.713-.302 19.65.132.935 4.618 1.753 5.416 3.358.797 1.605-.654 2.775-2.614 2.556-1.96-.22-12.124.073-13.14-2.849-1.017-2.92-1.858-11.98-4.666-17.489-4.02-7.884 15.096-7.826 15.306-5.226" fill="#242E3D"/>
            <path d="M390.77 135.624c-2.547-.227-4.514.184-6.741-.453-3.297-.941-5.908-4.855-4.838-4.47 3.58 1.29 15.398-.072 16.254.61.856.681 2.425 2.977 3.959 4.09 1.533 1.111 2.78.645 2.132.394-.649-.251-1.99-2.655-.778-1.686 1.213.968 3.072.596 2.11-.121-.964-.718-1.575-1.996-.433-1.207 1.141.79 2.71.646 1.818.108-.891-.538-2.175-2.224-.605-1.542 1.568.681 2.46.322 1.497-.252-.963-.574-2.889-2.905-2.853-3.228.036-.323 2.497-1.184 1.498-1.327-.999-.144-4.244.07-5.457-.108-1.212-.18-6.748-10.593-11.628-13.717-4.88-3.124-22.004-6.337-22.598-6.635-.593-.299-.2-3.307-.2-3.307s1.09.172 2.03.172c.94 0 2.127-1.84 2.473-2.239.346-.398.841.547 1.286.2.446-.349-.18-2.023-.004-3.172.175-1.148 2.895-5.21 2.807-6.535-.087-1.325-.73-.866-.73-3.267 0-2.4.315-.976-8.283-4.819-8.598-3.844-7.652-1.296-8.607-.735-.956.56-.206 2.202 1.306 5.565.528 1.173-1.623 3.002-.99 3.817 1.185 1.524 4.324 1.068 3.65 2.06-1.035 1.52-.205 2.792.272 4.313.478 1.522-2.312 5.998-3.854 6.884-1.542.887-8.265 2.161-12.38 4.478-4.113 2.318-15.466 23.834-18.757 26.648-3.29 2.814-12.34 29.461-12.834 30.951-.494 1.49-2.468 19.2-3.126 22.179-.658 2.98-3.126 9.268-5.265 12.413-2.14 3.145-1.382 3.519.592 5.174 1.974 1.655 14.315 1.82 15.467 1.49 1.152-.331 4.015-7.16 5.825-9.312 1.81-2.151-.33-5.793 0-7.117.328-1.324 6.416-13.075 8.226-11.343 1.81 1.732 6.91 19.453 7.57 21.44.657 1.985-.988 3.31-.988 5.955s4.264 15.558 7.113 15.778c2.848.22 14.68 1.322 16.215 0 1.534-1.322-2.292-26.58-2.292-30.988 0-4.408-4.82-31.74-5.057-34.921-.237-3.18 3.593-9.865 4.903-9.935 1.31-.069 8.793-.582 11.517-.872 2.725-.29 8.627-4.277 10.443-5.335 1.817-1.06 2.276-1.904 3.184-.949.908.955 3.934 3.369 5.564 3.765.767.186.524-.414-.187-1.583-.712-1.168 2.172.15 4.457-.338 2.285-.49-1.161-1.056-1.836-1.394-.674-.34 1.573.187 3.222-.302 1.648-.49-.974-.905-2.098-1.206-1.124-.302 1.573-.263 2.884-.716 1.311-.452-1.236-.716-2.247-1.13-1.011-.414 1.049.037 2.585-.528 1.535-.565-4.901-1.492-7.192-1.695" fill="#242E3E"/>
        </g>
        <g transform="matrix(-1 0 0 1 405.544 81.031)">
            <mask id="D" fill="#fff">
                <use xlink:href="#C"/>
            </mask>
            <path fill="#FE89B3" mask="url(#D)" d="m22.644 145.292 13.139-79.42 81.423 2.114.529 82.819-42.34-2.769z"/>
        </g>
        <g>
            <g transform="matrix(-1 0 0 1 369.816 146.903)">
                <mask id="F" fill="#fff">
                    <use xlink:href="#E"/>
                </mask>
                <path stroke="#A10244" stroke-width=".6" mask="url(#F)" d="M95.617 79.632-28.41 65.51"/>
            </g>
            <g transform="matrix(-1 0 0 1 369.816 146.903)">
                <mask id="H" fill="#fff">
                    <use xlink:href="#G"/>
                </mask>
                <path stroke="#A10244" stroke-width=".6" mask="url(#H)" d="M96.874 69.102-27.153 54.98"/>
            </g>
            <g transform="matrix(-1 0 0 1 369.816 146.903)">
                <mask id="J" fill="#fff">
                    <use xlink:href="#I"/>
                </mask>
                <path stroke="#A10244" stroke-width=".6" mask="url(#J)" d="M98.131 58.572-25.896 44.449"/>
            </g>
            <g transform="matrix(-1 0 0 1 369.816 146.903)">
                <mask id="L" fill="#fff">
                    <use xlink:href="#K"/>
                </mask>
                <path stroke="#A10244" stroke-width=".6" mask="url(#L)" d="M99.388 48.042-24.639 33.919"/>
            </g>
            <g transform="matrix(-1 0 0 1 369.816 146.903)">
                <mask id="N" fill="#fff">
                    <use xlink:href="#M"/>
                </mask>
                <path stroke="#A10244" stroke-width=".6" mask="url(#N)" d="M100.645 37.511-23.382 23.389"/>
            </g>
            <g transform="matrix(-1 0 0 1 369.816 146.903)">
                <mask id="P" fill="#fff">
                    <use xlink:href="#O"/>
                </mask>
                <path stroke="#A10244" stroke-width=".6" mask="url(#P)" d="M101.902 26.981-22.125 12.859"/>
            </g>
            <g transform="matrix(-1 0 0 1 369.816 146.903)">
                <mask id="R" fill="#fff">
                    <use xlink:href="#Q"/>
                </mask>
                <path stroke="#A10244" stroke-width=".6" mask="url(#R)" d="M103.159 16.451-20.868 2.329"/>
            </g>
            <g transform="matrix(-1 0 0 1 369.816 146.903)">
                <mask id="T" fill="#fff">
                    <use xlink:href="#S"/>
                </mask>
                <path stroke="#A10244" stroke-width=".6" mask="url(#T)" d="M-18.843 73.268-8.81-7.631"/>
            </g>
            <g transform="matrix(-1 0 0 1 369.816 146.903)">
                <mask id="V" fill="#fff">
                    <use xlink:href="#U"/>
                </mask>
                <path stroke="#A10244" stroke-width=".6" mask="url(#V)" d="M-7.774 74.464 2.259-6.435"/>
            </g>
            <g transform="matrix(-1 0 0 1 369.816 146.903)">
                <mask id="X" fill="#fff">
                    <use xlink:href="#W"/>
                </mask>
                <path stroke="#A10244" stroke-width=".6" mask="url(#X)" d="m3.296 75.66 10.032-80.9"/>
            </g>
            <g transform="matrix(-1 0 0 1 369.816 146.903)">
                <mask id="Z" fill="#fff">
                    <use xlink:href="#Y"/>
                </mask>
                <path stroke="#A10244" stroke-width=".6" mask="url(#Z)" d="m14.365 76.856 10.033-80.9"/>
            </g>
            <g transform="matrix(-1 0 0 1 369.816 146.903)">
                <mask id="ab" fill="#fff">
                    <use xlink:href="#aa"/>
                </mask>
                <path stroke="#A10244" stroke-width=".6" mask="url(#ab)" d="m25.435 78.052 10.032-80.9"/>
            </g>
            <g transform="matrix(-1 0 0 1 369.816 146.903)">
                <mask id="ad" fill="#fff">
                    <use xlink:href="#ac"/>
                </mask>
                <path stroke="#A10244" stroke-width=".6" mask="url(#ad)" d="M36.504 79.247 46.537-1.652"/>
            </g>
            <g transform="matrix(-1 0 0 1 369.816 146.903)">
                <mask id="af" fill="#fff">
                    <use xlink:href="#ae"/>
                </mask>
                <path stroke="#A10244" stroke-width=".6" mask="url(#af)" d="M47.573 80.443 57.606-.456"/>
            </g>
            <g transform="matrix(-1 0 0 1 369.816 146.903)">
                <mask id="ah" fill="#fff">
                    <use xlink:href="#ag"/>
                </mask>
                <path stroke="#A10244" stroke-width=".6" mask="url(#ah)" d="M58.643 81.639 68.675.74"/>
            </g>
            <g transform="matrix(-1 0 0 1 369.816 146.903)">
                <mask id="aj" fill="#fff">
                    <use xlink:href="#ai"/>
                </mask>
                <path stroke="#A10244" stroke-width=".6" mask="url(#aj)" d="M69.712 82.835 79.745 1.936"/>
            </g>
            <g transform="matrix(-1 0 0 1 369.816 146.903)">
                <mask id="al" fill="#fff">
                    <use xlink:href="#ak"/>
                </mask>
                <path stroke="#A10244" stroke-width=".6" mask="url(#al)" d="M80.782 84.031 90.814 3.132"/>
            </g>
        </g>
        <g>
            <g transform="matrix(-1 0 0 1 405.544 81.031)">
                <mask id="an" fill="#fff">
                    <use xlink:href="#am"/>
                </mask>
                <path d="M45.206 73.6c4.766 3.21 17.03 2.652 28.806 0 11.774-2.653 12.887-4.795 11.594-10.703-1.292-5.909-16.976-35.344-21.687-37.21-3.216-1.275-13.233-4.76-13.638-1.7-.405 3.057-3.258 7.247-7.364 7.725-4.106.479-1.48-6.663-1.48-6.663s-6.076-.877-7.86-.757c-1.785.12-16.776 3.95-17.847 6.942-1.071 2.992 6.067 1.675 8.685 6.223 2.617 4.548 2.672 10.53 1.938 12.212-.734 1.683 6.271-4.725 8.77-6.314 2.498-1.59 5.83 4.514 5.83 12.053 0 7.541-3.332 11.969-5.711 13.525-2.38 1.556 9.964 4.666 9.964 4.666" fill="#A10244" mask="url(#an)"/>
            </g>
            <g transform="matrix(-1 0 0 1 405.544 81.031)">
                <mask id="ap" fill="#fff">
                    <use xlink:href="#ao"/>
                </mask>
                <path d="M45.206 73.6c4.766 3.21 17.03 2.652 28.806 0 11.774-2.653 12.887-4.795 11.594-10.703-1.292-5.909-16.976-35.344-21.687-37.21-3.216-1.275-13.233-4.76-13.638-1.7-.405 3.057-3.258 7.247-7.364 7.725-4.106.479-1.48-6.663-1.48-6.663s-6.076-.877-7.86-.757c-1.785.12-16.776 3.95-17.847 6.942-1.071 2.992 6.067 1.675 8.685 6.223 2.617 4.548 2.672 10.53 1.938 12.212-.734 1.683 6.271-4.725 8.77-6.314 2.498-1.59 5.83 4.514 5.83 12.053 0 7.541-3.332 11.969-5.711 13.525-2.38 1.556 9.964 4.666 9.964 4.666z" stroke="#242E3E" stroke-width=".6" mask="url(#ap)"/>
            </g>
        </g>
        <g>
            <path d="M390.77 135.624c-2.547-.227-4.514.184-6.741-.453-3.297-.941-5.908-4.855-4.838-4.47 3.58 1.29 15.398-.072 16.254.61.856.681 2.425 2.977 3.959 4.09 1.533 1.111 2.78.645 2.132.394-.649-.251-1.99-2.655-.778-1.686 1.213.968 3.072.596 2.11-.121-.964-.718-1.575-1.996-.433-1.207 1.141.79 2.71.646 1.818.108-.891-.538-2.175-2.224-.605-1.542 1.568.681 2.46.322 1.497-.252-.963-.574-2.889-2.905-2.853-3.228.036-.323 2.497-1.184 1.498-1.327-.999-.144-4.244.07-5.457-.108-1.212-.18-6.748-10.593-11.628-13.717-4.88-3.124-22.004-6.337-22.598-6.635-.593-.299-.2-3.307-.2-3.307s1.09.172 2.03.172c.94 0 2.127-1.84 2.473-2.239.346-.398.841.547 1.286.2.446-.349-.18-2.023-.004-3.172.175-1.148 2.895-5.21 2.807-6.535-.087-1.325-.73-.866-.73-3.267 0-2.4.315-.976-8.283-4.819-8.598-3.844-7.652-1.296-8.607-.735-.956.56-.206 2.202 1.306 5.565.528 1.173-1.623 3.002-.99 3.817 1.185 1.524 4.324 1.068 3.65 2.06-1.035 1.52-.205 2.792.272 4.313.478 1.522-2.312 5.998-3.854 6.884-1.542.887-8.265 2.161-12.38 4.478-4.113 2.318-15.466 23.834-18.757 26.648-3.29 2.814-12.34 29.461-12.834 30.951-.494 1.49-2.468 19.2-3.126 22.179-.658 2.98-3.126 9.268-5.265 12.413-2.14 3.145-1.382 3.519.592 5.174 1.974 1.655 14.315 1.82 15.467 1.49 1.152-.331 4.015-7.16 5.825-9.312 1.81-2.151-.33-5.793 0-7.117.328-1.324 6.416-13.075 8.226-11.343 1.81 1.732 6.91 19.453 7.57 21.44.657 1.985-.988 3.31-.988 5.955s4.264 15.558 7.113 15.778c2.848.22 14.68 1.322 16.215 0 1.534-1.322-2.292-26.58-2.292-30.988 0-4.408-4.82-31.74-5.057-34.921-.237-3.18 3.593-9.865 4.903-9.935 1.31-.069 8.793-.582 11.517-.872 2.725-.29 8.627-4.277 10.443-5.335 1.817-1.06 2.276-1.904 3.184-.949.908.955 3.934 3.369 5.564 3.765.767.186.524-.414-.187-1.583-.712-1.168 2.172.15 4.457-.338 2.285-.49-1.161-1.056-1.836-1.394-.674-.34 1.573.187 3.222-.302 1.648-.49-.974-.905-2.098-1.206-1.124-.302 1.573-.263 2.884-.716 1.311-.452-1.236-.716-2.247-1.13-1.011-.414 1.049.037 2.585-.528 1.535-.565-4.901-1.492-7.192-1.695z" stroke="#242E3E" stroke-width=".6"/>
            <path d="M358.561 95.506c0 1.7-6.635-2.17-6.65-4.221-.007-1.068 2.973-.692 2.201-3.163-.772-2.47-4.978-4.48-3.199-7.58 1.538-2.678 13.26.99 17.541 2.965 4.28 1.976 6.456 3.246 6.315 5.505-.14 2.26-1.614 3.035-2.596 2.894-.982-.141-2.28-1.437-4.945-1.932-1.334-.247-.369 2.677-1.036 3.645-.666.969-2.462 3.758-3.21.263-.158-.733-.842-1.482-2.386-1.27-1.544.211-2.035 1.27-2.035 2.894" fill="#FFF"/>
        </g>
        <g transform="matrix(-1 0 0 1 374.776 79.598)">
            <mask id="ar" fill="#fff">
                <use xlink:href="#aq"/>
            </mask>
            <path d="M3.523 13.47c-.92-1.161-2.71-3.677 0-5.96 2.71-2.282 16.323-6.656 18.15-5.578 1.828 1.078-.695 5.65-1.135 7.294-.44 1.645-.713 3.545 1.03 4.465 1.744.92-6.764 6.563-10.167 6.183-3.404-.38-7.878-6.404-7.878-6.404" fill="#FFCFDF" mask="url(#ar)"/>
        </g>
        <g>
            <path d="M358.561 95.506c0 1.7-6.635-2.17-6.65-4.221-.007-1.068 2.973-.692 2.201-3.163-.772-2.47-4.978-4.48-3.199-7.58 1.538-2.678 13.26.99 17.541 2.965 4.28 1.976 6.456 3.246 6.315 5.505-.14 2.26-1.614 3.035-2.596 2.894-.982-.141-2.28-1.437-4.945-1.932-1.334-.247-.369 2.677-1.036 3.645-.666.969-2.462 3.758-3.21.263-.158-.733-.842-1.482-2.386-1.27-1.544.211-2.035 1.27-2.035 2.894z" stroke="#242E3E" stroke-width=".6"/>
            <path d="M371.896 123.457c-1.41-1.935-6.057-4.787-8.634-4.886-2.578-.1-7.634 12.565-8.626 17.651-.99 5.086-1.586 10.371 0 11.07 1.587.698 8.427 1.894 10.807 1.595 2.38-.299 1.785 0 1.884-3.79.099-3.79-.1-9.274.892-12.465.991-3.192 5.075-7.26 3.677-9.175" fill="#FE89B3"/>
            <path d="M371.896 123.457c-1.41-1.935-6.057-4.787-8.634-4.886-2.578-.1-7.634 12.565-8.626 17.651-.99 5.086-1.586 10.371 0 11.07 1.587.698 8.427 1.894 10.807 1.595 2.38-.299 1.785 0 1.884-3.79.099-3.79-.1-9.274.892-12.465.991-3.192 5.075-7.26 3.677-9.175z" stroke="#242E3E" stroke-width=".6"/>
            <path d="M354.293 105.427c.852-.647 2.949-3.606 3.346-3.108.396.499 4.849 7.376 4.988 8.073.14.699.437 7.181-.555 5.785s-9.091-9.753-7.779-10.75" fill="#FE89B3"/>
            <path d="M354.293 105.427c.852-.647 2.949-3.606 3.346-3.108.396.499 4.849 7.376 4.988 8.073.14.699.437 7.181-.555 5.785s-9.091-9.753-7.779-10.75z" stroke="#242E3E" stroke-width=".6"/>
            <path d="M364.234 104.643s-.127 4.51.01 5.62c.139 1.11.966 3.885 2.07 4.787 1.103.902.29-5.506 0-7.007-.29-1.501-1.662-2.727-2.08-3.4" fill="#FE89B3"/>
            <path d="M364.234 104.643s-.127 4.51.01 5.62c.139 1.11.966 3.885 2.07 4.787 1.103.902.29-5.506 0-7.007-.29-1.501-1.662-2.727-2.08-3.4z" stroke="#242E3E" stroke-width=".6"/>
            <path d="M374.462 127.505c.09-2.376 1.522-9.085 3.158-11.131 1.636-2.047 6.787-5.141 8.796-5.34 2.01-.197 6.443 4.505 6.648 5.34.204.833.409 3.764-.41 2.196-.818-1.568-1.533-1.465-2.658-.745-1.126.72-5.328 5.967-6.142 6.893-.813.926-3.753 6.243-3.243 6.311.51.068 1.637.17 1.637.17s-1.74 1.811-1.934 1.604c-.194-.207-5.852-5.298-5.852-5.298" fill="#FE89B3"/>
            <path d="M374.462 127.505c.09-2.376 1.522-9.085 3.158-11.131 1.636-2.047 6.787-5.141 8.796-5.34 2.01-.197 6.443 4.505 6.648 5.34.204.833.409 3.764-.41 2.196-.818-1.568-1.533-1.465-2.658-.745-1.126.72-5.328 5.967-6.142 6.893-.813.926-3.753 6.243-3.243 6.311.51.068 1.637.17 1.637.17s-1.74 1.811-1.934 1.604c-.194-.207-5.852-5.298-5.852-5.298z" stroke="#242E3E" stroke-width=".6"/>
            <path stroke="#242E3E" stroke-width=".6" stroke-linecap="round" stroke-linejoin="round" d="m369.945 115.522.41 6.402M361.446 119.915s-6.568-2.398-8.605-5.215M353.579 143.04s-14.4-3.329-16.607-6.743c-2.206-3.415-1.782.59-.849 1.96.934 1.37-1.527.174-2.46-.765"/>
            <path d="M357.588 234.072c-.872-.093-3.38-.72-3.38.103 0 .825.205 2.32-.36 2.32-.563 0-6.504-.516-6.555-.362-.051.155.051 2.576 1.382 2.886 1.332.31 12.447 1.339 13.676 1.339 1.23 0 4.2-1.7 2.356-2.833-1.843-1.134-5.685-3.298-7.119-3.453" fill="#FFCFDF"/>
            <path d="M357.588 234.072c-.872-.093-3.38-.72-3.38.103 0 .825.205 2.32-.36 2.32-.563 0-6.504-.516-6.555-.362-.051.155.051 2.576 1.382 2.886 1.332.31 12.447 1.339 13.676 1.339 1.23 0 4.2-1.7 2.356-2.833-1.843-1.134-5.685-3.298-7.119-3.453z" stroke="#242E3E" stroke-width=".6"/>
            <path d="M298.383 210.72c-1.53.854-5.613 2.78-5.916 3.431-.302.651-.389.955-.13 2.085.26 1.129 1.555 1.737 2.548 1.693.993-.043 10.492-2.215 11.787-2.91 1.296-.694.475-2.214.475-2.214s-5.483 1.563-6.649 1.606c-1.166.044.13-.347 0-1.216-.13-.868-1.339-2.91-2.115-2.475" fill="#FFCFDF"/>
            <path d="M298.383 210.72c-1.53.854-5.613 2.78-5.916 3.431-.302.651-.389.955-.13 2.085.26 1.129 1.555 1.737 2.548 1.693.993-.043 10.492-2.215 11.787-2.91 1.296-.694.475-2.214.475-2.214s-5.483 1.563-6.649 1.606c-1.166.044.13-.347 0-1.216-.13-.868-1.339-2.91-2.115-2.475z" stroke="#242E3E" stroke-width=".6"/>
            <path d="M389.727 139.99c-1.052 5.47 4.262 9.126 11.87 8.169 7.61-.959 14.631-6.168 15.683-11.637 1.054-5.468-4.26-9.125-11.87-8.167-7.608.958-14.63 6.167-15.683 11.636" fill="#FD065F"/>
            <path d="M239.195 104.884c2.697-.282 4.23-3.58 4.165-7.245-.065-3.665-2.842-8.122-8.397-8.122-5.554 0-5.356 6.12-4.827 7.983.529 1.862 3.306 7.982 9.06 7.384" fill="#FE89B3"/>
            <path d="M258.502 142.593c-.861-2.298-1.822-4.207-3.935-5.832-2.114-1.626-3.233-1.376-3.233-3.378 0-2.001 1.543-3.897.798-4.398-.747-.5-9.627-3.858-12.115-7.61-2.486-3.753-3.854-14.51-4.6-15.886-.747-1.376-2.428-1.325-2.937-1.787-.51-.46-1.427-3.433-1.427-4.356 0-.922 1.528 1.59 2.496 1.794.968.205.408-2.41.816-2.358.407.051 1.68 1.692 1.68 2.102 0 .41 0 1.487.256 1.793.254.308 8.949 7.657 9.863 7.84.914.185-3.143-5.439-3.256-6.347-.113-.909-.677-1.363-.395-2.272.282-.908.734-1.59.79-2.215.057-.624.057-1.306.057-2.044s1.13-.057 1.185.909c.057.965-.395 1.76-.056 2.272.338.51 10.288 3.21 11.587 3.778 1.298.568 7.226 2.328 9.993 3.236 2.766.91 8.806 6.19 9.88 8.122 1.071 1.93 5.475 18.229 6.717 24.191 1.242 5.963-9.485 7.44-12.928 6.304-3.444-1.136-10.448-1.752-11.236-3.858" fill="#FD065F"/>
        </g>
        <g transform="matrix(-1 0 0 1 282.765 97.327)">
            <mask id="at" fill="#fff">
                <use xlink:href="#as"/>
            </mask>
            <path fill="#FFF" mask="url(#at)" d="m28.293 5.09 5.567 7.279 1.253 9.801 6.61 7.07 10.37-15.19.278-14.701H31.424z"/>
        </g>
        <g>
            <g transform="matrix(-1 0 0 1 253.456 97.327)">
                <mask id="av" fill="#fff">
                    <use xlink:href="#au"/>
                </mask>
                <path d="M6.321 16.857c1.366-.332 8.384-6.396 9.232-7.58.848-1.185 2.12-3.08 2.732-3.839.612-.758.66-1.8.754-2.51.094-.711 4.333-2.938 4.333-1.659 0 1.279-2.544 9.618-2.967 10.47-.424.854-6.689 15.778-7.866 15.92-1.178.143-6.218-10.802-6.218-10.802" fill="#FFCFDF" mask="url(#av)"/>
            </g>
            <g transform="matrix(-1 0 0 1 253.456 97.327)">
                <mask id="ax" fill="#fff">
                    <use xlink:href="#aw"/>
                </mask>
                <path d="M5.756 13.493c1.084-.805 5.794-5.638 5.935-7.344.141-1.706-.33-4.549-1.177-3.459-.848 1.09-1.225 2.275-2.356 2.749-1.13.473-4.662.947-5.227 1.42-.566.475 2.825 6.634 2.825 6.634" fill="#FFCFDF" mask="url(#ax)"/>
            </g>
        </g>
        <g transform="matrix(-1 0 0 1 282.765 97.327)">
            <mask id="az" fill="#fff">
                <use xlink:href="#ay"/>
            </mask>
            <path stroke="#242E3E" stroke-width=".6" mask="url(#az)" d="m28.293 5.09 5.567 7.279 1.253 9.801 6.61 7.07 10.37-15.19.278-14.701H31.424z"/>
        </g>
        <g>
            <path d="M258.502 142.593c-.861-2.298-1.822-4.207-3.935-5.832-2.114-1.626-3.233-1.376-3.233-3.378 0-2.001 1.543-3.897.798-4.398-.747-.5-9.627-3.858-12.115-7.61-2.486-3.753-3.854-14.51-4.6-15.886-.747-1.376-2.428-1.325-2.937-1.787-.51-.46-1.427-3.433-1.427-4.356 0-.922 1.528 1.59 2.496 1.794.968.205.408-2.41.816-2.358.407.051 1.68 1.692 1.68 2.102 0 .41 0 1.487.256 1.793.254.308 8.949 7.657 9.863 7.84.914.185-3.143-5.439-3.256-6.347-.113-.909-.677-1.363-.395-2.272.282-.908.734-1.59.79-2.215.057-.624.057-1.306.057-2.044s1.13-.057 1.185.909c.057.965-.395 1.76-.056 2.272.338.51 10.288 3.21 11.587 3.778 1.298.568 7.226 2.328 9.993 3.236 2.766.91 8.806 6.19 9.88 8.122 1.071 1.93 5.475 18.229 6.717 24.191 1.242 5.963-9.485 7.44-12.928 6.304-3.444-1.136-10.448-1.752-11.236-3.858z" stroke="#242E3E" stroke-width=".6"/>
            <path d="M255.777 180.57c1.712 3.762 5.596 13.68 5.624 15.427.03 1.747-3.357 2.35-3.71 4.806-.352 2.455 6.918 2.934 9.32 2.1 2.405-.836 2.16-1.55 2.608-1.567.448-.016-1.051 1.945-.575 2.145.478.2 1.242.096 2.053-.277.81-.373 2.263-2.027 3.315-4.186 1.577-3.236 2.432-7.27 1.252-12.569-.817-3.672-2.508-6.523-3.822-8.698-1.315-2.175-6.31-3.085-10.582-1.63-4.271 1.457-6.494 2.227-5.483 4.449" fill="#FE89B3"/>
            <path d="M255.777 180.57c1.712 3.762 5.596 13.68 5.624 15.427.03 1.747-3.357 2.35-3.71 4.806-.352 2.455 6.918 2.934 9.32 2.1 2.405-.836 2.16-1.55 2.608-1.567.448-.016-1.051 1.945-.575 2.145.478.2 1.242.096 2.053-.277.81-.373 2.263-2.027 3.315-4.186 1.577-3.236 2.432-7.27 1.252-12.569-.817-3.672-2.508-6.523-3.822-8.698-1.315-2.175-6.31-3.085-10.582-1.63-4.271 1.457-6.494 2.227-5.483 4.449z" stroke="#242E3E" stroke-width=".6"/>
            <path d="M275.664 186.449c1.18 5.3.325 9.332-1.252 12.57-1.052 2.157-2.504 3.811-3.315 4.185-.81.373-1.575.476-2.052.277-.477-.2 1.022-2.162.574-2.145-.448.016-.203.731-2.607 1.566-2.403.836-9.673.357-9.32-2.1.352-2.455 3.738-3.057 3.71-4.804-.013-.738-.71-2.928-1.642-5.495l.001.002c.986 2.223 5.713 2.256 9.59.57 3.876-1.685 6.242-3.846 5.59-7.128.28.789.527 1.62.723 2.502" fill="#FD065F"/>
            <path d="M275.664 186.449c1.18 5.3.325 9.332-1.252 12.57-1.052 2.157-2.504 3.811-3.315 4.185-.81.373-1.575.476-2.052.277-.477-.2 1.022-2.162.574-2.145-.448.016-.203.731-2.607 1.566-2.403.836-9.673.357-9.32-2.1.352-2.455 3.738-3.057 3.71-4.804-.013-.738-.71-2.928-1.642-5.495l.001.002c.986 2.223 5.713 2.256 9.59.57 3.876-1.685 6.242-3.846 5.59-7.128.28.789.527 1.62.723 2.502z" stroke="#242E3E" stroke-width=".6"/>
            <path d="m273.871 199.928.054.007c-.979 1.7-2.137 2.95-2.828 3.269-.81.373-1.575.476-2.052.277-.478-.2 1.023-2.161.574-2.145a.34.34 0 0 0-.103.02c.826-.79 2.02-1.645 4.355-1.428" fill="#FE89B3"/>
            <path d="m273.871 199.928.054.007c-.979 1.7-2.137 2.95-2.828 3.269-.81.373-1.575.476-2.052.277-.478-.2 1.023-2.161.574-2.145a.34.34 0 0 0-.103.02c.826-.79 2.02-1.645 4.355-1.428z" stroke="#242E3E" stroke-width=".6"/>
            <path d="M271.041 197.833c-1.505-4.376-5.54-13.04-7.51-18.359-1.968-5.318 12.354-10.461 15.04-4.889 2.685 5.572 4.35 13.846 4.45 21.503.102 7.655-1.242 12.145-1.872 12.48-.63.338-1.79.502-1.863-.183-.073-.685.007-2.341-.575-2.286-.582.055-1.423 3.108-3.058 3.368-1.634.26-8.507 1.395-8.313.269.193-1.126 4.007-4.602 4.399-6.44.392-1.837.057-3.267-.698-5.463" fill="#FFF"/>
        </g>
        <g transform="matrix(-1 0 0 1 283.027 172.178)">
            <mask id="aB" fill="#fff">
                <use xlink:href="#aA"/>
            </mask>
            <path d="M10.207-.658S5.49 5.067 3.023 18.213c-1.834 9.768 11.908 6.472 11.908 6.472L20.704 7.13l-.787-5.808-9.71-1.98z" fill="#FFCFDF" mask="url(#aB)"/>
        </g>
        <g>
            <path d="M271.041 197.833c-1.505-4.376-5.54-13.04-7.51-18.359-1.968-5.318 12.354-10.461 15.04-4.889 2.685 5.572 4.35 13.846 4.45 21.503.102 7.655-1.242 12.145-1.872 12.48-.63.338-1.79.502-1.863-.183-.073-.685.007-2.341-.575-2.286-.582.055-1.423 3.108-3.058 3.368-1.634.26-8.507 1.395-8.313.269.193-1.126 4.007-4.602 4.399-6.44.392-1.837.057-3.267-.698-5.463z" stroke="#242E3E" stroke-width=".6"/>
            <path d="M268.95 192.519v-.001c1.077 2.545 4.434 1.284 7.673-.725 3.215-1.995 5.495-5.118 5.26-6.633a62.33 62.33 0 0 1 1.14 10.927c.1 7.656-1.244 12.145-1.874 12.482-.63.337-1.79.501-1.863-.184-.073-.685.007-2.341-.575-2.286-.581.055-1.423 3.109-3.058 3.368-1.634.26-8.507 1.395-8.313.27.193-1.127 4.006-4.604 4.399-6.441.392-1.838.057-3.267-.698-5.463-.485-1.41-1.234-3.268-2.091-5.314" fill="#FD065F"/>
            <path d="M268.95 192.519v-.001c1.077 2.545 4.434 1.284 7.673-.725 3.215-1.995 5.495-5.118 5.26-6.633a62.33 62.33 0 0 1 1.14 10.927c.1 7.656-1.244 12.145-1.874 12.482-.63.337-1.79.501-1.863-.184-.073-.685.007-2.341-.575-2.286-.581.055-1.423 3.109-3.058 3.368-1.634.26-8.507 1.395-8.313.27.193-1.127 4.006-4.604 4.399-6.441.392-1.838.057-3.267-.698-5.463-.485-1.41-1.234-3.268-2.091-5.314z" stroke="#242E3E" stroke-width=".6"/>
            <path d="M278.711 206.099a.298.298 0 0 0-.15.073c1.007-1.274 2.338-2.106 4.019-2.426-.426 2.945-1.055 4.622-1.43 4.823-.63.337-1.79.501-1.864-.184-.073-.685.007-2.341-.575-2.286" fill="#FE89B3"/>
            <path d="M278.711 206.099a.298.298 0 0 0-.15.073c1.007-1.274 2.338-2.106 4.019-2.426-.426 2.945-1.055 4.622-1.43 4.823-.63.337-1.79.501-1.864-.184-.073-.685.007-2.341-.575-2.286z" stroke="#242E3E" stroke-width=".6"/>
            <path d="M265.89 185.303c-.207-.923-.638-1.042-1.102-2.384-.441-1.276-4.715 1.802-6.838 2.218-1.138.223-3.083-7.073-3.083-9.017 0-1.945 2.707-31.27 3.635-33.527.928-2.255 19.979-6.75 23.189-4.762 1.93 1.195 2.716 10.632 2.626 13.734-.092 3.102-6.984 16.331-6.803 18.339.181 2.007 1.83 5.416 2.547 7.967.717 2.551-13.785 9.152-14.17 7.432" fill="#A10244"/>
            <path d="M265.89 185.303c-.207-.923-.638-1.042-1.102-2.384-.441-1.276-4.715 1.802-6.838 2.218-1.138.223-3.083-7.073-3.083-9.017 0-1.945 2.707-31.27 3.635-33.527.928-2.255 19.979-6.75 23.189-4.762 1.93 1.195 2.716 10.632 2.626 13.734-.092 3.102-6.984 16.331-6.803 18.339.181 2.007 1.83 5.416 2.547 7.967.717 2.551-13.785 9.152-14.17 7.432z" stroke="#242E3E" stroke-width=".6"/>
            <path d="M264.788 182.918c-.938-2.35-4.317-7.703-4.402-10.933-.084-3.23 2.873-17.508 2.788-20.057M273.124 140.622s-.524 5.58 6.593 6.844" stroke="#242E3E" stroke-width=".6" stroke-linecap="round" stroke-linejoin="round"/>
            <path d="M278.461 141.886s2.722 6.001.733 11.16" stroke="#242E3E" stroke-width=".6" stroke-linecap="round" stroke-linejoin="round"/>
            <path d="M246.114 131.652c-2.56-.396-6.172-3.319-6.172-5.353 0-2.033 5.427-14.45 7.236-14.45 1.809 0 6.704 1.5 7.661 2.677.957 1.177-7.342 17.34-8.725 17.126" fill="#FE89B3"/>
            <path d="M246.114 131.652c-2.56-.396-6.172-3.319-6.172-5.353 0-2.033 5.427-14.45 7.236-14.45 1.809 0 6.704 1.5 7.661 2.677.957 1.177-7.342 17.34-8.725 17.126z" stroke="#242E3E" stroke-width=".6"/>
            <path d="M253.676 129.591s11.059 1.74 13.612-2.007" stroke="#242E3E" stroke-width=".6" stroke-linecap="round" stroke-linejoin="round"/>
            <path d="M247.594 111.677c-.544-.342-2.72-1.3-2.583-2.257.135-.957 5.71-7.52 6.593-7.59.884-.068 5.71 2.599 5.098 3.283-.612.683-5.778 7.11-6.253 7.316-.476.205-2.855-.752-2.855-.752" fill="#FE89B3"/>
            <path d="M247.594 111.677c-.544-.342-2.72-1.3-2.583-2.257.135-.957 5.71-7.52 6.593-7.59.884-.068 5.71 2.599 5.098 3.283-.612.683-5.778 7.11-6.253 7.316-.476.205-2.855-.752-2.855-.752z" stroke="#242E3E" stroke-width=".6"/>
            <path d="M256.456 114.973s3.684.893 5.73-.48" stroke="#242E3E" stroke-width=".6" stroke-linecap="round" stroke-linejoin="round"/>
            <path d="M258.23 115.043s2.455-4.118 2.387-6.795" stroke="#242E3E" stroke-width=".6" stroke-linecap="round" stroke-linejoin="round"/>
            <path d="M260.527 114.736c-1.326-.097.279-2.17.975-4.34.695-2.17 2.714-7.7 2.226-8.68-.487-.98-1.948.84-1.948-1.12s4.245-8.541 5.358-10.43c1.114-1.89 2.297 3.709 2.227 5.809-.07 2.1-3.41 10.221-3.966 12.11-.557 1.891-2.018 6.862-4.872 6.651" fill="#FFF"/>
        </g>
        <g transform="matrix(-1 0 0 1 269.368 89.782)">
            <mask id="aD" fill="#fff">
                <use xlink:href="#aC"/>
            </mask>
            <path d="M11.273 26.176c0-2.103-3.604-13.632-4.469-14.212-.865-.58-3.965-3.118-5.046-4.133-1.08-1.015 3.172 17.547 3.46 18.127.289.58 6.055.218 6.055.218" fill="#FFCFDF" mask="url(#aD)"/>
        </g>
        <g>
            <path d="M260.527 114.736c-1.326-.097.279-2.17.975-4.34.695-2.17 2.714-7.7 2.226-8.68-.487-.98-1.948.84-1.948-1.12s4.245-8.541 5.358-10.43c1.114-1.89 2.297 3.709 2.227 5.809-.07 2.1-3.41 10.221-3.966 12.11-.557 1.891-2.018 6.862-4.872 6.651z" stroke="#242E3E" stroke-width=".6"/>
            <path d="M284.339 130.818c-4.225.557-13.552-3.04-16.208-8.382-2.656-5.343-4.762-8.383-4.487-12.805.275-4.421 3.754-11.33 3.754-12.987 0-1.658-.134-6.383-.732-5.344-1.008 1.751-1.374 2.58-2.198 3.225-.824.645-.733-7.645-.183-8.75.55-1.107 4.212-3.41 5.128-3.41.915 0 1.923 2.58 3.022 3.685 1.099 1.106 3.113 2.856 4.029 5.62.915 2.763 1.831 17.87 2.472 18.975.641 1.106 4.213 3.131 6.868 7 2.656 3.87 4.12 12.436-1.465 13.173" fill="#242E3E"/>
            <path d="M284.339 130.818c-4.225.557-13.552-3.04-16.208-8.382-2.656-5.343-4.762-8.383-4.487-12.805.275-4.421 3.754-11.33 3.754-12.987 0-1.658-.134-6.383-.732-5.344-1.008 1.751-1.374 2.58-2.198 3.225-.824.645-.733-7.645-.183-8.75.55-1.107 4.212-3.41 5.128-3.41.915 0 1.923 2.58 3.022 3.685 1.099 1.106 3.113 2.856 4.029 5.62.915 2.763 1.831 17.87 2.472 18.975.641 1.106 4.213 3.131 6.868 7 2.656 3.87 4.12 12.436-1.465 13.173z" stroke="#242E3E" stroke-width=".6"/>
        </g>
    </g>
</svg>
