<svg xmlns="http://www.w3.org/2000/svg" width="40" height="40" viewBox="0 0 40 40">
    <defs>
        <linearGradient id="a" x1="4.053%" x2="74.25%" y1="-16.232%" y2="76.543%">
            <stop offset="0%" stop-color="#CDD7E8"/>
            <stop offset="100%" stop-color="#FFF"/>
        </linearGradient>
        <linearGradient id="b" x1="9.811%" x2="71.21%" y1="-21.159%" y2="78.518%">
            <stop offset="0%" stop-color="#CDD7E8"/>
            <stop offset="100%" stop-color="#FFF"/>
        </linearGradient>
        <linearGradient id="c" x1="4.053%" x2="74.25%" y1="-19.544%" y2="77.871%">
            <stop offset="0%" stop-color="#CDD7E8"/>
            <stop offset="100%" stop-color="#FFF"/>
        </linearGradient>
    </defs>
    <g fill="none" fill-rule="evenodd">
        <circle cx="20" cy="20" r="20" fill="#7F8CA8"/>
        <path fill="url(#a)" d="M12.828 23.43v5.35h3.418a2.268 2.268 0 0 0 2.279-2.258v-3.238l-5.697.146"/>
        <path fill="url(#b)" d="M12.828 13.92v4.42h3.418a2.268 2.268 0 0 0 2.279-2.258v-3.833l-5.697 1.67"/>
        <path fill="url(#c)" d="M15.107 16.082a2.268 2.268 0 0 0-2.279 2.258v-5.645a2.268 2.268 0 0 1 2.279-2.258h7.637c4.195 0 7.595 3.37 7.595 7.526 0 4.157-3.4 7.527-7.595 7.527h-7.637a2.268 2.268 0 0 0-2.279 2.258v-5.645a2.268 2.268 0 0 1 2.279-2.258h7.637a1.89 1.89 0 0 0 1.9-1.882 1.89 1.89 0 0 0-1.9-1.881h-7.637"/>
    </g>
</svg>
