<svg xmlns="http://www.w3.org/2000/svg" xmlns:xlink="http://www.w3.org/1999/xlink" width="232" height="232" viewBox="0 0 232 232">
    <defs>
        <circle id="a" cx="116" cy="116" r="116"/>
        <path id="c" d="M.033.345H91.98v48.34H.033z"/>
        <path id="e" d="M5.127.148c-.136.657.763 3.038.763 3.567 0 .529-2.697-2.822-3.27-2.822-.572 0 1.676 3.174 1.921 3.483.246.309-2.657-1.29-3.27-1.527-.613-.237 1.472 1.924 2.126 2.453.654.529-2.29-.133-3.025-.177-.737-.044 2.003 1.72 2.738 2.073.736.353 3.12 1.239 3.856 1.415.736.176 1.96 15.197 2.548 17.765 0 0 2.945 1.632 7.905.817 4.96-.815 5.9-3.988 5.9-3.988L12.345 7.715c-1.16-1.636 1.874-4.042 1.963-5.1.09-1.058-2.32 1.347-3.48 1.636-1.16.288-2.655-.154-3.4-1.07C6.761 2.36 5.551.049 5.208.048c-.04 0-.067.032-.081.1"/>
        <path id="g" d="M3.441.022c-.565.034.566 2.644.126 2.543-.44-.102-.912-2.203-1.54-2.136-.452.049.722 2.746.22 2.645-.503-.103-.929-1.66-1.635-1.933-.706-.273.07.997.527 2.146.457 1.15 1.866 1.52 1.432 1.63-1.303.333-3.36 1.091-.686 1.237.638.035 1.27.024 1.864.014 1.66-.03 3.015-.06 3.367.899.478 1.3 2.868 10.786 4.242 14.546.543 1.49 4.314.178 6.765-.907 2.452-1.084 7.024-2.775 5.64-4.775C22.378 13.93 10.336 3.005 8.795 1.955c-1.54-1.051-3.079-.102-3.079-.102-.334-.34-.734-1.83-1.049-1.83-.152 0-.091.552-.03 1.105.065.593.13 1.186-.064 1.098C4.199 2.058 4.01.022 3.455.022h-.014z"/>
        <path id="i" d="M66.057.299c-5.172.82-6.085 5.085-6.085 5.085s3.195 8.497 3.347 11.286c.152 2.789-.457 13.616-1.978 17.225-1.52 3.61-11.561 4.627-16.125 5.611s-18.414-1.451-21.45-2.789c-1.992-.877-10.801-17.422-10.801-17.422s-.913 2.986-5.477 3.806c-4.564.82-7.454-.06-7.454-.06s2.282 18.434 6.453 22.116c7.974 7.039 18.329 13.048 19.673 14.98 1.344 1.932 1.441 15.444 1.38 19.557-.068 4.53 2.642 7.002 5.71 8.05 4.68 1.596 31.98.49 35.242-2.864 3.529-3.626 8.347-16.487 8.5-18.964.153-2.477-2.756-13.539-2.297-16.51.46-2.973 5.053-26.252 4.746-32.526-.306-6.274-6.52-15.69-6.52-15.69S71.82.076 68.68.076c-.754 0-1.624.064-2.624.223"/>
        <path id="k" d="M66.057.299c-5.172.82-6.085 5.085-6.085 5.085s3.195 8.497 3.347 11.286c.152 2.789-.457 13.616-1.978 17.225-1.52 3.61-11.561 4.627-16.125 5.611s-18.414-1.451-21.45-2.789c-1.992-.877-10.801-17.422-10.801-17.422s-.913 2.986-5.477 3.806c-4.564.82-7.454-.06-7.454-.06s2.282 18.434 6.453 22.116c7.974 7.039 18.329 13.048 19.673 14.98 1.344 1.932 1.441 15.444 1.38 19.557-.068 4.53 2.642 7.002 5.71 8.05 4.68 1.596 31.98.49 35.242-2.864 3.529-3.626 8.347-16.487 8.5-18.964.153-2.477-2.756-13.539-2.297-16.51.46-2.973 5.053-26.252 4.746-32.526-.306-6.274-6.52-15.69-6.52-15.69S71.82.076 68.68.076c-.754 0-1.624.064-2.624.223"/>
        <path id="m" d="M66.057.299c-5.172.82-6.085 5.085-6.085 5.085s3.195 8.497 3.347 11.286c.152 2.789-.457 13.616-1.978 17.225-1.52 3.61-11.561 4.627-16.125 5.611s-18.414-1.451-21.45-2.789c-1.992-.877-10.801-17.422-10.801-17.422s-.913 2.986-5.477 3.806c-4.564.82-7.454-.06-7.454-.06s2.282 18.434 6.453 22.116c7.974 7.039 18.329 13.048 19.673 14.98 1.344 1.932 1.441 15.444 1.38 19.557-.068 4.53 2.642 7.002 5.71 8.05 4.68 1.596 31.98.49 35.242-2.864 3.529-3.626 8.347-16.487 8.5-18.964.153-2.477-2.756-13.539-2.297-16.51.46-2.973 5.053-26.252 4.746-32.526-.306-6.274-6.52-15.69-6.52-15.69S71.82.076 68.68.076c-.754 0-1.624.064-2.624.223"/>
        <path id="o" d="M66.057.299c-5.172.82-6.085 5.085-6.085 5.085s3.195 8.497 3.347 11.286c.152 2.789-.457 13.616-1.978 17.225-1.52 3.61-11.561 4.627-16.125 5.611s-18.414-1.451-21.45-2.789c-1.992-.877-10.801-17.422-10.801-17.422s-.913 2.986-5.477 3.806c-4.564.82-7.454-.06-7.454-.06s2.282 18.434 6.453 22.116c7.974 7.039 18.329 13.048 19.673 14.98 1.344 1.932 1.441 15.444 1.38 19.557-.068 4.53 2.642 7.002 5.71 8.05 4.68 1.596 31.98.49 35.242-2.864 3.529-3.626 8.347-16.487 8.5-18.964.153-2.477-2.756-13.539-2.297-16.51.46-2.973 5.053-26.252 4.746-32.526-.306-6.274-6.52-15.69-6.52-15.69S71.82.076 68.68.076c-.754 0-1.624.064-2.624.223"/>
        <path id="q" d="M66.057.299c-5.172.82-6.085 5.085-6.085 5.085s3.195 8.497 3.347 11.286c.152 2.789-.457 13.616-1.978 17.225-1.52 3.61-11.561 4.627-16.125 5.611s-18.414-1.451-21.45-2.789c-1.992-.877-10.801-17.422-10.801-17.422s-.913 2.986-5.477 3.806c-4.564.82-7.454-.06-7.454-.06s2.282 18.434 6.453 22.116c7.974 7.039 18.329 13.048 19.673 14.98 1.344 1.932 1.441 15.444 1.38 19.557-.068 4.53 2.642 7.002 5.71 8.05 4.68 1.596 31.98.49 35.242-2.864 3.529-3.626 8.347-16.487 8.5-18.964.153-2.477-2.756-13.539-2.297-16.51.46-2.973 5.053-26.252 4.746-32.526-.306-6.274-6.52-15.69-6.52-15.69S71.82.076 68.68.076c-.754 0-1.624.064-2.624.223"/>
        <path id="s" d="M66.057.299c-5.172.82-6.085 5.085-6.085 5.085s3.195 8.497 3.347 11.286c.152 2.789-.457 13.616-1.978 17.225-1.52 3.61-11.561 4.627-16.125 5.611s-18.414-1.451-21.45-2.789c-1.992-.877-10.801-17.422-10.801-17.422s-.913 2.986-5.477 3.806c-4.564.82-7.454-.06-7.454-.06s2.282 18.434 6.453 22.116c7.974 7.039 18.329 13.048 19.673 14.98 1.344 1.932 1.441 15.444 1.38 19.557-.068 4.53 2.642 7.002 5.71 8.05 4.68 1.596 31.98.49 35.242-2.864 3.529-3.626 8.347-16.487 8.5-18.964.153-2.477-2.756-13.539-2.297-16.51.46-2.973 5.053-26.252 4.746-32.526-.306-6.274-6.52-15.69-6.52-15.69S71.82.076 68.68.076c-.754 0-1.624.064-2.624.223"/>
        <path id="u" d="M66.057.299c-5.172.82-6.085 5.085-6.085 5.085s3.195 8.497 3.347 11.286c.152 2.789-.457 13.616-1.978 17.225-1.52 3.61-11.561 4.627-16.125 5.611s-18.414-1.451-21.45-2.789c-1.992-.877-10.801-17.422-10.801-17.422s-.913 2.986-5.477 3.806c-4.564.82-7.454-.06-7.454-.06s2.282 18.434 6.453 22.116c7.974 7.039 18.329 13.048 19.673 14.98 1.344 1.932 1.441 15.444 1.38 19.557-.068 4.53 2.642 7.002 5.71 8.05 4.68 1.596 31.98.49 35.242-2.864 3.529-3.626 8.347-16.487 8.5-18.964.153-2.477-2.756-13.539-2.297-16.51.46-2.973 5.053-26.252 4.746-32.526-.306-6.274-6.52-15.69-6.52-15.69S71.82.076 68.68.076c-.754 0-1.624.064-2.624.223"/>
        <path id="w" d="M66.057.299c-5.172.82-6.085 5.085-6.085 5.085s3.195 8.497 3.347 11.286c.152 2.789-.457 13.616-1.978 17.225-1.52 3.61-11.561 4.627-16.125 5.611s-18.414-1.451-21.45-2.789c-1.992-.877-10.801-17.422-10.801-17.422s-.913 2.986-5.477 3.806c-4.564.82-7.454-.06-7.454-.06s2.282 18.434 6.453 22.116c7.974 7.039 18.329 13.048 19.673 14.98 1.344 1.932 1.441 15.444 1.38 19.557-.068 4.53 2.642 7.002 5.71 8.05 4.68 1.596 31.98.49 35.242-2.864 3.529-3.626 8.347-16.487 8.5-18.964.153-2.477-2.756-13.539-2.297-16.51.46-2.973 5.053-26.252 4.746-32.526-.306-6.274-6.52-15.69-6.52-15.69S71.82.076 68.68.076c-.754 0-1.624.064-2.624.223"/>
        <path id="y" d="M66.057.299c-5.172.82-6.085 5.085-6.085 5.085s3.195 8.497 3.347 11.286c.152 2.789-.457 13.616-1.978 17.225-1.52 3.61-11.561 4.627-16.125 5.611s-18.414-1.451-21.45-2.789c-1.992-.877-10.801-17.422-10.801-17.422s-.913 2.986-5.477 3.806c-4.564.82-7.454-.06-7.454-.06s2.282 18.434 6.453 22.116c7.974 7.039 18.329 13.048 19.673 14.98 1.344 1.932 1.441 15.444 1.38 19.557-.068 4.53 2.642 7.002 5.71 8.05 4.68 1.596 31.98.49 35.242-2.864 3.529-3.626 8.347-16.487 8.5-18.964.153-2.477-2.756-13.539-2.297-16.51.46-2.973 5.053-26.252 4.746-32.526-.306-6.274-6.52-15.69-6.52-15.69S71.82.076 68.68.076c-.754 0-1.624.064-2.624.223"/>
        <path id="A" d="M66.057.299c-5.172.82-6.085 5.085-6.085 5.085s3.195 8.497 3.347 11.286c.152 2.789-.457 13.616-1.978 17.225-1.52 3.61-11.561 4.627-16.125 5.611s-18.414-1.451-21.45-2.789c-1.992-.877-10.801-17.422-10.801-17.422s-.913 2.986-5.477 3.806c-4.564.82-7.454-.06-7.454-.06s2.282 18.434 6.453 22.116c7.974 7.039 18.329 13.048 19.673 14.98 1.344 1.932 1.441 15.444 1.38 19.557-.068 4.53 2.642 7.002 5.71 8.05 4.68 1.596 31.98.49 35.242-2.864 3.529-3.626 8.347-16.487 8.5-18.964.153-2.477-2.756-13.539-2.297-16.51.46-2.973 5.053-26.252 4.746-32.526-.306-6.274-6.52-15.69-6.52-15.69S71.82.076 68.68.076c-.754 0-1.624.064-2.624.223"/>
        <path id="C" d="M2.46 6.313c-.423.568.845 1.366.633 1.746-.104.187-.338.09-.684-.006-.353-.099-.823-.198-1.392.006-1.126.403-1.055 1.897 0 2.618.523.357 1.141.221 1.662.085.53-.14.96-.278 1.083.104.247.76 2.638 8.342 1.9 12.144-.444 2.29 2.456 8.928 7.44 8.676 2.844-.144 3.016-5.99.626-8.735-3.005-3.45-5.584-8.827-5.159-9.838.427-1.011 2.388-.736 2.644-2.39.085-.551-.632-1.876-1.672-3.408-.338-.499 1.213-1.727.562-1.71C8.95 5.63 7.22 4.42 6.498 3.313 5.277 1.444 3.743.254 3.283.149c0 0 .48 4.419-.823 6.164"/>
        <path id="E" d="M41.15 8.575c-5.92 5.295-5.427 57.97-9.375 66.051-3.948 8.082-22.454 44.87-31.09 58.248-8.635 13.378 81.178 18.394 87.84 6.689 1.887-3.315 6.662-11.984 10.857-12.541 4.194-.558 40.711-3.902 42.192-8.361 1.48-4.46 3.701-22.296 3.701-27.034 0 0-11.146 3.202-17.068-5.716 0 0-3.176 4.82-5.22 7.069-2.325 2.557-7.814 2.27-11.268.877-3.455-1.394-18.55-13.203-24.427-16.165-3.693-1.86-18.013-6.968-21.467-9.476-3.454-2.508-3.208-30.1-2.22-33.722.987-3.624 14.877-17.655 14.877-17.655S72.487 15.264 70.266.214c0 0-23.193 3.065-29.115 8.36z"/>
        <path id="G" d="M41.15 8.575c-5.92 5.295-5.427 57.97-9.375 66.051-3.948 8.082-22.454 44.87-31.09 58.248-8.635 13.378 81.178 18.394 87.84 6.689 1.887-3.315 6.662-11.984 10.857-12.541 4.194-.558 40.711-3.902 42.192-8.361 1.48-4.46 3.701-22.296 3.701-27.034 0 0-11.146 3.202-17.068-5.716 0 0-3.176 4.82-5.22 7.069-2.325 2.557-7.814 2.27-11.268.877-3.455-1.394-18.55-13.203-24.427-16.165-3.693-1.86-18.013-6.968-21.467-9.476-3.454-2.508-3.208-30.1-2.22-33.722.987-3.624 14.877-17.655 14.877-17.655S72.487 15.264 70.266.214c0 0-23.193 3.065-29.115 8.36z"/>
        <path id="I" d="M41.15 8.575c-5.92 5.295-5.427 57.97-9.375 66.051-3.948 8.082-22.454 44.87-31.09 58.248-8.635 13.378 81.178 18.394 87.84 6.689 1.887-3.315 6.662-11.984 10.857-12.541 4.194-.558 40.711-3.902 42.192-8.361 1.48-4.46 3.701-22.296 3.701-27.034 0 0-11.146 3.202-17.068-5.716 0 0-3.176 4.82-5.22 7.069-2.325 2.557-7.814 2.27-11.268.877-3.455-1.394-18.55-13.203-24.427-16.165-3.693-1.86-18.013-6.968-21.467-9.476-3.454-2.508-3.208-30.1-2.22-33.722.987-3.624 14.877-17.655 14.877-17.655S72.487 15.264 70.266.214c0 0-23.193 3.065-29.115 8.36z"/>
        <path id="K" d="M41.15 8.575c-5.92 5.295-5.427 57.97-9.375 66.051-3.948 8.082-22.454 44.87-31.09 58.248-8.635 13.378 81.178 18.394 87.84 6.689 1.887-3.315 6.662-11.984 10.857-12.541 4.194-.558 40.711-3.902 42.192-8.361 1.48-4.46 3.701-22.296 3.701-27.034 0 0-11.146 3.202-17.068-5.716 0 0-3.176 4.82-5.22 7.069-2.325 2.557-7.814 2.27-11.268.877-3.455-1.394-18.55-13.203-24.427-16.165-3.693-1.86-18.013-6.968-21.467-9.476-3.454-2.508-3.208-30.1-2.22-33.722.987-3.624 14.877-17.655 14.877-17.655S72.487 15.264 70.266.214c0 0-23.193 3.065-29.115 8.36z"/>
        <path id="M" d="M41.15 8.575c-5.92 5.295-5.427 57.97-9.375 66.051-3.948 8.082-22.454 44.87-31.09 58.248-8.635 13.378 81.178 18.394 87.84 6.689 1.887-3.315 6.662-11.984 10.857-12.541 4.194-.558 40.711-3.902 42.192-8.361 1.48-4.46 3.701-22.296 3.701-27.034 0 0-11.146 3.202-17.068-5.716 0 0-3.176 4.82-5.22 7.069-2.325 2.557-7.814 2.27-11.268.877-3.455-1.394-18.55-13.203-24.427-16.165-3.693-1.86-18.013-6.968-21.467-9.476-3.454-2.508-3.208-30.1-2.22-33.722.987-3.624 14.877-17.655 14.877-17.655S72.487 15.264 70.266.214c0 0-23.193 3.065-29.115 8.36z"/>
        <path id="O" d="M41.15 8.575c-5.92 5.295-5.427 57.97-9.375 66.051-3.948 8.082-22.454 44.87-31.09 58.248-8.635 13.378 81.178 18.394 87.84 6.689 1.887-3.315 6.662-11.984 10.857-12.541 4.194-.558 40.711-3.902 42.192-8.361 1.48-4.46 3.701-22.296 3.701-27.034 0 0-11.146 3.202-17.068-5.716 0 0-3.176 4.82-5.22 7.069-2.325 2.557-7.814 2.27-11.268.877-3.455-1.394-18.55-13.203-24.427-16.165-3.693-1.86-18.013-6.968-21.467-9.476-3.454-2.508-3.208-30.1-2.22-33.722.987-3.624 14.877-17.655 14.877-17.655S72.487 15.264 70.266.214c0 0-23.193 3.065-29.115 8.36z"/>
        <path id="Q" d="M41.15 8.575c-5.92 5.295-5.427 57.97-9.375 66.051-3.948 8.082-22.454 44.87-31.09 58.248-8.635 13.378 81.178 18.394 87.84 6.689 1.887-3.315 6.662-11.984 10.857-12.541 4.194-.558 40.711-3.902 42.192-8.361 1.48-4.46 3.701-22.296 3.701-27.034 0 0-11.146 3.202-17.068-5.716 0 0-3.176 4.82-5.22 7.069-2.325 2.557-7.814 2.27-11.268.877-3.455-1.394-18.55-13.203-24.427-16.165-3.693-1.86-18.013-6.968-21.467-9.476-3.454-2.508-3.208-30.1-2.22-33.722.987-3.624 14.877-17.655 14.877-17.655S72.487 15.264 70.266.214c0 0-23.193 3.065-29.115 8.36z"/>
        <path id="S" d="M41.15 8.575c-5.92 5.295-5.427 57.97-9.375 66.051-3.948 8.082-22.454 44.87-31.09 58.248-8.635 13.378 81.178 18.394 87.84 6.689 1.887-3.315 6.662-11.984 10.857-12.541 4.194-.558 40.711-3.902 42.192-8.361 1.48-4.46 3.701-22.296 3.701-27.034 0 0-11.146 3.202-17.068-5.716 0 0-3.176 4.82-5.22 7.069-2.325 2.557-7.814 2.27-11.268.877-3.455-1.394-18.55-13.203-24.427-16.165-3.693-1.86-18.013-6.968-21.467-9.476-3.454-2.508-3.208-30.1-2.22-33.722.987-3.624 14.877-17.655 14.877-17.655S72.487 15.264 70.266.214c0 0-23.193 3.065-29.115 8.36z"/>
        <path id="U" d="M41.15 8.575c-5.92 5.295-5.427 57.97-9.375 66.051-3.948 8.082-22.454 44.87-31.09 58.248-8.635 13.378 81.178 18.394 87.84 6.689 1.887-3.315 6.662-11.984 10.857-12.541 4.194-.558 40.711-3.902 42.192-8.361 1.48-4.46 3.701-22.296 3.701-27.034 0 0-11.146 3.202-17.068-5.716 0 0-3.176 4.82-5.22 7.069-2.325 2.557-7.814 2.27-11.268.877-3.455-1.394-18.55-13.203-24.427-16.165-3.693-1.86-18.013-6.968-21.467-9.476-3.454-2.508-3.208-30.1-2.22-33.722.987-3.624 14.877-17.655 14.877-17.655S72.487 15.264 70.266.214c0 0-23.193 3.065-29.115 8.36z"/>
        <path id="W" d="M41.15 8.575c-5.92 5.295-5.427 57.97-9.375 66.051-3.948 8.082-22.454 44.87-31.09 58.248-8.635 13.378 81.178 18.394 87.84 6.689 1.887-3.315 6.662-11.984 10.857-12.541 4.194-.558 40.711-3.902 42.192-8.361 1.48-4.46 3.701-22.296 3.701-27.034 0 0-11.146 3.202-17.068-5.716 0 0-3.176 4.82-5.22 7.069-2.325 2.557-7.814 2.27-11.268.877-3.455-1.394-18.55-13.203-24.427-16.165-3.693-1.86-18.013-6.968-21.467-9.476-3.454-2.508-3.208-30.1-2.22-33.722.987-3.624 14.877-17.655 14.877-17.655S72.487 15.264 70.266.214c0 0-23.193 3.065-29.115 8.36z"/>
        <path id="Y" d="M41.15 8.575c-5.92 5.295-5.427 57.97-9.375 66.051-3.948 8.082-22.454 44.87-31.09 58.248-8.635 13.378 81.178 18.394 87.84 6.689 1.887-3.315 6.662-11.984 10.857-12.541 4.194-.558 40.711-3.902 42.192-8.361 1.48-4.46 3.701-22.296 3.701-27.034 0 0-11.146 3.202-17.068-5.716 0 0-3.176 4.82-5.22 7.069-2.325 2.557-7.814 2.27-11.268.877-3.455-1.394-18.55-13.203-24.427-16.165-3.693-1.86-18.013-6.968-21.467-9.476-3.454-2.508-3.208-30.1-2.22-33.722.987-3.624 14.877-17.655 14.877-17.655S72.487 15.264 70.266.214c0 0-23.193 3.065-29.115 8.36z"/>
        <path id="aa" d="M41.15 8.575c-5.92 5.295-5.427 57.97-9.375 66.051-3.948 8.082-22.454 44.87-31.09 58.248-8.635 13.378 81.178 18.394 87.84 6.689 1.887-3.315 6.662-11.984 10.857-12.541 4.194-.558 40.711-3.902 42.192-8.361 1.48-4.46 3.701-22.296 3.701-27.034 0 0-11.146 3.202-17.068-5.716 0 0-3.176 4.82-5.22 7.069-2.325 2.557-7.814 2.27-11.268.877-3.455-1.394-18.55-13.203-24.427-16.165-3.693-1.86-18.013-6.968-21.467-9.476-3.454-2.508-3.208-30.1-2.22-33.722.987-3.624 14.877-17.655 14.877-17.655S72.487 15.264 70.266.214c0 0-23.193 3.065-29.115 8.36z"/>
        <path id="ab" d="M18.063.847c-3.484 1.54-3.22 6.719-7.1 8.259C7.085 10.645.972 11.066.248 16.944c-.723 5.88 3.748 8.19 7.232 8.19 3.483 0 6.77-.91 8.414.21l-.131-3.43s-2.499 0-2.893-1.96c-.394-1.96 1.644-2.87 3.09-1.4 1.158 1.177 4.01 12.948 6.18 14.208 2.169 1.26 3.615 1.54 5.258.35 1.644-1.19 2.235-2.03 1.71-4.55-.526-2.519-2.79-5.032-3.775-6.082-.986-1.05-2.48-1.018-3.079.063-.527.955-.904 2.1-1.43 1.12-.525-.98-3.68-4.829-3.68-6.089 0-1.26 2.629-1.89 2.431-5.459 0 0 2.796.451 2.893 1.54.005.048 3.024 0 2.893-6.02-.105-4.81-2.479-7.251-5.206-7.251-.685 0-1.392.154-2.092.463z"/>
    </defs>
    <g fill="none" fill-rule="evenodd">
        <mask id="b" fill="#fff">
            <use xlink:href="#a"/>
        </mask>
        <use fill="#F5F8FC" xlink:href="#a"/>
        <g mask="url(#b)">
            <path fill="#A10244" d="M-35.313 168.969c2.103-1.836 66.437-47.934 68.556-49.345 2.119-1.411 4.611-3.805 6.06-4.826 1.45-1.022 7.654-4.984 8.987-3.434 1.333 1.55-63.93 46.367-67.703 49.284-3.775 2.917-16.307 11.651-18.133 11.821-1.958.182-.097-1.468 2.233-3.5"/>
            <g transform="translate(201.477 16.572)">
                <mask id="d" fill="#fff">
                    <use xlink:href="#c"/>
                </mask>
                <path fill="#A10244" d="M1.384 46.65C3.714 45.115 73.658 8.12 75.947 7.01c2.29-1.112 5.08-3.148 6.654-3.964 1.574-.817 8.254-3.906 9.366-2.19 1.113 1.716-69.578 37.315-73.71 39.696-4.132 2.38-14.088 8.211-15.92 8.133-1.964-.084-3.534-.336-.953-2.035" mask="url(#d)"/>
            </g>
            <path fill="#FD065F" d="M55.856 100.55c-3.19-.078-6.398 6.174-4.62 9.62 1.777 3.444 8.53 2.575 9.951.243 1.422-2.332 1.066-4.796.119-6.87-.948-2.074-2.607-2.923-5.45-2.993M160.028 139.331c.521-3.184-4.745-5.975-8.267-4.285-3.522 1.69-2.468 7.58-.452 9.056 2.016 1.477 3.864 1.897 5.967 1.002 2.104-.896 2.287-2.935 2.752-5.773M202.802 70.47c.52-3.185-4.745-5.976-8.267-4.285-3.521 1.69-2.467 7.579-.451 9.056 2.015 1.477 3.863 1.897 5.967 1.001 2.103-.895 2.286-2.934 2.75-5.772"/>
            <path fill="#A10244" d="M64.445 108.768c3.029-1.644 4.492-.39 7.153-.45 2.662-.06 75.851 26.97 76.018 27.642.166.672-1.497 1.912-4.159.903-2.661-1.009-58.884-21.994-61.546-22.29-2.661-.297-19.462-4.72-17.466-5.805M159.979 134.598c-1.288-2.535.027-3.392.206-5.371.178-1.98 32.212-51.255 32.862-51.257.65-.003 1.676 1.45.487 3.238-1.19 1.787-26.007 39.6-26.522 41.515-.515 1.915-6.184 13.546-7.033 11.875"/>
            <path stroke="#FD065F" stroke-dasharray="4.646400174713108,9.292800349426216" stroke-linecap="round" stroke-linejoin="round" stroke-width="1.936" d="M-47.016 149.22c11.167-4.19 36.861-11.909 54.098-7.406 17.238 4.503 40.121 13.991 65.593 6.943 25.473-7.049 44.6-43.85 68.878-54.136 35.887-15.203 55.103 23.278 105.2 20.05M27.48 59.438c0 29.185-23.48 52.844-52.443 52.844-28.964 0-52.444-23.659-52.444-52.844 0-29.185 23.48-52.844 52.444-52.844C4 6.594 27.48 30.254 27.48 59.438z"/>
            <path stroke="#FD065F" stroke-dasharray="4.646400174713108,9.292800349426216" stroke-linecap="round" stroke-linejoin="round" stroke-width="1.936" d="M244.889 109.606c0 38.36-30.862 69.458-68.931 69.458-38.07 0-68.931-31.097-68.931-69.458 0-38.36 30.861-69.458 68.93-69.458 38.07 0 68.932 31.097 68.932 69.458z"/>
            <path fill="#242E3E" d="M188.988 172.768c-.33-4.546-2.631-9.26-5.605-10.71-2.974-1.448-4.301-5.048-3.916-8.286.385-3.238 1.763-6.266-.691-11.63-2.454-5.363-4.994-2.955-5.388-2.247-.394.708-1.663-2.502-6.436.661s-5.998 8.027-5.736 11.285c.263 3.257-6.518 1.748-9.424 6.413-2.906 4.666 1.292 7.312-3.358 9.68-4.65 2.368-8.654 2.925-9.3 6.825-.645 3.9.388 6.894-3.745 8.148-4.133 1.253-7.943 4.665-6.07 10.724 1.873 6.059 3.06 8.722-.646 11.142-2.93 1.913-.358 11.588 12.665 12.57 15.946 1.202 30.4-4.144 33.122-13.315 2.721-9.172 0-15.164 6.917-16.876 6.918-1.712 7.934-9.926 7.61-14.384"/>
            <path stroke="#242E3E" stroke-width=".5" d="M188.988 172.768c-.33-4.546-2.631-9.26-5.605-10.71-2.974-1.448-4.301-5.048-3.916-8.286.385-3.238 1.763-6.266-.691-11.63-2.454-5.363-4.994-2.955-5.388-2.247-.394.708-1.663-2.502-6.436.661s-5.998 8.027-5.736 11.285c.263 3.257-6.518 1.748-9.424 6.413-2.906 4.666 1.292 7.312-3.358 9.68-4.65 2.368-8.654 2.925-9.3 6.825-.645 3.9.388 6.894-3.745 8.148-4.133 1.253-7.943 4.665-6.07 10.724 1.873 6.059 3.06 8.722-.646 11.142-2.93 1.913-.358 11.588 12.665 12.57 15.946 1.202 30.4-4.144 33.122-13.315 2.721-9.172 0-15.164 6.917-16.876 6.918-1.712 7.934-9.926 7.61-14.384z"/>
            <path fill="#FFF" d="M149.319 150.337s-9.816-13.857-10.976-15.492c-1.16-1.636 1.874-4.042 1.963-5.1.09-1.059-2.32 1.347-3.48 1.635-1.16.29-2.655-.153-3.4-1.07-.744-.916-2.165-3.689-2.3-3.032-.136.657.763 3.037.763 3.566 0 .53-2.698-2.821-3.27-2.821-.573 0 1.676 3.174 1.921 3.483.246.308-2.657-1.29-3.27-1.527-.614-.237 1.471 1.924 2.125 2.453.655.529-2.289-.133-3.025-.177-.736-.044 2.004 1.72 2.74 2.073.735.352 3.12 1.239 3.855 1.415.736.176 1.96 15.197 2.548 17.765 0 0 2.945 1.632 7.905.817 4.96-.815 5.9-3.988 5.9-3.988"/>
            <g transform="translate(125.999 127.13)">
                <mask id="f" fill="#fff">
                    <use xlink:href="#e"/>
                </mask>
                <path fill="#FFCFDF" d="M19.836 23.207s-5.162-9.546-6.322-11.182c-.74-1.043 3.175-.807 4.406-3.244.699-1.383-1.082-5.939-1.05-6.322.09-1.058-6.386.244-7.547.532C8.163 3.281 8.111.965 7.366.05c-.744-.917-4.074-.865-4.21-.207C3.022.498.87.893.298.893c-.572 0-.735 2.192-1.349 1.956-.613-.237-.163 2.32-.9 2.276-.735-.044 2.004 1.72 2.74 2.073.736.352 3.12 1.239 3.856 1.415.736.176 1.96 15.197 2.548 17.765 0 0 2.945 1.632 7.905.817 4.96-.815 4.74-3.988 4.74-3.988" mask="url(#f)"/>
            </g>
            <g>
                <path stroke="#242E3E" stroke-width=".5" d="M149.319 150.337s-9.816-13.857-10.976-15.492c-1.16-1.636 1.874-4.042 1.963-5.1.09-1.059-2.32 1.347-3.48 1.635-1.16.29-2.655-.153-3.4-1.07-.744-.916-2.165-3.689-2.3-3.032-.136.657.763 3.037.763 3.566 0 .53-2.698-2.821-3.27-2.821-.573 0 1.676 3.174 1.921 3.483.246.308-2.657-1.29-3.27-1.527-.614-.237 1.471 1.924 2.125 2.453.655.529-2.289-.133-3.025-.177-.736-.044 2.004 1.72 2.74 2.073.735.352 3.12 1.239 3.855 1.415.736.176 1.96 15.197 2.548 17.765 0 0 2.945 1.632 7.905.817 4.96-.815 5.9-3.988 5.9-3.988z"/>
                <path fill="#FFF" d="M195.804 135.942c-1.373-3.76-3.764-13.246-4.242-14.547-.477-1.301-2.805-.782-5.231-.913-2.674-.146-.616-.904.687-1.236.433-.11-.976-.481-1.432-1.63-.457-1.15-1.233-2.42-.528-2.146.706.273 1.132 1.83 1.635 1.932.503.101-.671-2.596-.22-2.644.629-.068 1.1 2.034 1.54 2.135.44.102-.691-2.508-.126-2.542.566-.034.755 2.034 1.132 2.203.378.17-.22-2.204.095-2.204.314 0 .715 1.492 1.049 1.831 0 0 1.538-.949 3.078.102 1.54 1.05 13.583 11.975 14.968 13.976 1.385 2.001-3.187 3.691-5.64 4.776-2.451 1.085-6.221 2.396-6.765.907"/>
            </g>
            <g transform="translate(184.446 114.328)">
                <mask id="h" fill="#fff">
                    <use xlink:href="#g"/>
                </mask>
                <path fill="#FFCFDF" d="M24.578 20.251S10.09 5.143 9.36 4.356c-.478-.516 4.4-2.011 4.4-2.011l-4.239-2.9H-.253l-.173 22.837 25 .765.004-2.796z" mask="url(#h)"/>
            </g>
            <g>
                <path stroke="#242E3E" stroke-width=".5" d="M195.804 135.942c-1.373-3.76-3.764-13.246-4.242-14.547-.477-1.301-2.805-.782-5.231-.913-2.674-.146-.616-.904.687-1.236.433-.11-.976-.481-1.432-1.63-.457-1.15-1.233-2.42-.528-2.146.706.273 1.132 1.83 1.635 1.932.503.101-.671-2.596-.22-2.644.629-.068 1.1 2.034 1.54 2.135.44.102-.691-2.508-.126-2.542.566-.034.755 2.034 1.132 2.203.378.17-.22-2.204.095-2.204.314 0 .715 1.492 1.049 1.831 0 0 1.538-.949 3.078.102 1.54 1.05 13.583 11.975 14.968 13.976 1.385 2.001-3.188 3.691-5.64 4.776-2.451 1.085-6.221 2.396-6.765.907z"/>
                <path fill="#FE89B3" d="M162.828 208.763c.062-4.112-.036-17.625-1.38-19.556-1.343-1.933-11.7-7.942-19.673-14.98-4.17-3.683-6.453-22.117-6.453-22.117s2.89.881 7.455.06c4.564-.82 5.476-3.806 5.476-3.806s8.81 16.545 10.801 17.423c3.036 1.337 16.886 3.773 21.45 2.788 4.564-.984 14.604-2.001 16.126-5.61 1.521-3.61 2.13-14.437 1.978-17.225-.153-2.79-3.347-11.286-3.347-11.286s.912-4.265 6.085-5.086c5.172-.82 6.863.891 6.863.891s6.215 9.416 6.52 15.69c.307 6.274-4.286 29.554-4.746 32.526-.459 2.972 2.45 14.034 2.297 16.51-.153 2.477-4.971 15.339-8.499 18.964-3.263 3.353-30.563 4.46-35.242 2.864-3.069-1.047-5.779-3.52-5.711-8.05"/>
            </g>
            <g>
                <g transform="translate(135.288 129.07)">
                    <mask id="j" fill="#fff">
                        <use xlink:href="#i"/>
                    </mask>
                    <path fill="#FFCFDF" d="M72.733 4.412c-3.148.316-10.55.952-13.746 1.911-3.196.959-9.28 1.953-11.723 1.88-2.443-.072-12.11 2.807-14.975 4.238-2.865 1.432-14.144 1.62-17.771 3.011C10.89 16.844 2.748 19.717.702 19.32c-2.047-.397-3.686 4.663-1.109 4.008 2.577-.655 7.028-1.722 9.512-2.106 2.485-.383 3.605-1.653 8.373-2.574 4.768-.922 10.03-1.33 13.217-2.186 3.186-.857 9.16-2.508 14.611-3.84 5.452-1.333 12.82-2.166 16.262-3.012 3.442-.847 9.598-2.326 12.404-2.708 2.806-.382 3.34-2.949-1.239-2.49" mask="url(#j)"/>
                </g>
                <g transform="translate(135.288 129.07)">
                    <mask id="l" fill="#fff">
                        <use xlink:href="#k"/>
                    </mask>
                    <path fill="#FFCFDF" d="M.812 27.006c3.847-.908 9.516-2.374 13.58-3.029 4.063-.655 10.575-2.709 14.173-3.274 3.597-.564 9.743-1.306 14.655-2.528 4.913-1.222 12.726-3.243 17.049-4.194 4.324-.951 13.386-1.992 16.743-3.015 3.359-1.023 3.732 1.858 1.273 2.532-2.458.674-14.725 3.034-18.995 4.238-4.27 1.204-17.475 4.755-21.192 4.754-3.717-.001-10.54 2.594-14.516 3.66-3.975 1.067-12.448 3.01-15.72 3.211-3.273.2-7.467 1.89-8.353 1.082-.885-.81-3.158-2.383 1.303-3.437" mask="url(#l)"/>
                </g>
                <g transform="translate(135.288 129.07)">
                    <mask id="n" fill="#fff">
                        <use xlink:href="#m"/>
                    </mask>
                    <path fill="#FFCFDF" d="M81.288 63.714c-2.566.041-8.598.034-11.2.708-2.603.674-7.56 1.135-9.552.853-1.993-.282-9.863 1.735-12.193 2.906-2.33 1.17-11.527.385-14.479 1.45-2.952 1.066-9.579 3.209-11.249 2.64s-2.985 4.297-.887 3.87c2.1-.426 5.724-1.1 7.748-1.265 2.024-.165 2.933-1.326 6.816-1.828 3.884-.501 8.174-.452 10.769-1.026 2.594-.574 7.458-1.694 11.898-2.544 4.44-.85 10.444-1.04 13.248-1.582 2.802-.541 7.816-1.475 10.102-1.612 2.287-.137 2.71-2.631-1.02-2.57" mask="url(#n)"/>
                </g>
                <g transform="translate(135.288 129.07)">
                    <mask id="p" fill="#fff">
                        <use xlink:href="#o"/>
                    </mask>
                    <path fill="#FFCFDF" d="M22.739 79.887c3.133-.568 7.75-1.532 11.06-1.83 3.31-.299 8.612-1.771 11.543-2.02 2.931-.25 7.94-.456 11.94-1.242 4-.787 10.363-2.115 13.884-2.684 3.522-.57 10.907-.82 13.64-1.544 2.735-.723 3.052 2.16 1.05 2.616-2.003.455-11.995 1.735-15.471 2.56-3.477.823-14.23 3.202-17.261 2.881-3.03-.32-8.584 1.66-11.821 2.374-3.237.714-10.138 1.908-12.806 1.825-2.668-.084-6.08 1.229-6.806.352-.726-.877-2.586-2.63 1.048-3.288" mask="url(#p)"/>
                </g>
                <g transform="translate(135.288 129.07)">
                    <mask id="r" fill="#fff">
                        <use xlink:href="#q"/>
                    </mask>
                    <path fill="#FFCFDF" d="M2.248 33.742c2.832-.815 7.01-1.243 12.716-1.753 5.707-.51 23.61-4.224 27.298-5.167 3.688-.943 11.44-4.138 14.208-4.202 2.769-.063 9.658-.725 13.322-2.401 3.664-1.677 10.51-1.574 11.853-1.368 1.342.205.286 3.76-4.242 4.707-4.527.947-17.15 4.171-19.8 4.387-2.648.215-10.95 1.661-14.816 3.436-4.015 1.844-16.844 3.123-21.023 4.015-4.177.891-8.475.711-10.68 1.074-2.205.363-7.024 1.053-8.553 1.14-1.53.088-5.003-2.51-.283-3.868" mask="url(#r)"/>
                </g>
                <g transform="translate(135.288 129.07)">
                    <mask id="t" fill="#fff">
                        <use xlink:href="#s"/>
                    </mask>
                    <path fill="#FFCFDF" d="M23.55 63.876c2.039-.614 5.076-.817 9.228-1.027 4.152-.209 17.095-2.788 19.754-3.48 2.658-.693 8.2-2.833 10.221-2.767 2.022.065 7.033-.647 9.645-2.007 2.612-1.36 7.622-.963 8.612-.716.99.247.359 3.428-2.914 4.088-3.273.659-12.375 3.026-14.303 3.104-1.928.078-7.94 1.022-10.696 2.463-2.863 1.496-12.192 2.088-15.211 2.712-3.02.624-6.169.27-7.767.501-1.597.232-5.093.645-6.208.656-1.116.011-3.758-2.503-.36-3.527" mask="url(#t)"/>
                </g>
                <g transform="translate(135.288 129.07)">
                    <mask id="v" fill="#fff">
                        <use xlink:href="#u"/>
                    </mask>
                    <path fill="#FFCFDF" d="M2.763 43.825c2.94-1.258 13.946-4.063 19.645-4.374 5.699-.312 16.32-2.677 21.98-4.063 5.66-1.386 18.802-4.573 21.167-4.655 2.365-.081 9.233-1.359 12.397-2.189 3.164-.83 4.232 4.584 1.099 5.165-3.133.582-14.1 1.32-17.77 1.904-3.37.537-18.22 4.097-22.42 5.032-4.199.935-20.009 2.781-22.596 3.313-2.587.533-9.697 3.084-11.919 2.654-2.222-.43-4.524-1.53-1.583-2.787" mask="url(#v)"/>
                </g>
                <g transform="translate(135.288 129.07)">
                    <mask id="x" fill="#fff">
                        <use xlink:href="#w"/>
                    </mask>
                    <path fill="#FFCFDF" d="M10.928 49.44c5.435-.759 23.966-4.327 29.99-4.773 6.024-.446 18.33-3.59 22.454-4.224 4.124-.634 15.297-3.223 16.777-2.691 1.481.53 2.003 2.453-5.236 3.857-7.239 1.403-14 2.753-17.982 3.483-3.982.729-21.909 4.635-26.476 5.21-4.567.573-17.072 2.506-19.857 3.098-2.784.592-5.106-3.2.33-3.96" mask="url(#x)"/>
                </g>
                <g transform="translate(135.288 129.07)">
                    <mask id="z" fill="#fff">
                        <use xlink:href="#y"/>
                    </mask>
                    <path fill="#FFCFDF" d="M30.919 53.873c5.334-.603 17.21-2.279 20.652-3.236 3.442-.957 16.236-3.727 19.85-3.77 3.613-.043 8.865-.961 8.561.446-.304 1.407-.012 2.192-5.901 2.774-5.89.582-25.845 6.375-31.402 6.889-5.557.513-20.772 2.373-22.231 2.24-1.46-.135-3.582-1.225-.549-2.579 3.034-1.354 6.268-2.226 11.02-2.764" mask="url(#z)"/>
                </g>
                <g transform="translate(135.288 129.07)">
                    <mask id="B" fill="#fff">
                        <use xlink:href="#A"/>
                    </mask>
                    <path fill="#FFCFDF" d="M69.972 82.987c-5.333.604-17.21 2.28-20.651 3.236-3.443.958-16.237 3.728-19.85 3.771-3.614.043-8.866.96-8.562-.446.304-1.407.013-2.192 5.901-2.774 5.89-.582 26.002-5.327 31.559-5.84 5.557-.514 20.615-3.423 22.074-3.288 1.46.134 3.583 1.224.55 2.578-3.034 1.353-6.268 2.226-11.02 2.763" mask="url(#B)"/>
                </g>
            </g>
            <g>
                <path stroke="#000" stroke-width=".5" d="M162.828 208.763c.062-4.112-.036-17.625-1.38-19.556-1.343-1.933-11.7-7.942-19.673-14.98-4.17-3.683-6.453-22.117-6.453-22.117s2.89.881 7.455.06c4.564-.82 5.476-3.806 5.476-3.806s8.81 16.545 10.801 17.423c3.036 1.337 16.886 3.773 21.45 2.788 4.564-.984 14.604-2.001 16.126-5.61 1.521-3.61 2.13-14.437 1.978-17.225-.153-2.79-3.347-11.286-3.347-11.286s.912-4.265 6.085-5.086c5.172-.82 6.863.891 6.863.891s6.215 9.416 6.52 15.69c.307 6.274-4.286 29.554-4.746 32.526-.459 2.972 2.45 14.034 2.297 16.51-.153 2.477-4.971 15.339-8.499 18.964-3.263 3.353-30.563 4.46-35.242 2.864-3.069-1.047-5.779-3.52-5.711-8.05z"/>
                <path fill="#FFF" d="M184.774 177.824c2.845-.144 3.017-5.99.627-8.735-3.005-3.451-5.585-8.827-5.159-9.838.427-1.011 2.388-.736 2.644-2.39.085-.551-.632-1.876-1.672-3.408-.337-.499 1.213-1.727.562-1.71-1.153.026-2.882-1.184-3.605-2.291-1.221-1.871-2.755-3.06-3.215-3.165 0 0 .48 4.419-.823 6.164-.423.568.845 1.366.634 1.746-.211.38-.95-.403-2.077 0-1.126.403-1.055 1.897 0 2.618 1.056.72 2.499-.569 2.745.19.247.759 2.638 8.341 1.9 12.143-.444 2.29 2.456 8.928 7.44 8.676"/>
            </g>
            <g transform="translate(171.673 146.138)">
                <mask id="D" fill="#fff">
                    <use xlink:href="#C"/>
                </mask>
                <path fill="#FFCFDF" d="M12.884 32.05c.68-1.308 1.756-4.1.844-6.504-.91-2.404-4.945-6.556-5.934-9.324-.989-2.768-.579-2.17.776-3.11 1.354-.939 1.757-1.152.67-3.175-1.086-2.024-5.037-7.561-6.814-8.413C.648.672-.537 4.23-.537 8.414c0 4.185 6.45 21.999 8.038 22.817 1.587.819 5.383.819 5.383.819" mask="url(#D)"/>
            </g>
            <g>
                <path stroke="#242E3E" stroke-width=".5" d="M184.774 177.824c2.845-.144 3.017-5.99.627-8.735-3.005-3.451-5.585-8.827-5.159-9.838.427-1.011 2.388-.736 2.644-2.39.085-.551-.632-1.876-1.672-3.408-.337-.499 1.213-1.727.562-1.71-1.153.026-2.882-1.184-3.605-2.291-1.221-1.871-2.755-3.06-3.215-3.165 0 0 .48 4.419-.823 6.164-.423.568.845 1.366.634 1.746-.211.38-.95-.403-2.077 0-1.126.403-1.055 1.897 0 2.618 1.056.72 2.499-.569 2.745.19.247.759 2.638 8.341 1.9 12.143-.444 2.29 2.456 8.928 7.44 8.676z"/>
                <path fill="#242E3E" d="M111.414 169.878c1.417-7.976-5.231-21.471-5.888-23.429 0 0 .754-2.457-.517-3.542-1.272-1.084-3.136-1.148-3.193-2.106-.056-.957.113-2.01-.254-2.137-.367-.128-.65 1.82-.65 2.166 0 .346.265.52.167.645-.097.126-.39-.047-.641-.33-.25-.284.07-2.063-.348-2.44-.419-.379-.59.471-.697 2.298-.042.708.445 1.087.209 1.212-.237.126-.83-.433-.997-.66-.168-.226.089-2.066-.48-2.393-.569-.328-.435 2.116-.468 2.456-.034.34.605.955.59 1.175-.027.422-.873-.157-1.15-.595-.277-.438-.097-2.317-.762-2.771-.666-.454-.43 2.442-.389 3.068.042.627 1.636 2.584 2.135 3.022.5.439-1.843-.532-2.758-.313-.915.219-1.262.908-.042 1.159 1.22.25 3.662 1.554 5.658 1.397 0 0-.79 7.626-6.768 16.61-5.978 8.983 1.068 12.48 5.177 14.891 4.11 2.412 10.68-1.582 12.066-9.383"/>
                <path stroke="#242E3E" stroke-width=".5" d="M111.414 169.878c1.417-7.976-5.231-21.471-5.888-23.429 0 0 .754-2.457-.517-3.542-1.272-1.084-3.136-1.148-3.193-2.106-.056-.957.113-2.01-.254-2.137-.367-.128-.65 1.82-.65 2.166 0 .346.265.52.167.645-.097.126-.39-.047-.641-.33-.25-.284.07-2.063-.348-2.44-.419-.379-.59.471-.697 2.298-.042.708.445 1.087.209 1.212-.237.126-.83-.433-.997-.66-.168-.226.089-2.066-.48-2.393-.569-.328-.435 2.116-.468 2.456-.034.34.605.955.59 1.175-.027.422-.873-.157-1.15-.595-.277-.438-.097-2.317-.762-2.771-.666-.454-.43 2.442-.389 3.068.042.627 1.636 2.584 2.135 3.022.5.439-1.843-.532-2.758-.313-.915.219-1.262.908-.042 1.159 1.22.25 3.662 1.554 5.658 1.397 0 0-.79 7.626-6.768 16.61-5.978 8.983 1.068 12.48 5.177 14.891 4.11 2.412 10.68-1.582 12.066-9.383z"/>
                <path fill="#242E3E" d="M34.495 78.668c4.934-.835 15.907-.244 17.711-.364 1.805-.12 1.14-3.185 1.787-4.508.646-1.323 3.182-2.859 4.127-2.859.945 0-1.732 2.432-1.781 3.068-.05.635 2.55-2.166 3.401-2.166.85 0-2.035 3.233-1.853 3.588.183.356 2.734-2.715 3.31-2.554.578.162-1.821 3.525-1.791 4.042.03.517 2.581-2.845 3.098-2.554.516.29-1.731 3.298-2.065 4.17-.334.874-.577 1.585 0 1.585.576 0 1.852-1.132 3.37-.42 1.52.71-2.892 1.092-3.735 2.101-.486.582-2.004.13-2.824 1.035-.82.905-9.414 9.22-13.109 12.831-3.695 3.61-11.19-1.383-12.937-5.789-1.748-4.406-2.523-10.223 3.29-11.206"/>
                <path stroke="#242E3E" stroke-width=".5" d="M34.495 78.668c4.934-.835 15.907-.244 17.711-.364 1.805-.12 1.14-3.185 1.787-4.508.646-1.323 3.182-2.859 4.127-2.859.945 0-1.732 2.432-1.781 3.068-.05.635 2.55-2.166 3.401-2.166.85 0-2.035 3.233-1.853 3.588.183.356 2.734-2.715 3.31-2.554.578.162-1.821 3.525-1.791 4.042.03.517 2.581-2.845 3.098-2.554.516.29-1.731 3.298-2.065 4.17-.334.874-.577 1.585 0 1.585.576 0 1.852-1.132 3.37-.42 1.52.71-2.892 1.092-3.735 2.101-.486.582-2.004.13-2.824 1.035-.82.905-9.414 9.22-13.109 12.831-3.695 3.61-11.19-1.383-12.937-5.789-1.748-4.406-2.523-10.223 3.29-11.206z"/>
                <path fill="#E3E9F2" d="M54.664 217.815c1.887-3.316 6.662-11.984 10.857-12.542 4.194-.557 40.712-3.902 42.192-8.36 1.48-4.46 3.701-22.297 3.701-27.035 0 0-11.146 3.203-17.068-5.715 0 0-3.176 4.82-5.22 7.068-2.325 2.558-7.814 2.27-11.268.877-3.455-1.394-18.55-13.202-24.428-16.165-3.691-1.86-18.012-6.967-21.466-9.475-3.454-2.509-3.208-30.1-2.22-33.723.986-3.623 14.877-17.654 14.877-17.654s-5.995-1.576-8.216-16.626c0 0-23.193 3.066-29.115 8.361-5.922 5.296-5.429 57.97-9.376 66.052-3.948 8.082-22.453 44.87-31.09 58.248-8.635 13.377 81.178 18.394 87.84 6.689"/>
            </g>
            <g>
                <g transform="translate(-33.861 78.252)">
                    <mask id="F" fill="#fff">
                        <use xlink:href="#E"/>
                    </mask>
                    <path stroke="#FE89B3" stroke-width=".774" d="M35.679 11.076c2.143 8.664 17.609 4.163 24.57.694 6.962-3.47 6.143-9.251 1.434-16.883-4.71-7.632-29.894.462-26.004 16.19z" mask="url(#F)"/>
                </g>
                <g transform="translate(-33.861 78.252)">
                    <mask id="H" fill="#fff">
                        <use xlink:href="#G"/>
                    </mask>
                    <path stroke="#FE89B3" stroke-width=".774" d="M50.83 76.295c-3.177-7.102.615-17.345 6.962-21.74 6.348-4.394 19.322-1.606 19.862 5.088.726 9.012-9.644 8.241-10 14.52-.537 9.49-11.863 13.216-16.823 2.132z" mask="url(#H)"/>
                </g>
                <g transform="translate(-33.861 78.252)">
                    <mask id="J" fill="#fff">
                        <use xlink:href="#I"/>
                    </mask>
                    <path stroke="#FE89B3" stroke-width=".774" d="M12.132 88.784c3.805-8.38 13.719-16.652 24.98-12.026 11.262 4.625 13.514 16.189 10.238 21.97-3.276 5.783-13.578 9.057-18.837 4.626-3.084-2.598-8.198.637-13.68-.419-3.448-.664-6.796-5.131-2.7-14.15z" mask="url(#J)"/>
                </g>
                <g transform="translate(-33.861 78.252)">
                    <mask id="L" fill="#fff">
                        <use xlink:href="#K"/>
                    </mask>
                    <path stroke="#FE89B3" stroke-width=".774" d="M20.118 60.569c7.257 6.706 17.608 3.006 23.751-4.626 6.143-7.632 6.553-16.883 3.276-22.896-3.276-6.013-12.9-5.319-15.561 1.388-2.662 6.707-7.576 5.782-11.261 10.407-3.686 4.625-4.71 11.564-.205 15.727z" mask="url(#L)"/>
                </g>
                <g transform="translate(-33.861 78.252)">
                    <mask id="N" fill="#fff">
                        <use xlink:href="#M"/>
                    </mask>
                    <path stroke="#FE89B3" stroke-width=".774" d="M85.025 39.523c3.718-5.43-4.505-17.808-13.105-19.89-8.6-2.081-17.608.231-18.632 7.17-1.024 6.938 2.261 11.226 7.985 10.639 9.01-.926 15.357 14.338 23.752 2.08z" mask="url(#N)"/>
                </g>
                <g transform="translate(-33.861 78.252)">
                    <mask id="P" fill="#fff">
                        <use xlink:href="#O"/>
                    </mask>
                    <path stroke="#FE89B3" stroke-width=".774" d="M72.902 111.21c-6.758-1.42-13.462-6.388-10.083-16.408 2.734-8.107 11.49-4.99 12.686-15.993.841-7.734 9.7-8.135 16.202-2.628 6.5 5.507 6.825 14.869 2.762 24.598-4.063 9.729-14.579 11.9-21.567 10.432z" mask="url(#P)"/>
                </g>
                <g transform="translate(-33.861 78.252)">
                    <mask id="R" fill="#fff">
                        <use xlink:href="#Q"/>
                    </mask>
                    <path stroke="#FE89B3" stroke-width=".774" d="M118.403 115.33c-6.446 1.912-14.951-4.037-16.089-14.317-1.137-10.28 5.201-17.99 10.889-17.99s9.263 5.324 7.963 10.647c-1.3 5.324 10.238 17.806-2.763 21.66z" mask="url(#R)"/>
                </g>
                <g transform="translate(-33.861 78.252)">
                    <mask id="T" fill="#fff">
                        <use xlink:href="#S"/>
                    </mask>
                    <path stroke="#FE89B3" stroke-width=".774" d="M125.347 86.556c-.654 5.839 1.95 12.298 11.538 8.994 9.588-3.304 14.626-12.482 14.301-22.945-.325-10.463-8.405-14.658-14.444-9.491-3 2.568-1.364 8.011-4.092 12.12-2.728 4.108-6.605 5.08-7.303 11.322z" mask="url(#T)"/>
                </g>
                <g transform="translate(-33.861 78.252)">
                    <mask id="V" fill="#fff">
                        <use xlink:href="#U"/>
                    </mask>
                    <path stroke="#FE89B3" stroke-width=".774" d="M134.469 130.493c-5.231-1.58-4.729-18.385.273-23.829 5-5.443 10.002-11.503 15.185-9.655 5.183 1.85 5.365 13.558.091 18.693-5.274 5.136.091 19.515-15.55 14.79z" mask="url(#V)"/>
                </g>
                <g transform="translate(-33.861 78.252)">
                    <mask id="X" fill="#fff">
                        <use xlink:href="#W"/>
                    </mask>
                    <path stroke="#FE89B3" stroke-width=".774" d="M100.915 138.61c7.446-1.745 6.915-11.174 4.034-16.49-2.882-5.315-12.87-8.895-23.147-3.037s-9.413 18.334-7.204 22.782c2.21 4.448 11.52 6.617 15.752-.976 3.265-5.859 5.474-1.085 10.565-2.279z" mask="url(#X)"/>
                </g>
                <g transform="translate(-33.861 78.252)">
                    <mask id="Z" fill="#fff">
                        <use xlink:href="#Y"/>
                    </mask>
                    <path stroke="#FE89B3" stroke-width=".774" d="M49.964 139.003c3.842-7.377 13.062-1.627 15.463-10.197 2.401-8.57-8.068-19.42-19.113-17.141-11.045 2.278-18.44 12.801-19.785 22.348-1.345 9.547 6.435 13.995 12.582 13.778 6.147-.217 8.25-3.79 10.853-8.788z" mask="url(#Z)"/>
                </g>
            </g>
            <g>
                <path stroke="#242E3E" stroke-width=".5" d="M54.664 217.815c1.887-3.316 6.662-11.984 10.857-12.542 4.194-.557 40.712-3.902 42.192-8.36 1.48-4.46 3.701-22.297 3.701-27.035 0 0-11.146 3.203-17.068-5.715 0 0-3.176 4.82-5.22 7.068-2.325 2.558-7.814 2.27-11.268.877-3.455-1.394-18.55-13.202-24.428-16.165-3.691-1.86-18.012-6.967-21.466-9.475-3.454-2.509-3.208-30.1-2.22-33.723.986-3.623 14.877-17.654 14.877-17.654s-5.995-1.576-8.216-16.626c0 0-23.193 3.066-29.115 8.361-5.922 5.296-5.429 57.97-9.376 66.052-3.948 8.082-22.453 44.87-31.09 58.248-8.635 13.377 81.178 18.394 87.84 6.689z"/>
                <path fill="#242E3E" d="M45.043 169.6c5.783 2.344 7.703-10.086 8.061-15.334.359-5.248 1.255-8.588 1.972-8.302.717.287 4.033 1.813 4.033.287 0-1.527-.569-7.053-.284-8.264 0 0 1.706-.303 1.706-.909 0-.605-2.63-.984-2.844-2.347-.213-1.362-.64-3.71-1.28-5.904 0 0-2.002-1.298-3.401-1.205 0 0-1.306 4.722-2.137 5.653 0 0-.048 1.56-.88 1.049-.83-.512-2.459-.317-2.928.93-.524 1.397.743 3.119 2.273 3.258 1.53.14 1.006 8.61-3.103 15.358-2.219 3.643-5.436 14.007-1.188 15.73"/>
                <path stroke="#242E3E" stroke-width=".5" d="M45.043 169.6c5.783 2.344 7.703-10.086 8.061-15.334.359-5.248 1.255-8.588 1.972-8.302.717.287 4.033 1.813 4.033.287 0-1.527-.569-7.053-.284-8.264 0 0 1.706-.303 1.706-.909 0-.605-2.63-.984-2.844-2.347-.213-1.362-.64-3.71-1.28-5.904 0 0-2.002-1.298-3.401-1.205 0 0-1.306 4.722-2.137 5.653 0 0-.048 1.56-.88 1.049-.83-.512-2.459-.317-2.928.93-.524 1.397.743 3.119 2.273 3.258 1.53.14 1.006 8.61-3.103 15.358-2.219 3.643-5.436 14.007-1.188 15.73z"/>
                <path fill="#FFF" d="M50.223 134.822c1.158 1.177 4.01 12.948 6.18 14.208 2.169 1.26 3.615 1.54 5.259.35 1.643-1.19 2.235-2.03 1.709-4.549-.526-2.52-2.79-5.033-3.775-6.083-.986-1.05-2.48-1.018-3.078.064-.528.954-.904 2.1-1.43 1.12-.526-.98-3.682-4.83-3.682-6.09 0-1.26 2.63-1.89 2.433-5.459 0 0 2.796.451 2.892 1.54.005.048 3.024 0 2.893-6.02-.132-6.019-3.813-8.328-7.297-6.788-3.485 1.54-3.221 6.719-7.1 8.259-3.879 1.54-9.992 1.96-10.715 7.838-.723 5.88 3.747 8.19 7.23 8.19 3.485 0 6.772-.91 8.415.21l-.131-3.43s-2.498 0-2.892-1.96c-.395-1.96 1.643-2.87 3.09-1.4"/>
            </g>
            <g transform="translate(34.263 116.268)">
                <mask id="ac" fill="#fff">
                    <use xlink:href="#ab"/>
                </mask>
                <path fill="#FFCFDF" d="M6.68 34.223h7.583V18.32H6.679z" mask="url(#ac)"/>
                <path fill="#FFCFDF" d="M18.656 33.999c2.17 1.26 3.455 2.442 5.098 1.252 1.643-1.19 1.979-2.765 1.453-5.285s-1.963-5.652-2.95-6.702c-.985-1.05-3.36-6.707-3.406-7.8-.083-1.929 2.613-1.327 2.482-7.346-.132-6.02-3.27-7.575-6.753-6.035-3.484 1.54-3.323 5.944-7.202 7.484C3.5 11.107-2.512 12.3-3.235 18.18c-.723 5.88 3.75 8.343 7.23 8.189 13.62-.604 12.492 6.369 14.66 7.629" mask="url(#ac)"/>
            </g>
            <g>
                <path stroke="#242E3E" stroke-width=".5" d="M50.223 134.822c1.158 1.177 4.01 12.948 6.18 14.208 2.169 1.26 3.615 1.54 5.259.35 1.643-1.19 2.235-2.03 1.709-4.549-.526-2.52-2.79-5.033-3.775-6.083-.986-1.05-2.48-1.018-3.078.064-.528.954-.904 2.1-1.43 1.12-.526-.98-3.682-4.83-3.682-6.09 0-1.26 2.63-1.89 2.433-5.459 0 0 2.796.451 2.892 1.54.005.048 3.024 0 2.893-6.02-.132-6.019-3.813-8.328-7.297-6.788-3.485 1.54-3.221 6.719-7.1 8.259-3.879 1.54-9.992 1.96-10.715 7.838-.723 5.88 3.747 8.19 7.23 8.19 3.485 0 6.772-.91 8.415.21l-.131-3.43s-2.498 0-2.892-1.96c-.395-1.96 1.643-2.87 3.09-1.4z"/>
                <path fill="#E3E9F2" d="M79.768 96.484l2.286 52.73 193.365-61.26z"/>
                <path stroke="#242E3E" stroke-width=".5" d="M79.768 96.484l2.286 52.73 193.365-61.26z"/>
                <path fill="#E3E9F2" d="M95.31 110.07l-13.257 39.144 193.366-61.26z"/>
                <path stroke="#242E3E" stroke-width=".5" d="M95.31 110.07l-13.257 39.144 193.366-61.26z"/>
                <path fill="#FFF" d="M95.31 110.07l34.285 31.486 145.824-53.602z"/>
                <path stroke="#242E3E" stroke-width=".5" d="M95.31 110.07l34.285 31.486 145.824-53.602z"/>
                <path fill="#FFF" d="M79.768 96.484l195.651-8.53L55.54 72.42z"/>
                <path stroke="#242E3E" stroke-width=".5" d="M79.768 96.484l195.651-8.53L55.54 72.42z"/>
            </g>
        </g>
    </g>
</svg>
