<svg xmlns="http://www.w3.org/2000/svg" xmlns:xlink="http://www.w3.org/1999/xlink" width="232" height="232" viewBox="0 0 232 232">
    <defs>
        <circle id="a" cx="116" cy="116" r="116"/>
        <path id="c" d="M.17.42h135.603v80.086H.17z"/>
        <path id="e" d="M.348.365h149.158v88.454H.348z"/>
        <path id="g" d="M5.098.768c-.29.193-.302 2.238-.63 2.27-.108.011-.268-.036-.438-.083-.353-.099-.746-.198-.786.222-.06.624-.136 1.984-.513 1.902-.676-.146-.81 1.029-.995 1.82-.132.57 1.615 1.258 1.58 2.083C3.28 9.807-.807 24.874.87 32.335c1.677 7.46 18.205-1.792 17.768-4.092-.848-4.46-7.827-15.973-10.21-19.605-.438-.666 1.82-.69 1.873-1.914a5.456 5.456 0 0 0-.26-1.862c-.185-.552 1.076-1.967-.112-2.077-.293-.027-.626.447-.939.92-.364.552-.7 1.103-.907.862-.385-.449-1.984-1.884-1.618-2.314C6.83 1.823 8.27.828 7.87.456c-.107-.1-.332-.14-.61-.14-.763 0-1.925.295-2.162.452z"/>
        <path id="i" d="M5.098.768c-.29.193-.302 2.238-.63 2.27-.108.011-.268-.036-.438-.083-.353-.099-.746-.198-.786.222-.06.624-.136 1.984-.513 1.902-.676-.146-.81 1.029-.995 1.82-.132.57 1.615 1.258 1.58 2.083C3.28 9.807-.807 24.874.87 32.335c1.677 7.46 18.205-1.792 17.768-4.092-.848-4.46-7.827-15.973-10.21-19.605-.438-.666 1.82-.69 1.873-1.914a5.456 5.456 0 0 0-.26-1.862c-.185-.552 1.076-1.967-.112-2.077-.293-.027-.626.447-.939.92-.364.552-.7 1.103-.907.862-.385-.449-1.984-1.884-1.618-2.314C6.83 1.823 8.27.828 7.87.456c-.107-.1-.332-.14-.61-.14-.763 0-1.925.295-2.162.452"/>
        <path id="k" d="M18.33 1.5c-.668.193-.509-.181-.563-.521-.054-.34-1.515-.197-1.977-.08-.462.117-.642 2.437-1.12 2.878-.477.44-4.706.836-7.602 1.568-2.896.731-5.615 1.21-6.296 3.199-1.32 3.86-.395 15.21 1.32 15.287 1.716.078 4.828-2.596 7.041-5.433 2.214-2.837 7.118-10.462 7.71-10.86.591-.4 1.752-.234 2.167-.65.414-.414.066-1.231.105-1.542.037-.312 1.131-.572 1.48-.845.35-.274-.018-1.219-.076-1.591-.06-.373 1.176-1.943 1.109-2.368-.01-.064-.077-.091-.184-.091-.61 0-2.546.885-3.114 1.049"/>
        <path id="m" d="M6.335 4.77C5.73 6.417 4.83 7.051 4.8 7.812c-.08 2.064-1.093 3.934-1.699.477-.237-1.356-2.735-.88-2.687.932.047 1.812 1.931 1.928 2.327 2.76.395.831 1.449 2.965 1.41 5.021-.04 2.057-.52 4.884-.708 6.337-.187 1.452.484 5.243 1.407 8.04.885 2.68 2.928 5.436 3.917 5 2.141-.944.335-7.608-.398-12.079-.732-4.47-1.297-9.215-.72-9.256.155-.01.36.013.583.037.598.065 1.317.13 1.507-.493.211-.692.505-1.834.476-3.805.492.048 1.177-.096 1.087-.268-.693-1.327-1.459-3.407-1.634-4.557a4.063 4.063 0 0 0-.105-.536C9.058 2.938 8.36.606 7.9.112 7.88.09 7.86.078 7.84.078c-.346 0-.824 2.842-1.504 4.691"/>
    </defs>
    <g fill="none" fill-rule="evenodd">
        <mask id="b" fill="#fff">
            <use xlink:href="#a"/>
        </mask>
        <use fill="#F5F8FC" xlink:href="#a"/>
        <g mask="url(#b)">
            <path fill="#EDF3F9" d="M134.511 38.839c17.4 9.565 9.86 33.572-16.431 48.618-26.29 15.046-9.39 29.898-25.821 57.013-16.431 27.116-48.722 21.626-57.09-14.135C27.366 97 38.04 73.852 58.602 53.055c15.94-16.122 55.073-25.67 75.908-14.216"/>
            <path fill="#EEF2F8" d="M330.735 251.89c-5.174 19.158-30.303 17.532-51.166-4.42-20.863-21.951-31.295-2.023-61.555-11.543-30.26-9.519-32.58-42.166.204-58.77 30.56-15.477 55.598-10.606 80.693 4.422 19.456 11.65 38.02 47.371 31.824 70.312" opacity=".4"/>
            <g transform="translate(148.74 .073)">
                <mask id="d" fill="#fff">
                    <use xlink:href="#c"/>
                </mask>
                <path fill="#EDF3F9" d="M117.37 4.434C90.555-8.08 80.509 11.95 62.65 19.78 44.794 27.607 18.374 7.695 3.89 30.713S18.55 82.07 68.324 80.44c34.276-1.123 61.995-18.191 66.533-37.903 3.768-16.367-4.475-32.03-17.487-38.102" mask="url(#d)"/>
            </g>
            <path fill="#EEF2F8" d="M187.634 162.11c-14.783 13.575-17.313 28.539-9.506 45.534 4.977 10.836 5.483 25.746-15.343 41.254-20.825 15.507-72.155-10.294-66.804-58.619 5.35-48.324 45.295-81.124 70.764-74.227 18.198 4.927 43.397 25.39 20.89 46.058" opacity=".4"/>
            <g transform="translate(210.878 77.437)">
                <mask id="f" fill="#fff">
                    <use xlink:href="#e"/>
                </mask>
                <path fill="#EEF2F8" d="M46.473 85.314c22.293-6.22 35.411-15.096 52.424-4.828 10.846 6.547 33.69 18.373 46.889-8.36 11.303-22.893-2.824-63.341-46.792-69.748C25.354-8.352 5.027 26.138.808 50.665c-3.383 19.67 11.89 44.071 45.665 34.649" mask="url(#f)"/>
            </g>
            <path fill="#EEF2F8" d="M1.8 145.882S-8.37 121.1 8.574 96.922C25.52 72.744 21.848 45.87 5.14 17.055-11.567-11.761-45.025-.26-59.796 30.7c-9.822 20.587-6.218 60.025 20.104 102.594 26.323 42.57 49.524 33.439 41.491 12.587" opacity=".2"/>
            <path stroke="#7F879A" stroke-width=".5" d="M-18.787 184.492s17.334-16.518 56.225-21.38c38.89-4.864 80.122 26.108 129.297 19.19 49.176-6.917 51.793-91.493 130.103-116.019"/>
            <path fill="#AEB7C9" d="M159.5 174.89c3.855-4.549-.043-7.463-.968-11.283-.925-3.82 4.512-7.93.16-11.845-4.353-3.914-12.205 2.433-13.989 12.093-1.229 6.652 1.746 10.697 5.812 12.535 3.375 1.526 7.114.706 8.984-1.5"/>
            <path stroke="#7F879A" stroke-width=".5" d="M154.365 155.669s-4.895 16.222-.17 29.229M152.147 173.835l5.589-4.609M155.809 170.815l2.714.895M152.104 170.63l-6.065-5.806M145.552 167.55l3.52.176-.112-3.827M152.797 163.223l-3.246-5.051M151.174 160.697l.153-3.039M152.542 165.99l4.177-3.04M154.998 164.202l.732-2.507M153.755 158.383l4.202-2.869M156.53 185.174s-2.116-.353-4.901-.246"/>
            <path fill="#FFCFDF" d="M167.942 155.984c-3.12-.482-4.501 3.274-2.65 7.718 1.852 4.444-1.719 4.677-2.281 9.686-.562 5.01 6.271 7.542 10.797 3.848 4.219-3.444 3.902-8.586 2.55-13.034-1.229-4.04-4.679-7.642-8.416-8.218"/>
            <path stroke="#7F879A" stroke-width=".5" d="M170.614 166.432l2.652-2.687M170.242 162.86s1.732 10.035-1.412 20.705M170.614 170.118l-2.97-2.65M170.467 174.975l4.096-3.668M172.882 170.388v2.424l1.68.329M168.754 168.459l-2.083.334M170.12 176.98l-4.216-3.537M167.158 172.1l.486 2.803M170.718 183.917s-1.973-.732-4.275 0"/>
            <path fill="#7F879A" d="M260.276 138.084h-5.42l-28.31 91.91h5.42z"/>
            <path stroke="#242E3E" stroke-width=".5" d="M260.276 138.084h-5.42l-28.31 91.91h5.42z"/>
            <path fill="#A10244" d="M213.98 139.612c0 32.327 22.04 58.532 49.229 58.532 27.187 0 49.227-26.205 49.227-58.532 0-32.326-22.04-58.531-49.227-58.531-27.188 0-49.228 26.205-49.228 58.531"/>
            <path stroke="#242E3E" stroke-width=".5" d="M213.98 139.612c0 32.327 22.04 58.532 49.229 58.532 27.187 0 49.227-26.205 49.227-58.532 0-32.326-22.04-58.531-49.227-58.531-27.188 0-49.228 26.205-49.228 58.531z"/>
            <path fill="#FE89B3" d="M209.69 139.612c0 32.327 22.04 58.532 49.229 58.532 27.187 0 49.227-26.205 49.227-58.532 0-32.326-22.04-58.531-49.227-58.531-27.188 0-49.228 26.205-49.228 58.531"/>
            <path stroke="#242E3E" stroke-width=".5" d="M209.69 139.612c0 32.327 22.04 58.532 49.229 58.532 27.187 0 49.227-26.205 49.227-58.532 0-32.326-22.04-58.531-49.227-58.531-27.188 0-49.228 26.205-49.228 58.531z"/>
            <path fill="#FBFCFE" d="M217.326 139.612c0 27.312 18.622 49.453 41.593 49.453 22.97 0 41.592-22.14 41.592-49.453 0-27.311-18.622-49.452-41.592-49.452-22.971 0-41.593 22.14-41.593 49.452"/>
            <path fill="#FE89B3" d="M224.918 139.154c0 22.327 15.223 40.426 34 40.426 18.778 0 34.001-18.1 34.001-40.426 0-22.328-15.223-40.427-34-40.427-18.778 0-34.001 18.1-34.001 40.427"/>
            <path fill="#FBFCFE" d="M231.799 139.154c0 17.808 12.141 32.245 27.12 32.245 14.977 0 27.12-14.437 27.12-32.245 0-17.809-12.143-32.246-27.12-32.246-14.979 0-27.12 14.437-27.12 32.246"/>
            <g>
                <path stroke="#242E3E" stroke-linecap="round" stroke-linejoin="round" stroke-width=".986" d="M290.428 139.21h-67.434"/>
                <path stroke="#FE89B3" stroke-linecap="round" stroke-linejoin="round" stroke-width=".986" d="M217.929 144.626l5.42-5.416-5.42-5.417"/>
                <path stroke="#FE89B3" stroke-linecap="round" stroke-linejoin="round" stroke-width=".986" d="M220.53 144.626l5.42-5.416-5.42-5.417"/>
                <path stroke="#FE89B3" stroke-linecap="round" stroke-linejoin="round" stroke-width=".986" d="M223.131 144.626l5.42-5.416-5.42-5.417"/>
                <path stroke="#FE89B3" stroke-linecap="round" stroke-linejoin="round" stroke-width=".986" d="M225.732 144.626l5.42-5.416-5.42-5.417"/>
                <path stroke="#FE89B3" stroke-linecap="round" stroke-linejoin="round" stroke-width=".986" d="M228.334 144.626l5.42-5.416-5.42-5.417"/>
                <path fill="#242E3E" d="M97.077 106.184c1.027-3.648 3.784-12.72-.252-15.708-4.036-2.99-9.572.594-12.792-4.883-3.22-5.477-.017-17.33-11.17-16.321-11.151 1.01-9.23-10.43-20.765-10.292-13.075.156-23.907 10.67-26.276 26.257-2.235 14.7 4.755 23.436 13.616 20.069 9.686-3.68 7.625 5.5 19.282 7.057 8.607 1.149 12.876-4.978 17.74 2.57 4.865 7.549 13.717 9.277 15.937 5.717 2.219-3.56 3.479-10.198 4.68-14.466"/>
                <path stroke="#242E3E" stroke-width=".5" d="M97.077 106.184c1.027-3.648 3.784-12.72-.252-15.708-4.036-2.99-9.572.594-12.792-4.883-3.22-5.477-.017-17.33-11.17-16.321-11.151 1.01-9.23-10.43-20.765-10.292-13.075.156-23.907 10.67-26.276 26.257-2.235 14.7 4.755 23.436 13.616 20.069 9.686-3.68 7.625 5.5 19.282 7.057 8.607 1.149 12.876-4.978 17.74 2.57 4.865 7.549 13.717 9.277 15.937 5.717 2.219-3.56 3.479-10.198 4.68-14.466z"/>
                <path fill="#242E3E" d="M132.86 233.312c-6.77-12.709-16.521-27.993-19.09-32.008-5.573-8.704-41.725-2.195-55.264 6.209-7.999 4.965-13.36 14.077-16.769 22.6l91.124 3.2z"/>
                <path stroke="#242E3E" stroke-width=".5" d="M132.86 234.112c-6.77-12.709-16.521-28.793-19.09-32.808-5.573-8.704-41.725-2.195-55.264 6.209-7.999 4.965-13.36 14.077-16.769 22.6l91.124 4z"/>
                <path fill="#FBFCFE" d="M42.808 84.597c-.437-.666 1.82-.691 1.873-1.914a5.442 5.442 0 0 0-.26-1.862c-.185-.553 1.076-1.968-.111-2.077-.633-.059-1.461 2.23-1.847 1.781-.384-.449-1.983-1.883-1.618-2.314.365-.43 1.804-1.424 1.404-1.797-.4-.372-2.45.099-2.771.313-.29.192-.302 2.238-.631 2.27-.329.033-1.164-.484-1.223.14-.06.622-.137 1.982-.513 1.9-.676-.146-.81 1.03-.995 1.82-.133.57 1.615 1.259 1.58 2.084-.036.825-4.124 15.892-2.446 23.352 1.678 7.46 18.206-1.792 17.769-4.091-.848-4.46-7.827-15.973-10.21-19.605"/>
            </g>
            <g>
                <g transform="translate(34.38 75.959)">
                    <mask id="h" fill="#fff">
                        <use xlink:href="#g"/>
                    </mask>
                    <path fill="#FFCFDF" d="M16.237 56.566H7.403l-2.18-36.152h8.833z" mask="url(#h)"/>
                </g>
                <g transform="translate(34.38 75.959)">
                    <mask id="j" fill="#fff">
                        <use xlink:href="#i"/>
                    </mask>
                    <path fill="#FFCFDF" d="M6.515 9.623c-.437-.666-.594-3.57-.344-4.071.292-.584 1.674-.635 1.913-.985.245-.36-1.132-.656-.948-.874.366-.43-1.992.839-2.051 1.462-.06.624-1.1 1.132-1.476 1.05-.677-.146-1.689-.097-1.872.694-.133.569-.3 2.243-.335 3.068-.035.825-4.123 15.892-2.444 23.352 1.677 7.461 18.205-1.791 17.768-4.09-.848-4.46-7.827-15.974-10.21-19.606" mask="url(#j)"/>
                </g>
            </g>
            <g>
                <path stroke="#242E3E" stroke-width=".5" d="M42.808 84.597c-.437-.666 1.82-.691 1.873-1.914a5.442 5.442 0 0 0-.26-1.862c-.185-.553 1.076-1.968-.111-2.077-.633-.059-1.461 2.23-1.847 1.781-.384-.449-1.983-1.883-1.618-2.314.365-.43 1.804-1.424 1.404-1.797-.4-.372-2.45.099-2.771.313-.29.192-.302 2.238-.631 2.27-.329.033-1.164-.484-1.223.14-.06.622-.137 1.982-.513 1.9-.676-.146-.81 1.03-.995 1.82-.133.57 1.615 1.259 1.58 2.084-.036.825-4.124 15.892-2.446 23.352 1.678 7.46 18.206-1.792 17.769-4.091-.848-4.46-7.827-15.973-10.21-19.605z"/>
                <path fill="#FD065F" d="M54.628 98.146c-2.167-.457-9.493.549-14.414 3.254-4.921 2.704-8.63 6.931-8.942 9.436-.312 2.504-.105 7.073 1.652 7.823 1.756.75 11.828-1.577 15.58-3.262 3.753-1.687 10.267-6.497 10.312-7.527.044-1.03-2.92-9.456-4.188-9.724"/>
                <path stroke="#242E3E" stroke-width=".5" d="M54.628 98.146c-2.167-.457-9.493.549-14.414 3.254-4.921 2.704-8.63 6.931-8.942 9.436-.312 2.504-.105 7.073 1.652 7.823 1.756.75 11.828-1.577 15.58-3.262 3.753-1.687 10.267-6.497 10.312-7.527.044-1.03-2.92-9.456-4.188-9.724z"/>
                <path fill="#E3E9F2" d="M158.658 141.688c-5.26.442-15.238 2.322-18.136 2.115-3.208-.228-10.808-2.152-17.253-6.364-6.444-4.21-23.23-5.952-27.606-5.908-4.376.044-19.942 1.858-27.493 4.01-4.292 1.223-12.581-24.39-14.43-28.15-1.974-4.012-16.088 2.986-16.998 6.668-1.592 6.443-3.35 22.966-1.658 30.056C37.94 156.082 57.7 176.24 57.7 176.24c1.125 5.88 1.428 25.81 2.501 30.715 1.074 4.905 24.05 5.985 36.518 4.322 12.467-1.663 16.971-6.313 16.971-6.313.914-4.73.093-25.54.093-25.54s3.274.677 6.28-3.518c2.457 1.283 15.036-.042 20.725-1.708 10.354-3.033 13.677-8.415 18.671-12.345 4.994-3.928 4.46-20.608-.8-20.165"/>
                <path stroke="#242E3E" stroke-width=".5" d="M158.658 141.688c-5.26.442-15.238 2.322-18.136 2.115-3.208-.228-10.808-2.152-17.253-6.364-6.444-4.21-23.23-5.952-27.606-5.908-4.376.044-19.942 1.858-27.493 4.01-4.292 1.223-12.581-24.39-14.43-28.15-1.974-4.012-16.088 2.986-16.998 6.668-1.592 6.443-3.35 22.966-1.658 30.056C37.94 156.082 57.7 176.24 57.7 176.24c1.125 5.88 1.428 25.81 2.501 30.715 1.074 4.905 24.05 5.985 36.518 4.322 12.467-1.663 16.971-6.313 16.971-6.313.914-4.73.093-25.54.093-25.54s3.274.677 6.28-3.518c2.457 1.283 15.036-.042 20.725-1.708 10.354-3.033 13.677-8.415 18.671-12.345 4.994-3.928 4.46-20.608-.8-20.165z"/>
                <path fill="#E3E9F2" d="M131.949 166.312c-2.061-.112-4.319.706-4.44 1.63-.123.923-1.975.854-2.282 2.317-.307 1.463 5.61 1.476 10.226 1.476 9.084 0 19.043-7.822 19.015-9.25-.029-1.429-.818-.828-.985-1.852-.167-1.024.03-1.048-1.782-.86-1.81.186-15.624 6.764-19.752 6.54M107.77 173.39c-2.098.576-1.912 2.245-.218 3.083 1.695.837 6.862 1.536 10.295-1.922 3.434-3.456.413-4.705-1.616-4.243-2.028.463-2.724 2.928-4.701 3.313-1.977.385-1.946-.728-3.76-.23M78.162 177.088c-1.66.52-3.085 2.224-1.798 4.027 1.289 1.803 4.62 2.587 8.183.98 3.564-1.609 7.22-5.933 6.108-7.556-1.11-1.623-4.041.992-6.232 1.965-2.192.974-4.011-.121-6.261.584M56.734 165.709c-4.662 1.456-15.074-17.008-17.232-23.171-2.158-6.164-1.861-25.464.305-27.248.468-.385.948.429 1.429 1.977.48 1.55 1.634.923 2.11 3.477 1.248 6.694 1.78 18.152 2.785 20.174 1.772 3.566 14.826 23.471 10.603 24.79"/>
                <path fill="#F8FAFC" d="M99.058 198.36c-1.385.31-2.477 2.535-2.218 3.716.259 1.182 1.936 2.198 4.066 1.124 2.13-1.074 2.078-2.012 1.663-2.726-.415-.713-1.603-2.54-3.511-2.114M98.893 183.622c-.623.105-1.176-1.07-1.944.952-.637 1.678.853 4.117 2.569 3.843s2.714-1.1 2.295-3.028c-.42-1.928-1.655-1.98-2.92-1.767M99.433 168.014c-.79.203-.684-1.502-1.785-.849-1.1.653-2.184 2.736-1.126 5.135 1.058 2.397 3.481 1.294 4.182-.37.702-1.664-.038-4.232-1.271-3.916M98.097 151.094c-.679.587-.494-1.712-1.872-.166-1.044 1.17-.945 5.69 1.743 5.798 2.18.088 2.935-1.185 2.71-3.298-.224-2.113-1.735-3.066-2.581-2.334"/>
                <path fill="#FD065F" d="M100.74 195.838c-1.385.31-2.476 2.536-2.218 3.717.259 1.182 1.937 2.198 4.066 1.124 2.13-1.074 2.078-2.013 1.663-2.726-.415-.714-1.603-2.541-3.51-2.115"/>
                <path stroke="#242E3E" stroke-width=".5" d="M100.74 195.838c-1.385.31-2.476 2.536-2.218 3.717.259 1.182 1.937 2.198 4.066 1.124 2.13-1.074 2.078-2.013 1.663-2.726-.415-.714-1.603-2.541-3.51-2.115z"/>
                <path fill="#FD065F" d="M100.575 181.1c-.623.105-1.175-1.069-1.943.953-.638 1.678.852 4.117 2.568 3.842 1.716-.274 2.714-1.1 2.295-3.028-.42-1.927-1.654-1.98-2.92-1.767"/>
                <path stroke="#242E3E" stroke-width=".5" d="M100.575 181.1c-.623.105-1.175-1.069-1.943.953-.638 1.678.852 4.117 2.568 3.842 1.716-.274 2.714-1.1 2.295-3.028-.42-1.927-1.654-1.98-2.92-1.767z"/>
                <path fill="#FD065F" d="M101.115 165.493c-.79.202-.684-1.503-1.785-.85-1.1.654-2.184 2.737-1.126 5.135 1.059 2.398 3.482 1.295 4.183-.37.701-1.663-.039-4.232-1.272-3.915"/>
                <path stroke="#242E3E" stroke-width=".5" d="M101.115 165.493c-.79.202-.684-1.503-1.785-.85-1.1.654-2.184 2.737-1.126 5.135 1.059 2.398 3.482 1.295 4.183-.37.701-1.663-.039-4.232-1.272-3.915z"/>
                <path fill="#FD065F" d="M99.779 148.573c-.679.587-.493-1.713-1.872-.166-1.044 1.17-.945 5.69 1.743 5.798 2.18.087 2.935-1.185 2.71-3.298-.224-2.113-1.735-3.066-2.581-2.334"/>
                <path stroke="#242E3E" stroke-width=".5" d="M99.779 148.573c-.679.587-.493-1.713-1.872-.166-1.044 1.17-.945 5.69 1.743 5.798 2.18.087 2.935-1.185 2.71-3.298-.224-2.113-1.735-3.066-2.581-2.334z"/>
                <path stroke="#242E3E" stroke-linecap="round" stroke-linejoin="round" stroke-width=".5" d="M120.757 140.918s.538 1.324-.03 8.392c-.567 7.07-2.371 8.048-.77 12.728 1.602 4.681 2.653 9.946.493 13.302-3.106 4.823-6.668 4.084-6.668 4.084M67.533 139.294s6.096 6.277-.817 20.897"/>
                <path fill="#FD065F" d="M155.366 165.122c-2.15-1.591-3.359-9.5-3.47-15.998-.11-6.499 2.477-10.452 4.932-11.76 2.455-1.306 6.79-1.634 7.555-.622.757 1.002 1.796 6.362 1.86 11.733.062 5.37-1.91 14.476-3.11 15.191-1.2.715-6.665 2.273-7.767 1.456"/>
                <path stroke="#242E3E" stroke-width=".5" d="M155.366 165.122c-2.15-1.591-3.359-9.5-3.47-15.998-.11-6.499 2.477-10.452 4.932-11.76 2.455-1.306 6.79-1.634 7.555-.622.757 1.002 1.796 6.362 1.86 11.733.062 5.37-1.91 14.476-3.11 15.191-1.2.715-6.665 2.273-7.767 1.456z"/>
                <path fill="#FBFCFE" d="M160.416 142.648c.68-1.988 3.399-2.467 6.295-3.199 2.897-.732 7.125-1.127 7.603-1.568.477-.44.657-2.761 1.12-2.877.46-.117 1.922-.261 1.976.079.054.34-.104.715.563.522.668-.193 3.23-1.384 3.298-.958.067.426-1.169 1.995-1.11 2.367.06.373.428 1.318.078 1.591-.35.274-1.444.534-1.482.845-.037.312.31 1.13-.104 1.544-.415.415-1.576.25-2.168.648-.591.4-5.495 8.024-7.709 10.86-2.213 2.838-5.325 5.511-7.04 5.434-1.716-.078-2.641-11.426-1.32-15.288"/>
            </g>
            <g transform="translate(159.643 134.105)">
                <mask id="l" fill="#fff">
                    <use xlink:href="#k"/>
                </mask>
                <path fill="#FFCFDF" d="M.773 10.515c.68-1.989 3.399-2.468 6.295-3.2 2.897-.732 7.125-1.127 7.602-1.567.478-.44.658-2.762 1.12-2.878.462-.117 1.923-.26 1.977.08.054.34-.105.714.563.521.668-.193 3.23-1.384 3.298-.958.067.426-1.169 1.995-1.11 2.367.06.373.427 1.318.078 1.592-.35.273-1.444.533-1.482.845-.038.311.31 1.129-.104 1.543-.415.415-1.576.25-2.168.648-.591.4-5.495 8.024-7.709 10.861-2.213 2.837-5.325 5.51-7.04 5.433C.376 25.724-.55 14.376.772 10.515" mask="url(#l)"/>
            </g>
            <g>
                <path stroke="#242E3E" stroke-width=".5" d="M160.416 142.648c.68-1.988 3.399-2.467 6.295-3.199 2.897-.732 7.125-1.127 7.603-1.568.477-.44.657-2.761 1.12-2.877.46-.117 1.922-.261 1.976.079.054.34-.104.715.563.522.668-.193 3.23-1.384 3.298-.958.067.426-1.169 1.995-1.11 2.367.06.373.428 1.318.078 1.591-.35.274-1.444.534-1.482.845-.037.312.31 1.13-.104 1.544-.415.415-1.576.25-2.168.648-.591.4-5.495 8.024-7.709 10.86-2.213 2.838-5.325 5.511-7.04 5.434-1.716-.078-2.641-11.426-1.32-15.288z"/>
                <path fill="#FD065F" d="M96.362 137.194c-1.547.017-.374 9.039-6.643 9.285-8.262.323-8-20.642 5.768-20.734 9.774-.065 15.79 17.59 10.224 18.927-3.879.933-6.834-7.506-9.349-7.478"/>
                <path stroke="#242E3E" stroke-width=".5" d="M96.362 137.194c-1.547.017-.374 9.039-6.643 9.285-8.262.323-8-20.642 5.768-20.734 9.774-.065 15.79 17.59 10.224 18.927-3.879.933-6.834-7.506-9.349-7.478z"/>
                <path fill="#FBFCFE" d="M98.295 110.497a4.15 4.15 0 0 0-.105-.536c-.504-2.484-1.202-4.816-1.662-5.31-.351-.379-.844 2.698-1.565 4.658-.605 1.647-1.506 2.281-1.536 3.042-.08 2.064-1.094 3.933-1.7.477-.237-1.356-2.734-.88-2.687.931.048 1.812 1.932 1.93 2.327 2.76.395.832 1.45 2.966 1.41 5.023-.04 2.056-.52 4.883-.707 6.336-.187 1.452.483 5.243 1.407 8.04.885 2.68 2.928 5.436 3.917 5 2.14-.944.335-7.609-.398-12.079-.732-4.47-1.297-9.215-.72-9.256.576-.041 1.829.397 2.09-.456.21-.692.504-1.834.476-3.805.491.048 1.177-.096 1.087-.268-.693-1.328-1.46-3.407-1.634-4.557"/>
            </g>
            <g transform="translate(88.628 104.539)">
                <mask id="n" fill="#fff">
                    <use xlink:href="#m"/>
                </mask>
                <path fill="#FFCFDF" d="M7.968 6.341c-.054-.27-.076-.443-.105-.535C7.359 3.32 6.557 1.479 6.098.984c-.351-.378-.844 2.698-1.565 4.659-.606 1.647.066 2.29.037 3.049-.08 2.065-1.148 2.762-1.754-.694-.237-1.356-4.253.284-4.206 2.095.048 1.812 1.932 1.929 2.327 2.76.395.832 1.45 2.966 1.41 5.022-.04 2.057-.52 4.883-.707 6.336-.187 1.453.483 5.244 1.407 8.04.884 2.68 2.928 5.437 3.916 5.001 2.142-.945.336-7.609-.397-12.08-.732-4.47-1.452-7.717-.875-7.758.576-.04 2.256-1.164 2.517-2.018.211-.692.517-5.282-.24-9.055" mask="url(#n)"/>
            </g>
            <g>
                <path stroke="#242E3E" stroke-width=".5" d="M98.295 110.497a4.15 4.15 0 0 0-.105-.536c-.504-2.484-1.202-4.816-1.662-5.31-.351-.379-.844 2.698-1.565 4.658-.605 1.647-1.506 2.281-1.536 3.042-.08 2.064-1.094 3.933-1.7.477-.237-1.356-2.734-.88-2.687.931.048 1.812 1.932 1.93 2.327 2.76.395.832 1.45 2.966 1.41 5.023-.04 2.056-.52 4.883-.707 6.336-.187 1.452.483 5.243 1.407 8.04.885 2.68 2.928 5.436 3.917 5 2.14-.944.335-7.609-.398-12.079-.732-4.47-1.297-9.215-.72-9.256.576-.041 1.829.397 2.09-.456.21-.692.504-1.834.476-3.805.491.048 1.177-.096 1.087-.268-.693-1.328-1.46-3.407-1.634-4.557z"/>
                <path fill="#FD065F" d="M170.81 174.767c3.26-7.846 4.88-11.571 5.533-32.118 0 0-.077-.4.289-.781.256-.267.615-.271.615-.271l.054-7.18-.958-.088v-1.083c-.652-20.547-2.273-26.002-5.533-33.846-3.26-7.846-14.507-14.57-17.114-18.12-2.608-3.549-1.468-10.647-1.468-10.647h1.63c-.814 13.823 11.115 13.571 19.14 25.494 8.027 11.923 7.055 37.091 7.055 37.091l.01 1.111h-.855l-.089 7.137.9.016.034 1.195s.972 23.439-7.055 35.362c-8.025 11.923-19.954 11.671-19.14 25.494h-1.63s-1.14-7.099 1.468-10.648c2.607-3.548 13.854-10.273 17.114-18.118"/>
                <path stroke="#242E3E" stroke-width=".5" d="M170.81 174.767c3.26-7.846 4.88-11.571 5.533-32.118 0 0-.077-.4.289-.781.256-.267.615-.271.615-.271l.054-7.18-.958-.088v-1.083c-.652-20.547-2.273-26.002-5.533-33.846-3.26-7.846-14.507-14.57-17.114-18.12-2.608-3.549-1.468-10.647-1.468-10.647h1.63c-.814 13.823 11.115 13.571 19.14 25.494 8.027 11.923 7.055 37.091 7.055 37.091l.01 1.111h-.855l-.089 7.137.9.016.034 1.195s.972 23.439-7.055 35.362c-8.025 11.923-19.954 11.671-19.14 25.494h-1.63s-1.14-7.099 1.468-10.648c2.607-3.548 13.854-10.273 17.114-18.118z"/>
                <path stroke="#394354" stroke-linecap="round" stroke-linejoin="round" stroke-width=".986" d="M153.672 200.203h-7.283c-4.983 0-9.024-4.038-9.024-9.017 0-4.98 4.04-9.018 9.024-9.018h2.65c4.983 0 9.024-4.037 9.024-9.017 0-4.98-4.04-9.017-9.025-9.017h-2.649c-4.983 0-9.024-4.037-9.024-9.017 0-4.98 4.04-9.017 9.024-9.017h2.65c4.983 0 9.024-4.037 9.024-9.017 0-4.98-4.04-9.017-9.025-9.017h-2.649c-4.983 0-9.024-4.037-9.024-9.017 0-4.98 4.04-9.017 9.024-9.017h2.65c4.983 0 9.024-4.038 9.024-9.017 0-4.98-4.04-9.018-9.025-9.018h-2.649c-4.983 0-9.024-4.037-9.024-9.017 0-4.98 4.04-9.017 9.024-9.017h6.245"/>
                <path fill="#FBFCFE" d="M180.435 134.663c-1.46.351-2.557 1.031-2.557 1.409 0 .377 1.114.456 1.114.774s-1.152.33-1.149.91c.004.523 1.077.52 1.109.839.06.603-1.034.328-1.078.994-.034.514 1.242 1.184 1.573.794.643-.755-.816-1.062.245-1.43 1.95-.676 1.282-1.526.613-2.015-.626-.456 2.266-2.789.13-2.275"/>
                <path stroke="#242E3E" stroke-width=".5" d="M180.435 134.663c-1.46.351-2.557 1.031-2.557 1.409 0 .377 1.114.456 1.114.774s-1.152.33-1.149.91c.004.523 1.077.52 1.109.839.06.603-1.034.328-1.078.994-.034.514 1.242 1.184 1.573.794.643-.755-.816-1.062.245-1.43 1.95-.676 1.282-1.526.613-2.015-.626-.456 2.266-2.789.13-2.275z"/>
                <path fill="#FBFCFE" d="M175.285 135.126c.533-.719 2.112-1.125 2.411-1.781.299-.657 1.284-1.105.836.328-.448 1.432-.866 1.044-1.164 1.73-.3.687-.328 1.462-.328 1.462"/>
                <path stroke="#242E3E" stroke-linecap="round" stroke-linejoin="round" stroke-width=".5" d="M175.285 135.126c.533-.719 2.112-1.125 2.411-1.781.299-.657 1.284-1.105.836.328-.448 1.432-.866 1.044-1.164 1.73-.3.687-.328 1.462-.328 1.462"/>
            </g>
        </g>
    </g>
</svg>
