<svg xmlns="http://www.w3.org/2000/svg" width="40" height="40" viewBox="0 0 40 40">
    <defs>
        <linearGradient id="a" x1="4.053%" x2="74.25%" y1="-6.631%" y2="72.696%">
            <stop offset="0%" stop-color="#CDD7E8"/>
            <stop offset="100%" stop-color="#FFF"/>
        </linearGradient>
        <linearGradient id="b" x1="4.053%" x2="74.25%" y1="7.582%" y2="67%">
            <stop offset="0%" stop-color="#CDD7E8"/>
            <stop offset="100%" stop-color="#FFF"/>
        </linearGradient>
        <linearGradient id="c" x1="4.053%" x2="74.25%" y1="33.175%" y2="56.743%">
            <stop offset="0%" stop-color="#CDD7E8"/>
            <stop offset="100%" stop-color="#FFF"/>
        </linearGradient>
    </defs>
    <g fill="none" fill-rule="evenodd">
        <circle cx="20" cy="20" r="20" fill="#7F8CA8"/>
        <path fill="url(#a)" d="M26.825 13.25C25.54 11.158 23.51 8.8 20.262 8.8c-5.889 0-15.05 13.451-9.995 18.31 3.294 3.165 6.545.838 9.386-.485 3.147-1.465 6.308 3.617 9.842 1.676 2.645-1.452 1.865-5.564-.4-7.709-2.361-2.235-5.53-.36-8.453 1.34-3.197 1.863-6.103.677-6.243-1.861-.153-2.756 3.73-6.232 7.843-4.246 3.91 1.889 6.269.177 4.583-2.574"/>
        <path fill="url(#b)" d="M26.825 13.25c-5.345-7.853-12.756.39-12.426 6.82-.153-2.755 3.73-6.231 7.843-4.245 3.91 1.889 6.269.177 4.583-2.574"/>
        <path fill="url(#c)" d="M31.15 25.559c-.634-4.868-7.233-1.193-11.497 1.066 3.147-1.465 6.308 3.617 9.842 1.676 1.064-.584 1.574-1.599 1.655-2.742"/>
    </g>
</svg>
