<svg xmlns="http://www.w3.org/2000/svg" width="40" height="40" viewBox="0 0 40 40">
    <defs>
        <linearGradient id="a" x1="4.053%" x2="74.25%" y1="2.98%" y2="68.844%">
            <stop offset="0%" stop-color="#E95A81"/>
            <stop offset="100%" stop-color="#FFF"/>
        </linearGradient>
        <linearGradient id="b" x1="4.053%" x2="74.25%" y1="2.979%" y2="68.844%">
            <stop offset="0%" stop-color="#E95A81"/>
            <stop offset="100%" stop-color="#FFF"/>
        </linearGradient>
        <linearGradient id="c" x1="4.053%" x2="74.25%" y1="42.758%" y2="52.902%">
            <stop offset="0%" stop-color="#E95A81"/>
            <stop offset="100%" stop-color="#FFF"/>
        </linearGradient>
    </defs>
    <g fill="none" fill-rule="evenodd">
        <circle cx="20" cy="20" r="20" fill="#CC0A4D"/>
        <path fill="url(#a)" d="M14.796 20.55c2.303.22 3.717 1.663 3.256 3.58-.161.671-1.133 4.334-1.793 6.813-.146.548.306.992.8.992h.001a.827.827 0 0 0 .514-.18L28.39 22.44c.806-.63.346-1.89-.69-1.89H14.797z"/>
        <path fill="url(#b)" d="M23.181 7.38l-10.816 9.314c-.806.63-.347 1.89.69 1.89h12.904c-2.303-.22-3.718-1.662-3.257-3.579.162-.672 1.134-4.334 1.794-6.813.146-.548-.307-.992-.8-.992a.827.827 0 0 0-.515.18"/>
        <path fill="url(#c)" d="M11.2 18.653v.004c.001 1.065 1 1.938 2.412 1.938h14.001c1.036 0 1.495 1.26.69 1.89 2.363-1.687 1.156-3.975-1.128-3.975H13.174c-1.036 0-1.495-1.26-.69-1.89-.902.644-1.283 1.375-1.284 2.033"/>
    </g>
</svg>
