<svg xmlns="http://www.w3.org/2000/svg" xmlns:xlink="http://www.w3.org/1999/xlink" width="232" height="232" viewBox="0 0 232 232">
    <defs>
        <circle id="a" cx="116" cy="116" r="116"/>
        <path id="c" d="M.134.377H102.21v25.672H.134z"/>
        <path id="e" d="M20.839 20.735c-3.126 5.787-4.037 20.86-5.34 22.61-1.301 1.749-5.208-.942-7.682-.942S.134 52.496.134 54.515c0 2.018 12.838 18.529 18.881 18.975 3.647.27 6.642-4.306 6.642-4.306s8.464 7.401 28.648 6.729c20.184-.673 30.992-12.65 30.992-12.65s.911 3.633 5.079 3.498c4.167-.134 12.682-9.596 14.07-12.595 1.805-3.901 9.967-14.814-8.34-15.397 0 0-5.94-18-8.9-21.441C84.246 13.886 59.74.54 55.459.413l-.061-.001c-4.635 0-31.448 14.562-34.56 20.322"/>
        <path id="g" d="M20.839 20.735c-3.126 5.787-4.037 20.86-5.34 22.61-1.301 1.749-5.208-.942-7.682-.942S.134 52.496.134 54.515c0 2.018 12.838 18.529 18.881 18.975 3.647.27 6.642-4.306 6.642-4.306s8.464 7.401 28.648 6.729c20.184-.673 30.992-12.65 30.992-12.65s.911 3.633 5.079 3.498c4.167-.134 12.682-9.596 14.07-12.595 1.805-3.901 9.967-14.814-8.34-15.397 0 0-5.94-18-8.9-21.441C84.246 13.886 59.74.54 55.459.413l-.061-.001c-4.635 0-31.448 14.562-34.56 20.322"/>
        <path id="i" d="M20.839 20.735c-3.126 5.787-4.037 20.86-5.34 22.61-1.301 1.749-5.208-.942-7.682-.942S.134 52.496.134 54.515c0 2.018 12.838 18.529 18.881 18.975 3.647.27 6.642-4.306 6.642-4.306s8.464 7.401 28.648 6.729c20.184-.673 30.992-12.65 30.992-12.65s.911 3.633 5.079 3.498c4.167-.134 12.682-9.596 14.07-12.595 1.805-3.901 9.967-14.814-8.34-15.397 0 0-5.94-18-8.9-21.441C84.246 13.886 59.74.54 55.459.413l-.061-.001c-4.635 0-31.448 14.562-34.56 20.322"/>
        <path id="k" d="M20.839 20.735c-3.126 5.787-4.037 20.86-5.34 22.61-1.301 1.749-5.208-.942-7.682-.942S.134 52.496.134 54.515c0 2.018 12.838 18.529 18.881 18.975 3.647.27 6.642-4.306 6.642-4.306s8.464 7.401 28.648 6.729c20.184-.673 30.992-12.65 30.992-12.65s.911 3.633 5.079 3.498c4.167-.134 12.682-9.596 14.07-12.595 1.805-3.901 9.967-14.814-8.34-15.397 0 0-5.94-18-8.9-21.441C84.246 13.886 59.74.54 55.459.413l-.061-.001c-4.635 0-31.448 14.562-34.56 20.322"/>
        <path id="m" d="M20.839 20.735c-3.126 5.787-4.037 20.86-5.34 22.61-1.301 1.749-5.208-.942-7.682-.942S.134 52.496.134 54.515c0 2.018 12.838 18.529 18.881 18.975 3.647.27 6.642-4.306 6.642-4.306s8.464 7.401 28.648 6.729c20.184-.673 30.992-12.65 30.992-12.65s.911 3.633 5.079 3.498c4.167-.134 12.682-9.596 14.07-12.595 1.805-3.901 9.967-14.814-8.34-15.397 0 0-5.94-18-8.9-21.441C84.246 13.886 59.74.54 55.459.413l-.061-.001c-4.635 0-31.448 14.562-34.56 20.322"/>
        <path id="o" d="M.45 2.392C.486 4.75 3.523 8.93 5.51 9.317c1.434.28 4.078-.078 4.94-.48.862-.4.76-2.838.556-3.873-.203-1.036-1.885-3.942-3.6-4.5-.612-.2-1.3-.288-2-.288C2.984.176.434 1.236.451 2.392"/>
        <path id="q" d="M6.455.403c-.9 0-5.723 3.876-6.065 5.48-.342 1.604 3.377 6.215 4.865 7.283 1.487 1.07 4.33 2.06 7.23 2.272 2.244.166 3.481.87 4.967 0 1.486-.868 3.172-3.542 2.931-5.212-.24-1.67-6.599-8.954-7.88-9.823-.427-.29-1.141-.386-1.937-.386-1.592 0-3.51.386-4.111.386"/>
        <path id="s" d="M53.507.948C38.938 2.895 8.734 21.381 2.465 25.677c-5.401 3.47-.911 16.552 4.593 17.028 5.504.475 22.049 6.888 25.602 7.618 3.554.73 13.266 1.216 19.662-2.185 6.396-3.4 18.478-15.325 20.847-18.487 2.37-3.162 2.014-10.946.601-12.892-1.412-1.946-2.644-7.765-3.325-10.58C69.881 3.848 68.63.463 59.971.463c-1.81 0-3.945.148-6.464.484"/>
        <path id="u" d="M0 14.51L232.306 55.99a.495.495 0 0 0 .335-.046l93.544-34.73V.183H0V14.51z"/>
        <path id="v" d="M.828 17.152c-2.4 11.506 4.981 22.781 16.489 25.182 11.506 2.4 22.78-4.98 25.181-16.488C44.9 14.339 37.518 3.066 26.01.664A21.372 21.372 0 0 0 21.642.21c-9.867 0-18.718 6.9-20.814 16.94"/>
        <path id="w" d="M.828 17.152c-2.4 11.506 4.981 22.781 16.489 25.182 11.506 2.4 22.78-4.98 25.181-16.488C44.9 14.339 37.518 3.066 26.01.664A21.372 21.372 0 0 0 21.642.21c-9.867 0-18.718 6.9-20.814 16.94"/>
        <path id="y" d="M.828 17.152c-2.4 11.506 4.981 22.781 16.489 25.182 11.506 2.4 22.78-4.98 25.181-16.488C44.9 14.339 37.518 3.066 26.01.664A21.372 21.372 0 0 0 21.642.21c-9.867 0-18.718 6.9-20.814 16.94"/>
        <path id="A" d="M.828 17.152c-2.4 11.506 4.981 22.781 16.489 25.182 11.506 2.4 22.78-4.98 25.181-16.488C44.9 14.339 37.518 3.066 26.01.664A21.372 21.372 0 0 0 21.642.21c-9.867 0-18.718 6.9-20.814 16.94"/>
        <path id="C" d="M.828 17.152c-2.4 11.506 4.981 22.781 16.489 25.182 11.506 2.4 22.78-4.98 25.181-16.488C44.9 14.339 37.518 3.066 26.01.664A21.372 21.372 0 0 0 21.642.21c-9.867 0-18.718 6.9-20.814 16.94"/>
        <path id="D" d="M.828 17.152c-2.4 11.506 4.981 22.781 16.489 25.182 11.506 2.4 22.78-4.98 25.181-16.488C44.9 14.339 37.518 3.066 26.01.664A21.372 21.372 0 0 0 21.642.21c-9.867 0-18.718 6.9-20.814 16.94"/>
        <path id="F" d="M.828 17.152c-2.4 11.506 4.981 22.781 16.489 25.182 11.506 2.4 22.78-4.98 25.181-16.488C44.9 14.339 37.518 3.066 26.01.664A21.372 21.372 0 0 0 21.642.21c-9.867 0-18.718 6.9-20.814 16.94"/>
        <path id="H" d="M.828 17.152c-2.4 11.506 4.981 22.781 16.489 25.182 11.506 2.4 22.78-4.98 25.181-16.488C44.9 14.339 37.518 3.066 26.01.664A21.372 21.372 0 0 0 21.642.21c-9.867 0-18.718 6.9-20.814 16.94"/>
        <path id="J" d="M.828 17.152c-2.4 11.506 4.981 22.781 16.489 25.182 11.506 2.4 22.78-4.98 25.181-16.488C44.9 14.339 37.518 3.066 26.01.664A21.372 21.372 0 0 0 21.642.21c-9.867 0-18.718 6.9-20.814 16.94"/>
        <path id="L" d="M.828 17.152c-2.4 11.506 4.981 22.781 16.489 25.182 11.506 2.4 22.78-4.98 25.181-16.488C44.9 14.339 37.518 3.066 26.01.664A21.372 21.372 0 0 0 21.642.21c-9.867 0-18.718 6.9-20.814 16.94"/>
        <path id="M" d="M.828 17.152c-2.4 11.506 4.981 22.781 16.489 25.182 11.506 2.4 22.78-4.98 25.181-16.488C44.9 14.339 37.518 3.066 26.01.664A21.372 21.372 0 0 0 21.642.21c-9.867 0-18.718 6.9-20.814 16.94"/>
        <path id="O" d="M.828 17.152c-2.4 11.506 4.981 22.781 16.489 25.182 11.506 2.4 22.78-4.98 25.181-16.488C44.9 14.339 37.518 3.066 26.01.664A21.372 21.372 0 0 0 21.642.21c-9.867 0-18.718 6.9-20.814 16.94"/>
    </defs>
    <g fill="none" fill-rule="evenodd">
        <mask id="b" fill="#fff">
            <use xlink:href="#a"/>
        </mask>
        <use fill="#F5F8FC" xlink:href="#a"/>
        <ellipse cx="163.948" cy="202.501" fill="#F5F8FC" stroke="#E3E9F2" mask="url(#b)" rx="198" ry="41.5" transform="rotate(-2 163.948 202.5)"/>
        <g mask="url(#b)">
            <path fill="#FBFCFE" d="M27.499 170.106s-9.345.11-10.888-10.106c0 0 1.022 6.141-10.611 10.106 0 0 8.138 1.848 10.128 10.107 0 0 1.872-7.498 11.37-10.107"/>
            <path fill="#EEF2F8" d="M135.394 82.195s-.205 4.116-4.76 5.073c0 0 2.74-.617 4.177 4.403 0 0 1.037-3.637 4.739-4.738 0 0-3.262-.622-4.156-4.738"/>
            <path fill="#FBFCFE" d="M211.848 109.422s-7.805.091-9.094-8.44c0 0 .854 5.128-8.863 8.44 0 0 6.798 1.543 8.46 8.442 0 0 1.563-6.263 9.497-8.442"/>
            <path fill="#AEB7C9" d="M13.357 151.206s-5.304.061-6.18-5.737c0 0 .58 3.486-6.023 5.737 0 0 4.62 1.048 5.749 5.736 0 0 1.063-4.256 6.454-5.736"/>
            <path fill="#EEF2F8" d="M5.145 101.036s-5.08.06-5.918-5.493c0 0 .555 3.338-5.767 5.493 0 0 4.423 1.004 5.505 5.493 0 0 1.017-4.075 6.18-5.493"/>
            <path fill="#FE89B3" d="M25.415 93.85s.234-4.693 5.425-5.784c0 0-3.124.703-4.76-5.02 0 0-1.183 4.147-5.403 5.402 0 0 3.718.709 4.738 5.401"/>
            <path fill="#EEF2F8" d="M228.697 55.862s.234-4.692 5.425-5.783c0 0-3.124.702-4.76-5.02 0 0-1.183 4.147-5.403 5.401 0 0 3.718.71 4.738 5.402M66.792 83.29s.234-4.692 5.426-5.783c0 0-3.124.703-4.761-5.02 0 0-1.182 4.147-5.402 5.401 0 0 3.718.71 4.737 5.402"/>
            <path fill="#AEB7C9" d="M41.092 87.596s-3.25.038-3.786-3.514c0 0 .355 2.136-3.69 3.514 0 0 2.83.642 3.522 3.514 0 0 .651-2.607 3.954-3.514"/>
            <path fill="#EEF2F8" d="M82.784 102.046s.162-3.25 3.757-4.005c0 0-2.163.487-3.297-3.477 0 0-.818 2.872-3.741 3.741 0 0 2.575.492 3.28 3.741"/>
            <path fill="#AEB7C9" d="M115.28 109.301s.162-3.25 3.757-4.005c0 0-2.163.487-3.297-3.477 0 0-.818 2.872-3.741 3.741 0 0 2.575.492 3.28 3.741"/>
            <path fill="#FE89B3" d="M213.084 95.412s.162-3.25 3.757-4.005c0 0-2.164.487-3.297-3.477 0 0-.818 2.872-3.742 3.741 0 0 2.575.492 3.282 3.741"/>
            <path fill="#AEB7C9" d="M228.802 131.976s.162-3.25 3.758-4.006c0 0-2.163.488-3.297-3.476 0 0-.819 2.872-3.742 3.74 0 0 2.575.492 3.281 3.742"/>
            <path fill="#EEF2F8" d="M62.002 135.648s6.048-.07 7.047 6.541c0 0-.661-3.974 6.867-6.54 0 0-5.267-1.196-6.554-6.541 0 0-1.212 4.852-7.36 6.54M156.56 90.275s-.161 3.25-3.757 4.006c0 0 2.163-.488 3.297 3.476 0 0 .819-2.872 3.742-3.74 0 0-2.575-.492-3.282-3.742M184.545 91.147s-5.394.062-6.285-5.834c0 0 .59 3.544-6.126 5.834 0 0 4.699 1.066 5.847 5.834 0 0 1.081-4.329 6.564-5.834"/>
            <path fill="#AEB7C9" d="M222.106 64.165s-3.115 8.473-9.145 9.167c0 0 7.974 4.23 7.978 9.81 0 0 .632-6.512 10.094-9.954 0 0-9.153-1.581-8.927-9.023"/>
            <path fill="#FBFCFE" d="M44.96 107.41s-8.283.099-9.641-9.104c0 0 .9 5.532-9.413 9.104 0 0 7.21 1.665 8.966 9.106 0 0 1.667-6.756 10.087-9.106"/>
            <path fill="#FE89B3" d="M223.102 143.467s-4.251.05-4.949-4.674c0 0 .463 2.84-4.83 4.674 0 0 3.7.854 4.601 4.674 0 0 .856-3.468 5.178-4.674"/>
            <path fill="#AEB7C9" d="M1.878 77.754s-8.66.103-10.08-9.52c0 0 .94 5.785-9.843 9.52 0 0 7.54 1.74 9.376 9.521 0 0 1.742-7.063 10.547-9.52M194.308 89.536s.189-3.778 4.302-4.657c0 0-2.475.566-3.767-4.042 0 0-.94 3.34-4.284 4.35 0 0 2.945.57 3.749 4.349"/>
            <path fill="#FE89B3" d="M57.74 120.555s.235-4.692 5.343-5.783c0 0-3.074.703-4.68-5.02 0 0-1.166 4.147-5.319 5.401 0 0 3.657.71 4.655 5.402"/>
            <path fill="#EEF2F8" d="M54.247 96.24s.235-4.692 5.344-5.783c0 0-3.074.703-4.68-5.02 0 0-1.166 4.147-5.32 5.401 0 0 3.658.71 4.656 5.402"/>
            <path fill="#AEB7C9" d="M84.846 164.714s.235-4.692 5.343-5.784c0 0-3.074.703-4.678-5.02 0 0-1.167 4.147-5.32 5.402 0 0 3.657.71 4.655 5.402M26.251 75.277s.235-4.693 5.343-5.784c0 0-3.074.703-4.678-5.02 0 0-1.167 4.147-5.32 5.402 0 0 3.656.71 4.655 5.402M32.683 139.953s-3.196.037-3.72-3.514c0 0 .346 2.135-3.634 3.514 0 0 2.783.642 3.461 3.514 0 0 .643-2.608 3.893-3.514"/>
            <path fill="#EEF2F8" d="M43.477 162.369s-4.225.05-4.918-4.645c0 0 .46 2.823-4.802 4.645 0 0 3.679.849 4.574 4.645 0 0 .85-3.446 5.146-4.645"/>
            <path fill="#AEB7C9" d="M100.35 87.092s-3.196.038-3.72-3.514c0 0 .347 2.135-3.634 3.514 0 0 2.783.642 3.461 3.514 0 0 .643-2.607 3.893-3.514"/>
            <path fill="#EEF2F8" d="M125.557 94.898s-3.196.038-3.72-3.514c0 0 .347 2.136-3.634 3.514 0 0 2.784.642 3.461 3.514 0 0 .643-2.607 3.893-3.514M190.41 70.685s-3.197.038-3.721-3.514c0 0 .347 2.135-3.634 3.514 0 0 2.783.643 3.461 3.514 0 0 .643-2.607 3.893-3.514"/>
            <path fill="#FE89B3" d="M117.919 81.94s-3.196.038-3.72-3.514c0 0 .347 2.135-3.634 3.514 0 0 2.783.642 3.461 3.514 0 0 .643-2.607 3.893-3.514"/>
            <path fill="#EEF2F8" d="M60.964 153.117s-3.196.037-3.72-3.515c0 0 .347 2.136-3.633 3.514 0 0 2.782.643 3.46 3.515 0 0 .643-2.608 3.893-3.515"/>
            <path fill="#FE89B3" d="M59.923 167.373s-3.196.038-3.72-3.514c0 0 .347 2.136-3.634 3.514 0 0 2.783.643 3.461 3.514 0 0 .643-2.607 3.893-3.514"/>
            <path fill="#FBFCFE" d="M92.93 111.5s5.95-.07 6.926 6.541c0 0-.647-3.974 6.762-6.54 0 0-5.18-1.196-6.442-6.54 0 0-1.197 4.852-7.246 6.54"/>
            <path fill="#EEF2F8" d="M7.98 107.41s3.015-.035 3.51 3.315c0 0-.328-2.014 3.427-3.315 0 0-2.626-.605-3.265-3.314 0 0-.606 2.459-3.672 3.314"/>
            <path fill="#FBFCFE" d="M222.197 103.048s5.95-.07 6.926 6.541c0 0-.647-3.974 6.761-6.54 0 0-5.18-1.196-6.441-6.541 0 0-1.197 4.852-7.246 6.54"/>
            <path fill="#EEF2F8" d="M218.735 160.939s5.95-.07 6.925 6.54c0 0-.647-3.974 6.762-6.54 0 0-5.18-1.196-6.441-6.54 0 0-1.197 4.852-7.246 6.54"/>
            <g transform="translate(97.478 193.077)">
                <mask id="d" fill="#fff">
                    <use xlink:href="#c"/>
                </mask>
                <path fill="#F8DEE7" d="M102.21 13.212c0 7.09-22.85 12.837-51.038 12.837-28.187 0-51.038-5.747-51.038-12.837C.134 6.123 22.984.377 51.172.377c28.188 0 51.038 5.746 51.038 12.835" mask="url(#d)"/>
            </g>
            <path fill="#A30046" d="M110.576 174.69c2.032 5.322 6.945 17.76 18.902 18.227 14.353.56 21.86-12.506 21.86-12.506l-40.762-5.721z"/>
            <path stroke="#242E3E" stroke-width=".56" d="M110.576 174.69c2.032 5.322 6.945 17.76 18.902 18.227 14.353.56 21.86-12.506 21.86-12.506l-40.762-5.721z"/>
            <path fill="#FFF" d="M153.476 97.312c-4.458-.132-31.518 14.561-34.646 20.36-3.128 5.797-4.04 20.898-5.343 22.651-1.303 1.753-5.213-.944-7.689-.944s-7.688 10.112-7.688 12.135c0 2.022 12.847 18.564 18.896 19.01 3.649.27 6.645-4.314 6.645-4.314s8.471 7.416 28.67 6.742c20.2-.674 31.015-12.674 31.015-12.674s.913 3.64 5.083 3.505c4.17-.134 12.692-9.615 14.08-12.619 1.807-3.908 9.975-14.842-8.346-15.426 0 0-5.944-18.033-8.906-21.481-2.962-3.448-27.485-16.818-31.77-16.945"/>
            <g>
                <g transform="translate(98.4 96.8)">
                    <mask id="f" fill="#fff">
                        <use xlink:href="#e"/>
                    </mask>
                    <path fill="#FFCFDF" d="M55.46 4.284c-4.456-.131-29.584 13.135-32.71 18.922-3.124 5.786-4.036 20.86-5.338 22.609-1.302 1.75-5.21-.942-7.683-.942-2.474 0-7.683 10.093-7.683 12.112 0 2.018 12.838 18.53 18.882 18.976 3.646.269 6.64-4.307 6.64-4.307s8.465 7.402 28.65 6.729c20.183-.673 30.991-12.65 30.991-12.65s.912 3.633 5.079 3.499c4.167-.135 10.75-9.648 12.138-12.647 1.805-3.901 4.178-14.286-5.068-17.65 0 0-7.28-15.696-10.24-19.137C86.158 16.356 59.741 4.41 55.46 4.284" mask="url(#f)"/>
                </g>
                <g transform="translate(98.4 96.8)">
                    <mask id="h" fill="#fff">
                        <use xlink:href="#g"/>
                    </mask>
                    <path stroke="#242E3E" stroke-linecap="round" stroke-linejoin="round" stroke-width=".56" d="M18.8 45.939s6.96 1.992 9.53 8.853" mask="url(#h)"/>
                </g>
                <g transform="translate(98.4 96.8)">
                    <mask id="j" fill="#fff">
                        <use xlink:href="#i"/>
                    </mask>
                    <path stroke="#242E3E" stroke-linecap="round" stroke-linejoin="round" stroke-width=".56" d="M30.329 58.52s2.668-3.842.936-24.524" mask="url(#j)"/>
                </g>
                <g transform="translate(98.4 96.8)">
                    <mask id="l" fill="#fff">
                        <use xlink:href="#k"/>
                    </mask>
                    <path stroke="#242E3E" stroke-linecap="round" stroke-linejoin="round" stroke-width=".56" d="M93.552 40.678s-8.296 3.176-11.359 14.114" mask="url(#l)"/>
                </g>
                <g transform="translate(98.4 96.8)">
                    <mask id="n" fill="#fff">
                        <use xlink:href="#m"/>
                    </mask>
                    <path stroke="#242E3E" stroke-linecap="round" stroke-linejoin="round" stroke-width=".56" d="M81.357 57.95s-3.832-3.271-2.1-23.953" mask="url(#n)"/>
                </g>
            </g>
            <g>
                <path stroke="#242E3E" stroke-width=".56" d="M153.86 97.214c-4.456-.132-31.496 14.534-34.621 20.321-3.126 5.787-4.037 20.86-5.34 22.61-1.301 1.75-5.208-.942-7.682-.942s-7.683 10.093-7.683 12.112c0 2.018 12.838 18.53 18.882 18.975 3.646.27 6.64-4.306 6.64-4.306s8.465 7.402 28.649 6.729 30.992-12.65 30.992-12.65.912 3.633 5.078 3.498c4.168-.134 12.683-9.597 14.07-12.595 1.806-3.901 9.968-14.815-8.34-15.397 0 0-5.939-18-8.899-21.442-2.96-3.441-27.465-16.787-31.747-16.913z"/>
                <path fill="#FFF" d="M153.303 70.506c-2.032-.403-5.135-4.758-5.17-7.214-.023-1.553 4.312-2.938 7.109-2.01 1.752.583 3.472 3.61 3.679 4.689.207 1.078.312 3.618-.569 4.035-.88.418-3.582.79-5.05.5"/>
            </g>
            <g transform="translate(147.2 60.8)">
                <mask id="p" fill="#fff">
                    <use xlink:href="#o"/>
                </mask>
                <path fill="#FFCFDF" d="M7.043 11.215c-1.988-.387-5.024-4.568-5.058-6.926-.022-1.49 4.22-2.82 6.955-1.928 1.715.559 3.397 3.465 3.6 4.5.203 1.035.305 3.473-.556 3.874-.862.401-3.506.759-4.94.48" mask="url(#p)"/>
            </g>
            <g>
                <path stroke="#242E3E" stroke-width=".56" d="M152.65 70.428c-2.02-.4-5.109-4.72-5.144-7.156-.022-1.54 4.291-2.915 7.074-1.993 1.744.578 3.455 3.58 3.661 4.65.207 1.07.31 3.59-.566 4.004-.876.414-3.565.784-5.024.495z"/>
                <path fill="#FFF" d="M154.085 85.043c2.244.164 3.482.862 4.967 0 1.486-.862 3.172-3.513 2.931-5.17-.241-1.658-6.599-8.883-7.88-9.745-1.28-.862-5.147 0-6.048 0-.9 0-5.722 3.845-6.065 5.436-.343 1.59 3.377 6.165 4.865 7.225 1.487 1.06 4.33 2.042 7.23 2.254"/>
            </g>
            <g transform="translate(141.6 69.6)">
                <mask id="r" fill="#fff">
                    <use xlink:href="#q"/>
                </mask>
                <path fill="#FFCFDF" d="M13.902 17.415c2.244.165 4.433.869 5.919 0 1.485-.869 3.172-3.542 2.93-5.212-.24-1.671-7.55-8.955-8.831-9.824-1.28-.869-5.147 0-6.047 0-.901 0-5.723 3.876-6.066 5.48-.342 1.604 3.377 6.214 4.865 7.284 1.487 1.069 4.33 2.058 7.23 2.272" mask="url(#r)"/>
            </g>
            <g>
                <path stroke="#242E3E" stroke-width=".56" d="M154.69 85.039c2.256.165 3.5.868 4.993 0 1.493-.87 3.188-3.542 2.945-5.213-.242-1.67-6.632-8.954-7.92-9.823-1.286-.869-5.172 0-6.077 0-.905 0-5.751 3.876-6.096 5.48-.344 1.603 3.395 6.214 4.89 7.284 1.494 1.069 4.352 2.058 7.265 2.272z"/>
                <path stroke="#242E3E" stroke-width=".56" d="M156.173 104.091c.684-4.15-2.34-16.959-2.053-17.52.288-.562 3.836-1.124 3.654-3.819-.182-2.695-3.349-2.92-3.598-1.797-.25 1.123-.166 2.378-.84 2.378-.675 0-.572-4.463-.368-5.439.204-.977.75-1.883.635-2.58-.115-.698-3.954 1.395-4.76 1.464-.804.07-2.241-1.753-2.315-1.325-.244 1.395-.978 10.033-.342 11.926.422 1.254 2.872.557 2.933 1.463.062.908-1.224 12.833-1.17 14.646.056 1.813 1.865 9.305 3.494 9.444 1.628.14 4.217-5.726 4.73-8.84z"/>
                <path fill="#242E3E" d="M89.926 139.924c-1.53-3.15-2.224-6.34-2.582-8.255-.357-1.916-1.095-5.345-.5-5.245.593.101 1.581 3.317 1.744 2.92.161-.397-.312-3.686.253-3.837.277-.074 1.493 3.725 1.55 3.36.057-.363.458-3.84.85-3.694.392.146.625 3.487.876 3.7.252.215.687-.79 1.038-.996.352-.206 1.85.154 2.654.768.77.589 1.097 2.055.725 2.2-.372.147-1.496-1.272-2.024-1.468-.528-.197-1.325.527-1.504 1.172-.179.644.687 1.896.924 1.956.428.108 1.329.061 1.804-.09.372-.117.446-1.54.811-1.404.366.136 1.307 1.494.97 2.46-.337.965-1.515 1.52-2.383 1.642 0 0 13.48 3.668 14.31 5.179 1.855 3.377-3.642 13.016-7.678 13.464-4.038.449-10.907-11.915-11.838-13.832"/>
                <path stroke="#242E3E" stroke-width=".56" d="M89.926 139.924c-1.53-3.15-2.224-6.34-2.582-8.255-.357-1.916-1.095-5.345-.5-5.245.593.101 1.581 3.317 1.744 2.92.161-.397-.312-3.686.253-3.837.277-.074 1.493 3.725 1.55 3.36.057-.363.458-3.84.85-3.694.392.146.625 3.487.876 3.7.252.215.687-.79 1.038-.996.352-.206 1.85.154 2.654.768.77.589 1.097 2.055.725 2.2-.372.147-1.496-1.272-2.024-1.468-.528-.197-1.325.527-1.504 1.172-.179.644.687 1.896.924 1.956.428.108 1.329.061 1.804-.09.372-.117.446-1.54.811-1.404.366.136 1.307 1.494.97 2.46-.337.965-1.515 1.52-2.383 1.642 0 0 13.48 3.668 14.31 5.179 1.855 3.377-3.642 13.016-7.678 13.464-4.038.449-10.907-11.915-11.838-13.832z"/>
                <path fill="#242E3E" d="M212.104 139.26c1.748-3.026 2.667-6.156 3.159-8.039s1.47-5.248.87-5.192c-.598.056-1.812 3.189-1.945 2.78-.134-.408.571-3.653.018-3.846-.27-.094-1.752 3.602-1.783 3.235-.031-.368-.186-3.865-.587-3.75-.401.116-.87 3.431-1.136 3.625-.266.195-.628-.84-.964-1.072-.336-.232-1.856.013-2.701.565-.81.529-1.24 1.966-.879 2.14.36.174 1.582-1.156 2.122-1.312.541-.156 1.285.626 1.417 1.283.133.656-.818 1.839-1.06 1.88-.434.076-1.33-.039-1.792-.224-.362-.146-.335-1.571-.71-1.463-.374.108-1.409 1.392-1.14 2.38.266.988 1.403 1.63 2.26 1.817 0 0-9.163 1.685-10.501 2.736-4.128 3.239-1.427 14.605 2.567 15.357 3.995.753 11.72-11.06 12.785-12.9"/>
                <path stroke="#242E3E" stroke-width=".56" d="M212.104 139.26c1.748-3.026 2.667-6.156 3.159-8.039s1.47-5.248.87-5.192c-.598.056-1.812 3.189-1.945 2.78-.134-.408.571-3.653.018-3.846-.27-.094-1.752 3.602-1.783 3.235-.031-.368-.186-3.865-.587-3.75-.401.116-.87 3.431-1.136 3.625-.266.195-.628-.84-.964-1.072-.336-.232-1.856.013-2.701.565-.81.529-1.24 1.966-.879 2.14.36.174 1.582-1.156 2.122-1.312.541-.156 1.285.626 1.417 1.283.133.656-.818 1.839-1.06 1.88-.434.076-1.33-.039-1.792-.224-.362-.146-.335-1.571-.71-1.463-.374.108-1.409 1.392-1.14 2.38.266.988 1.403 1.63 2.26 1.817 0 0-9.163 1.685-10.501 2.736-4.128 3.239-1.427 14.605 2.567 15.357 3.995.753 11.72-11.06 12.785-12.9z"/>
                <path fill="#242E3E" d="M114.282 180.007c-1.982.502-7.422.964-9.528.964-2.105 0-7.656-1.846-8.422-.99-.765.858.255 3.561 2.616 3.76 2.36.197 1.669.816.71 1.23-.96.412-1.44.867-1.2 1.693.24.826 4.677 4.213 5.955 4.213 1.28 0 1.682-.496 2.441-.166.76.33 3.292.395 4.635.174 1.591-.26 4.926-1.664 6.445-1.664 1.518 0 3.353.037 5.219-2.166 1.865-2.204 6.595-2.48 9.594-2.48 2.998 0 6.53 1.034 9.127.207 2.599-.826 2.026-16.976-4.33-18.66-2.599-.688-15.125 11.568-17.19 12.394-2.066.827-4.338 1.053-6.072 1.491"/>
                <path stroke="#242E3E" stroke-width=".56" d="M114.282 180.007c-1.982.502-7.422.964-9.528.964-2.105 0-7.656-1.846-8.422-.99-.765.858.255 3.561 2.616 3.76 2.36.197 1.669.816.71 1.23-.96.412-1.44.867-1.2 1.693.24.826 4.677 4.213 5.955 4.213 1.28 0 1.682-.496 2.441-.166.76.33 3.292.395 4.635.174 1.591-.26 4.926-1.664 6.445-1.664 1.518 0 3.353.037 5.219-2.166 1.865-2.204 6.595-2.48 9.594-2.48 2.998 0 6.53 1.034 9.127.207 2.599-.826 2.026-16.976-4.33-18.66-2.599-.688-15.125 11.568-17.19 12.394-2.066.827-4.338 1.053-6.072 1.491z"/>
                <path fill="#CC0A4D" d="M133.657 167.927c6.266-4.32 36.451-22.916 51.011-24.873 14.56-1.957 16.247 2.427 16.928 5.26.68 2.833 1.912 8.686 3.324 10.644 1.41 1.957 1.766 9.786-.602 12.967-2.367 3.18-14.441 15.176-20.834 18.596-6.392 3.42-16.099 2.93-19.65 2.196-3.551-.734-20.085-7.184-25.587-7.662-5.5-.479-9.988-13.638-4.59-17.128"/>
                <path fill="#242E3E" d="M156.173 104.091c.684-4.15-2.34-16.959-2.053-17.52.288-.562 3.836-1.124 3.654-3.819-.182-2.695-3.349-2.92-3.598-1.797-.25 1.123-.166 2.378-.84 2.378-.675 0-.572-4.463-.368-5.439.204-.977.75-1.883.635-2.58-.115-.698-3.954 1.395-4.76 1.464-.804.07-2.241-1.753-2.315-1.325-.244 1.395-.978 10.033-.342 11.926.422 1.254 2.872.557 2.933 1.463.062.908-1.224 12.833-1.17 14.646.056 1.813 1.865 9.305 3.494 9.444 1.628.14 4.217-5.726 4.73-8.84"/>
            </g>
            <g transform="translate(131.2 142.4)">
                <mask id="t" fill="#fff">
                    <use xlink:href="#s"/>
                </mask>
                <path stroke="#242E3E" stroke-linecap="round" stroke-linejoin="round" stroke-width=".56" d="M22.626 37.565s35.638-3.154 39.735-9.95c.977-1.622.864-3.364 1.939-4.294 1.075-.93-.34 3.079.566 3.079.905 0 .678-1.685 1.527-2.382.849-.697-.057 2.091.452 2.208" mask="url(#t)"/>
            </g>
            <g>
                <path stroke="#242E3E" stroke-width=".56" d="M133.409 167.972c6.264-4.313 36.44-22.876 50.996-24.83 14.555-1.953 16.241 2.423 16.922 5.251.68 2.828 1.912 8.671 3.323 10.625 1.41 1.954 1.766 9.77-.601 12.945-2.367 3.175-14.437 15.15-20.828 18.563-6.39 3.414-16.094 2.925-19.644 2.193-3.55-.733-20.08-7.172-25.58-7.65-5.498-.477-9.984-13.613-4.588-17.097"/>
                <path fill="#CC0A4D" d="M154.466 169.518c-6.747-4.516-39.645-22.712-49.23-23.078-9.586-.367-10.77 1.519-12.426 5.827-1.657 4.309-4.616 6.751-4.379 10.903.237 4.153 2.249 8.67 8.166 12.334 5.917 3.664 22.602 11.724 30.295 13.312 7.692 1.587 18.363.39 24.767-1.637s10.429-13.087 2.807-17.66"/>
                <path stroke="#242E3E" stroke-width=".56" d="M154.466 169.518c-6.747-4.516-39.645-22.712-49.23-23.078-9.586-.367-10.77 1.519-12.426 5.827-1.657 4.309-4.616 6.751-4.379 10.903.237 4.153 2.249 8.67 8.166 12.334 5.917 3.664 22.602 11.724 30.295 13.312 7.692 1.587 18.363.39 24.767-1.637s10.429-13.087 2.807-17.66"/>
                <path fill="#242E3E" d="M148.36 188.02c-3.515.574-3.5-5.895-3.534-9.335-.055-5.658 4.054-11.157 5.822-11.157 1.767 0 12.268 8.26 14.659 8.26 2.39 0 6.518-1.797 8.18-3.085 1.664-1.287 1.887-4.565 3.467-4.613 1.58-.048 1.308 2.426 1.308 3.326 0 .9 1.09-.9 1.526.394.436 1.293.98 5.004.436 6.129-.545 1.124-2.997 3.992-4.196 4.386-1.199.393-4.587 1.35-5.405 1.687-.817.337-3.766 1.577-4.756 1.42-1.51-.24-1.674-1.195-3.853-1.195-2.18 0-10.305 3.235-13.653 3.782"/>
                <path stroke="#242E3E" stroke-width=".56" d="M148.36 188.02c-3.515.574-3.5-5.895-3.534-9.335-.055-5.658 4.054-11.157 5.822-11.157 1.767 0 12.268 8.26 14.659 8.26 2.39 0 6.518-1.797 8.18-3.085 1.664-1.287 1.887-4.565 3.467-4.613 1.58-.048 1.308 2.426 1.308 3.326 0 .9 1.09-.9 1.526.394.436 1.293.98 5.004.436 6.129-.545 1.124-2.997 3.992-4.196 4.386-1.199.393-4.587 1.35-5.405 1.687-.817.337-3.766 1.577-4.756 1.42-1.51-.24-1.674-1.195-3.853-1.195-2.18 0-10.305 3.235-13.653 3.782z"/>
                <g transform="translate(-83.86 22.564)">
                    <use fill="#E6EBF1" xlink:href="#u"/>
                </g>
            </g>
            <g>
                <path fill="#F5F8FC" d="M148.981 77.77l81.825-55.822H19.691l128.78 55.914a.497.497 0 0 0 .51-.093"/>
                <path stroke="#242E3E" stroke-width=".56" d="M153.134 69.877c-2.034-.403-5.14-4.765-5.176-7.225-.022-1.554 4.318-2.942 7.117-2.011 1.754.583 3.476 3.614 3.683 4.694.208 1.08.312 3.624-.569 4.042-.882.418-3.587.792-5.055.5z"/>
                <path fill="#FFF" stroke="#242E3E" stroke-width=".56" d="M154.576 84.632c2.258.165 3.504.87 4.998 0 1.495-.87 3.191-3.547 2.949-5.22-.243-1.673-6.64-8.968-7.928-9.838-1.289-.87-5.178 0-6.084 0-.906 0-5.758 3.882-6.102 5.488-.345 1.606 3.398 6.224 4.894 7.295 1.496 1.07 4.357 2.061 7.273 2.275z"/>
                <path fill="#242E3E" d="M156.173 104.036c.684-4.176-2.34-17.065-2.053-17.63.288-.566 3.836-1.13 3.654-3.843-.182-2.713-3.349-2.939-3.598-1.809-.25 1.13-.166 2.394-.84 2.394-.675 0-.572-4.492-.368-5.474.204-.982.75-1.895.635-2.597-.115-.701-3.954 1.404-4.76 1.474-.804.07-2.241-1.764-2.315-1.333-.244 1.404-.978 10.096-.342 12 .422 1.263 2.872.561 2.933 1.473.062.913-1.224 12.913-1.17 14.737.056 1.825 1.865 9.364 3.494 9.504 1.628.14 4.217-5.762 4.73-8.896"/>
                <path stroke="#242E3E" stroke-width=".56" d="M156.061 103.713c.685-4.156-2.344-16.984-2.055-17.547.288-.562 3.84-1.125 3.657-3.824-.182-2.7-3.352-2.924-3.602-1.8-.25 1.125-.166 2.382-.84 2.382-.676 0-.573-4.47-.369-5.447.204-.978.75-1.886.636-2.585-.115-.698-3.958 1.397-4.764 1.467-.806.07-2.244-1.756-2.319-1.327-.243 1.397-.979 10.048-.341 11.943.422 1.257 2.874.559 2.936 1.466.061.909-1.226 12.851-1.171 14.667.055 1.816 1.866 9.319 3.496 9.459 1.63.14 4.222-5.735 4.736-8.854z"/>
                <path stroke="#FD065F" stroke-width="1.68" d="M6.993 142.587c-17.462-4.15-29.927-10.237-28.905-14.896 1.022-4.659 22.763-1.064 33.218 1.878 10.454 2.943 22.673 7.548 24.969 11.9 2.296 4.351-17.72 3.865-29.282 1.118z"/>
                <path fill="#FFCFDF" d="M-13.597 130.532c-2.409 11.604 4.998 22.974 16.544 25.395 11.545 2.42 22.858-5.023 25.267-16.627 2.41-11.604-4.998-22.974-16.544-25.395-11.546-2.421-22.858 5.023-25.267 16.627"/>
            </g>
            <g>
                <g transform="translate(-14.4 113.6)">
                    <mask id="x" fill="#fff">
                        <use xlink:href="#w"/>
                    </mask>
                    <path fill="#FE89B3" d="M10.865 15.95c.205-2.03 1.23-5.572 3.506-5.567 2.274.006 3.953-.763 5.397 3.143.832 2.25-.862 8.773-3.409 8.712-2.547-.06-6.112-.136-5.494-6.288" mask="url(#x)"/>
                </g>
                <g transform="translate(-14.4 113.6)">
                    <mask id="z" fill="#fff">
                        <use xlink:href="#y"/>
                    </mask>
                    <path fill="#FE89B3" d="M43.992 15.293c1.615 1.247 4.078 3.992 2.87 5.919-1.208 1.928-1.443 3.759-5.522 2.918-2.35-.483-6.99-5.372-5.59-7.5 1.398-2.13 3.348-5.116 8.242-1.337" mask="url(#z)"/>
                </g>
                <g transform="translate(-14.4 113.6)">
                    <mask id="B" fill="#fff">
                        <use xlink:href="#A"/>
                    </mask>
                    <path fill="#FE89B3" d="M33.473 12.913c-2.253-.567-3.713-3.935-3.232-6.24.48-2.306-.076-7.427 3.673-6.74 3.75.685 4.514 3.94 4.845 6.503.331 2.564-1.16 7.514-5.286 6.477" mask="url(#B)"/>
                </g>
                <g transform="translate(-14.4 113.6)">
                    <mask id="E" fill="#fff">
                        <use xlink:href="#D"/>
                    </mask>
                    <path fill="#FE89B3" d="M14.621 36.023c-2.837-.388-5.126-3.605-4.885-5.92.24-2.314-1.21-7.332 3.471-6.94 4.68.394 6.103 3.55 6.893 6.059.79 2.508-.286 7.512-5.479 6.8" mask="url(#E)"/>
                </g>
                <g transform="translate(-14.4 113.6)">
                    <mask id="G" fill="#fff">
                        <use xlink:href="#F"/>
                    </mask>
                    <path fill="#FE89B3" d="M23.166 10.755c-1.967-.319-3.387-1.43-4.513-2.044-1.125-.615-2.562-4.702-1.332-10.413 1.23-5.71 8.776-2.21 9.786.79 1.01 3.003 2.134 5.451.623 8.312-1.51 2.86-2.971 3.614-4.564 3.355" mask="url(#G)"/>
                </g>
                <g transform="translate(-14.4 113.6)">
                    <mask id="I" fill="#fff">
                        <use xlink:href="#H"/>
                    </mask>
                    <path fill="#FE89B3" d="M17.749 49.592c-1.784.889-3.585.816-4.858.973-1.273.158-4.825-2.322-7.16-7.677-2.334-5.355 5.837-6.918 8.409-5.07 2.572 1.849 4.914 3.18 5.357 6.385.442 3.205-.304 4.67-1.748 5.389" mask="url(#I)"/>
                </g>
                <g transform="translate(-14.4 113.6)">
                    <mask id="K" fill="#fff">
                        <use xlink:href="#J"/>
                    </mask>
                    <path fill="#FE89B3" d="M27.367 48.157c-1.97-.67-3.304-1.91-4.389-2.665-1.084-.754-2.14-4.551-.32-9.202 1.819-4.65 9.15-.124 9.88 2.655.729 2.78 1.63 5.107-.192 7.256-1.822 2.15-3.384 2.5-4.979 1.956" mask="url(#K)"/>
                </g>
                <g transform="translate(-14.4 113.6)">
                    <mask id="N" fill="#fff">
                        <use xlink:href="#M"/>
                    </mask>
                    <path fill="#FE89B3" d="M34.313 27.997c1.685-1.064 3.484-1.175 4.735-1.46 1.25-.287 5.035 1.821 7.9 6.912 2.864 5.09-5.106 7.473-7.852 5.895-2.746-1.578-5.21-2.665-5.976-5.809-.765-3.143-.17-4.676 1.193-5.538" mask="url(#N)"/>
                </g>
                <g transform="translate(-14.4 113.6)">
                    <mask id="P" fill="#fff">
                        <use xlink:href="#O"/>
                    </mask>
                    <path fill="#FE89B3" d="M23.534 17.705c1.075-1.95 3.125-3.769 5.413-2.89 2.288.879 2.717 1.304 3.196 2.91.478 1.607 1.077 1.8.302 3.737-.776 1.937-.603 2.663-1.807 3.887-1.204 1.223-4.194 2.948-6.36 1.331-2.166-1.616-3.063-4.77-.744-8.975" mask="url(#P)"/>
                </g>
            </g>
            <g stroke="#FD065F">
                <path stroke-width=".56" d="M-13.61 130.752c-2.406 11.507 4.99 22.781 16.518 25.182 11.529 2.4 22.824-4.98 25.23-16.488 2.405-11.507-4.99-22.781-16.52-25.182-11.528-2.401-22.823 4.98-25.228 16.488z"/>
                <path stroke-width="1.68" d="M36.186 141.597c2.293 4.315-17.692 3.833-29.238 1.108-17.434-4.114-29.881-10.15-28.86-14.77"/>
            </g>
        </g>
    </g>
</svg>
