<svg xmlns="http://www.w3.org/2000/svg" width="40" height="40" viewBox="0 0 40 40">
    <defs>
        <linearGradient id="a" x1="4.053%" x2="74.25%" y1="24.678%" y2="60.148%">
            <stop offset="0%" stop-color="#CDD7E8"/>
            <stop offset="100%" stop-color="#FFF"/>
        </linearGradient>
        <linearGradient id="b" x1="4.053%" x2="74.25%" y1="19.805%" y2="62.101%">
            <stop offset="0%" stop-color="#CDD7E8"/>
            <stop offset="100%" stop-color="#FFF"/>
        </linearGradient>
        <linearGradient id="c" x1="21.546%" x2="65.017%" y1="-21.159%" y2="78.518%">
            <stop offset="0%" stop-color="#CDD7E8"/>
            <stop offset="100%" stop-color="#FFF"/>
        </linearGradient>
        <linearGradient id="d" x1="18.13%" x2="66.82%" y1="-21.159%" y2="78.518%">
            <stop offset="0%" stop-color="#CDD7E8"/>
            <stop offset="100%" stop-color="#FFF"/>
        </linearGradient>
        <linearGradient id="e" x1="20.696%" x2="65.466%" y1="-21.159%" y2="78.518%">
            <stop offset="0%" stop-color="#CDD7E8"/>
            <stop offset="100%" stop-color="#FFF"/>
        </linearGradient>
    </defs>
    <g fill="none" fill-rule="evenodd">
        <circle cx="20" cy="20" r="20" fill="#7F8CA8"/>
        <path fill="url(#a)" d="M26.579 13.78c3.794-.176 6.993 2.866 6.993 6.672 0 3.682-3.007 6.677-6.702 6.677H10.672c-2.781 0-5.044-2.254-5.044-5.024 0-2.446 1.763-4.489 4.09-4.934.714-1.94 2.591-3.337 4.768-3.337 2.732-4.417 9.259-4.562 12.093-.055zm-9.995 3.723c-2.591-1.074-4.592 1.444-4.541 3.074h-1.371c-.846 0-1.534.686-1.534 1.528s.688 1.527 1.534 1.527H26.87a3.19 3.19 0 0 0 3.192-3.18 3.186 3.186 0 0 0-3.182-3.182c-.543 0-1.561.127-2.387.42-.356-4.548-7.095-5.247-7.909-.187z"/>
        <path fill="url(#b)" d="M24.493 17.69c-.356-4.548-7.095-5.247-7.909-.187 0-6.809 7.161-8.231 9.995-3.724l-2.086 3.91"/>
        <path fill="url(#c)" d="M16.584 17.503c-2.591-1.074-4.592 1.444-4.541 3.074-1.982-3.378.266-6.743 2.443-6.743l2.098 3.67"/>
        <path fill="url(#d)" d="M26.87 23.632a3.19 3.19 0 0 0 3.192-3.18 3.186 3.186 0 0 0-3.182-3.182c-.543 0-1.561.127-2.387.42 3.424-2.997 9.079-1.044 9.079 2.762 0 3.682-3.007 6.677-6.702 6.677v-3.497"/>
        <path fill="url(#e)" d="M10.671 23.632c-5.349 0-4.436-5.769-.954-6.461l2.326 3.406h-1.371c-.846 0-1.534.686-1.534 1.528s.688 1.527 1.534 1.527"/>
    </g>
</svg>
