<svg xmlns="http://www.w3.org/2000/svg"
     xmlns:xlink="http://www.w3.org/1999/xlink" width="91" height="33"
     viewBox="0 0 91 33">
  <defs>
    <path id="a"
          d="M.674 2.536a5.163 5.163 0 0 0 0 5.101l12.973 22.827C14.546 32.06 16.175 33 18 33c1.825 0 3.454-.94 4.353-2.536L35.326 7.637a5.163 5.163 0 0 0 0-5.1C34.427.94 32.8 0 30.973 0H5.027C3.2 0 1.573.94.674 2.536z"/>
  </defs>
  <g fill="none" fill-rule="evenodd">
    <g>
      <mask id="b" fill="#fff">
        <use xlink:href="#a"/>
      </mask>
      <use fill="#A30046" xlink:href="#a"/>
      <g fill="#CC0A4D" mask="url(#b)">
        <path d="M0 0h36v33H0z"/>
      </g>
      <path fill="#FFF"
            d="M21.45 19.031h-7.025l12.6-8.577L30 5H6l3.85 7.069 4.725-3.204h7l-9.825 6.672L18 27l4.9-8.975z"
            mask="url(#b)"/>
    </g>
    <path fill="#012535"
          d="M64.219 9c3.697 0 6.769 2.611 7.448 6.066l.043.242-2.54.74v-.004l-6.453 1.882-.653-2.184 6.364-1.855a4.98 4.98 0 0 0-4.21-2.299c-2.747 0-4.974 2.199-4.974 4.912 0 2.712 2.227 4.911 4.975 4.911 1.85 0 3.462-1 4.319-2.48l.107-.196 3.04-.887C71.041 21.346 67.947 24 64.22 24c-4.195 0-7.596-3.358-7.596-7.5 0-4.142 3.4-7.5 7.596-7.5zm16.184 0C84.6 9 88 12.358 88 16.5c0 4.142-3.401 7.5-7.597 7.5-4.195 0-7.596-3.358-7.596-7.5 0-4.142 3.401-7.5 7.596-7.5zm-24.469.63l-7.59 10.987h7.59v2.754H43l7.751-10.988h-6.973V9.63h12.156zm24.47 1.958c-2.748 0-4.975 2.199-4.975 4.912 0 2.712 2.227 4.911 4.974 4.911 2.748 0 4.975-2.199 4.975-4.911 0-2.713-2.227-4.912-4.975-4.912z"/>
  </g>
</svg>
